<?xml version="1.0" standalone="no"?>
<!DOCTYPE svg PUBLIC "-//W3C//DTD SVG 20010904//EN"
 "http://www.w3.org/TR/2001/REC-SVG-20010904/DTD/svg10.dtd">
<svg version="1.0" xmlns="http://www.w3.org/2000/svg"
 width="194.000000pt" height="259.000000pt" viewBox="0 0 194.000000 259.000000"
 preserveAspectRatio="xMidYMid meet">

<g transform="translate(0.000000,259.000000) scale(0.100000,-0.100000)"
fill="#000000" stroke="none">
<path d="M2 2308 c0 -156 2 -275 5 -265 4 17 33 25 33 9 0 -5 17 -17 37 -28
54 -27 68 -43 54 -57 -8 -8 -11 -7 -11 4 -1 18 -85 60 -105 53 -22 -9 -18
-431 4 -426 11 2 12 0 4 -10 -9 -11 9 -12 98 -10 l109 4 0 -31 c0 -32 0 -33
-67 -36 -18 0 -35 -4 -39 -8 -4 -4 -26 -7 -48 -7 -30 0 -37 3 -26 10 13 8 13
10 -1 10 -9 0 -19 9 -22 20 -3 11 -10 20 -15 20 -7 0 -11 -77 -12 -221 l-1
-220 114 7 c113 6 149 0 169 -30 11 -16 10 -38 -2 -31 -6 4 -7 11 -4 17 5 8 1
9 -12 4 -10 -5 -23 -8 -29 -7 -48 4 -83 4 -98 -2 -9 -3 -17 -2 -17 4 0 6 -7 6
-19 -1 -25 -13 -52 -14 -31 0 19 12 13 17 -32 25 -36 7 -55 -7 -25 -18 10 -4
10 -6 0 -6 -16 -1 -18 -121 -3 -121 6 0 10 5 10 10 0 6 7 10 15 10 18 0 20 19
3 21 -7 1 14 5 47 10 33 4 89 14 125 22 36 8 67 13 70 10 5 -5 3 -60 -3 -108
-3 -22 -9 -29 -22 -27 -14 3 -16 -1 -12 -18 4 -17 -1 -24 -26 -35 -18 -7 -45
-15 -62 -17 -26 -3 -30 1 -39 30 -5 17 -13 32 -17 32 -5 0 -6 -7 -3 -15 9 -23
-6 -18 -28 10 -13 17 -26 24 -38 20 -12 -4 -20 0 -23 12 -3 10 -5 -195 -6
-455 l-1 -472 238 2 c233 3 237 3 237 24 1 12 9 32 18 45 19 26 19 28 3 -44
l-6 -27 725 0 725 0 0 269 c0 231 -2 270 -16 282 -14 11 -14 13 0 21 12 7 16
26 16 78 l0 70 -63 -2 c-34 -1 -75 1 -92 4 -25 5 -71 12 -150 22 -5 1 -15 5
-22 9 -6 4 -14 1 -17 -5 -4 -7 -4 -3 -2 10 2 12 0 20 -4 17 -14 -9 -40 6 -40
24 0 9 8 25 18 37 15 18 35 23 157 33 206 18 215 20 215 45 0 19 -6 21 -68 22
-37 0 -77 6 -88 12 -17 10 -16 11 14 12 17 0 32 5 32 10 0 6 -7 10 -15 10 -9
0 -18 7 -21 15 -4 8 -12 15 -19 15 -7 0 -18 6 -24 14 -7 8 -21 12 -31 9 -11
-3 -20 0 -20 6 0 6 10 11 23 12 12 0 16 3 9 6 -6 2 -12 12 -12 20 0 12 6 14
28 8 15 -4 61 -9 102 -11 68 -3 76 -5 82 -26 3 -13 6 199 7 470 1 389 -2 493
-11 491 -7 -1 -28 -1 -46 0 -25 1 -33 5 -30 17 3 17 16 26 53 40 18 6 16 8
-10 14 l-30 7 38 7 37 8 0 244 0 244 -970 0 -969 0 1 -282z m710 95 c-2 -13
-8 -23 -13 -23 -5 0 -9 -6 -9 -14 0 -7 -7 -19 -15 -26 -12 -10 -15 -9 -15 4 0
10 5 14 10 11 6 -3 10 0 10 8 0 8 -9 17 -20 20 -11 3 -20 10 -20 17 0 6 4 9 9
6 5 -3 11 1 15 9 3 8 16 14 29 13 19 -2 23 -7 19 -25z m77 -62 c-17 -39 -26
-39 -26 -1 0 31 11 40 20 18 3 -7 6 -4 6 6 1 11 4 17 7 13 3 -3 0 -20 -7 -36z
m49 7 c17 -17 15 -31 -2 -25 -8 3 -17 1 -19 -6 -3 -9 -8 -8 -18 2 -9 9 -9 11
-1 7 11 -6 17 5 13 27 -2 11 14 8 27 -5z m-101 -40 c-3 -7 -5 -2 -5 12 0 14 2
19 5 13 2 -7 2 -19 0 -25z m-32 -26 c-9 -9 -35 8 -35 23 0 13 3 12 20 -2 11
-9 17 -19 15 -21z m15 28 c0 -5 -7 -7 -15 -4 -8 4 -15 8 -15 10 0 2 7 4 15 4
8 0 15 -4 15 -10z m140 -19 c-1 -9 -37 -51 -45 -51 -3 0 1 10 9 22 19 26 21
42 4 32 -7 -4 -8 -3 -4 4 7 11 36 6 36 -7z m-55 -1 c3 -5 1 -10 -4 -10 -6 0
-11 5 -11 10 0 6 2 10 4 10 3 0 8 -4 11 -10z m-31 -39 c13 20 16 21 16 5 0
-27 39 -76 61 -76 10 0 19 7 19 15 0 13 29 15 203 15 187 -1 204 -2 226 -21
39 -32 14 -41 -131 -49 l-133 -7 135 -2 c76 -1 142 -6 150 -12 11 -8 12 -12 3
-16 -7 -2 -13 -10 -13 -18 0 -26 -90 -40 -247 -38 -87 0 -153 -3 -153 -8 0 -5
5 -9 10 -9 6 0 10 -5 10 -10 0 -7 -6 -7 -20 0 -11 6 -19 16 -17 23 1 7 -6 11
-15 9 -12 -2 -18 4 -18 18 0 13 -7 20 -20 20 -11 0 -20 -5 -20 -12 0 -6 -3 -8
-7 -5 -3 4 6 18 20 31 43 40 35 52 -43 71 -61 15 -70 20 -65 36 4 13 1 19 -9
19 -19 0 -21 11 -4 28 10 10 16 8 29 -9 l16 -22 17 24z m-114 -35 c-13 -13
-35 7 -25 24 5 8 11 8 21 -1 10 -8 12 -15 4 -23z m-350 -18 c0 -5 -4 -8 -10
-8 -5 0 -10 10 -10 23 0 18 2 19 10 7 5 -8 10 -18 10 -22z m385 -16 c-3 -3
-11 0 -18 7 -9 10 -8 11 6 5 10 -3 15 -9 12 -12z m86 -24 c21 3 29 -1 29 -13
0 -13 -7 -15 -37 -9 -48 8 -53 12 -53 31 0 13 2 13 16 2 9 -7 29 -12 45 -11z
m-563 -36 c17 -15 20 -26 15 -59 -4 -33 -9 -40 -24 -36 -10 3 -30 16 -44 29
-14 13 -33 24 -41 24 -17 0 -19 47 -2 52 33 11 76 7 96 -10z m248 -30 c1 -9 5
-33 9 -52 6 -35 6 -35 -9 -10 -8 14 -15 40 -16 59 0 34 12 36 16 3z m382 -57
c-3 -3 -9 2 -12 12 -6 14 -5 15 5 6 7 -7 10 -15 7 -18z m-33 -9 c12 17 13 16
19 -4 4 -13 20 -25 39 -31 l32 -9 -31 -1 c-54 -2 -92 10 -97 29 -6 25 5 35 16
15 8 -15 10 -15 22 1z m356 -16 c86 1 108 -2 119 -15 12 -14 11 -16 -11 -12
-13 2 -18 2 -11 0 6 -3 12 -9 12 -14 0 -5 7 -9 16 -9 8 0 13 -4 9 -9 -3 -5
-20 -7 -39 -4 -22 3 -36 1 -41 -8 -5 -7 -4 -14 3 -17 7 -2 12 -9 12 -16 0 -8
-15 -12 -42 -12 -33 1 -43 -3 -46 -16 -2 -10 2 -18 8 -18 6 0 8 5 5 10 -3 6
-4 10 -1 10 2 0 11 3 20 6 11 4 16 0 16 -12 0 -11 4 -15 8 -9 11 16 29 15 29
-1 0 -12 -23 -15 -144 -13 -126 1 -143 3 -143 17 0 14 -2 14 -9 3 -6 -9 -10
-10 -16 -2 -4 7 -1 19 6 27 10 13 10 17 -2 25 -10 8 -8 8 10 4 16 -5 21 -4 17
4 -4 6 -2 11 5 11 10 0 10 3 1 12 -34 34 4 71 63 62 22 -3 88 -5 146 -4z
m-1117 -49 c-9 -11 -21 13 -16 32 6 22 6 22 12 -3 4 -14 6 -27 4 -29z m163 -7
c25 -14 42 -28 40 -31 -5 -5 -107 44 -107 52 0 11 26 3 67 -21z m623 8 c0 -5
-13 -7 -30 -4 -16 2 -30 6 -30 8 0 2 14 4 30 4 17 0 30 -4 30 -8z m-730 -43
c0 6 4 11 10 11 5 0 7 -6 4 -14 -6 -16 27 -31 36 -16 4 7 16 6 36 -5 20 -10
24 -15 11 -15 -13 0 -18 -7 -17 -22 4 -40 0 -58 -10 -58 -5 0 -10 7 -10 16 0
8 -4 13 -8 10 -4 -3 -8 7 -8 22 1 19 -4 27 -19 29 -11 2 -14 0 -7 -3 6 -3 10
-10 6 -15 -8 -14 -24 -11 -24 5 0 8 -7 16 -15 20 -9 3 -12 12 -8 22 5 13 3 15
-7 9 -9 -5 -11 -4 -6 4 6 9 11 9 22 0 10 -8 14 -8 14 0z m1188 -7 c-25 -5 -23
-22 2 -22 11 0 20 -7 20 -16 0 -8 -5 -12 -11 -8 -6 3 -14 1 -18 -5 -13 -20
-41 -1 -41 28 0 35 5 39 38 33 19 -4 22 -7 10 -10z m87 -18 c8 3 17 1 20 -4 4
-6 -6 -10 -20 -10 -15 0 -24 -4 -20 -10 6 -10 -17 -14 -27 -4 -3 3 -1 18 5 35
11 28 12 28 19 8 5 -13 14 -19 23 -15z m-1060 6 c3 -5 2 -16 -2 -24 -7 -12
-10 -12 -21 0 -10 11 -10 14 0 15 7 0 4 4 -7 9 -19 8 -19 9 2 9 12 1 25 -3 28
-9z m1360 0 c17 -7 16 -9 -10 -9 -17 -1 -36 -6 -43 -13 -9 -9 -12 -8 -12 4 0
9 8 19 18 21 24 7 25 7 47 -3z m-900 -20 c3 -5 2 -10 -4 -10 -5 0 -13 5 -16
10 -3 6 -2 10 4 10 5 0 13 -4 16 -10z m-548 -14 c0 -8 -6 -12 -15 -9 -11 5
-11 7 0 14 7 5 13 9 14 9 0 0 1 -6 1 -14z m636 7 c-7 -2 -19 -2 -25 0 -7 3 -2
5 12 5 14 0 19 -2 13 -5z m-48 -13 c3 -5 1 -10 -4 -10 -6 0 -11 5 -11 10 0 6
2 10 4 10 3 0 8 -4 11 -10z m85 0 c0 -5 -4 -10 -10 -10 -5 0 -10 5 -10 10 0 6
5 10 10 10 6 0 10 -4 10 -10z m717 -32 c-3 -7 -5 -2 -5 12 0 14 2 19 5 13 2
-7 2 -19 0 -25z m123 -9 c0 -6 -4 -7 -10 -4 -5 3 -10 11 -10 16 0 6 5 7 10 4
6 -3 10 -11 10 -16z m-810 -4 c0 -11 -29 -11 -33 -1 -4 10 1 12 14 9 10 -3 19
-7 19 -8z m125 5 c-4 -6 -11 -8 -16 -5 -5 4 -9 -12 -9 -35 l0 -41 -60 2 c-59
2 -60 2 -60 32 0 22 4 28 15 23 10 -4 15 1 15 14 0 18 7 20 61 20 38 0 58 -4
54 -10z m225 -7 c0 -8 -4 -11 -10 -8 -5 3 -7 0 -4 -8 3 -10 -4 -17 -20 -21
-18 -4 -26 -13 -26 -29 l0 -22 -19 24 c-19 26 -18 53 3 49 6 -2 11 2 11 7 0
10 -52 11 -62 1 -4 -3 -6 -20 -6 -37 0 -28 -3 -30 -26 -24 -14 4 -29 12 -33
18 -5 7 -8 3 -8 -11 0 -13 -4 -20 -10 -17 -11 7 -13 55 -4 80 6 14 22 16 110
14 81 -2 104 -5 104 -16z m50 13 c0 -2 -7 -6 -15 -10 -8 -3 -15 -1 -15 4 0 6
7 10 15 10 8 0 15 -2 15 -4z m-806 -38 c-3 -4 3 -9 13 -9 17 -1 17 -2 0 -6
-14 -4 -16 -8 -6 -19 9 -11 8 -14 -5 -14 -9 0 -17 9 -17 20 -2 29 -3 33 -13
48 -7 11 -4 11 12 1 12 -7 18 -17 16 -21z m334 12 c4 -12 3 -13 -10 -3 -8 7
-18 10 -21 6 -4 -3 -7 -1 -7 6 0 17 32 10 38 -9z m-580 -21 c-3 -8 -7 -3 -11
10 -4 17 -3 21 5 13 5 -5 8 -16 6 -23z m73 16 c0 -5 2 -20 3 -32 3 -23 -9 -28
-38 -17 -10 4 -16 18 -16 35 0 25 4 28 25 27 14 -1 25 -7 26 -13z m976 -7 c-3
-8 -6 -5 -6 6 -1 11 2 17 5 13 3 -3 4 -12 1 -19z m43 1 c-25 -7 -25 -7 -2 -8
13 -1 20 -5 17 -11 -3 -5 -1 -10 4 -10 6 0 11 5 11 10 0 19 17 10 28 -14 8
-19 8 -27 -3 -36 -12 -10 -16 -9 -21 4 -4 10 -18 16 -35 16 -26 0 -29 3 -29
34 0 31 2 33 28 28 l27 -6 -25 -7z m-975 -9 c-3 -5 2 -10 12 -11 10 0 13 -3 6
-6 -19 -7 -16 -31 5 -37 10 -3 6 -4 -8 -3 -20 2 -26 8 -28 35 -2 19 1 32 8 32
6 0 8 -4 5 -10z m205 0 c0 -5 7 -10 15 -10 8 0 15 -7 15 -15 0 -10 -10 -15
-34 -15 -29 0 -33 3 -31 23 3 28 2 27 20 27 8 0 15 -4 15 -10z m300 -16 c0
-14 -4 -23 -10 -19 -5 3 -10 15 -10 26 0 10 5 19 10 19 6 0 10 -12 10 -26z
m427 -16 c-3 -8 -6 -5 -6 6 -1 11 2 17 5 13 3 -3 4 -12 1 -19z m-853 -22 c4
-29 -9 -36 -16 -8 -5 19 1 46 9 39 2 -3 6 -17 7 -31z m1286 14 c0 -5 -5 -10
-11 -10 -5 0 -7 5 -4 10 3 6 8 10 11 10 2 0 4 -4 4 -10z m-387 -30 c30 0 17
-7 -25 -14 -26 -4 -38 -2 -42 9 -3 8 -1 15 3 15 5 0 11 -6 14 -12 3 -9 7 -6
13 6 4 12 9 15 12 8 2 -7 13 -12 25 -12z m-753 0 c-13 -8 -12 -10 5 -11 11 -1
23 -1 27 0 9 1 48 -31 48 -39 0 -14 -47 -4 -61 14 -17 20 -39 15 -39 -10 0 -8
-4 -14 -10 -14 -5 0 -10 9 -10 20 0 11 5 20 10 20 6 0 9 3 9 8 -3 16 2 22 19
22 14 0 15 -2 2 -10z m97 -17 c3 4 1 7 -5 7 -7 0 -12 4 -12 9 0 6 49 9 112 8
110 -2 112 -2 119 -27 l7 -25 1 28 c1 26 4 27 49 27 l48 0 -4 -34 -4 -35 -81
-3 c-57 -2 -84 1 -94 10 -11 11 -13 11 -13 0 0 -10 -14 -12 -56 -10 -57 4 -86
19 -106 57 -11 20 -11 20 11 1 11 -11 24 -16 28 -13z m383 17 c0 -5 -4 -10
-10 -10 -5 0 -10 5 -10 10 0 6 5 10 10 10 6 0 10 -4 10 -10z m18 -14 c-1 -14
-5 -23 -9 -20 -7 4 0 44 7 44 2 0 3 -11 2 -24z m166 9 c4 -10 -1 -15 -15 -15
-11 0 -18 4 -15 9 4 5 0 12 -6 14 -7 3 -3 6 8 6 12 1 24 -6 28 -14z m-103 -15
c6 0 7 5 4 10 -3 6 0 10 8 10 9 0 12 -9 9 -30 -2 -16 -8 -30 -13 -30 -5 0 -6
8 -3 18 5 16 5 16 -9 0 -19 -24 -43 -23 -43 2 0 11 6 20 13 20 7 0 13 6 14 13
0 10 2 10 6 0 2 -7 9 -13 14 -13z m-811 -25 c0 -14 -5 -25 -11 -25 -6 0 -9 7
-5 15 3 8 -2 19 -12 24 -15 9 -14 10 6 11 17 0 22 -6 22 -25z m1187 3 c-3 -8
-6 -5 -6 6 -1 11 2 17 5 13 3 -3 4 -12 1 -19z m-1063 -18 c-6 -6 -10 -3 -10
10 0 13 4 16 10 10 7 -7 7 -13 0 -20z m746 15 c0 -8 -7 -15 -15 -15 -16 0 -20
12 -8 23 11 12 23 8 23 -8z m17 -7 c-3 -8 -6 -5 -6 6 -1 11 2 17 5 13 3 -3 4
-12 1 -19z m20 0 c-3 -8 -6 -5 -6 6 -1 11 2 17 5 13 3 -3 4 -12 1 -19z m30 0
c-3 -8 -6 -5 -6 6 -1 11 2 17 5 13 3 -3 4 -12 1 -19z m-242 2 c3 -5 -1 -10
-10 -10 -9 0 -13 5 -10 10 3 6 8 10 10 10 2 0 7 -4 10 -10z m40 0 c3 -5 -1
-10 -10 -10 -9 0 -13 5 -10 10 3 6 8 10 10 10 2 0 7 -4 10 -10z m395 -25 c0
-5 -5 -3 -10 5 -5 8 -10 20 -10 25 0 6 5 3 10 -5 5 -8 10 -19 10 -25z m-1273
19 c-3 -3 -12 -4 -19 -1 -8 3 -5 6 6 6 11 1 17 -2 13 -5z m493 -29 c0 -8 -7
-15 -15 -15 -26 0 -18 20 13 29 1 1 2 -6 2 -14z m103 -4 c-5 -18 14 -13 21 6
5 11 10 13 14 7 11 -17 40 -24 46 -11 3 7 4 1 3 -13 -2 -24 -5 -25 -74 -26
-66 -2 -74 0 -88 22 -14 22 -14 24 4 24 10 0 21 -7 25 -15 8 -22 26 -18 26 6
0 12 5 19 13 16 6 -2 11 -10 10 -16z m267 4 c-7 -8 -16 -12 -21 -9 -5 3 -9 -2
-9 -10 0 -18 35 -22 45 -6 4 6 10 8 15 5 4 -3 10 2 13 9 3 8 1 17 -6 20 -7 2
-2 4 11 2 13 -1 28 -9 33 -17 5 -8 9 -9 9 -3 0 16 36 24 49 11 8 -8 11 -7 11
2 0 11 3 11 15 1 8 -7 15 -9 15 -6 0 4 9 2 19 -4 16 -8 22 -6 30 7 6 11 11 13
11 5 0 -7 5 -10 10 -7 6 3 10 -4 10 -16 0 -12 -3 -20 -6 -16 -4 3 -15 -4 -25
-16 l-18 -22 6 23 c3 13 1 22 -6 22 -7 0 -9 -4 -6 -10 4 -6 -34 -10 -107 -10
-104 -1 -111 -2 -93 -16 18 -14 18 -15 2 -12 -10 1 -26 15 -35 30 -13 22 -13
29 -3 42 8 9 20 16 28 16 13 0 13 -3 3 -15z m-415 -5 c2 -4 -20 -7 -50 -8 -30
0 -53 4 -50 9 7 10 93 10 100 -1z m279 -4 c-3 -8 3 -16 15 -19 18 -4 19 -2 10
14 -7 13 -6 19 1 19 6 0 15 -10 20 -22 5 -13 9 -17 9 -10 1 17 18 15 18 -2 0
-7 -7 -13 -16 -11 -9 1 -21 -2 -28 -7 -7 -5 -14 -5 -18 2 -3 6 -11 7 -17 4
-15 -10 -28 17 -15 32 16 17 28 18 21 0z m-422 -28 c-9 -9 -15 -9 -24 0 -9 9
-7 12 12 12 19 0 21 -3 12 -12z m98 3 c0 -5 -16 -9 -35 -8 -19 1 -35 5 -35 9
0 4 16 8 35 8 19 0 35 -4 35 -9z m110 1 c0 -4 -22 -8 -50 -9 -27 0 -50 3 -50
8 0 5 23 9 50 9 28 0 50 -4 50 -8z m745 -14 c6 -4 0 -8 -12 -8 -16 0 -21 4
-16 15 3 9 8 12 12 8 3 -4 11 -11 16 -15z m-1135 -3 c0 -8 -4 -15 -10 -15 -5
0 -10 7 -10 15 0 8 5 15 10 15 6 0 10 -7 10 -15z m1083 6 c21 -3 2 -20 -29
-26 -29 -5 -35 -10 -31 -26 3 -10 1 -19 -3 -19 -10 0 -24 56 -16 68 4 7 33 8
79 3z m-1130 -8 c-7 -2 -19 -2 -25 0 -7 3 -2 5 12 5 14 0 19 -2 13 -5z m302
-13 c-9 -14 8 -12 24 3 11 10 12 9 6 -2 -6 -11 -3 -13 13 -9 13 4 22 1 22 -5
0 -7 5 -4 11 6 5 9 20 17 31 17 12 0 18 -3 15 -7 -4 -3 -2 -12 3 -18 6 -7 8
-23 6 -36 -3 -13 -5 -27 -5 -31 -1 -5 -12 -8 -26 -8 -17 0 -25 6 -25 18 0 12
-3 13 -8 5 -4 -7 -19 -14 -32 -15 -21 -3 -26 3 -34 35 -5 20 -14 37 -20 37 -6
0 -4 5 4 10 19 12 23 12 15 0z m261 -11 c3 -5 15 -9 27 -9 18 0 19 -2 7 -10
-8 -5 -19 -5 -23 -1 -5 5 -23 5 -41 0 -32 -10 -86 5 -86 23 0 5 4 7 9 3 5 -3
12 -2 15 3 6 10 84 3 92 -9z m199 -10 c-4 -5 -10 -7 -15 -4 -4 3 -19 1 -32 -4
-22 -8 -21 -9 12 -16 35 -8 35 -8 10 -18 -20 -8 -22 -11 -7 -14 9 -3 17 -8 17
-13 0 -12 -27 -20 -71 -20 -35 0 -39 3 -39 25 0 14 5 25 12 25 9 0 9 3 0 12
-17 17 -15 48 4 48 11 0 15 -6 11 -20 -3 -12 0 -20 8 -20 9 0 11 8 7 22 -5 19
-2 21 27 15 22 -5 30 -3 25 4 -4 7 1 7 15 -1 12 -6 19 -15 16 -21z m225 5 c0
-18 -8 -18 -26 0 -10 11 -11 15 -1 19 16 6 27 -1 27 -19z m-992 4 c-6 -18 -28
-21 -28 -4 0 9 7 16 16 16 9 0 14 -5 12 -12z m624 -37 c-6 -18 -7 -32 -1 -38
6 -6 4 -10 -6 -10 -8 0 -15 7 -15 16 0 11 -3 12 -8 4 -5 -8 -12 -8 -26 2 -10
8 -15 19 -11 25 5 8 11 8 21 -1 10 -8 14 -8 14 0 0 6 6 10 12 9 7 -2 14 8 17
22 2 14 6 19 8 12 3 -7 0 -25 -5 -41z m228 34 c0 -8 -7 -15 -15 -15 -8 0 -15
7 -15 15 0 8 7 15 15 15 8 0 15 -7 15 -15z m80 -5 c0 -5 -7 -10 -15 -10 -8 0
-15 5 -15 10 0 6 7 10 15 10 8 0 15 -4 15 -10z m201 -77 c-2 -59 -11 -80 -30
-69 -10 7 -6 119 5 138 14 22 27 -14 25 -69z m-349 22 c-2 -14 -9 -25 -14 -25
-6 0 -7 7 -4 16 3 9 6 22 6 30 0 9 4 13 9 10 4 -3 6 -17 3 -31z m208 20 c0 -8
-4 -15 -10 -15 -5 0 -10 7 -10 15 0 8 5 15 10 15 6 0 10 -7 10 -15z m-110 -5
c-8 -5 -24 -9 -35 -9 -16 1 -16 2 5 9 35 11 48 11 30 0z m-843 -102 c-2 -18
-4 -6 -4 27 0 33 2 48 4 33 2 -15 2 -42 0 -60z m527 64 c-6 -4 -10 -17 -9 -29
1 -13 -2 -23 -7 -23 -4 0 -8 14 -8 30 0 22 5 30 18 30 10 0 13 -3 6 -8z m-224
-53 c0 -5 -4 -9 -8 -9 -5 0 -9 7 -9 15 0 8 4 12 9 9 4 -3 8 -9 8 -15z m-203
-4 c0 -8 -4 -15 -9 -15 -4 0 -8 7 -8 15 0 8 4 15 8 15 5 0 9 -7 9 -15z m1081
-44 c11 -7 11 -9 -1 -14 -16 -6 -27 0 -27 15 0 10 11 10 28 -1z m-3 -238 c-11
-3 -25 -9 -31 -14 -13 -10 -119 -3 -142 11 -12 6 14 9 88 9 58 -1 96 -4 85 -6z
m-985 -13 c10 -6 6 -9 -18 -8 -17 1 -29 5 -26 10 7 11 25 10 44 -2z m55 0 c3
-5 1 -10 -4 -10 -6 0 -11 5 -11 10 0 6 2 10 4 10 3 0 8 -4 11 -10z m552 -32
c-3 -8 -6 -5 -6 6 -1 11 2 17 5 13 3 -3 4 -12 1 -19z m73 11 c-21 -7 -19 -8
13 -4 31 3 37 1 37 -15 0 -29 -11 -50 -26 -50 -8 0 -14 -4 -14 -10 0 -5 -7
-10 -16 -10 -8 0 -13 -4 -10 -9 3 -4 -5 -6 -18 -4 -17 4 -25 0 -29 -14 -3 -12
-5 -9 -6 10 -1 25 2 27 37 28 20 0 31 3 25 6 -8 3 -11 14 -7 29 4 15 2 24 -6
24 -6 0 -8 -4 -5 -10 3 -5 -4 -11 -17 -11 -17 -1 -18 -3 -5 -6 9 -2 17 -9 17
-14 0 -13 -14 -11 -36 7 -13 11 -15 17 -6 20 6 3 12 12 12 19 0 13 25 22 65
23 16 0 15 -2 -5 -9z m445 -8 c-6 -5 -26 -14 -45 -19 l-35 -10 35 -1 c31 -2
33 -3 18 -15 -32 -24 -21 -42 38 -60 69 -22 64 -33 -8 -15 -63 16 -64 16 -80
18 -7 2 -4 6 7 11 11 5 14 9 8 9 -7 1 -13 9 -13 20 0 16 -11 19 -99 25 -72 6
-103 12 -113 23 -11 14 -9 15 22 10 97 -18 166 -19 200 -3 39 17 80 21 65 7z
m-1048 -37 c25 -14 50 -23 58 -21 8 4 11 -1 8 -13 -3 -12 2 -20 16 -25 21 -6
30 -45 11 -45 -5 0 -10 -9 -10 -19 0 -24 -16 -36 -26 -20 -4 8 -11 4 -19 -11
-8 -15 -15 -19 -19 -11 -10 16 -26 14 -26 -4 0 -10 -11 -3 -30 17 l-29 33 -1
-30 c-1 -16 -4 -24 -7 -17 -2 6 -12 12 -22 12 -9 0 -21 13 -28 29 l-10 29 86
7 c47 3 96 9 109 12 l23 5 -23 17 c-17 12 -46 16 -113 16 -99 0 -113 10 -60
45 40 26 59 25 112 -6z m1163 -52 c0 -5 -9 -17 -20 -27 -19 -17 -19 -17 -7 9
12 25 27 35 27 18z m-143 -39 c-4 -3 -2 -12 4 -20 9 -9 8 -13 0 -13 -6 0 -11
5 -11 11 0 8 -17 10 -56 6 -33 -3 -53 -2 -48 3 5 5 27 10 49 13 22 2 46 4 54
5 8 1 11 -1 8 -5z m-460 -70 c1 -39 -2 -51 -7 -38 -11 26 -12 95 -2 95 4 0 8
-26 9 -57z m546 50 c-7 -2 -19 -2 -25 0 -7 3 -2 5 12 5 14 0 19 -2 13 -5z m62
-13 c-3 -5 -15 -10 -26 -10 -10 0 -19 5 -19 10 0 6 12 10 26 10 14 0 23 -4 19
-10z m-1105 -50 c0 -5 -5 -10 -11 -10 -5 0 -7 5 -4 10 3 6 8 10 11 10 2 0 4
-4 4 -10z m517 -32 c-3 -8 -6 -5 -6 6 -1 11 2 17 5 13 3 -3 4 -12 1 -19z m0
-33 c0 -8 -4 -15 -8 -15 -4 0 -9 7 -13 15 -3 9 0 15 8 15 7 0 13 -7 13 -15z
m-600 -33 c20 -13 -44 -30 -124 -34 -90 -4 -103 15 -15 23 34 3 65 9 69 12 9
9 55 8 70 -1z m971 -32 c12 -16 22 -30 22 -32 0 -2 -14 -3 -30 -4 -17 -1 -30
3 -30 8 0 5 -4 6 -10 3 -13 -8 -13 11 0 36 14 26 22 24 48 -11z m-1218 -24 c0
-2 -7 -6 -15 -10 -8 -3 -15 -1 -15 4 0 6 7 10 15 10 8 0 15 -2 15 -4z m1217
-98 c-3 -8 -6 -5 -6 6 -1 11 2 17 5 13 3 -3 4 -12 1 -19z m-1302 -22 c8 -7 11
-17 7 -21 -4 -4 -7 -12 -7 -18 0 -7 -7 -12 -15 -12 -8 0 -14 5 -13 12 2 8 -4
10 -14 6 -17 -6 -14 4 10 35 12 15 15 15 32 -2z m255 -3 c0 -38 -10 -42 -132
-50 -70 -5 -77 -3 -87 16 -11 20 -10 21 56 22 37 0 86 6 108 14 54 18 55 17
55 -2z m1265 -32 c3 -5 -1 -16 -9 -23 -7 -8 -17 -24 -20 -36 -9 -27 -32 -29
-46 -3 -7 14 -6 23 3 33 8 7 12 19 9 26 -4 14 54 17 63 3z m-40 -171 c2 -3 0
-12 -5 -20 -7 -12 -12 -12 -28 3 -10 9 -21 14 -24 11 -3 -3 -9 -1 -12 5 -4 7
7 10 29 9 20 -1 38 -4 40 -8z m-53 -56 c-2 -10 -12 -26 -23 -35 -24 -21 -24
-33 0 -26 14 3 20 -1 23 -18 4 -19 0 -22 -24 -21 -15 1 -28 7 -28 14 0 6 -4
12 -10 12 -5 0 -10 14 -10 30 0 20 5 30 15 30 8 0 15 9 15 20 0 15 5 19 23 16
15 -2 21 -9 19 -22z m68 -30 c0 -12 -5 -12 -30 1 -16 9 -30 17 -30 19 0 1 14
1 30 -2 17 -2 30 -10 30 -18z m-1461 -28 c5 -4 7 -15 4 -26 -7 -28 -73 -44
-155 -36 -48 4 -68 3 -72 -7 -3 -6 -3 1 -1 17 5 34 3 31 45 51 34 15 155 15
179 1z m247 -181 c-1 -24 -5 -47 -8 -50 -3 -3 -4 14 -2 37 3 58 3 58 8 58 3 0
3 -20 2 -45z"/>
<path d="M640 2230 c0 -5 5 -10 11 -10 5 0 7 5 4 10 -3 6 -8 10 -11 10 -2 0
-4 -4 -4 -10z"/>
<path d="M970 1990 c0 -5 5 -10 10 -10 6 0 10 5 10 10 0 6 -4 10 -10 10 -5 0
-10 -4 -10 -10z"/>
<path d="M1066 1955 c-3 -8 -1 -15 4 -15 6 0 10 7 10 15 0 8 -2 15 -4 15 -2 0
-6 -7 -10 -15z"/>
<path d="M1003 1915 c-10 -10 -9 -14 3 -19 22 -8 24 -8 24 8 0 21 -13 26 -27
11z"/>
<path d="M985 1810 c-8 -14 3 -30 21 -30 8 0 14 9 14 20 0 21 -24 28 -35 10z"/>
<path d="M1097 1801 c4 -16 8 -17 18 -8 9 9 10 14 1 19 -19 13 -24 9 -19 -11z"/>
<path d="M1132 1770 c0 -14 2 -19 5 -12 2 6 2 18 0 25 -3 6 -5 1 -5 -13z"/>
<path d="M754 1697 c-8 -21 2 -35 16 -21 5 5 6 15 0 24 -8 12 -10 12 -16 -3z"/>
<path d="M1915 990 c-19 -37 -19 -39 5 -33 14 4 20 14 20 34 0 37 -6 37 -25
-1z"/>
<path d="M80 991 c0 -16 28 -20 34 -5 4 9 -1 14 -14 14 -11 0 -20 -4 -20 -9z"/>
<path d="M30 950 c0 -5 5 -10 10 -10 6 0 10 5 10 10 0 6 -4 10 -10 10 -5 0
-10 -4 -10 -10z"/>
<path d="M91 934 c0 -11 3 -14 6 -6 3 7 2 16 -1 19 -3 4 -6 -2 -5 -13z"/>
</g>
</svg>
