<?xml version="1.0" standalone="no"?>
<!DOCTYPE svg PUBLIC "-//W3C//DTD SVG 20010904//EN"
 "http://www.w3.org/TR/2001/REC-SVG-20010904/DTD/svg10.dtd">
<svg version="1.0" xmlns="http://www.w3.org/2000/svg"
 width="780.000000pt" height="1040.000000pt" viewBox="0 0 780.000000 1040.000000"
 preserveAspectRatio="xMidYMid meet">

<g transform="translate(0.000000,1040.000000) scale(0.100000,-0.100000)"
fill="#000000" stroke="none">
<path d="M0 9813 l0 -587 28 30 c15 16 43 51 62 77 59 79 95 73 77 -11 -14
-67 -56 -156 -116 -241 -51 -74 -51 -75 -51 -153 0 -71 2 -78 20 -78 10 0 30
-12 44 -27 l25 -27 11 28 c16 43 13 56 -15 56 -17 0 -25 5 -25 18 0 19 34 62
50 62 4 0 6 25 4 55 -6 62 11 105 51 131 19 13 25 25 25 55 0 43 41 164 76
226 26 45 45 54 148 72 32 6 72 18 89 26 21 10 60 15 121 15 97 0 187 18 194
40 3 8 21 30 41 50 41 41 136 79 154 61 6 -6 23 -11 37 -11 14 0 31 -5 37 -11
5 -5 46 -11 89 -12 76 -2 84 -4 219 -73 77 -39 141 -77 143 -85 2 -13 -17 -15
-115 -16 -65 -1 -151 -9 -192 -17 -88 -18 -231 -92 -279 -145 -32 -34 -72
-104 -72 -125 0 -17 -49 -138 -90 -221 -21 -44 -43 -91 -49 -105 -5 -14 -17
-34 -26 -45 -9 -11 -34 -49 -56 -84 -30 -48 -43 -61 -52 -52 -6 6 -17 11 -25
11 -8 0 -27 9 -43 21 -16 11 -29 19 -30 17 0 -2 -2 -18 -3 -35 -3 -29 -1 -33
20 -33 14 0 30 -10 40 -26 18 -26 14 -41 -25 -104 -5 -8 -12 -24 -16 -35 -6
-19 -7 -19 -19 -3 -7 10 -20 15 -32 12 -29 -8 -56 28 -56 71 0 21 5 42 11 48
18 18 13 24 -31 31 -24 3 -54 9 -67 12 -23 7 -24 5 -18 -24 6 -27 4 -32 -13
-32 -15 0 -20 7 -20 26 0 17 -6 28 -19 31 -19 5 -32 25 -51 76 -8 23 -14 27
-37 23 -16 -2 -36 -5 -45 -5 -22 -1 -25 -41 -4 -41 22 0 76 -62 76 -86 0 -12
6 -24 14 -27 9 -3 12 -15 9 -31 -6 -31 -8 -31 -31 -8 -10 9 -33 29 -50 45 -18
15 -32 35 -32 45 -1 28 -25 52 -53 52 -13 0 -27 7 -31 15 -3 8 -10 15 -16 15
-16 0 -14 -462 2 -482 19 -23 84 -41 156 -42 51 -1 67 -5 78 -21 8 -11 21 -28
30 -38 24 -29 29 -107 11 -163 -30 -90 -17 -427 18 -484 8 -13 -6 -40 -21 -40
-8 0 -14 -4 -14 -8 0 -5 -18 -23 -40 -41 l-41 -32 -35 30 c-19 17 -44 31 -54
31 -11 0 -20 4 -20 8 0 5 -9 18 -21 31 -20 21 -22 21 -40 5 -15 -13 -19 -31
-19 -80 0 -40 4 -64 13 -67 10 -4 10 -6 0 -6 -10 -1 -13 -99 -13 -455 l0 -453
29 -6 c52 -11 61 -30 61 -123 0 -119 -16 -211 -56 -318 l-34 -91 0 -242 0
-241 63 -7 c63 -7 97 -26 98 -54 1 -25 87 -84 113 -77 24 6 50 -10 97 -56 29
-30 34 -50 49 -203 22 -211 23 -255 8 -255 -13 0 -58 74 -58 94 0 14 -29 36
-47 36 -10 0 -26 -8 -35 -19 -14 -17 -22 -17 -69 -8 -39 8 -54 7 -57 -1 -5
-17 -47 -15 -62 3 -9 11 -22 14 -41 10 -15 -3 -30 -1 -34 4 -21 35 -25 -11
-25 -279 0 -181 4 -290 10 -290 5 0 20 -18 32 -40 22 -38 25 -40 60 -35 30 5
38 3 47 -14 6 -11 11 -29 11 -40 0 -26 58 -44 78 -24 19 18 41 16 49 -4 11
-29 47 -63 68 -63 34 -1 54 -23 48 -53 -7 -38 -23 -44 -45 -17 -10 12 -22 20
-26 16 -9 -10 -11 -67 -2 -61 5 3 6 -4 3 -15 -7 -27 -25 -25 -52 4 -19 20 -20
24 -7 29 9 4 16 12 16 18 0 7 -3 9 -6 6 -4 -3 -15 -2 -25 4 -17 8 -19 6 -19
-20 0 -16 -6 -31 -15 -35 -18 -6 -45 2 -45 15 0 5 -5 9 -11 9 -6 0 -25 11 -42
23 -26 19 -41 23 -79 19 l-48 -4 0 -68 c0 -67 0 -67 31 -76 48 -14 58 -38 31
-67 -13 -14 -31 -24 -40 -23 -15 1 -17 -16 -19 -164 -2 -111 0 -160 7 -150 5
8 10 28 10 43 0 15 6 38 14 50 8 12 17 43 21 69 7 56 41 100 96 128 51 26 82
25 116 -4 l28 -24 -56 -25 c-62 -27 -96 -59 -136 -127 -27 -44 -27 -48 -25
-195 1 -82 9 -196 17 -252 14 -92 13 -139 -1 -209 -4 -24 -51 -37 -78 -22 -14
8 -16 -12 -16 -176 l0 -186 37 -20 c78 -43 112 -66 164 -112 90 -80 92 -81
105 -48 11 26 15 28 46 20 54 -13 70 -21 125 -63 36 -27 59 -38 74 -34 25 7
71 -12 124 -50 60 -44 73 -46 91 -18 9 14 25 25 35 25 10 0 62 -20 115 -45 52
-25 99 -45 104 -45 5 0 13 -6 17 -14 12 -20 77 -45 136 -51 85 -9 159 -28 164
-41 3 -8 -4 -42 -16 -76 -11 -35 -28 -121 -37 -193 -9 -71 -20 -139 -25 -150
-11 -26 -45 -65 -56 -65 -4 0 -27 29 -50 63 -24 34 -58 80 -77 102 -31 35 -35
37 -36 18 0 -30 35 -110 65 -145 13 -16 30 -48 36 -71 6 -23 26 -64 44 -92 33
-51 54 -115 37 -115 -18 0 -72 22 -72 29 0 10 -94 71 -108 71 -6 0 -13 8 -16
18 -3 9 -20 28 -38 42 -47 36 -131 123 -206 212 -35 43 -68 78 -72 78 -15 0
11 -73 41 -118 16 -24 29 -50 29 -58 0 -7 4 -14 8 -14 10 0 32 -59 24 -64 -12
-6 -46 11 -75 38 -15 14 -31 26 -34 26 -3 0 -24 13 -48 29 -39 26 -70 41 -100
47 -19 4 -130 82 -152 108 -12 14 -38 32 -58 40 -20 9 -43 29 -53 47 -30 55
-64 91 -75 80 -7 -7 -7 -18 1 -36 6 -13 9 -32 6 -40 -9 -22 -40 -10 -91 34
-23 20 -61 51 -85 70 l-43 33 -3 -122 c-1 -68 -1 -125 1 -127 3 -2 16 2 31 8
22 11 29 10 43 -4 15 -14 14 -20 -7 -69 -65 -152 -70 -174 -70 -333 0 -96 6
-172 15 -210 19 -82 20 -164 0 -171 -11 -5 -15 -22 -15 -68 l0 -61 64 -57
c107 -96 267 -198 332 -212 33 -7 114 -80 114 -102 0 -13 -57 -71 -85 -87 -8
-4 -33 -37 -56 -72 -23 -36 -45 -65 -48 -65 -13 0 -28 18 -66 75 -21 33 -45
66 -52 73 -7 7 -20 26 -30 42 -9 17 -21 30 -25 30 -16 0 -18 -22 -4 -47 19
-36 81 -175 106 -238 4 -11 25 -59 46 -107 l39 -88 1127 0 1126 0 12 35 c6 19
17 38 24 42 24 15 187 244 233 328 16 28 55 77 88 111 92 93 104 109 120 153
15 45 26 60 68 99 15 15 27 32 27 39 0 6 8 18 18 25 10 7 33 32 51 54 18 23
48 50 67 60 29 16 34 24 34 55 0 32 7 43 48 78 26 23 52 41 57 41 17 1 192
174 209 207 20 40 50 69 97 93 19 10 65 45 101 77 35 32 75 65 87 73 12 8 29
30 36 48 8 17 24 37 37 42 48 22 96 56 127 93 18 20 39 37 46 37 18 0 133 87
169 128 16 18 42 40 57 48 16 8 36 22 46 32 15 15 55 47 121 97 8 5 24 20 37
33 12 12 25 22 29 22 15 0 106 73 106 86 0 8 20 23 44 35 87 40 94 71 28 114
-17 11 -31 25 -32 32 0 15 39 43 61 43 16 0 69 -104 69 -137 0 -35 14 -44 42
-31 19 9 34 31 50 72 18 46 31 64 58 78 46 25 70 54 70 86 0 22 40 94 61 112
7 6 29 47 29 54 0 3 -26 6 -58 6 -80 0 -88 11 -97 132 l-7 98 30 -6 c34 -7 42
7 51 96 6 51 8 56 46 76 91 50 97 83 26 146 -27 24 -60 66 -74 93 -14 28 -35
64 -46 80 -21 30 -28 90 -13 111 4 6 18 15 32 19 82 25 180 135 121 135 -11 0
-32 17 -48 37 -46 62 -76 93 -88 93 -18 0 -78 -70 -116 -133 -24 -41 -41 -59
-59 -63 -27 -5 -148 -63 -280 -135 -50 -28 -105 -50 -135 -54 -79 -11 -119
-31 -133 -67 -9 -25 -15 -29 -33 -25 -33 9 -57 -9 -80 -57 -33 -71 -55 -89
-99 -81 -47 8 -74 -14 -84 -67 -5 -30 -1 -44 29 -88 32 -48 41 -76 36 -124 -1
-15 2 -16 13 -7 21 18 69 -61 74 -125 7 -87 -31 -121 -59 -51 -7 18 -26 52
-44 77 -56 81 -78 161 -40 146 11 -4 11 0 0 22 -7 15 -18 38 -23 52 l-9 25
-16 -30 c-8 -17 -24 -39 -35 -51 -24 -25 -52 -78 -52 -97 0 -24 -66 -79 -100
-82 -18 -1 -37 -11 -46 -23 -9 -13 -28 -22 -51 -24 -34 -3 -39 -8 -86 -91 -41
-73 -50 -96 -49 -133 2 -33 -2 -44 -12 -44 -8 0 -18 5 -21 11 -10 16 -43 -18
-50 -53 -5 -22 -17 -34 -47 -48 -28 -12 -62 -46 -119 -116 -73 -92 -79 -102
-79 -146 0 -40 -4 -50 -32 -72 -29 -22 -31 -27 -20 -51 7 -14 12 -29 12 -34 0
-4 -39 -48 -87 -97 l-88 -89 -70 0 c-38 0 -123 -7 -188 -14 -91 -11 -123 -11
-143 -2 -25 11 -26 14 -20 65 4 30 16 77 27 105 10 28 19 67 19 87 0 19 5 45
12 57 7 12 15 49 19 82 4 40 15 73 32 98 22 32 24 42 15 62 -14 31 5 57 36 49
24 -6 80 42 92 78 7 24 53 78 66 78 11 0 39 26 39 37 0 19 33 51 47 45 11 -4
14 -1 9 11 -3 9 -2 17 3 17 14 0 59 48 52 55 -4 3 1 3 11 -1 10 -3 17 -1 17 5
0 6 6 11 13 11 8 0 24 11 37 25 17 18 34 25 59 25 30 0 46 10 95 55 32 31 72
63 88 73 17 10 39 39 53 69 18 37 47 71 103 120 96 82 110 101 85 110 -10 3
-37 14 -60 24 -23 11 -47 19 -52 19 -15 0 -14 45 2 58 12 11 56 6 67 -7 7 -9
53 -38 65 -40 6 -2 15 -7 21 -12 12 -10 36 13 47 44 4 9 18 22 32 27 14 5 25
14 25 20 0 5 11 10 24 10 28 0 108 76 126 121 7 16 33 41 61 58 26 17 69 49
94 73 93 86 104 95 109 91 2 -3 9 5 16 16 6 12 17 21 24 21 8 0 26 14 41 32
24 28 26 37 21 87 -3 31 -2 72 3 91 5 19 9 28 10 19 1 -9 8 -20 17 -23 24 -9
28 -7 15 8 -7 8 -11 32 -9 53 2 31 7 39 26 41 15 2 32 -5 44 -18 25 -27 19
-83 -12 -114 -18 -18 -22 -19 -30 -6 -8 12 -10 10 -10 -8 0 -14 4 -21 11 -16
8 4 8 0 0 -15 -18 -33 10 -37 53 -7 21 14 46 28 57 31 10 4 22 18 25 31 5 20
11 24 28 20 13 -3 29 3 44 17 13 12 25 21 28 20 2 -2 9 -3 14 -3 17 0 11 30
-15 73 -30 52 -26 93 9 75 30 -16 36 -27 36 -77 0 -37 2 -42 15 -31 8 7 15 9
15 4 0 -5 7 0 15 10 11 14 12 23 4 33 -6 7 -9 19 -6 27 3 8 -4 18 -18 24 -17
8 -22 17 -18 31 4 16 -3 25 -26 38 -32 19 -40 33 -18 33 15 -1 73 -29 109 -53
19 -14 32 -16 44 -9 35 20 81 -11 75 -50 0 -4 13 -2 29 4 42 14 89 3 125 -30
17 -15 48 -42 69 -60 l39 -34 13 39 c22 61 18 78 -26 115 -37 31 -39 36 -41
93 -1 33 4 73 10 89 14 36 27 27 78 -58 35 -57 55 -61 35 -7 -7 20 -1 30 41
70 67 62 132 156 147 211 7 25 18 57 26 72 8 14 14 38 14 52 0 14 4 26 9 26 5
0 29 18 53 40 96 88 98 91 98 135 0 33 6 47 30 70 18 17 30 39 30 55 0 14 9
34 21 43 21 19 23 48 2 54 -6 2 -19 -8 -27 -24 -24 -43 -58 -78 -107 -106 -25
-15 -54 -37 -66 -51 -15 -16 -36 -26 -71 -31 -38 -5 -57 -14 -83 -41 -34 -35
-127 -84 -159 -84 -9 0 -44 18 -78 39 -68 45 -74 71 -19 90 16 6 46 23 64 37
19 14 52 28 74 31 33 5 49 16 90 62 28 31 60 74 71 96 11 22 36 57 54 77 18
20 42 54 53 75 10 21 40 53 65 71 26 19 55 50 65 71 11 20 27 43 35 50 9 8 16
17 16 22 0 5 14 28 30 51 17 22 30 49 30 59 0 19 45 59 66 59 8 0 14 6 14 14
0 8 14 25 31 39 27 21 29 26 16 38 -7 8 -19 24 -26 36 -10 20 -9 23 15 29 20
5 31 2 43 -12 16 -19 51 -21 51 -3 0 5 6 9 14 9 26 0 38 25 25 53 -9 20 -19
25 -46 25 -20 0 -39 6 -44 14 -14 21 -10 32 6 18 13 -11 14 -8 9 21 -9 43 -13
48 -27 28 -7 -8 -26 -24 -44 -34 -18 -10 -46 -40 -63 -66 -30 -46 -124 -139
-140 -139 -5 0 -12 -10 -15 -22 -4 -13 -17 -36 -29 -53 -27 -37 -56 -112 -56
-146 0 -46 -43 -65 -74 -33 -36 35 -10 173 40 215 8 6 14 16 14 20 0 17 149
233 195 284 25 27 45 55 45 60 0 15 -57 37 -115 44 l-50 6 3 75 c2 56 8 80 22
95 10 11 20 29 22 40 2 12 11 20 23 20 13 0 28 15 43 42 13 24 36 50 52 59 15
10 48 39 72 67 23 27 73 81 111 119 37 40 67 80 67 91 0 20 -1 20 -24 -2 -36
-34 -48 -19 -40 45 3 30 5 54 3 54 -2 0 -25 -7 -51 -15 -26 -7 -50 -10 -52 -6
-3 5 4 39 15 77 24 81 25 123 5 162 -17 33 -5 56 23 42 55 -29 79 -29 120 1
23 16 41 34 41 39 0 6 23 10 51 10 47 0 53 3 87 42 20 23 50 55 65 72 28 29
28 29 43 8 8 -12 30 -24 49 -28 44 -8 78 13 101 61 16 35 16 36 -7 62 -13 15
-34 35 -46 45 -12 10 -25 27 -28 38 -5 15 -12 18 -36 13 -20 -4 -35 0 -47 10
-9 9 -30 18 -46 21 -16 3 -33 9 -37 13 -6 6 -14 204 -10 260 1 15 53 43 80 43
25 0 44 33 36 60 -10 32 -54 59 -107 66 -32 4 -52 12 -56 23 -3 9 -8 18 -11
21 -18 15 -51 71 -51 86 0 9 10 47 21 86 l21 70 37 -6 c68 -12 121 -91 161
-241 27 -101 41 -122 85 -131 19 -3 39 -13 44 -22 10 -18 59 -20 114 -3 20 6
54 16 75 22 20 7 69 14 108 16 68 4 71 4 82 -22 28 -61 -3 -156 -74 -229 -35
-35 -40 -38 -80 -32 -39 5 -42 4 -47 -22 -7 -32 32 -172 67 -247 13 -27 27
-63 31 -80 l7 -30 13 26 c16 31 55 183 84 334 37 189 51 248 72 294 13 29 22
79 26 138 3 51 10 93 15 93 15 0 8 21 -18 56 -15 19 -33 34 -40 34 -23 0 -16
17 9 22 12 3 55 4 96 3 59 -1 76 -5 87 -20 22 -30 17 -43 -24 -64 -57 -29 -68
-63 -101 -316 -13 -97 -35 -203 -65 -319 -29 -108 -33 -150 -14 -144 19 7 63
126 77 208 7 41 19 98 27 125 8 28 24 95 35 150 12 55 27 111 34 125 7 14 15
54 17 90 4 63 4 64 36 71 18 4 50 19 73 33 31 21 50 26 82 24 40 -3 42 -4 55
-51 l13 -48 -33 -29 c-31 -28 -32 -30 -16 -46 16 -17 18 -17 38 1 11 10 20 24
20 32 0 15 19 50 38 71 7 7 10 17 7 22 -2 4 19 10 48 14 28 4 66 11 82 16 33
11 63 59 44 71 -6 3 -2 9 11 12 12 3 19 10 15 16 -3 6 -3 11 2 11 4 0 16 21
26 48 11 26 27 67 37 92 10 25 28 81 40 125 12 44 26 89 31 100 5 11 10 34 11
50 l3 30 -85 6 c-82 6 -308 48 -530 99 -19 4 -98 21 -175 38 -77 17 -163 36
-192 42 -28 6 -65 10 -82 8 -34 -3 -35 0 26 -93 17 -27 29 -54 26 -62 -7 -18
-33 -17 -33 1 0 24 -39 30 -61 10 -17 -16 -22 -16 -29 -4 -6 8 -10 21 -10 28
0 9 -12 12 -37 10 -31 -2 -38 0 -40 17 -13 88 -40 170 -66 198 -16 18 -37 43
-47 57 -22 29 -38 20 -22 -13 10 -20 24 -70 26 -90 1 -5 10 -15 20 -22 23 -17
34 -102 17 -134 -22 -40 -67 -19 -90 42 -6 16 -15 25 -21 22 -15 -9 -12 -92 5
-125 14 -26 18 -28 47 -19 17 5 48 8 67 7 20 0 51 6 69 16 17 9 32 12 32 8 0
-5 13 -12 30 -15 23 -5 34 -15 46 -47 9 -22 19 -40 24 -40 11 0 80 -69 80 -80
0 -23 41 -50 77 -50 20 0 44 -7 54 -16 10 -9 32 -24 51 -33 25 -14 36 -29 47
-64 11 -34 20 -47 33 -47 40 0 29 -68 -16 -92 -20 -11 -76 1 -129 28 -16 8
-36 14 -46 14 -9 0 -24 9 -34 20 -9 11 -24 20 -32 20 -8 0 -39 21 -69 48 -64
56 -105 84 -165 113 l-43 21 -43 -31 c-65 -47 -77 -41 -53 26 6 18 9 35 5 39
-3 3 -29 -8 -58 -25 -32 -20 -61 -31 -78 -29 -22 3 -26 8 -29 41 -2 21 4 59
12 83 12 35 13 51 4 69 -6 14 -15 25 -20 25 -4 0 -8 4 -8 9 0 10 -62 108 -84
131 -7 8 -34 58 -60 110 -28 56 -64 111 -87 133 -22 22 -52 55 -67 75 -15 21
-31 40 -36 43 -5 4 -6 14 -3 23 5 13 -1 15 -41 10 -59 -8 -108 -39 -197 -125
-59 -57 -83 -92 -144 -206 -41 -76 -89 -161 -108 -189 -18 -28 -33 -55 -33
-60 0 -5 -11 -22 -24 -39 -23 -29 -25 -29 -72 -18 -27 6 -68 17 -92 24 -38 12
-46 11 -77 -5 -25 -14 -38 -16 -47 -8 -7 5 -34 13 -61 17 -36 6 -47 4 -47 -6
-1 -9 -4 -8 -11 4 -5 9 -18 17 -28 17 -10 0 -21 3 -24 7 -4 3 -34 5 -67 4 -52
-2 -64 1 -85 21 -14 13 -25 29 -25 36 0 6 -4 12 -10 12 -13 0 -13 86 0 109 29
55 37 402 8 373 -6 -6 -6 -35 2 -85 11 -65 10 -85 -5 -149 -22 -93 -51 -176
-69 -194 -21 -20 -46 -17 -74 8 l-24 23 -20 -28 c-24 -32 -32 -33 -65 -7 l-25
20 -30 -25 c-16 -14 -35 -25 -42 -25 -15 0 -56 37 -56 50 0 6 -14 10 -31 10
-58 0 -69 13 -69 86 0 36 5 74 11 85 21 40 38 201 29 273 -9 73 0 107 34 135
9 8 16 20 16 27 0 17 57 54 84 54 14 0 95 37 126 58 3 2 -5 12 -18 22 -29 24
-21 43 28 66 22 11 40 22 40 25 0 9 60 50 80 54 10 2 32 13 47 24 18 13 55 24
103 31 41 5 90 12 107 16 52 10 55 -20 8 -62 -40 -35 -45 -52 -9 -31 11 7 35
21 53 32 19 11 50 34 69 50 34 29 39 30 131 29 53 0 136 -5 184 -10 94 -10
111 -21 100 -61 -6 -26 14 -32 23 -8 9 22 59 19 139 -10 39 -13 80 -25 93 -25
13 0 35 -6 50 -14 15 -7 56 -21 91 -29 35 -9 74 -25 85 -36 32 -29 98 -61 127
-61 23 0 59 26 59 43 0 4 16 31 35 61 19 30 35 59 35 64 0 5 6 15 14 21 27 23
84 220 70 243 -3 5 -12 -1 -18 -14 -8 -17 -21 -24 -47 -25 -29 -2 -42 4 -69
32 -35 36 -58 43 -77 24 -9 -9 -16 -3 -29 25 -19 38 -32 43 -64 24 -25 -16
-38 -3 -44 45 -4 31 -1 40 19 53 13 9 29 13 35 9 6 -4 62 -9 123 -12 62 -2
130 -9 152 -14 57 -15 163 -11 192 8 24 16 46 78 58 163 3 25 8 57 11 71 4 21
-4 35 -43 72 l-48 47 -3162 0 -3163 0 0 -587z m5510 263 c-14 -7 -29 -11 -34
-8 -12 6 15 22 39 22 17 0 17 -2 -5 -14z m290 -36 c0 -5 -4 -10 -9 -10 -6 0
-13 5 -16 10 -3 6 1 10 9 10 9 0 16 -4 16 -10z m-60 -10 c0 -5 -4 -10 -10 -10
-5 0 -10 5 -10 10 0 6 5 10 10 10 6 0 10 -4 10 -10z m-3565 -209 c15 -6 0 -11
-55 -21 -41 -6 -95 -18 -120 -26 -25 -8 -105 -17 -178 -21 -130 -6 -133 -5
-158 18 -24 23 -24 23 -4 31 24 9 108 -1 116 -13 9 -14 116 -9 159 7 63 25
204 39 240 25z m-633 -69 c28 -14 67 -17 253 -17 171 0 226 4 245 15 58 33
166 28 265 -12 55 -22 60 -26 58 -52 -1 -16 -4 -31 -7 -34 -3 -3 -31 3 -62 13
-40 12 -62 15 -73 8 -9 -5 -33 -8 -53 -5 -21 2 -38 0 -38 -4 0 -14 77 -74 95
-74 8 0 18 7 21 15 4 10 15 12 34 9 15 -4 30 -2 33 3 7 11 152 -2 185 -17 37
-16 19 -26 -75 -39 -48 -7 -101 -17 -118 -21 -16 -5 -56 -14 -88 -20 -32 -7
-56 -14 -54 -16 3 -3 81 9 173 27 93 17 181 34 195 36 32 6 73 -14 160 -78 37
-27 70 -49 74 -49 19 0 69 -47 81 -76 11 -27 21 -34 56 -41 33 -7 43 -14 48
-33 5 -21 13 -25 48 -28 23 -2 42 -7 42 -13 0 -5 18 -9 40 -9 22 0 40 -4 40
-9 0 -19 62 -53 103 -55 55 -4 157 -44 157 -61 0 -17 -73 -39 -100 -30 -34 11
-23 -19 13 -34 45 -19 126 -26 109 -9 -6 6 -12 19 -12 27 0 11 4 11 19 -3 13
-11 21 -14 26 -7 4 8 11 7 20 -3 8 -8 45 -24 82 -37 41 -13 79 -34 95 -51 15
-16 36 -28 51 -28 14 0 52 -18 85 -40 33 -22 71 -40 84 -40 24 0 24 0 16 66
-5 42 -13 71 -23 78 -22 16 -10 41 24 56 29 11 51 46 51 78 0 16 57 89 91 117
7 6 35 33 63 61 56 56 91 76 82 46 -13 -48 -16 -136 -6 -193 20 -114 -24 -268
-100 -356 -43 -49 -39 -73 24 -138 30 -30 59 -55 64 -55 6 0 25 -15 44 -32 19
-18 63 -60 99 -94 l65 -61 76 -6 c91 -6 117 -18 125 -58 3 -16 8 -29 12 -29
15 1 33 18 36 36 2 10 4 20 4 21 1 1 15 -11 31 -27 31 -30 60 -95 60 -131 0
-11 -8 -27 -19 -38 -10 -10 -20 -30 -23 -45 -4 -21 -2 -26 16 -26 12 0 36 -16
55 -35 18 -19 36 -33 41 -30 4 2 -1 40 -11 82 -21 85 -25 188 -9 198 6 4 32 0
58 -8 26 -9 75 -18 110 -22 34 -3 86 -17 115 -30 28 -14 64 -25 79 -25 15 0
30 -4 33 -10 3 -5 16 -10 28 -10 12 -1 92 -25 177 -54 l155 -53 -2 -47 c-1
-26 -6 -52 -11 -59 -5 -7 -27 -43 -48 -82 -67 -123 -68 -125 -91 -125 -12 0
-25 5 -28 10 -3 6 -19 10 -34 10 -16 0 -42 7 -57 15 -20 10 -43 13 -76 9 -59
-8 -106 9 -114 42 -4 14 -14 24 -24 24 -10 0 -41 11 -68 25 -46 23 -82 32 -82
20 0 -21 73 -104 93 -105 4 0 7 -7 7 -15 0 -8 4 -15 8 -15 4 0 19 -18 32 -40
14 -22 28 -40 33 -40 4 0 7 -9 7 -19 0 -11 9 -26 20 -34 35 -24 48 -61 38
-114 -4 -26 -10 -65 -13 -85 -3 -21 -17 -50 -31 -65 -20 -21 -22 -29 -12 -38
55 -51 169 -145 175 -145 4 0 22 -14 40 -30 25 -23 44 -31 83 -35 29 -3 55 -7
59 -9 4 -3 23 -35 41 -72 42 -81 63 -93 123 -70 94 36 104 7 20 -56 -55 -41
-63 -43 -143 -49 -47 -4 -131 -13 -187 -20 -56 -7 -105 -10 -109 -7 -3 4 0 16
6 28 l11 21 -38 -19 c-47 -23 -95 -14 -119 24 -10 14 -35 34 -57 46 -22 11
-58 40 -80 64 -22 24 -45 44 -51 44 -5 0 -25 15 -43 32 -33 32 -37 33 -121 33
-96 1 -112 6 -112 36 0 12 -3 19 -7 17 -5 -2 -21 -10 -36 -18 -24 -12 -32 -12
-50 0 -12 8 -48 17 -79 21 -41 5 -97 27 -205 80 l-148 72 -83 -22 -83 -21 -43
35 c-29 23 -62 39 -98 47 -47 10 -60 9 -111 -10 -32 -12 -81 -22 -108 -22
l-51 0 6 33 c6 33 6 33 -25 29 -17 -3 -48 1 -68 8 -32 10 -43 10 -69 -4 -45
-23 -57 -21 -38 9 21 32 6 32 -43 0 -43 -29 -71 -25 -71 11 0 36 -58 57 -135
50 -70 -6 -128 16 -133 50 -3 21 -45 73 -73 90 -39 23 -44 47 -38 165 3 63 15
147 25 188 18 72 20 74 62 92 24 11 57 19 74 19 37 0 136 28 144 41 3 5 -5 18
-17 28 -13 11 -18 20 -12 24 6 4 16 0 23 -8 7 -8 21 -15 31 -15 9 0 26 -12 37
-27 27 -39 82 -150 82 -166 0 -7 12 -24 26 -38 14 -13 30 -34 35 -47 5 -12 19
-27 31 -31 39 -15 48 10 48 129 0 108 -7 130 -40 130 -50 0 -198 268 -232 420
-6 25 -15 51 -20 58 -6 6 -7 12 -2 12 17 0 32 -15 37 -35 4 -19 5 -18 6 2 0
12 -4 25 -9 28 -6 4 -8 10 -5 15 7 11 -14 89 -27 107 -5 6 -10 36 -11 66 -1
31 -6 59 -10 63 -4 4 -7 20 -7 36 0 33 19 37 45 8 9 -10 31 -24 49 -30 29 -10
86 -77 86 -100 0 -6 4 -10 9 -10 4 0 18 -23 29 -51 22 -51 50 -64 44 -21 -2
14 2 22 11 22 8 0 18 7 21 16 4 10 12 14 23 10 36 -14 29 18 -13 56 -24 22
-42 44 -39 48 13 21 -85 88 -153 105 -14 3 -75 31 -136 62 -108 54 -113 56
-196 57 -126 1 -188 -31 -361 -188 -19 -18 -43 -50 -53 -72 -27 -55 -116 -144
-178 -176 -68 -34 -241 -115 -338 -157 -93 -41 -134 -65 -193 -115 -52 -43
-116 -137 -142 -208 -20 -54 -31 -61 -77 -47 -27 7 -35 6 -45 -8 -7 -9 -13
-25 -13 -35 0 -10 -4 -18 -9 -18 -5 0 -11 -10 -13 -22 -3 -20 -8 -23 -39 -20
-31 3 -37 0 -42 -20 -4 -13 -4 -46 -1 -74 8 -60 -3 -72 -43 -47 -25 16 -28 23
-25 61 3 39 1 42 -22 42 -16 0 -26 -6 -26 -14 0 -8 -12 -17 -26 -20 -42 -11
-92 32 -67 58 14 14 12 42 -7 88 -11 26 -20 63 -20 83 0 73 -93 205 -145 205
-47 0 -108 22 -150 55 -22 17 -53 32 -70 34 -85 9 -85 43 2 209 132 253 179
349 222 457 62 157 90 193 191 244 117 60 127 61 470 60 254 -2 337 2 430 16
63 9 117 19 120 22 3 3 -14 3 -36 -1 -103 -15 -393 -36 -429 -30 -51 8 -62 14
-109 58 -40 39 -168 126 -184 126 -5 0 -27 13 -48 28 -22 16 -46 31 -54 34
-12 4 -11 7 5 13 11 5 27 14 36 21 41 35 168 38 231 6z m4514 -1096 c10 -39
-17 -65 -30 -30 -8 20 2 54 14 54 6 0 12 -11 16 -24z m-3050 -295 c27 -38 -11
-57 -48 -24 -18 16 -24 53 -12 66 8 8 42 -15 60 -42z m3264 -21 c0 -17 -27
-36 -38 -25 -3 3 0 16 6 31 13 27 32 24 32 -6z m-3643 -172 c-3 -8 -6 -5 -6 6
-1 11 2 17 5 13 3 -3 4 -12 1 -19z m-2033 -3 c30 -13 156 -88 248 -149 131
-87 199 -138 238 -180 26 -28 61 -65 76 -82 63 -67 82 -74 202 -74 83 0 126
-5 178 -21 66 -21 124 -63 124 -91 0 -7 -20 -52 -44 -100 -40 -80 -77 -134
-133 -196 -35 -38 -61 -101 -82 -193 -27 -123 -30 -126 -80 -119 -17 2 -71
-49 -71 -67 0 -7 -7 -13 -15 -13 -8 0 -15 4 -15 8 0 5 -16 16 -36 25 -30 15
-35 22 -30 41 4 18 0 25 -18 34 -31 14 -36 7 -23 -27 8 -23 7 -36 -7 -65 -14
-30 -22 -36 -49 -36 -51 0 -164 66 -251 146 -43 40 -108 91 -145 113 -37 22
-88 63 -115 93 -26 29 -69 76 -96 103 -52 55 -43 26 -100 330 -46 245 -36 383
33 462 64 72 132 91 211 58z m2054 -86 c-1 -12 -8 -24 -15 -26 -17 -6 -27 35
-12 53 16 19 32 4 27 -27z m679 9 c-3 -8 -6 -5 -6 6 -1 11 2 17 5 13 3 -3 4
-12 1 -19z m-50 -45 c-3 -10 -5 -4 -5 12 0 17 2 24 5 18 2 -7 2 -21 0 -30z
m3391 11 c50 -7 52 -8 52 -38 0 -24 -8 -36 -34 -54 -31 -21 -38 -22 -75 -11
-68 20 -100 66 -69 97 13 13 48 15 126 6z m-3938 -93 c0 -16 -51 -71 -66 -71
-16 0 -20 55 -4 65 6 3 10 1 10 -5 0 -7 9 -5 22 4 25 18 38 20 38 7z m2530
-476 c7 -8 9 -22 6 -31 -5 -13 -9 -14 -21 -4 -16 13 -21 50 -6 50 5 0 14 -7
21 -15z m-4977 -137 c25 -19 32 -71 13 -87 -29 -24 -141 33 -129 66 12 30 86
43 116 21z m2659 -384 c23 -20 53 -47 64 -60 12 -13 26 -24 31 -24 6 0 17 -7
24 -16 9 -11 23 -14 48 -10 19 3 55 0 80 -6 25 -6 78 -10 116 -9 77 1 169 -15
200 -35 11 -7 38 -13 60 -14 45 0 256 9 295 14 14 2 48 4 77 4 40 2 57 7 73
24 16 17 25 20 37 12 11 -7 66 -4 180 9 157 17 166 17 191 1 16 -10 49 -18 81
-20 43 -1 57 -6 75 -26 32 -37 61 -43 95 -19 16 12 43 24 60 27 28 6 32 3 42
-23 18 -52 94 -70 134 -33 13 12 39 22 64 24 23 2 50 11 61 21 22 20 48 14 78
-18 21 -22 21 -24 5 -75 -16 -50 -38 -71 -55 -54 -4 4 -4 22 1 40 5 18 7 32 4
32 -14 0 -43 -34 -43 -50 0 -25 -24 -31 -96 -24 -63 7 -64 6 -105 -31 l-42
-37 -68 6 -68 7 -48 -73 c-43 -66 -52 -74 -91 -82 -38 -8 -46 -6 -70 16 -15
14 -36 28 -47 32 -16 6 -17 9 -5 16 8 6 24 10 35 10 24 0 65 26 65 42 0 6 -15
8 -43 4 -35 -5 -47 -3 -60 12 -25 27 -139 29 -176 3 -14 -10 -46 -21 -71 -24
-66 -8 -120 -21 -166 -41 -35 -16 -48 -31 -91 -110 -45 -82 -94 -136 -124
-136 -32 0 -27 72 11 166 12 27 11 34 -10 62 -31 42 -70 50 -117 22 -19 -11
-61 -23 -92 -26 -31 -3 -83 -10 -116 -16 -33 -6 -71 -11 -85 -11 -38 -1 -152
11 -157 17 -3 3 -22 -2 -43 -10 -30 -12 -47 -13 -76 -5 -23 6 -43 7 -54 1 -23
-12 -45 12 -37 40 3 11 1 23 -4 26 -5 3 -9 0 -9 -6 0 -6 -11 -15 -24 -20 -14
-5 -50 -26 -81 -46 l-55 -37 -58 12 c-70 15 -107 33 -149 71 -61 55 -66 69
-48 145 14 61 22 75 82 139 54 58 77 74 122 89 66 22 89 40 108 85 7 17 20 32
27 32 8 0 34 -16 58 -36z m-445 -41 c-3 -10 -5 -2 -5 17 0 19 2 27 5 18 2 -10
2 -26 0 -35z m-2267 -626 c10 -13 38 -29 62 -36 24 -7 54 -19 66 -28 13 -8 40
-14 60 -12 71 4 89 0 95 -21 4 -16 13 -19 59 -18 53 1 59 -1 175 -68 26 -15
33 -26 33 -49 0 -41 -26 -133 -42 -154 -15 -17 -34 -56 -63 -128 -18 -43 -56
-69 -119 -82 -16 -4 -31 -12 -34 -19 -3 -9 14 -12 57 -12 69 0 77 -12 39 -55
-27 -31 -40 -31 -86 0 -30 21 -49 25 -104 25 -53 0 -68 3 -68 14 0 8 5 18 10
21 17 11 0 25 -29 25 -15 0 -55 11 -89 24 -49 19 -62 22 -62 10 0 -20 -5 -18
-57 17 -39 27 -44 35 -40 59 5 22 1 29 -19 38 -14 7 -24 20 -24 32 0 34 29 80
50 80 11 0 20 5 20 10 0 6 -4 10 -10 10 -5 0 -10 15 -10 34 0 41 37 166 50
166 5 0 6 15 3 34 -6 39 21 106 44 106 8 0 23 -10 33 -23z m3519 -156 c33 -27
34 -31 32 -87 -3 -91 -34 -201 -95 -338 -25 -57 -32 -86 -20 -86 15 0 52 25
74 51 24 28 29 29 118 32 87 2 93 3 99 25 7 28 43 30 43 2 0 -31 47 -22 110
21 14 9 52 19 85 22 102 9 118 13 185 44 47 22 88 32 145 37 44 4 116 14 160
22 44 8 105 19 136 24 104 19 178 13 244 -20 64 -32 94 -37 127 -19 13 7 23 8
30 1 7 -7 -2 -17 -28 -31 -22 -11 -55 -34 -74 -50 -56 -50 -98 -66 -175 -67
-86 -3 -192 -19 -209 -33 -7 -6 -32 -10 -57 -10 -24 -1 -60 -1 -79 -2 -19 -1
-57 0 -85 2 -53 4 -41 10 -187 -101 -14 -11 -39 -20 -55 -20 -15 0 -34 -4 -42
-9 -8 -6 -24 -6 -38 0 -17 6 -32 3 -56 -11 -21 -13 -42 -18 -62 -15 -36 7 -44
1 -69 -48 -11 -21 -54 -66 -96 -101 -86 -72 -149 -109 -78 -47 46 41 88 98 88
120 0 6 -18 11 -45 11 -25 0 -45 -4 -45 -9 0 -19 -32 -41 -59 -41 -32 0 -51
-16 -51 -45 0 -14 -13 -26 -42 -40 -26 -13 -48 -33 -60 -56 -30 -58 -190 -192
-271 -227 -33 -14 -156 -109 -206 -159 -25 -24 -42 -33 -67 -33 -19 0 -34 4
-34 10 0 5 15 35 34 67 19 32 32 61 30 64 -2 4 -22 5 -44 2 -38 -5 -41 -4 -55
31 -11 25 -27 42 -48 51 -18 7 -42 27 -55 45 -23 30 -23 33 -8 65 19 39 52 66
71 59 7 -3 16 -1 20 5 3 7 0 8 -9 5 -21 -8 -20 2 3 25 10 10 34 21 54 25 46 9
117 55 117 76 0 42 -54 43 -125 1 -41 -24 -61 -27 -68 -8 -3 8 -9 7 -18 -5
-14 -18 -88 -43 -161 -55 l-38 -6 0 76 c0 55 4 80 16 91 8 9 19 16 24 16 4 0
10 10 14 23 4 18 13 22 43 23 40 1 63 -14 63 -41 0 -8 7 -31 14 -50 16 -37 44
-46 65 -21 7 8 23 17 36 20 18 5 25 13 25 31 0 14 5 25 10 25 6 0 10 -11 10
-24 0 -27 15 -42 25 -26 4 6 7 31 8 55 l2 44 58 -3 c43 -3 65 -10 82 -26 16
-15 33 -20 56 -18 l34 3 0 85 c0 68 4 91 20 115 43 65 113 135 135 135 9 0 21
5 28 12 21 21 14 -48 -9 -89 -12 -21 -25 -42 -29 -48 -18 -23 -50 -87 -50 -99
0 -8 -3 -16 -7 -18 -17 -7 -51 -85 -43 -98 12 -20 59 3 94 46 16 21 34 33 42
30 17 -7 31 19 45 85 6 30 20 73 30 97 23 53 29 183 10 206 -17 20 -31 11 -31
-20 0 -18 -5 -24 -20 -24 -18 0 -20 5 -16 33 3 17 8 57 11 87 9 83 24 103 87
116 79 17 90 16 127 -15z m-2817 -114 c26 -18 29 -18 94 3 43 13 80 18 103 14
117 -19 287 -68 312 -90 8 -8 25 -14 37 -14 39 0 192 -46 202 -61 3 -4 32 -14
65 -23 33 -8 61 -20 63 -26 2 -5 9 -10 16 -10 40 0 35 -66 -9 -125 -24 -30
-54 -88 -95 -179 -12 -27 -34 -96 -48 -153 -24 -92 -29 -103 -49 -103 -13 0
-23 4 -23 8 0 19 -97 50 -158 51 -49 0 -78 7 -125 30 -34 16 -78 32 -97 36
-19 4 -48 11 -65 15 -16 5 -57 17 -90 25 -91 25 -195 66 -233 92 -19 13 -44
23 -56 23 -12 0 -32 3 -44 7 -23 6 -24 8 -20 108 3 94 5 105 31 139 16 20 44
72 63 114 69 154 71 156 126 119z m2984 -72 c6 -43 -1 -150 -12 -188 -11 -34
-29 -11 -27 34 5 107 16 199 23 199 5 0 12 -20 16 -45z m370 -109 c-3 -14 -10
-26 -15 -26 -15 0 -19 23 -9 49 12 33 33 12 24 -23z m1488 -140 c21 -44 15
-57 -15 -30 -27 25 -41 52 -34 65 11 17 29 5 49 -35z m-2694 -153 c0 -15 -34
-43 -52 -43 -29 0 -35 30 -9 51 17 14 27 16 42 9 10 -6 19 -14 19 -17z m1924
-195 c9 -12 16 -32 16 -43 0 -20 12 -41 94 -160 31 -44 38 -60 29 -73 -13 -23
-110 -61 -153 -62 -47 0 -195 -42 -250 -70 -24 -12 -85 -38 -135 -57 -85 -33
-97 -35 -225 -37 l-135 -2 -54 -37 c-29 -20 -64 -37 -77 -37 -12 0 -25 -4 -28
-9 -4 -5 -38 -21 -76 -36 -52 -20 -78 -36 -98 -63 -63 -84 -135 -138 -166
-126 -23 9 -144 -39 -284 -113 -70 -36 -151 -79 -180 -94 -30 -16 -61 -34 -69
-41 -9 -7 -24 -12 -33 -10 -9 1 -53 -27 -96 -63 -43 -36 -83 -64 -89 -62 -49
19 -52 18 -116 -49 -63 -65 -144 -125 -206 -150 -38 -16 -51 -4 -23 21 27 24
25 35 -4 35 -29 0 -77 -44 -170 -157 -37 -46 -74 -83 -81 -83 -7 0 -44 17 -82
38 -37 20 -81 44 -98 53 -33 16 -33 18 -50 220 l-8 85 72 38 c73 38 108 45
172 31 29 -6 53 -1 118 24 44 17 89 31 99 31 34 0 146 57 192 97 25 22 61 45
80 52 19 6 80 37 135 68 237 135 473 253 504 253 11 0 57 13 101 30 61 22 87
27 105 20 35 -13 46 8 44 88 -1 58 2 75 20 100 34 48 81 55 81 11 0 -20 19
-59 34 -70 24 -18 106 33 138 86 17 30 22 33 58 28 46 -6 96 11 111 38 5 11
21 19 35 19 23 0 74 42 74 61 0 4 25 8 56 8 43 0 72 7 127 34 40 20 103 45
140 57 38 11 92 32 120 45 28 14 58 25 66 26 9 0 32 6 51 13 56 22 97 19 114
-6z m-1241 -72 c4 -10 1 -13 -8 -9 -8 3 -12 9 -9 14 7 12 11 11 17 -5z m-13
-21 c0 -8 -61 -36 -72 -33 -18 6 22 38 48 38 13 0 24 -2 24 -5z m-3098 -43
c114 -60 234 -100 313 -105 50 -2 96 -14 162 -40 51 -20 101 -37 112 -37 25 0
271 -80 289 -93 8 -7 11 -20 7 -36 -7 -30 -44 -104 -55 -111 -24 -16 -126
-241 -145 -322 -12 -46 -25 -50 -106 -33 -41 8 -86 15 -101 15 -15 0 -30 5
-33 10 -3 6 -13 10 -22 10 -8 0 -33 20 -54 44 -23 26 -50 46 -69 49 -16 4 -42
14 -56 24 -15 9 -34 18 -43 19 -9 2 -28 6 -43 10 -23 5 -29 2 -36 -17 l-9 -23
-16 25 c-13 19 -27 26 -59 28 -23 1 -45 6 -48 11 -3 4 -29 7 -58 7 -60 -2 -72
8 -72 63 0 19 -7 105 -17 192 -19 170 -11 321 18 339 27 17 70 8 141 -29z
m2898 -382 c0 -10 -6 -23 -13 -29 -11 -8 -17 -5 -27 13 -7 13 -10 29 -6 34 10
16 46 2 46 -18z m-3240 -85 c15 -8 31 -20 33 -27 4 -9 14 -3 31 17 14 17 26
25 26 19 0 -7 9 -14 21 -17 16 -4 20 -12 17 -34 -4 -37 -35 -43 -59 -12 l-18
24 -10 -28 c-6 -15 -15 -27 -21 -27 -16 0 -120 68 -120 79 0 23 60 27 100 6z
m4618 -139 c23 -14 53 -26 67 -26 23 0 25 -3 25 -49 0 -28 -6 -53 -13 -59 -19
-16 -58 -3 -89 29 -35 37 -56 36 -131 -5 -34 -19 -87 -44 -117 -57 -30 -13
-66 -31 -80 -40 -14 -10 -44 -23 -67 -29 -24 -6 -43 -15 -43 -20 0 -4 -60 -68
-134 -142 -100 -99 -136 -141 -141 -166 -7 -32 -8 -33 -30 -18 -22 14 -29 13
-105 -25 -77 -38 -83 -44 -105 -94 -14 -31 -32 -56 -44 -60 -11 -3 -50 -35
-86 -70 -37 -35 -79 -76 -95 -91 -16 -15 -42 -53 -57 -86 -20 -44 -33 -60 -52
-64 -93 -21 -106 -28 -157 -80 -39 -39 -58 -68 -69 -106 -8 -28 -15 -57 -15
-64 0 -7 -9 -37 -21 -67 l-21 -54 -134 -12 c-119 -11 -136 -11 -150 3 -10 11
-34 16 -70 16 -49 0 -54 2 -60 25 -8 32 13 57 84 99 29 17 69 41 89 53 24 14
42 19 52 13 25 -13 98 58 106 103 4 20 11 35 15 32 16 -10 56 17 66 44 6 16
35 43 70 66 32 21 60 42 62 46 7 15 71 78 117 114 82 65 186 177 192 208 3 16
16 35 29 44 18 11 24 25 24 49 0 19 5 34 10 34 45 0 234 166 259 228 10 23 21
33 46 38 40 7 126 71 143 106 6 14 13 38 14 52 3 34 18 34 18 0 0 -16 5 -24
13 -21 8 2 11 19 9 49 -3 32 1 48 13 58 21 18 33 4 37 -43 2 -36 11 -47 23
-27 3 6 14 10 24 10 9 0 36 9 59 20 22 11 45 20 51 20 5 0 13 9 16 20 5 15 11
18 23 12 19 -9 33 -8 137 6 98 14 144 9 193 -22z m222 -181 c0 -8 -4 -15 -10
-15 -5 0 -10 7 -10 15 0 8 5 15 10 15 6 0 10 -7 10 -15z m-1340 -258 c0 -32
-11 -67 -20 -67 -13 0 -17 42 -7 72 10 32 27 28 27 -5z m-120 -93 c6 -14 10
-38 10 -54 0 -15 7 -30 15 -34 19 -7 19 -25 0 -33 -17 -6 -58 24 -50 37 2 4 0
22 -5 41 -17 58 10 97 30 43z m-3054 -29 c9 -23 17 -29 35 -28 59 6 71 4 92
-15 12 -11 33 -23 47 -27 14 -4 31 -12 38 -17 14 -12 16 -104 2 -113 -5 -3
-10 -2 -10 3 0 5 -13 15 -30 22 -16 7 -36 23 -45 37 -9 13 -30 29 -46 35 -16
5 -34 19 -40 29 -8 16 -17 18 -42 14 -24 -5 -38 -1 -55 13 -28 24 -28 47 0 66
29 20 41 16 54 -19z m3902 -32 c-2 -14 -9 -28 -16 -31 -8 -2 -11 4 -8 20 3 12
5 26 5 31 1 4 6 7 12 7 6 0 9 -12 7 -27z m-4118 -13 c0 -5 -4 -10 -10 -10 -5
0 -10 5 -10 10 0 6 5 10 10 10 6 0 10 -4 10 -10z m3204 -4 c-1 -3 -5 -17 -8
-29 l-6 -22 -13 25 c-8 14 -12 28 -10 32 4 8 38 3 37 -6z m621 -63 c43 -91 43
-120 1 -167 l-36 -40 0 40 c0 21 -2 81 -5 132 -2 50 0 92 4 92 5 0 21 -26 36
-57z m55 47 c0 -5 -2 -10 -4 -10 -3 0 -8 5 -11 10 -3 6 -1 10 4 10 6 0 11 -4
11 -10z m-3850 -30 c0 -13 -7 -20 -19 -20 -22 0 -35 15 -26 30 12 19 45 11 45
-10z m80 -22 c0 -18 -2 -20 -9 -8 -6 8 -7 18 -5 22 9 14 14 9 14 -14z m2681
-30 c40 -13 40 -13 33 -53 -12 -74 -27 -87 -79 -63 -18 8 -25 19 -25 39 0 15
-4 31 -10 34 -14 9 -12 42 3 48 20 9 35 8 78 -5z m-2193 -44 c7 -14 16 -23 21
-19 5 3 23 -6 39 -20 29 -24 31 -24 67 -10 45 20 73 12 82 -23 7 -31 38 -66
50 -59 15 9 29 -6 47 -52 10 -25 26 -57 37 -73 24 -32 36 -93 21 -102 -12 -7
-182 103 -182 119 0 10 -60 55 -73 55 -4 0 -7 -7 -7 -15 0 -14 -3 -13 -24 2
-14 10 -26 27 -28 38 -2 16 -11 20 -40 20 -20 0 -40 4 -45 9 -5 5 -3 6 5 2 20
-12 28 25 8 39 -22 17 -33 80 -16 100 17 21 25 19 38 -11z m-114 -24 c23 0 13
-45 -11 -48 -26 -4 -60 37 -40 50 6 4 18 6 25 3 8 -3 19 -5 26 -5z m2172 -45
c-3 -8 -9 -22 -12 -30 -3 -8 -1 -15 6 -15 6 0 9 -4 6 -8 -3 -5 2 -21 10 -37
14 -27 13 -29 -21 -63 -19 -20 -35 -39 -35 -43 0 -12 -53 -59 -67 -59 -6 0
-22 -9 -35 -20 -12 -11 -39 -30 -58 -43 -23 -15 -38 -35 -45 -59 -12 -45 -31
-66 -45 -52 -16 16 -50 125 -50 160 0 33 17 55 29 37 9 -14 39 -23 55 -17 8 3
17 16 20 28 3 14 23 31 56 46 27 13 50 27 50 30 0 15 -28 30 -45 24 -13 -5
-16 -2 -13 12 2 11 13 20 28 23 14 1 27 6 30 11 3 4 30 20 61 36 31 17 54 35
51 42 -2 6 4 12 13 12 11 0 15 -5 11 -15z m1011 -27 c-3 -7 -5 -2 -5 12 0 14
2 19 5 13 2 -7 2 -19 0 -25z m-2599 -75 c3 -28 1 -32 -14 -26 -27 10 -56 42
-48 54 3 6 18 9 32 7 22 -2 28 -9 30 -35z m-1206 -38 c0 -8 1 -21 2 -27 1 -18
15 -25 64 -33 24 -4 46 -13 49 -21 3 -8 10 -14 15 -14 6 0 4 7 -3 17 -11 13
-11 17 -1 20 6 3 12 11 12 18 0 8 8 18 18 24 20 10 156 27 192 23 31 -4 126
-65 140 -91 9 -17 5 -24 -27 -47 -51 -37 -75 -62 -99 -104 -37 -64 -46 -104
-56 -250 -13 -195 -13 -187 2 -254 l13 -59 -42 -36 c-23 -20 -47 -47 -54 -61
-14 -28 -49 -30 -78 -4 -21 19 -28 18 -22 -5 3 -13 -2 -20 -20 -25 -38 -9 -86
12 -94 42 -3 14 -16 35 -28 46 -12 12 -37 59 -54 106 -17 47 -40 103 -51 125
-10 22 -22 52 -26 67 -5 23 -2 29 20 38 14 5 26 16 26 23 0 20 31 45 60 49 17
2 25 9 25 23 0 21 -10 22 -87 9 -28 -4 -38 -3 -38 7 0 7 -7 20 -15 29 -18 20
-24 192 -8 212 6 7 13 26 17 42 8 35 40 84 70 108 26 22 75 24 78 3z m2269
-71 c-6 -22 -11 -51 -11 -66 0 -29 -16 -46 -31 -31 -9 9 11 118 26 143 16 25
27 -7 16 -46z m-1066 -50 c11 -25 19 -48 18 -52 -4 -16 -21 -10 -33 13 -7 14
-15 23 -18 20 -3 -2 -13 0 -23 6 -14 7 -19 21 -19 50 l0 40 28 -16 c15 -9 36
-37 47 -61z m-393 -45 c124 -42 317 -129 403 -184 157 -99 269 -145 353 -145
23 0 43 -4 46 -8 9 -14 -19 -46 -72 -82 -28 -19 -66 -58 -85 -87 -33 -50 -115
-276 -137 -381 -6 -26 -17 -69 -25 -97 -8 -27 -17 -81 -20 -118 -7 -73 -22
-91 -51 -62 -22 22 -58 16 -62 -11 -3 -23 -47 -40 -58 -23 -3 5 -18 9 -33 9
-17 0 -50 15 -77 34 -27 19 -77 49 -111 66 -35 17 -81 47 -104 66 -46 38 -63
43 -54 15 3 -11 2 -22 -3 -25 -14 -8 -125 69 -171 119 -23 25 -46 45 -51 45
-6 0 -10 4 -10 8 0 5 -11 15 -25 22 -37 20 -63 87 -96 245 -22 104 -29 169
-30 252 0 152 18 214 83 288 43 49 79 66 162 75 118 12 132 11 228 -21z m3896
-468 c6 -39 -22 -67 -85 -84 -33 -10 -78 -17 -102 -17 -40 0 -43 -2 -60 -44
-28 -63 -101 -160 -141 -187 -65 -43 -348 -318 -378 -369 -16 -25 -155 -159
-264 -255 -36 -32 -47 -49 -53 -84 -6 -35 -9 -41 -17 -28 -14 26 -23 21 -67
-34 -22 -28 -59 -64 -81 -80 -51 -37 -106 -122 -102 -157 3 -16 0 -22 -8 -17
-6 4 -9 13 -6 21 11 28 -23 13 -58 -27 -36 -39 -37 -41 -30 -100 5 -41 3 -59
-5 -59 -6 0 -11 5 -11 10 0 6 -7 10 -15 10 -8 0 -15 4 -15 9 0 5 -9 13 -21 16
-15 5 -33 -5 -72 -42 -29 -26 -77 -68 -107 -93 -30 -25 -93 -82 -140 -127 -47
-45 -141 -124 -210 -176 -69 -51 -163 -124 -210 -161 -112 -90 -124 -96 -150
-66 -27 31 -25 64 4 84 14 8 73 64 133 122 59 58 124 118 143 132 57 43 174
145 189 167 8 11 77 83 154 160 77 77 164 169 194 205 128 155 154 185 171
195 15 8 217 212 435 437 31 33 57 69 57 79 0 10 5 19 10 19 6 0 10 6 10 13 0
8 11 19 25 25 26 12 56 37 139 114 28 26 56 48 62 48 6 0 19 9 28 19 10 11 39
29 64 41 83 39 252 142 271 166 10 13 30 26 45 30 15 3 33 19 42 35 9 19 22
29 37 29 12 0 56 11 97 24 41 14 80 23 85 22 6 -1 11 -13 13 -25z m-932 -183
c42 -73 45 -110 20 -208 -10 -36 -19 -67 -22 -69 -2 -2 -12 3 -22 13 -17 15
-18 29 -15 144 6 164 8 173 39 120z m-3444 -84 c11 -23 10 -28 -7 -40 -44 -32
-88 12 -50 50 24 23 44 20 57 -10z m-219 -105 c9 -33 -39 -25 -56 10 -13 27
-13 30 2 34 20 4 47 -18 54 -44z m102 11 c-10 -11 -20 -18 -23 -15 -3 3 3 14
13 25 10 11 20 18 23 15 3 -3 -3 -14 -13 -25z m3235 -69 c0 -38 -16 -48 -30
-20 -14 25 -6 49 15 49 10 0 15 -10 15 -29z m-180 -561 c0 -40 -15 -54 -26
-25 -8 20 4 65 16 65 6 0 10 -18 10 -40z m-3364 -355 c11 -17 14 -35 9 -64 -8
-46 6 -60 33 -34 10 10 32 26 49 35 28 16 34 16 77 2 25 -9 55 -27 65 -40 10
-13 28 -24 38 -24 11 0 30 -11 42 -24 12 -13 42 -32 67 -42 24 -10 44 -22 44
-28 0 -5 -11 -24 -25 -42 -14 -18 -37 -65 -52 -106 -22 -62 -27 -92 -29 -195
-1 -67 -5 -136 -9 -152 -5 -22 -2 -32 11 -39 26 -14 34 -191 10 -211 -23 -19
-81 3 -112 45 -24 30 -26 41 -21 89 4 39 2 57 -9 66 -11 9 -16 6 -23 -14 -5
-14 -15 -28 -20 -32 -13 -8 -14 -57 -2 -70 5 -6 12 -24 16 -42 5 -26 3 -34
-15 -43 -47 -25 -110 35 -110 105 0 53 -22 113 -61 164 -38 50 -39 54 -23 72
25 27 77 34 123 16 21 -9 41 -14 43 -11 3 2 0 19 -5 37 -10 33 -12 33 -91 44
-92 12 -119 33 -130 102 -4 25 -13 44 -26 51 -18 9 -20 21 -20 93 0 111 30
218 66 240 8 4 14 12 14 17 0 5 4 20 10 34 12 33 44 34 66 1z m542 -274 c15
-10 50 -26 77 -34 157 -48 211 -71 330 -138 66 -37 105 -57 232 -115 28 -13
74 -29 101 -35 28 -5 77 -26 109 -46 32 -19 77 -44 101 -55 23 -11 42 -27 42
-35 0 -25 -60 -115 -191 -288 -58 -77 -164 -256 -184 -311 -20 -57 -65 -120
-65 -92 0 15 -27 38 -45 38 -4 0 -5 -36 -2 -80 7 -106 -14 -105 -98 5 -49 65
-184 206 -188 197 -2 -4 -4 -23 -6 -42 -2 -19 -4 -36 -6 -38 -7 -8 -50 22 -74
52 -14 17 -39 44 -56 60 -16 15 -57 55 -90 87 -33 32 -72 60 -85 62 -16 3 -28
13 -32 28 -13 45 -38 383 -38 506 0 138 21 215 71 265 32 33 61 35 97 9z
m-330 -709 c26 -20 21 -52 -9 -52 -21 0 -43 35 -35 56 7 18 16 17 44 -4z"/>
<path d="M3092 9157 c-8 -9 -2 -18 24 -36 32 -22 37 -23 50 -9 14 14 14 18 -7
37 -26 24 -52 27 -67 8z"/>
<path d="M4040 8493 c-8 -3 -52 -28 -97 -55 -57 -34 -83 -55 -83 -68 0 -11 22
-41 49 -68 28 -28 57 -65 65 -83 13 -29 38 -63 94 -134 5 -6 17 -32 27 -58 14
-36 15 -53 8 -70 -6 -13 -9 -35 -6 -50 3 -16 1 -27 -6 -27 -6 0 -11 17 -11 38
0 20 -9 56 -20 80 -22 48 -45 54 -91 22 -38 -27 -65 -14 -79 40 -11 41 -25 57
-35 41 -3 -6 -12 -8 -20 -5 -8 4 -30 -10 -52 -33 -29 -30 -51 -42 -93 -51 -68
-15 -187 -79 -213 -114 -27 -37 -12 -53 61 -67 31 -6 77 -16 102 -22 115 -28
289 -69 323 -76 15 -3 38 -18 51 -34 14 -16 31 -29 38 -29 8 0 19 -5 26 -12
18 -18 56 5 76 47 28 59 104 70 123 18 4 -10 13 -24 20 -31 7 -7 13 -19 13
-27 0 -23 30 -25 68 -5 60 32 82 24 82 -32 0 -11 10 -28 23 -39 27 -23 37 -24
37 -3 0 8 4 13 8 10 10 -6 14 13 13 68 -1 22 3 56 9 75 5 20 11 75 14 122 3
48 11 100 17 115 8 22 7 39 -3 69 l-13 39 -11 -39 c-9 -33 -15 -40 -35 -38
-21 1 -24 -4 -27 -35 -1 -20 -8 -40 -15 -44 -6 -4 -9 -8 -5 -8 4 0 -1 -15 -12
-32 -11 -18 -20 -48 -20 -65 0 -32 -2 -33 -39 -33 -22 0 -49 8 -62 18 -13 10
-32 21 -41 25 -9 3 -22 24 -28 45 -11 43 -24 58 -54 63 -18 4 -20 15 -23 104
-2 55 -7 143 -12 195 -5 60 -4 104 2 120 9 21 12 14 18 -50 11 -107 30 -180
46 -180 7 0 13 10 13 23 0 13 7 32 15 43 8 10 15 28 15 38 0 20 17 80 30 106
10 20 -9 60 -29 62 -26 2 -35 1 -58 -6 -20 -6 -23 -4 -23 18 0 53 -106 102
-170 79z"/>
<path d="M3351 8364 c0 -21 4 -48 9 -59 5 -12 6 1 3 35 -7 66 -13 79 -12 24z"/>
<path d="M4786 7906 c-3 -13 -3 -37 0 -53 l6 -30 29 26 c34 30 36 42 11 64
-26 23 -39 21 -46 -7z"/>
<path d="M4697 7878 c-14 -22 -34 -153 -34 -225 0 -35 23 -52 42 -31 33 36 49
244 21 267 -12 10 -18 8 -29 -11z"/>
<path d="M4862 7763 c-10 -16 -40 -71 -66 -124 -40 -82 -46 -100 -37 -118 14
-25 11 -25 48 -6 37 18 58 42 68 75 8 28 33 60 47 60 13 0 10 -38 -6 -68 -7
-15 -17 -46 -21 -69 -7 -45 0 -53 57 -67 24 -5 29 -1 62 64 33 65 35 75 29
134 -5 55 -9 65 -27 70 -11 3 -38 21 -59 41 -45 42 -69 44 -95 8z"/>
<path d="M3786 6565 c-16 -12 -17 -17 -6 -30 14 -17 65 -20 75 -5 3 6 3 19 0
30 -7 24 -41 26 -69 5z"/>
<path d="M460 6014 c-13 -34 -14 -31 20 -49 28 -14 33 -14 67 3 l37 19 -26 17
c-14 9 -40 21 -57 26 -29 8 -33 6 -41 -16z"/>
<path d="M656 5943 c9 -36 13 -43 25 -43 19 0 21 31 4 50 -25 28 -37 25 -29
-7z"/>
<path d="M3633 5874 l0 -165 22 21 c13 12 25 34 28 48 3 15 11 50 18 79 6 30
8 64 4 80 -5 15 -9 31 -9 35 -1 4 -9 17 -18 28 -10 11 -18 25 -18 30 0 6 -6
10 -13 10 -10 0 -13 -37 -14 -166z"/>
<path d="M3836 4981 c-21 -23 -19 -86 3 -86 16 0 45 69 37 90 -7 20 -19 19
-40 -4z"/>
<path d="M340 2880 c0 -5 7 -10 16 -10 8 0 12 5 9 10 -3 6 -10 10 -16 10 -5 0
-9 -4 -9 -10z"/>
<path d="M7610 10386 c0 -8 5 -18 10 -21 6 -3 10 3 10 14 0 12 -4 21 -10 21
-5 0 -10 -6 -10 -14z"/>
<path d="M7688 10365 c-31 -36 -33 -51 -18 -107 12 -43 38 -61 75 -52 37 9 55
52 55 129 l0 65 -42 -1 c-36 0 -48 -6 -70 -34z"/>
<path d="M6794 10333 c-37 -10 -55 -22 -63 -39 -16 -36 -14 -43 15 -54 24 -10
25 -12 19 -68 -4 -31 -16 -83 -26 -114 -11 -32 -19 -60 -19 -64 0 -4 22 -4 50
0 47 6 50 5 56 -19 7 -29 -4 -132 -17 -156 -6 -13 -3 -18 14 -23 39 -10 54 -7
64 17 8 17 7 30 -4 51 -29 55 -3 86 74 86 23 0 37 7 52 29 21 29 21 29 1 34
-24 6 -25 28 -4 68 19 38 12 59 -20 59 -27 0 -56 -24 -56 -46 0 -8 -9 -23 -20
-34 -16 -16 -25 -18 -40 -10 -34 18 -24 54 26 95 59 48 84 90 84 138 0 34 -4
40 -35 53 -43 17 -85 17 -151 -3z"/>
<path d="M7185 10345 c-5 -2 -40 -6 -76 -10 l-67 -6 -15 -42 c-27 -74 -28 -92
-8 -114 10 -11 22 -34 26 -51 3 -18 11 -34 16 -37 14 -9 11 -51 -5 -65 -13
-10 -11 -18 15 -59 16 -27 29 -54 29 -60 0 -30 36 -3 47 34 6 22 20 72 32 110
11 39 22 82 25 96 8 37 49 93 71 98 11 2 23 8 26 14 8 12 -8 62 -24 75 -14 11
-77 22 -92 17z"/>
<path d="M6661 9812 c-14 -31 -38 -76 -54 -99 -16 -23 -27 -49 -24 -57 9 -24
44 -7 67 31 20 34 23 35 65 30 49 -7 70 6 82 51 5 22 0 32 -37 64 -23 21 -50
38 -59 38 -10 0 -25 -22 -40 -58z"/>
<path d="M7038 9825 c-44 -30 -76 -105 -44 -105 7 0 25 -9 40 -21 l26 -21 19
43 c11 24 17 47 14 53 -3 5 -6 24 -5 43 2 40 -3 40 -50 8z"/>
<path d="M6742 9610 c-18 -16 -32 -39 -32 -52 0 -44 -14 -49 -47 -18 -36 34
-87 42 -81 13 2 -10 12 -18 25 -18 13 0 23 -3 23 -7 1 -40 0 -40 -35 -34 -33
6 -35 5 -35 -19 0 -16 -14 -40 -39 -65 -25 -26 -41 -53 -45 -78 -4 -20 -18
-83 -32 -139 -32 -129 -30 -157 11 -161 26 -3 651 -127 770 -153 22 -5 103
-20 180 -34 185 -34 200 -38 241 -74 35 -32 62 -37 123 -25 l31 7 0 168 c0 93
-3 169 -7 169 -18 -1 -31 -17 -30 -35 2 -16 -4 -20 -28 -19 -95 5 -175 24
-175 42 0 5 9 17 20 27 17 16 24 16 44 5 14 -7 32 -10 42 -6 16 6 16 8 -2 21
-10 7 -29 12 -40 9 -16 -4 -23 0 -27 15 -6 26 9 37 28 21 9 -8 20 -8 31 -2 11
6 34 5 68 -4 81 -22 76 -30 76 132 0 140 -1 145 -20 139 -10 -3 -32 1 -48 9
-39 20 -296 17 -328 -4 -19 -12 -29 -11 -70 5 -31 12 -83 20 -140 22 -103 4
-108 1 -138 -80 -22 -60 -61 -98 -115 -115 -51 -15 -63 -10 -51 24 6 14 10 41
10 60 0 29 -3 34 -24 34 -79 0 -113 28 -74 61 28 23 42 24 58 4 21 -26 31 -17
24 23 -4 20 -22 56 -40 79 -19 23 -34 46 -34 52 0 6 -8 15 -18 20 -15 8 -25 4
-50 -19z m18 -145 c0 -21 -5 -25 -30 -25 -34 0 -37 6 -13 32 23 26 43 23 43
-7z m67 -211 c-3 -3 -12 -4 -19 -1 -8 3 -5 6 6 6 11 1 17 -2 13 -5z m697 -45
c35 -9 38 -13 31 -37 -3 -15 -9 -42 -12 -60 -7 -42 -23 -48 -73 -28 -22 9 -56
16 -75 16 -27 0 -35 4 -35 18 0 10 5 23 11 29 8 8 7 16 -2 30 -7 11 -9 28 -5
38 5 15 14 17 64 11 31 -4 74 -11 96 -17z"/>
<path d="M7433 9173 c-18 -6 -16 -23 1 -23 17 0 30 16 19 23 -5 2 -14 2 -20 0z"/>
<path d="M4468 9484 c-32 -17 -35 -29 -12 -38 25 -10 50 2 62 29 10 21 9 25
-6 25 -9 -1 -29 -8 -44 -16z"/>
<path d="M6080 9222 c0 -12 3 -12 18 -1 9 7 19 14 21 16 2 1 -6 1 -18 0 -11
-1 -21 -8 -21 -15z"/>
<path d="M6047 9223 c-12 -11 -8 -23 8 -23 8 0 15 7 15 15 0 16 -12 20 -23 8z"/>
<path d="M6250 9000 c0 -5 5 -10 11 -10 5 0 7 5 4 10 -3 6 -8 10 -11 10 -2 0
-4 -4 -4 -10z"/>
<path d="M6275 8947 c4 -35 5 -37 14 -37 10 0 2 48 -9 55 -4 2 -6 -6 -5 -18z"/>
<path d="M4237 8773 c-12 -11 -8 -33 6 -33 6 0 19 5 27 10 13 9 13 11 0 20
-18 12 -24 12 -33 3z"/>
<path d="M7763 8605 c-21 -15 -48 -98 -38 -116 4 -5 16 -9 29 -9 12 0 27 -5
34 -12 9 -9 12 6 12 70 0 45 -3 82 -8 82 -4 0 -17 -7 -29 -15z"/>
<path d="M7676 8338 c-9 -12 -12 -25 -8 -29 4 -4 35 -11 70 -15 l62 -7 0 30
c0 27 -4 31 -37 37 -60 9 -71 7 -87 -16z"/>
<path d="M7615 8072 c-11 -7 -75 -134 -96 -189 -12 -31 -36 -139 -49 -223 -6
-34 -16 -61 -28 -70 -51 -41 -55 -105 -12 -169 17 -24 30 -47 30 -51 0 -4 12
-12 26 -19 36 -16 68 6 84 56 7 21 20 52 29 68 11 19 18 55 19 96 2 69 24 139
43 139 8 0 10 -15 5 -47 -4 -27 -10 -66 -13 -88 -3 -22 -5 -77 -4 -122 2 -45
-2 -90 -8 -101 -6 -11 -12 -69 -14 -129 -3 -75 -9 -118 -20 -140 -10 -18 -17
-39 -17 -47 0 -8 -11 -27 -25 -42 -14 -15 -25 -33 -25 -41 0 -8 -15 -48 -34
-88 -19 -39 -38 -84 -42 -99 -9 -36 -43 -42 -110 -21 -59 19 -94 15 -75 -9 6
-7 30 -16 53 -20 23 -4 53 -13 67 -21 29 -16 117 -35 160 -35 34 0 50 21 74
101 19 63 36 83 62 73 19 -8 18 -21 -9 -138 -10 -46 -12 -73 -6 -81 8 -10 39
-27 113 -63 4 -2 7 11 7 27 0 24 -4 31 -19 31 -10 0 -22 7 -25 16 -3 8 -2 13
3 9 5 -3 16 -2 25 1 14 6 16 66 16 591 l0 585 -25 -4 c-14 -3 -28 -2 -31 3 -9
14 28 109 42 109 8 0 14 7 14 15 0 8 -5 15 -11 15 -7 0 -17 7 -23 15 -9 12
-18 5 -51 -40 -44 -59 -63 -72 -71 -50 -11 28 14 81 81 172 7 10 6 16 -5 23
-18 11 -90 13 -105 2z"/>
<path d="M6964 7335 c-11 -18 -14 -35 -9 -65 4 -22 11 -38 16 -34 15 9 49 81
49 104 0 29 -36 26 -56 -5z"/>
<path d="M7584 7351 c4 -5 1 -12 -4 -14 -6 -3 -5 -4 2 -3 15 3 23 26 8 26 -6
0 -9 -4 -6 -9z"/>
<path d="M6249 7010 c-30 -22 -70 -47 -89 -55 -65 -29 -65 -28 -66 -94 -1 -54
-5 -66 -29 -91 -33 -35 -27 -49 12 -30 16 7 44 16 63 21 19 4 51 12 70 17 37
9 93 0 147 -24 17 -8 40 -14 50 -14 14 0 26 -13 38 -40 17 -37 17 -43 2 -77
-9 -21 -19 -48 -22 -60 -5 -20 -13 -23 -53 -23 -47 0 -82 -13 -70 -25 10 -10
288 -85 314 -85 15 0 25 9 32 28 6 15 25 63 41 107 31 80 31 80 11 97 -11 9
-39 19 -63 23 -57 10 -114 34 -121 50 -3 8 -13 11 -25 8 -30 -8 -71 5 -71 22
0 7 -9 20 -19 27 -36 25 -36 62 -2 101 40 44 42 91 6 130 -39 41 -87 37 -156
-13z"/>
<path d="M6822 6982 c-15 -2 -22 -9 -18 -17 3 -8 1 -17 -4 -20 -11 -7 -14 -68
-4 -77 6 -7 58 18 72 35 10 12 16 40 13 63 -1 14 -28 21 -59 16z"/>
<path d="M6510 6836 c0 -14 -5 -28 -10 -31 -15 -9 -2 -25 20 -25 28 0 70 21
70 35 0 19 -34 45 -58 45 -17 0 -22 -6 -22 -24z"/>
<path d="M6444 6826 c-7 -19 3 -36 22 -36 10 0 14 8 12 22 -4 26 -26 36 -34
14z"/>
<path d="M7134 6643 c-40 -40 -60 -90 -200 -493 -30 -85 -54 -166 -53 -180 0
-14 15 -54 32 -90 24 -48 42 -70 68 -84 40 -22 86 -16 96 12 3 9 13 25 21 35
14 15 13 17 -5 17 -26 0 -45 23 -37 44 4 11 12 15 23 10 9 -3 32 -8 53 -10 37
-3 53 11 42 40 -4 9 6 16 33 21 21 4 44 11 50 17 7 6 23 8 37 4 19 -5 24 -14
30 -54 5 -39 12 -52 32 -62 14 -8 30 -22 35 -32 12 -22 29 -23 54 -4 19 13 18
15 -5 50 -14 20 -28 36 -32 36 -16 0 -7 40 11 50 33 17 58 11 82 -20 14 -16
45 -37 72 -47 48 -17 66 -44 54 -77 -4 -11 13 -21 66 -39 40 -13 80 -27 90
-32 15 -6 17 1 17 92 l0 98 -74 24 c-41 12 -80 29 -86 36 -6 7 -48 27 -95 46
-46 18 -87 39 -91 48 -4 9 -8 86 -9 172 -1 144 -3 158 -23 184 -12 15 -22 40
-22 55 0 33 -35 68 -84 81 -21 6 -45 18 -55 28 -18 18 -77 51 -92 51 -4 0 -20
-12 -35 -27z m604 -776 c3 -12 -3 -17 -21 -17 -31 0 -40 10 -25 27 15 18 42
12 46 -10z"/>
<path d="M6129 6458 c-24 -18 -46 -37 -48 -42 -2 -6 -15 -19 -29 -31 -57 -46
-124 -121 -141 -159 -10 -23 -30 -54 -45 -69 -24 -26 -35 -57 -19 -57 4 0 28
20 53 44 45 44 113 86 138 86 7 0 23 6 35 14 12 8 47 17 77 21 30 3 90 18 132
32 88 29 89 31 19 106 -45 47 -99 87 -118 87 -5 0 -29 -15 -54 -32z"/>
<path d="M6397 6276 c-8 -19 -90 -57 -140 -63 -23 -3 -51 -13 -62 -23 -11 -10
-47 -30 -79 -45 -45 -20 -80 -48 -138 -108 -80 -85 -86 -99 -52 -138 8 -8 14
-21 14 -27 0 -7 9 -17 20 -24 11 -7 20 -18 20 -24 0 -7 7 -15 16 -18 15 -6 25
-1 109 49 79 48 146 76 166 70 10 -4 33 -18 50 -33 l31 -26 62 65 c33 35 99
107 146 159 47 52 91 101 98 109 7 7 11 15 10 17 -10 9 -221 74 -242 74 -13 0
-26 -6 -29 -14z"/>
<path d="M7264 5899 c-24 -27 -26 -66 -3 -72 21 -6 33 2 48 31 14 26 6 62 -13
62 -7 0 -21 -9 -32 -21z"/>
<path d="M7181 5807 c-9 -11 -8 -17 3 -26 10 -9 15 -8 19 2 9 23 -8 41 -22 24z"/>
<path d="M6896 5761 c-9 -10 -16 -21 -16 -26 0 -4 -7 -13 -15 -19 -8 -6 -19
-35 -25 -64 -14 -75 -36 -117 -85 -160 -23 -20 -54 -59 -68 -87 -14 -27 -39
-66 -55 -85 -26 -29 -33 -33 -49 -24 -10 6 -20 20 -21 30 -2 10 -14 30 -27 44
-31 34 -65 91 -65 111 0 9 -11 29 -25 45 -14 16 -25 33 -25 37 0 5 -18 40 -41
79 -41 70 -42 70 -77 64 -72 -11 -134 -53 -181 -122 -25 -36 -68 -84 -95 -107
-28 -22 -69 -63 -91 -89 -22 -26 -52 -62 -67 -80 -86 -102 -141 -175 -149
-196 -6 -14 -4 -37 3 -61 l12 -39 40 34 c21 18 48 49 60 68 12 19 44 52 73 75
29 22 58 51 64 63 7 13 24 32 38 43 14 11 52 44 83 72 32 29 62 53 66 53 17 0
42 -37 61 -91 10 -30 26 -68 36 -86 12 -25 14 -40 7 -70 -6 -21 -13 -50 -16
-65 -5 -22 -14 -28 -57 -37 -65 -14 -84 -25 -140 -76 -25 -24 -59 -50 -75 -58
-23 -12 -34 -29 -48 -72 -12 -38 -33 -74 -67 -111 -27 -30 -49 -58 -49 -62 0
-5 -21 -32 -46 -62 -55 -64 -99 -146 -83 -156 16 -10 103 73 115 111 4 11 23
38 44 60 21 22 75 82 121 134 46 52 99 110 116 130 18 20 33 39 33 43 0 3 14
11 31 17 35 12 61 2 92 -33 10 -12 33 -38 52 -58 23 -26 36 -51 40 -82 10 -67
1 -89 -46 -114 -35 -19 -46 -21 -73 -11 -30 11 -33 9 -84 -42 -81 -82 -152
-170 -157 -196 -3 -13 -7 -34 -10 -48 -3 -15 -12 -25 -23 -25 -11 0 -31 -22
-52 -56 -43 -69 -77 -104 -101 -104 -23 0 -23 1 -4 -37 16 -33 40 -48 50 -33
4 6 15 10 26 10 10 0 19 6 19 13 0 8 11 19 24 25 19 8 26 22 31 57 4 25 12 49
19 53 6 4 17 16 24 27 7 11 22 35 33 53 17 25 28 32 53 32 36 0 56 15 56 41 0
21 26 49 46 49 10 0 14 -13 14 -49 0 -27 6 -53 13 -58 6 -5 48 -22 91 -37 44
-15 92 -37 108 -49 24 -18 32 -19 49 -9 17 11 24 9 49 -11 18 -15 48 -27 81
-31 30 -4 58 -11 64 -15 5 -4 36 -16 67 -25 32 -10 68 -26 81 -36 12 -10 44
-21 70 -25 25 -4 56 -15 67 -25 11 -9 47 -23 80 -29 32 -7 87 -24 122 -40 35
-15 85 -33 111 -40 45 -11 123 -53 139 -75 3 -5 33 -12 65 -14 58 -4 59 -4 73
29 17 37 30 40 108 20 35 -9 48 -8 72 4 38 20 38 29 -2 53 -52 32 -86 37 -108
17 -55 -50 -10 48 47 101 23 23 33 41 33 63 0 24 6 34 30 46 16 8 42 15 58 15
23 0 31 5 36 25 4 14 11 25 16 25 6 0 10 11 10 25 0 16 -6 25 -15 25 -9 0 -26
6 -38 14 -24 16 -122 36 -174 36 -33 0 -45 -14 -20 -23 6 -3 -1 -4 -17 -3 -16
2 -33 10 -38 19 -6 12 -17 15 -38 10 -19 -3 -30 -1 -30 5 0 6 6 9 14 6 8 -3
17 -1 20 4 9 15 -111 60 -193 72 -40 6 -96 19 -125 29 -250 89 -279 102 -263
117 6 7 120 -11 172 -26 92 -27 304 -75 375 -84 87 -12 256 -53 318 -77 42
-16 52 -11 52 26 0 30 -6 38 -40 60 -29 18 -53 25 -89 25 -28 0 -95 11 -150
25 -55 14 -149 35 -208 46 -135 26 -174 35 -195 44 -19 8 -38 55 -38 96 0 25
4 29 28 29 47 0 213 -59 308 -109 34 -18 74 -31 94 -31 56 0 101 -17 137 -52
27 -27 41 -32 74 -32 51 2 65 14 47 43 -7 11 -16 21 -20 21 -4 0 -27 14 -52
31 -30 19 -67 34 -107 40 -34 5 -90 23 -123 39 -72 35 -282 110 -307 110 -23
0 -42 74 -44 181 -1 47 -4 89 -7 95 -3 5 -11 26 -17 47 -14 42 -31 41 -31 -3
0 -29 -19 -44 -45 -34 -9 4 -26 -13 -50 -50 -20 -31 -42 -56 -50 -56 -8 0 -25
11 -37 25 -12 14 -26 25 -30 25 -5 0 -32 10 -59 21 -60 26 -65 53 -17 103 l32
34 35 -17 c20 -9 39 -20 43 -26 5 -7 8 -7 9 0 1 6 3 15 4 20 2 6 3 16 4 23 0
6 7 12 15 12 7 0 19 14 26 30 11 25 10 37 -4 74 -9 24 -26 52 -36 61 -28 25
-29 134 -2 142 14 3 18 14 16 51 -1 32 5 55 18 72 30 42 -2 88 -36 51z m-154
-717 c30 -76 32 -117 6 -122 -13 -2 -18 7 -24 43 -8 55 -26 66 -58 36 -12 -11
-25 -21 -29 -21 -13 0 -7 59 8 74 8 8 15 18 15 22 0 14 33 45 44 41 6 -2 23
-35 38 -73z m-102 -104 c0 -23 -36 -82 -75 -123 -27 -28 -30 -65 -4 -59 8 2
35 9 62 15 40 10 49 16 58 44 11 33 34 53 63 53 21 0 21 -34 1 -91 -9 -24 -14
-52 -11 -62 3 -12 -3 -21 -18 -27 -26 -9 -76 -72 -76 -94 0 -19 -27 -46 -46
-46 -21 0 -17 43 7 74 21 27 18 46 -7 46 -31 0 -101 119 -75 128 6 2 13 20 17
40 14 78 104 165 104 102z m-81 -394 c15 -18 4 -44 -21 -52 -32 -10 -44 11
-24 40 19 29 29 32 45 12z"/>
<path d="M7113 5682 c-6 -4 -15 -20 -18 -35 -6 -24 -4 -27 19 -27 18 0 30 8
40 29 9 16 12 31 9 35 -9 8 -35 7 -50 -2z"/>
<path d="M7004 5583 c3 -4 -8 -12 -26 -18 -30 -9 -33 -14 -30 -45 1 -18 6 -38
11 -44 5 -6 11 -28 15 -48 4 -21 11 -40 16 -43 33 -21 94 56 106 134 5 34 3
44 -12 56 -13 9 -23 10 -31 4 -7 -7 -13 -6 -18 1 -3 5 -13 10 -22 10 -9 0 -13
-3 -9 -7z"/>
<path d="M145 5229 c-5 -7 33 -49 44 -49 12 0 71 40 71 47 0 11 -109 13 -115
2z"/>
<path d="M56 4942 c-3 -6 -1 -14 5 -17 15 -10 25 3 12 16 -7 7 -13 7 -17 1z"/>
<path d="M5563 4338 c-6 -7 -12 -27 -15 -45 l-4 -32 28 17 c21 12 28 23 26 41
-3 28 -20 37 -35 19z"/>
<path d="M6033 4223 c-6 -21 -17 -51 -24 -68 -17 -42 -22 -102 -10 -122 9 -17
10 -17 17 2 4 11 17 45 30 76 36 87 52 138 46 144 -3 3 -15 5 -26 5 -16 0 -24
-10 -33 -37z"/>
<path d="M5503 4220 c-7 -11 -9 -21 -3 -25 9 -6 13 -1 23 28 9 23 -5 22 -20
-3z"/>
<path d="M5730 4098 c-12 -23 -29 -51 -37 -60 -24 -27 -62 -114 -54 -125 3 -6
17 -9 31 -8 14 1 33 3 43 4 9 0 17 5 17 10 0 5 16 25 35 44 42 42 44 55 8 59
-33 4 -35 19 -4 33 26 12 27 46 2 69 -19 17 -20 16 -41 -26z"/>
<path d="M7785 4038 c-4 -10 -4 -26 0 -35 8 -17 8 -17 12 0 3 9 3 25 0 35 -4
16 -4 16 -12 0z"/>
<path d="M5960 3941 c0 -6 5 -13 10 -16 6 -3 10 1 10 9 0 9 -4 16 -10 16 -5 0
-10 -4 -10 -9z"/>
<path d="M5234 3844 c4 -16 9 -51 13 -77 6 -55 17 -56 51 -7 l22 34 -27 29
c-16 16 -36 33 -47 39 -17 9 -18 7 -12 -18z"/>
<path d="M5605 3820 c-3 -5 -1 -10 4 -10 6 0 11 5 11 10 0 6 -2 10 -4 10 -3 0
-8 -4 -11 -10z"/>
<path d="M5572 3739 c-30 -19 -72 -79 -56 -79 9 0 44 41 44 50 0 5 11 11 24
14 13 3 26 13 30 21 7 20 -3 19 -42 -6z"/>
<path d="M5491 3244 c-11 -15 -21 -33 -21 -40 0 -7 -9 -18 -19 -24 -22 -11
-38 -67 -24 -81 15 -15 43 14 46 48 1 18 8 35 15 38 6 2 12 12 12 21 0 9 8 23
18 30 12 9 14 16 6 24 -9 9 -17 5 -33 -16z"/>
<path d="M4115 2930 c3 -5 8 -10 11 -10 2 0 4 5 4 10 0 6 -5 10 -11 10 -5 0
-7 -4 -4 -10z"/>
<path d="M7540 2856 c0 -28 37 -56 75 -56 37 0 33 35 -7 60 -45 27 -68 26 -68
-4z"/>
<path d="M5077 2144 c-49 -56 -144 -83 -222 -63 l-44 11 -65 -53 c-35 -30 -85
-69 -111 -88 -25 -18 -53 -45 -61 -60 -9 -14 -34 -38 -55 -54 -34 -23 -79 -79
-79 -98 0 -4 11 -10 24 -13 24 -6 43 -45 23 -47 -25 -3 -43 4 -60 22 -23 24
-35 19 -152 -66 -128 -93 -129 -93 -155 -144 -31 -62 -43 -71 -89 -71 -34 0
-44 -5 -68 -36 -15 -19 -57 -55 -93 -79 -103 -69 -210 -188 -210 -235 0 -18
42 4 51 26 4 13 14 24 20 24 13 0 3 -69 -12 -84 -5 -6 -9 -15 -9 -22 0 -8 14
-6 43 9 23 11 51 25 61 30 11 5 40 9 65 9 39 -1 50 3 77 31 17 18 54 54 83 80
28 27 60 66 71 86 22 43 35 56 70 64 14 4 45 25 70 47 25 22 50 40 56 40 6 0
19 10 30 21 10 12 46 42 79 67 33 26 66 54 73 64 7 10 22 18 33 18 12 0 27 12
37 30 24 43 71 42 96 -1 15 -25 20 -29 27 -17 11 20 135 72 155 64 18 -7 17
-8 -15 -101 -11 -33 -23 -72 -26 -88 -3 -15 -30 -53 -60 -84 -30 -32 -60 -73
-66 -91 -6 -19 -17 -46 -25 -60 -8 -16 -11 -42 -8 -66 11 -79 -13 -228 -49
-307 -19 -41 -39 -85 -46 -99 -19 -42 -46 -87 -75 -122 -53 -66 -113 -165
-170 -283 -91 -187 -96 -196 -152 -272 -30 -40 -54 -75 -54 -78 0 -3 11 -5 24
-5 26 0 67 47 91 104 8 19 28 57 44 85 17 27 35 69 42 91 7 23 20 47 30 54 10
6 21 24 24 39 4 15 18 36 31 46 13 10 24 23 24 29 0 5 20 26 45 47 25 20 57
59 70 85 14 27 33 51 44 55 15 4 21 17 23 47 l3 40 28 -25 c23 -23 27 -34 27
-83 0 -48 -4 -60 -28 -82 -15 -15 -34 -43 -42 -62 -8 -19 -24 -52 -36 -72 -35
-56 -38 -81 -15 -126 11 -22 25 -43 31 -47 5 -3 10 -19 10 -34 0 -39 -50 -62
-122 -54 -54 5 -55 5 -75 -29 -11 -18 -23 -47 -27 -63 -4 -16 -13 -33 -19 -37
-7 -4 63 -8 154 -8 l166 0 7 46 c3 26 6 65 6 87 0 53 18 101 43 116 29 18 35
1 29 -75 -3 -43 -1 -69 8 -79 24 -29 114 -13 123 22 3 10 8 35 12 56 3 22 18
50 36 68 26 27 29 35 22 62 -18 73 -4 111 63 180 23 23 84 139 84 158 0 6 11
24 25 41 28 33 34 78 10 78 -8 0 -37 -21 -64 -46 -27 -26 -68 -57 -92 -71 -53
-30 -160 -56 -173 -43 -16 16 9 54 55 85 62 42 68 53 69 113 0 29 6 65 14 80
8 15 18 46 21 67 4 22 15 52 23 67 13 22 13 32 4 52 -14 31 -8 49 30 97 33 44
36 65 7 72 -29 8 -19 31 14 35 20 2 27 -1 27 -13 0 -14 2 -14 13 -3 23 23 36
53 52 124 9 38 18 80 22 94 l6 25 -32 -29 c-17 -16 -33 -37 -36 -47 -3 -10
-16 -21 -28 -25 -12 -3 -37 -18 -56 -32 -50 -37 -141 -82 -168 -82 l-23 0 21
43 c12 23 31 61 43 85 11 24 38 59 58 78 21 19 41 47 44 62 4 15 24 46 45 69
36 40 39 47 39 103 0 71 -3 72 -86 30 -70 -37 -98 -36 -102 2 -2 20 4 32 27
49 46 34 107 134 135 222 3 9 19 20 37 24 25 5 35 15 55 59 13 29 24 58 24 63
0 21 -22 11 -53 -25z"/>
<path d="M5416 2118 c-28 -43 -54 -104 -62 -148 -5 -24 -5 -24 11 -5 8 11 20
36 25 57 6 20 15 40 20 43 6 3 10 15 10 26 0 10 4 19 9 19 10 0 26 39 19 46
-3 2 -17 -15 -32 -38z"/>
<path d="M5710 2121 c0 -5 -3 -18 -6 -28 -6 -16 -5 -16 9 2 19 23 21 35 7 35
-5 0 -10 -4 -10 -9z"/>
<path d="M5970 1763 c-8 -2 -24 -8 -35 -13 -11 -5 -33 -13 -50 -19 l-30 -11
34 6 c32 6 33 5 28 -18 -7 -28 10 -33 55 -16 30 11 39 27 31 57 -6 22 -8 23
-33 14z"/>
<path d="M5870 1670 c0 -5 7 -10 15 -10 8 0 15 5 15 10 0 6 -7 10 -15 10 -8 0
-15 -4 -15 -10z"/>
<path d="M4548 1092 c-11 -19 -14 -33 -7 -42 8 -13 10 -13 19 0 9 13 14 70 7
70 -1 0 -10 -13 -19 -28z"/>
<path d="M3627 1008 c-14 -18 -29 -43 -36 -55 -6 -11 -24 -27 -41 -35 -16 -7
-30 -18 -30 -24 0 -6 -6 -16 -13 -23 -16 -12 -65 -109 -68 -131 -5 -43 0 -50
34 -43 49 9 78 27 124 76 24 25 55 48 70 52 16 3 38 16 51 27 25 24 30 58 8
58 -16 0 -78 108 -70 121 14 23 -8 5 -29 -23z"/>
<path d="M4494 1020 c-11 -4 -27 -23 -34 -42 -8 -18 -28 -55 -45 -83 -17 -27
-53 -90 -79 -140 -39 -72 -67 -108 -142 -180 -76 -74 -97 -100 -114 -147 -18
-50 -28 -60 -82 -95 -98 -61 -118 -85 -118 -134 0 -42 -25 -97 -77 -167 l-24
-32 30 0 c34 0 56 29 123 157 25 48 41 66 68 77 19 8 49 32 65 52 17 20 45 54
63 74 17 21 32 40 32 43 0 16 60 98 88 122 18 15 32 32 32 38 0 7 14 28 31 47
17 19 35 47 41 62 5 15 25 39 44 53 39 30 64 72 64 109 0 32 38 135 58 159 10
12 11 17 3 17 -7 0 -9 5 -6 10 7 12 7 12 -21 0z"/>
<path d="M3363 628 c-26 -30 -53 -70 -53 -81 0 -5 12 0 28 10 15 10 36 23 47
29 21 12 28 55 9 61 -5 2 -19 -7 -31 -19z"/>
<path d="M100 510 c0 -20 25 -38 36 -27 8 7 -15 47 -26 47 -6 0 -10 -9 -10
-20z"/>
<path d="M3609 283 c-61 -54 -139 -125 -173 -158 -34 -33 -78 -71 -99 -85 -20
-14 -37 -28 -37 -32 0 -16 115 -8 136 10 27 22 163 194 198 249 14 23 37 50
51 59 23 15 53 54 41 54 -3 0 -55 -44 -117 -97z"/>
<path d="M0 145 l0 -145 120 0 c129 0 143 7 98 46 -11 10 -40 48 -64 84 -50
76 -128 160 -149 160 -3 0 -5 -65 -5 -145z"/>
</g>
</svg>
