<?xml version="1.0" standalone="no"?>
<!DOCTYPE svg PUBLIC "-//W3C//DTD SVG 20010904//EN"
 "http://www.w3.org/TR/2001/REC-SVG-20010904/DTD/svg10.dtd">
<svg version="1.0" xmlns="http://www.w3.org/2000/svg"
 width="900.000000pt" height="505.000000pt" viewBox="0 0 900.000000 505.000000"
 preserveAspectRatio="xMidYMid meet">

<g transform="translate(0.000000,505.000000) scale(0.100000,-0.100000)"
fill="#000000" stroke="none">
<path d="M6912 5043 c36 -6 62 -60 53 -114 -6 -36 -4 -42 34 -78 23 -22 41
-44 41 -49 0 -5 11 -13 25 -16 19 -5 25 -13 25 -35 0 -17 6 -31 16 -35 8 -3
13 -10 10 -15 -3 -4 3 -16 14 -26 14 -13 52 -23 123 -32 158 -20 192 -30 192
-56 1 -12 4 -33 9 -47 4 -15 4 -20 -2 -12 -6 9 -14 6 -32 -13 -13 -14 -29 -25
-36 -25 -7 0 -16 -11 -21 -24 -4 -13 -28 -40 -51 -60 -24 -20 -37 -36 -29 -36
21 0 29 -28 15 -53 -7 -12 -11 -28 -10 -34 2 -7 -3 -13 -10 -13 -7 0 -18 -10
-23 -22 -6 -12 -19 -26 -29 -32 -27 -15 -65 -58 -66 -73 0 -15 -65 -17 -160
-4 -36 5 -104 12 -151 16 l-86 7 -38 -54 c-21 -29 -42 -54 -47 -56 -4 -2 -8
-10 -8 -17 0 -8 -14 -31 -32 -51 -25 -28 -31 -44 -30 -72 2 -20 0 -33 -4 -30
-6 7 -64 -47 -64 -61 0 -4 -16 -12 -35 -18 -31 -10 -38 -8 -75 20 -22 18 -40
40 -40 51 0 23 -32 95 -42 96 -5 0 -8 -7 -8 -15 0 -8 -4 -15 -9 -15 -6 0 -6
-12 -1 -29 4 -16 6 -32 3 -35 -11 -11 9 -27 21 -17 10 9 11 3 7 -27 -6 -32 -3
-40 20 -59 15 -13 34 -23 42 -23 8 0 17 -11 19 -25 6 -28 -18 -36 -28 -10 -4
8 -12 15 -18 15 -41 0 -155 226 -134 264 18 33 -22 46 -62 21 -17 -11 -60 -70
-60 -82 0 -5 -9 -15 -19 -23 -11 -7 -18 -16 -16 -20 6 -10 -9 -28 -25 -30 -47
-7 -51 -2 -45 53 l7 52 -21 -25 c-34 -40 -43 -95 -45 -257 l-1 -151 -35 -6
c-20 -3 -44 -11 -54 -19 -17 -12 -17 -16 -2 -74 9 -34 13 -74 10 -92 -5 -25
-2 -37 16 -56 21 -22 23 -38 32 -202 9 -180 5 -493 -7 -570 -12 -73 -26 -81
306 191 73 60 158 124 189 142 79 47 88 67 59 136 -10 25 -16 29 -39 24 -15
-3 -41 -8 -56 -11 -16 -3 -5 3 25 14 29 10 56 24 60 29 3 6 19 14 34 17 16 4
31 14 34 21 3 8 9 11 14 8 5 -3 12 1 15 9 3 8 26 25 52 38 89 46 196 170 243
281 17 40 32 74 34 76 10 12 2 -124 -10 -158 -16 -44 -12 -66 6 -40 9 13 10
13 5 0 -2 -8 -10 -33 -16 -55 -6 -22 -17 -56 -23 -75 -7 -19 -13 -89 -13 -156
-2 -142 -6 -159 -44 -179 -17 -9 -34 -29 -41 -49 -7 -19 -22 -39 -35 -45 -25
-11 -34 -6 -34 21 0 29 -14 21 -32 -21 -17 -35 -24 -91 -13 -91 3 0 18 13 33
30 36 38 45 30 21 -18 -11 -20 -19 -44 -19 -54 0 -10 -4 -18 -8 -18 -10 0 -13
-19 -13 -87 0 -42 -5 -56 -23 -70 -12 -10 -42 -68 -69 -133 -67 -167 -163
-392 -182 -431 -17 -33 -70 -99 -133 -166 -19 -21 -40 -33 -56 -33 -16 0 -26
-6 -26 -15 0 -8 -8 -23 -18 -33 -17 -17 -22 -36 -39 -142 -5 -31 -4 -33 11
-21 9 8 19 11 22 9 3 -3 -10 -15 -28 -26 -47 -29 -107 -110 -108 -144 0 -34
29 -18 62 32 32 49 54 60 74 40 13 -13 59 24 50 39 -3 5 0 11 6 14 10 3 9 12
-4 35 -21 35 -22 42 -8 42 5 0 9 -3 9 -8 -3 -18 2 -32 11 -32 5 0 7 8 4 18 -5
14 -4 14 4 2 6 -8 8 -19 5 -25 -3 -5 2 -3 12 6 9 9 18 32 20 50 1 22 8 35 19
37 9 2 16 -2 16 -8 0 -7 6 -10 14 -7 26 10 5 -29 -51 -98 -40 -48 -51 -66 -37
-63 28 5 121 133 128 177 3 20 9 47 13 60 4 17 3 22 -5 17 -8 -5 -12 0 -12 12
0 40 73 132 294 369 27 29 45 53 40 53 -4 0 -3 5 4 12 7 7 12 18 12 26 0 36
-87 -54 -187 -195 -46 -63 -123 -146 -131 -139 -2 3 14 31 36 63 22 32 74 124
117 203 104 194 190 324 343 519 44 55 62 90 62 116 0 14 6 25 13 25 8 0 19
11 25 25 10 21 9 25 -3 25 -8 0 -15 -7 -15 -15 0 -8 -6 -15 -14 -15 -8 0 -21
-3 -30 -6 -12 -4 -16 0 -16 15 0 23 -25 29 -33 9 -3 -7 -6 -2 -6 12 -1 14 22
93 49 175 77 230 150 539 150 640 0 64 17 110 45 123 14 6 25 17 25 24 0 7 15
25 34 40 27 22 41 26 69 21 20 -3 48 -3 62 1 14 4 76 57 138 119 62 62 130
129 153 149 63 56 84 148 34 148 -24 0 -26 13 -5 30 8 7 27 34 42 61 14 27 30
49 35 49 4 0 8 6 8 13 0 8 9 22 20 32 25 23 75 109 117 205 62 138 61 279 -2
413 l-37 77 -457 -1 c-251 -1 -444 -4 -429 -6z m428 -723 c0 -5 -2 -10 -4 -10
-3 0 -8 5 -11 10 -3 6 -1 10 4 10 6 0 11 -4 11 -10z m-350 -262 c34 -25 40
-34 27 -36 -10 -2 -26 0 -35 4 -9 4 -26 8 -37 8 -14 1 -21 9 -23 29 -4 36 13
35 68 -5z m-150 -108 c26 -25 39 -30 80 -30 27 0 52 -4 55 -10 3 -5 18 -10 33
-10 15 0 37 -7 50 -15 17 -12 26 -13 42 -5 11 6 25 8 30 5 14 -9 12 -33 -3
-42 -7 -4 -21 -21 -31 -37 -13 -20 -20 -25 -26 -16 -6 9 -11 7 -19 -9 -8 -13
-21 -21 -39 -21 -15 0 -36 -6 -47 -13 -82 -49 -85 -52 -99 -97 -4 -14 -42 -50
-53 -50 -6 0 -13 -10 -15 -22 -2 -13 -11 -24 -20 -26 -21 -4 -23 11 -4 30 25
26 28 58 10 96 -10 20 -17 53 -15 73 2 35 -23 133 -41 156 -10 13 30 59 59 66
10 3 19 5 20 6 1 0 16 -12 33 -29z m-600 -24 c0 -23 11 -74 25 -112 21 -59 34
-78 91 -130 58 -53 65 -63 56 -80 -9 -14 -12 -15 -12 -4 0 8 -8 2 -16 -13 -13
-24 -18 -26 -30 -16 -14 11 -13 13 0 21 20 11 21 29 1 22 -11 -4 -15 0 -15 16
0 21 -4 22 -43 18 -42 -5 -43 -4 -39 18 2 14 0 24 -7 24 -6 0 -11 -6 -11 -14
0 -8 -10 -22 -22 -30 -12 -9 -17 -16 -9 -16 7 0 11 -5 9 -11 -2 -6 -7 -10 -12
-9 -5 1 -12 -4 -17 -11 -4 -8 -11 -10 -15 -6 -4 4 -3 12 4 19 15 15 -3 48 -28
48 -10 0 -22 5 -25 10 -3 6 -1 10 5 10 6 0 8 5 5 10 -4 6 -12 7 -18 4 -9 -5
-8 -3 0 6 9 10 10 17 2 27 -7 7 -8 13 -3 13 5 0 10 35 12 77 3 79 20 113 55
113 8 0 17 9 20 20 3 11 12 20 21 20 12 0 16 -10 16 -44z m-130 -86 c0 -5 -2
-10 -4 -10 -3 0 -8 5 -11 10 -3 6 -1 10 4 10 6 0 11 -4 11 -10z m20 -220 c0
-5 -2 -10 -4 -10 -3 0 -8 5 -11 10 -3 6 -1 10 4 10 6 0 11 -4 11 -10z m30 -39
c0 -5 10 -11 23 -13 12 -2 21 -9 20 -16 -2 -6 6 -12 16 -12 11 0 23 -5 27 -12
5 -8 2 -9 -11 -4 -12 4 -26 0 -39 -12 -27 -24 -59 -25 -53 -2 3 11 -1 17 -11
16 -17 -1 -27 26 -18 50 6 15 46 20 46 5z m70 -1 c0 -5 -5 -10 -11 -10 -5 0
-7 5 -4 10 3 6 8 10 11 10 2 0 4 -4 4 -10z m-230 -80 c0 -6 11 -27 24 -48 36
-53 85 -183 92 -239 l6 -48 -21 33 c-18 28 -24 32 -37 21 -11 -9 -18 -9 -26
-1 -12 12 -29 91 -28 130 0 13 -8 36 -18 50 -26 37 -33 60 -22 67 6 4 10 15
10 26 0 10 5 19 10 19 6 0 10 -5 10 -10z m-3 -228 c-3 -15 3 -41 14 -61 10
-20 19 -43 19 -53 0 -27 -19 -31 -30 -6 -13 32 -30 159 -23 171 10 16 25 -23
20 -51z m261 -194 c-12 -7 -4 -12 14 -9 4 0 5 -6 1 -15 -3 -8 -2 -14 3 -13 17
3 54 -13 49 -22 -7 -10 -60 8 -76 27 -7 8 -32 14 -63 15 -28 1 -62 4 -76 8
-20 6 -15 9 35 20 33 8 67 18 75 22 20 10 56 -21 38 -33z m99 -74 c-3 -3 -12
-4 -19 -1 -8 3 -5 6 6 6 11 1 17 -2 13 -5z"/>
<path d="M6450 4985 c0 -8 5 -15 10 -15 6 0 10 7 10 15 0 8 -4 15 -10 15 -5 0
-10 -7 -10 -15z"/>
<path d="M6320 4740 c0 -16 4 -30 9 -30 5 0 11 14 13 30 3 20 0 30 -9 30 -8 0
-13 -12 -13 -30z"/>
<path d="M6460 4517 c0 -24 42 -90 74 -116 9 -8 21 -22 26 -32 8 -15 5 -17
-27 -14 -25 3 -47 15 -74 41 -21 21 -41 36 -43 33 -12 -11 25 -87 58 -122 20
-20 36 -42 36 -47 0 -11 42 -30 66 -30 8 0 14 7 14 15 0 8 7 15 15 15 8 0 15
5 15 10 0 6 7 10 15 10 19 0 19 29 1 55 -7 11 -32 56 -55 100 -50 94 -47 91
-88 100 -30 6 -33 4 -33 -18z"/>
<path d="M7248 4353 c6 -2 18 -2 25 0 6 3 1 5 -13 5 -14 0 -19 -2 -12 -5z"/>
<path d="M6054 4217 c-163 -121 -285 -291 -392 -548 -57 -137 -82 -173 -130
-187 -38 -12 -58 -34 -47 -52 3 -4 -2 -10 -10 -14 -17 -6 -19 -15 -6 -35 15
-24 127 22 187 77 46 42 54 57 79 137 53 169 160 352 272 464 48 48 71 81 90
128 14 35 23 66 21 69 -3 2 -32 -15 -64 -39z m-431 -727 c-5 -19 -23 -39 -23
-25 0 9 20 45 24 45 2 0 2 -9 -1 -20z"/>
<path d="M6328 4103 c6 -2 18 -2 25 0 6 3 1 5 -13 5 -14 0 -19 -2 -12 -5z"/>
<path d="M6224 4089 c-18 -5 -39 -21 -49 -35 -23 -35 -11 -42 18 -10 14 14 42
33 63 40 43 16 18 20 -32 5z"/>
<path d="M5370 3458 c0 -41 -30 -103 -50 -103 -32 0 -19 -35 32 -84 29 -28 58
-51 64 -51 25 0 36 46 25 103 -7 30 -11 73 -10 95 3 44 -13 72 -42 72 -15 0
-19 -7 -19 -32z"/>
<path d="M4841 3398 c-15 -15 -18 -25 -10 -34 8 -10 -6 -24 -58 -58 -37 -24
-83 -60 -101 -79 l-33 -34 48 -29 c109 -65 141 -73 248 -61 22 3 48 5 57 6 22
1 48 61 48 107 0 29 -7 39 -55 74 -45 33 -54 45 -50 63 6 26 -2 40 -32 56 -30
16 -39 14 -62 -11z m-70 -180 c21 -26 24 -38 9 -38 -16 0 -51 40 -45 50 9 15
15 12 36 -12z"/>
<path d="M4019 3222 c-35 -50 -44 -100 -23 -124 15 -16 17 -50 17 -275 0 -165
-4 -281 -12 -323 -19 -99 -42 -182 -58 -214 -12 -24 -13 -36 -3 -72 7 -24 15
-42 19 -40 4 3 12 -8 19 -24 7 -15 23 -39 35 -52 12 -13 31 -41 42 -61 11 -20
23 -37 26 -37 4 0 10 -19 14 -42 4 -24 14 -55 21 -70 8 -16 16 -58 19 -94 3
-49 9 -72 24 -85 10 -10 22 -15 25 -12 3 4 6 1 6 -5 0 -6 19 -21 41 -33 48
-24 77 -17 105 25 9 14 20 23 25 20 5 -3 7 -9 4 -14 -3 -4 2 -13 10 -20 8 -7
15 -19 15 -27 0 -8 5 -11 10 -8 15 9 42 -63 38 -101 -2 -18 0 -30 4 -28 4 3 8
15 8 28 0 12 6 31 14 41 15 21 8 45 -23 76 -21 22 -48 57 -119 154 -32 44 -66
86 -75 94 -24 20 -99 132 -93 139 3 3 -3 11 -14 19 -26 18 -27 53 -2 53 11 0
27 -9 37 -20 10 -12 24 -19 31 -16 7 3 31 -4 54 -15 23 -11 44 -18 46 -16 3 3
-7 22 -21 42 -14 21 -23 40 -20 43 3 3 50 5 105 4 60 -1 100 2 100 8 0 5 -25
40 -57 76 -38 46 -53 71 -47 79 46 63 47 65 33 93 -7 15 -15 30 -17 35 -2 4 1
7 8 7 6 0 8 -4 5 -10 -3 -5 1 -10 10 -10 8 0 18 -7 21 -15 4 -8 14 -15 23 -15
10 0 25 -8 34 -17 52 -54 97 -106 97 -114 0 -4 10 -11 23 -15 12 -4 24 -10 27
-13 3 -4 17 -14 33 -24 56 -36 27 11 -68 111 -53 55 -119 130 -147 166 -43 56
-58 68 -94 77 -38 10 -48 18 -75 66 -35 61 -90 117 -100 102 -10 -17 -42 62
-43 108 -1 26 -6 43 -13 43 -32 0 -46 141 -18 183 15 23 17 41 12 100 -7 92
-12 104 -45 105 -20 0 -34 -9 -53 -36z m250 -1468 c11 -32 18 -60 16 -62 -8
-8 -45 78 -45 104 0 37 6 28 29 -42z"/>
<path d="M6733 3149 c-54 -60 -61 -73 -42 -84 15 -10 45 21 79 81 50 86 37 87
-37 3z"/>
<path d="M6770 3040 c-7 -17 -10 -33 -8 -36 3 -3 11 9 17 27 6 18 9 34 7 36
-2 2 -9 -10 -16 -27z"/>
<path d="M6562 2957 c-23 -23 -42 -46 -42 -51 0 -11 87 62 94 79 10 26 -9 16
-52 -28z"/>
<path d="M5700 2920 c0 -11 5 -20 10 -20 6 0 10 -9 10 -19 0 -21 13 -35 23
-24 6 6 -29 83 -38 83 -3 0 -5 -9 -5 -20z"/>
<path d="M5457 2873 c-16 -20 -16 -28 -6 -64 12 -38 11 -42 -8 -58 -11 -9 -25
-25 -31 -36 -12 -25 -14 -176 -2 -195 6 -9 3 -18 -7 -25 -13 -10 -13 -15 -2
-33 11 -17 11 -24 1 -34 -18 -18 -14 -38 8 -38 26 0 26 -16 1 -23 -13 -3 -22
-17 -26 -40 -8 -40 -31 -65 -65 -72 -39 -7 -262 33 -310 56 -25 12 -63 34 -85
50 -22 16 -78 55 -125 86 -47 31 -97 67 -112 80 -45 43 -86 16 -74 -49 4 -23
26 -56 62 -96 30 -34 54 -67 52 -74 -4 -20 43 -78 64 -78 17 0 106 -61 120
-84 5 -6 -5 -23 -23 -38 -35 -31 -34 -64 1 -53 12 4 20 2 20 -5 0 -6 5 -8 10
-5 11 7 40 -17 40 -34 0 -13 -60 -42 -73 -34 -5 3 -7 1 -4 -4 8 -13 -47 -38
-62 -28 -6 3 -11 15 -11 25 0 31 -56 51 -67 23 -3 -7 -23 -23 -44 -35 -40 -22
-47 -32 -29 -43 6 -3 10 -15 10 -26 0 -10 5 -19 10 -19 6 0 10 9 10 19 0 23
35 37 54 22 14 -12 46 -5 46 10 0 20 30 7 36 -15 6 -26 -7 -58 -39 -94 l-21
-22 32 6 c35 7 36 4 22 -44 l-9 -34 39 7 c37 6 40 5 40 -16 0 -12 -8 -27 -17
-34 -23 -17 -7 -98 20 -103 13 -3 18 2 17 15 -1 10 -2 33 -1 51 l1 32 81 0 81
0 -6 -57 c-4 -32 -10 -73 -13 -90 -4 -27 -2 -33 12 -33 13 0 16 6 13 25 -4 20
-1 25 14 25 12 0 24 12 34 35 8 19 21 35 28 35 8 0 16 6 19 13 2 6 8 8 13 4 4
-4 3 -22 -3 -38 -11 -27 -9 -35 10 -61 16 -22 18 -32 10 -35 -7 -3 -13 -9 -13
-15 0 -5 -7 -16 -15 -24 -8 -9 -15 -26 -15 -39 0 -20 -6 -25 -42 -29 -24 -3
-54 -4 -68 -3 -23 2 -25 -1 -22 -30 3 -27 0 -33 -16 -33 -13 0 -22 -9 -26 -24
-5 -20 -12 -25 -39 -25 -51 1 -95 29 -143 94 -24 33 -64 82 -89 109 -25 28
-45 56 -45 63 0 7 -5 13 -11 13 -6 0 -9 -9 -6 -20 3 -11 4 -20 3 -20 0 0 -16
4 -34 9 -45 13 -40 -2 17 -43 65 -48 79 -72 96 -163 17 -93 20 -168 10 -244
-11 -81 2 -202 24 -226 10 -11 24 -36 32 -56 7 -21 27 -52 44 -70 18 -19 38
-48 46 -65 8 -18 17 -32 21 -32 11 0 10 -42 -1 -59 -8 -12 -15 -10 -39 10 -17
13 -31 30 -31 37 -1 17 -21 15 -21 -3 0 -8 4 -15 9 -15 5 0 11 -9 14 -20 6
-22 -8 -28 -17 -7 -7 14 0 -37 10 -79 7 -26 6 -28 -9 -15 -15 12 -17 11 -17
-3 0 -10 5 -27 11 -38 7 -12 7 -23 2 -27 -5 -3 -12 -14 -16 -24 -6 -16 -9 -16
-34 -3 -25 13 -29 12 -45 -6 -14 -17 -21 -18 -32 -9 -10 9 -16 9 -21 1 -4 -6
-14 -10 -23 -9 -31 3 -32 -1 -17 -37 15 -36 12 -60 -6 -49 -5 4 -9 -16 -9 -45
0 -43 -3 -50 -17 -48 -15 2 -17 -3 -15 -30 2 -18 -2 -40 -9 -48 -10 -12 -8
-20 10 -45 13 -17 19 -34 16 -37 -4 -4 -10 -1 -12 6 -3 6 -9 10 -14 6 -26 -16
2 -22 107 -23 l116 -2 -4 31 c-3 18 1 35 9 41 7 6 13 23 14 38 l1 26 8 -25 c8
-24 8 -24 9 -2 2 36 31 27 32 -10 1 -26 3 -22 11 19 5 29 14 53 19 53 5 0 9
-4 9 -9 0 -5 10 -11 22 -13 14 -2 25 -14 32 -36 7 -18 15 -30 19 -25 5 4 12 1
17 -7 8 -12 10 -10 10 9 l0 23 20 -23 c13 -16 20 -19 19 -9 -1 8 2 26 8 39
l10 25 6 -23 c5 -20 8 -21 20 -10 8 8 12 20 10 26 -3 7 -2 25 1 39 6 24 9 25
24 12 15 -13 46 -29 62 -32 14 -3 130 -129 130 -141 0 -13 31 -15 208 -14
l207 0 -54 21 c-30 11 -119 54 -198 94 -78 41 -147 74 -153 74 -5 0 -47 17
-92 39 -46 21 -109 49 -142 62 -32 13 -66 34 -74 47 -31 48 -34 149 -6 231 7
21 32 -5 32 -35 0 -14 8 -35 19 -47 11 -12 24 -31 28 -42 7 -18 9 -18 12 -3 3
10 9 18 14 18 6 0 7 -4 4 -10 -6 -10 41 -60 56 -60 14 0 11 38 -3 42 -9 3 -8
8 2 20 13 14 16 13 25 -6 6 -12 19 -20 28 -18 10 2 20 -4 23 -12 9 -24 40 -2
54 38 6 19 18 40 26 46 18 16 18 30 0 30 -22 0 -28 17 -16 41 8 13 18 19 30
16 12 -3 17 0 14 8 -3 7 1 15 9 18 10 4 19 33 27 79 7 40 16 82 21 93 15 33
39 119 39 139 0 17 -25 45 -42 46 -5 0 -8 -9 -8 -21 0 -53 -64 -168 -135 -243
l-20 -21 -3 38 c-3 37 14 67 37 67 6 0 11 5 11 11 0 5 4 8 9 5 8 -5 24 75 16
82 -2 2 -17 -5 -33 -17 -17 -12 -35 -21 -40 -21 -6 0 -21 -9 -34 -20 -54 -45
-86 -70 -92 -70 -3 0 -27 19 -54 42 -27 24 -65 57 -85 73 -30 25 -37 38 -39
75 -3 42 -5 45 -41 53 -20 5 -56 26 -79 48 l-43 39 45 -20 c60 -26 78 -25 131
8 24 16 49 27 54 25 6 -2 19 11 30 29 10 18 51 76 91 129 123 163 161 228 175
300 7 35 14 66 15 68 2 1 15 -9 30 -23 16 -14 30 -23 32 -21 9 8 -41 140 -57
152 -14 11 -14 14 -1 23 8 5 24 10 35 10 17 1 16 5 -13 30 -17 16 -32 33 -31
37 3 20 -2 33 -14 33 -8 0 -13 10 -13 23 1 16 -5 22 -21 22 -11 0 -33 6 -47
13 -14 7 -36 17 -49 22 -12 6 -30 25 -40 42 l-18 31 47 -7 c26 -3 55 -12 63
-20 19 -17 52 -23 68 -13 22 14 163 15 163 2 0 -13 -62 -45 -88 -45 -49 0 -54
-49 -12 -107 16 -22 31 -51 32 -64 4 -29 19 -41 76 -59 55 -17 63 -30 18 -30
-20 0 -36 -3 -36 -7 1 -5 25 -26 55 -47 40 -28 55 -46 55 -63 0 -29 -13 -29
-40 -1 -22 24 -36 19 -22 -9 5 -10 16 -31 24 -48 9 -16 16 -46 16 -65 1 -42
39 -80 162 -161 111 -73 132 -84 210 -103 35 -9 83 -28 107 -41 57 -34 73 -33
73 6 0 26 3 30 18 24 9 -3 30 -9 46 -12 37 -8 28 10 -17 34 l-32 16 40 18 c42
19 75 52 75 75 0 23 -13 16 -71 -40 -31 -30 -70 -61 -87 -70 -31 -16 -32 -16
-32 3 0 11 -9 36 -20 56 -11 19 -18 35 -15 35 2 0 -7 11 -20 25 -22 21 -25 33
-25 90 0 57 -4 72 -27 102 -26 33 -26 37 -12 62 9 14 22 37 30 51 8 14 20 29
27 33 17 11 15 33 -6 92 -20 55 -17 54 -115 34 -47 -10 -60 -10 -67 0 -7 12
-36 11 -93 -5 -22 -7 -12 -24 14 -24 16 0 19 -7 19 -39 0 -41 -17 -98 -26 -89
-2 3 -12 34 -21 68 -13 53 -14 72 -3 119 18 84 28 100 69 107 20 4 39 12 43
18 6 8 8 7 8 -1 0 -7 7 -10 15 -7 19 8 21 158 2 191 -11 20 -14 21 -52 6 -79
-29 -81 -29 -88 14 -4 21 -7 50 -7 64 0 14 -14 52 -30 82 l-30 57 34 14 c19 8
42 26 51 40 10 14 34 36 55 47 35 20 70 71 70 103 0 8 6 19 14 25 7 6 16 26
20 43 10 48 -30 99 -124 159 -44 28 -82 59 -85 68 -3 9 -15 17 -26 18 -12 1
-29 8 -38 16 -9 8 -36 19 -61 24 -42 9 -47 8 -63 -14z m-151 -688 c20 -59 17
-66 -16 -35 -28 26 -38 58 -23 74 13 13 25 0 39 -39z m-248 -113 c42 -32 33
-40 -18 -17 -26 12 -40 25 -40 37 0 21 5 19 58 -20z m-18 -77 c0 -8 -7 -15
-15 -15 -26 0 -18 20 13 29 1 1 2 -6 2 -14z m-82 -78 c2 -15 8 -27 13 -27 5 0
9 -9 9 -21 0 -11 -4 -18 -8 -15 -8 4 -6 -16 11 -123 4 -27 -22 -22 -37 8 -19
36 -20 61 -3 61 8 0 7 3 -3 9 -8 6 -18 7 -22 5 -4 -3 -8 15 -8 40 0 25 -4 48
-10 51 -16 10 -12 33 8 38 33 9 47 2 50 -26z m-88 -97 c0 -5 -7 -10 -16 -10
-8 0 -12 5 -9 10 3 6 10 10 16 10 5 0 9 -4 9 -10z m404 -214 c-3 -9 -10 -13
-16 -10 -5 3 -4 12 3 20 15 18 22 13 13 -10z m-293 -973 c0 -10 2 -26 4 -35 4
-22 -18 -24 -35 -3 -9 10 -9 15 -1 15 6 0 11 9 11 20 0 25 20 27 21 3z m-356
-543 c3 -5 1 -10 -4 -10 -6 0 -11 5 -11 10 0 6 2 10 4 10 3 0 8 -4 11 -10z"/>
<path d="M3209 2880 c-108 -32 -263 -161 -275 -228 -9 -45 3 -186 16 -190 5
-2 22 -26 36 -53 15 -27 30 -49 34 -49 11 0 32 108 25 131 -4 11 -15 29 -26
40 -49 49 -32 127 47 208 30 31 54 58 54 62 0 12 106 63 155 75 l50 12 -45 0
c-25 0 -57 -3 -71 -8z"/>
<path d="M3524 2788 c-37 -38 -64 -88 -64 -117 0 -11 -10 -27 -22 -36 -18 -12
-21 -19 -12 -33 6 -10 15 -32 18 -49 4 -17 13 -37 21 -43 8 -7 12 -25 10 -46
-2 -19 1 -34 6 -34 14 0 -1 -52 -22 -75 -20 -23 -44 -83 -36 -91 3 -3 13 8 23
25 10 17 23 31 29 31 5 0 17 10 24 23 22 33 17 214 -6 240 -24 26 -6 51 41 55
l36 3 -1 67 c-1 37 -4 77 -7 90 -7 23 -7 23 -38 -10z"/>
<path d="M1155 1856 c-54 -13 -116 -42 -127 -59 -12 -19 3 -28 19 -12 11 12
35 15 102 14 88 -2 131 9 131 35 0 33 -48 42 -125 22z"/>
<path d="M4610 1850 c-13 -11 -28 -20 -35 -20 -7 0 -20 -9 -30 -20 -10 -11
-24 -20 -31 -20 -14 0 -80 -57 -73 -63 2 -3 15 -8 28 -12 20 -6 23 -4 18 9 -4
11 -1 16 11 16 10 0 27 7 38 15 10 8 26 15 35 15 9 0 30 7 45 15 16 8 37 15
47 15 20 0 24 39 5 58 -17 17 -32 15 -58 -8z"/>
<path d="M6740 1820 c0 -5 5 -10 10 -10 6 0 10 5 10 10 0 6 -4 10 -10 10 -5 0
-10 -4 -10 -10z"/>
<path d="M4714 1628 c18 -30 66 -18 66 16 0 1 -17 1 -39 1 -34 0 -37 -1 -27
-17z"/>
<path d="M0 1474 c0 -137 2 -158 17 -169 12 -9 23 -10 36 -3 10 5 58 12 107
15 115 8 150 26 149 80 0 50 -26 110 -69 161 -37 45 -62 52 -98 26 -21 -15
-25 -15 -43 2 -18 16 -19 16 -19 -4 0 -12 -4 -22 -10 -22 -5 0 -10 16 -10 35
0 32 -2 35 -30 35 l-30 0 0 -156z"/>
<path d="M4490 1559 c0 -6 9 -22 20 -36 22 -28 26 -18 8 22 -11 25 -28 34 -28
14z"/>
<path d="M1419 1537 c-9 -7 -20 -31 -23 -54 -4 -23 -14 -49 -21 -60 -8 -10
-15 -21 -15 -25 -1 -22 128 4 169 34 31 22 21 51 -30 80 -21 12 -39 25 -39 30
0 12 -23 9 -41 -5z"/>
<path d="M950 1494 c-11 -31 -10 -37 7 -49 10 -8 23 -15 29 -15 6 0 25 -13 42
-30 18 -16 42 -30 55 -30 21 0 86 18 96 26 2 2 -13 23 -34 46 -27 30 -57 50
-99 65 -34 13 -66 23 -73 23 -6 0 -17 -16 -23 -36z"/>
<path d="M5456 1510 c12 -14 27 -34 33 -45 11 -18 11 -18 5 5 -3 14 -7 25 -8
25 0 0 -12 9 -26 20 l-25 20 21 -25z"/>
<path d="M5040 1479 c0 -8 -16 -23 -35 -33 -35 -19 -38 -36 -7 -36 19 0 60 66
49 77 -4 3 -7 0 -7 -8z"/>
<path d="M4621 1394 c0 -11 3 -14 6 -6 3 7 2 16 -1 19 -3 4 -6 -2 -5 -13z"/>
<path d="M6300 1388 c-12 -22 -12 -22 6 -6 10 10 15 20 12 24 -4 3 -12 -5 -18
-18z"/>
<path d="M688 1353 c7 -3 16 -2 19 1 4 3 -2 6 -13 5 -11 0 -14 -3 -6 -6z"/>
<path d="M4985 1057 c-10 -8 -14 -17 -9 -20 6 -3 15 3 22 14 14 23 12 24 -13
6z"/>
<path d="M5060 1005 c-17 -21 -8 -28 15 -11 11 8 14 15 8 19 -6 4 -16 0 -23
-8z"/>
<path d="M5144 1012 c-7 -5 -7 -14 2 -30 6 -13 14 -19 18 -14 9 15 -7 52 -20
44z"/>
<path d="M5492 980 c-7 -11 -8 -20 -3 -20 9 0 24 30 18 36 -1 2 -8 -6 -15 -16z"/>
<path d="M5040 942 c0 -15 9 -35 20 -45 11 -9 20 -14 20 -12 0 3 11 -2 24 -10
21 -14 24 -14 30 0 10 28 7 32 -25 27 -34 -5 -49 8 -49 46 0 12 -4 22 -10 22
-5 0 -10 -12 -10 -28z"/>
<path d="M5032 550 c0 -14 2 -19 5 -12 2 6 2 18 0 25 -3 6 -5 1 -5 -13z"/>
<path d="M3697 554 c-4 -4 -16 -7 -28 -8 -46 -2 -78 -109 -44 -143 9 -8 13
-18 10 -22 -4 -3 -15 5 -25 19 -22 29 -31 25 -19 -8 7 -17 15 -22 39 -20 34 3
34 2 20 27 -15 28 44 76 103 85 37 6 47 11 47 26 0 25 -17 35 -35 20 -12 -10
-15 -9 -15 9 0 15 -6 21 -23 21 -13 0 -27 -3 -30 -6z"/>
<path d="M4800 409 c0 -5 5 -7 10 -4 6 3 10 8 10 11 0 2 -4 4 -10 4 -5 0 -10
-5 -10 -11z"/>
<path d="M3785 280 c3 -5 11 -10 16 -10 6 0 7 5 4 10 -3 6 -11 10 -16 10 -6 0
-7 -4 -4 -10z"/>
<path d="M3736 252 c-2 -4 -1 -14 3 -21 10 -16 -10 -61 -26 -61 -7 0 -13 -6
-13 -14 0 -7 -7 -19 -15 -26 -12 -10 -16 -9 -21 5 -9 22 -24 1 -24 -34 0 -16
-4 -21 -15 -17 -12 4 -15 -4 -15 -40 l0 -45 77 3 77 3 18 70 c18 71 22 179 7
169 -5 -3 -17 0 -28 6 -11 5 -22 6 -25 2z"/>
<path d="M4575 120 c3 -5 8 -10 11 -10 2 0 4 5 4 10 0 6 -5 10 -11 10 -5 0 -7
-4 -4 -10z"/>
</g>
</svg>
