<?xml version="1.0" standalone="no"?>
<!DOCTYPE svg PUBLIC "-//W3C//DTD SVG 20010904//EN"
 "http://www.w3.org/TR/2001/REC-SVG-20010904/DTD/svg10.dtd">
<svg version="1.0" xmlns="http://www.w3.org/2000/svg"
 width="998.000000pt" height="701.000000pt" viewBox="0 0 998.000000 701.000000"
 preserveAspectRatio="xMidYMid meet">

<g transform="translate(0.000000,701.000000) scale(0.100000,-0.100000)"
fill="#000000" stroke="none">
<path d="M0 3505 l0 -3505 4990 0 4990 0 0 3505 0 3505 -4990 0 -4990 0 0
-3505z m1005 3295 c187 -11 432 -27 545 -35 113 -8 306 -22 430 -30 124 -8
288 -19 365 -25 77 -5 253 -17 390 -25 138 -8 322 -20 410 -26 87 -5 281 -16
430 -24 275 -15 599 -33 1075 -60 146 -9 272 -18 280 -21 8 -3 132 -10 275
-15 341 -12 612 -25 760 -38 66 -6 201 -15 300 -21 99 -6 239 -15 310 -21 136
-10 240 -17 620 -43 127 -9 358 -25 515 -36 157 -11 392 -27 524 -35 131 -8
241 -17 245 -20 4 -2 97 -6 207 -9 110 -2 211 -7 225 -11 23 -6 28 -14 39 -73
7 -37 14 -85 17 -107 2 -22 20 -148 38 -280 37 -256 75 -541 75 -557 0 -13
-311 -8 -2040 37 -365 9 -1382 34 -1640 40 -135 3 -317 8 -405 10 -88 2 -396
7 -685 10 -289 3 -588 7 -665 10 -130 4 -395 -6 -561 -20 -51 -4 -99 -1 -170
13 -74 15 -146 20 -289 21 -104 0 -296 3 -425 6 -129 3 -473 10 -765 16 -683
14 -993 23 -1000 31 -3 3 -1 95 4 204 21 388 31 612 41 874 6 146 13 271 15
278 3 9 26 11 87 7 46 -3 236 -14 423 -25z m4169 -67 c6 2 10 11 8 21 -5 26
28 19 38 -10 17 -45 12 -73 -14 -80 -13 -3 -33 -1 -45 5 -22 12 -38 70 -26 98
6 15 9 14 17 -10 6 -15 15 -26 22 -24z m-149 -33 c3 -5 1 -10 -4 -10 -6 0 -11
5 -11 10 0 6 2 10 4 10 3 0 8 -4 11 -10z m-1445 -1410 c0 -5 -4 -10 -10 -10
-5 0 -10 5 -10 10 0 6 5 10 10 10 6 0 10 -4 10 -10z m1540 -8 c0 -5 -7 -17
-16 -28 -8 -10 -14 -14 -11 -9 2 6 7 18 10 28 7 17 17 23 17 9z m95 -738 c22
-23 21 -120 -2 -133 -10 -5 -117 -10 -238 -11 -249 -3 -705 -4 -780 -2 -27 1
-77 1 -110 1 -33 0 -85 3 -115 6 -30 3 -111 9 -180 13 l-125 7 -3 53 c-2 36 1
54 10 57 16 6 884 22 1261 23 225 0 269 -2 282 -14z m1496 -21 c10 -49 0 -83
-28 -94 -35 -13 -204 -19 -197 -7 4 6 0 6 -13 0 -10 -6 -55 -11 -99 -11 -43
-1 -296 -3 -561 -5 -334 -4 -484 -2 -489 5 -4 6 -9 39 -12 74 -4 61 -4 63 19
67 13 3 328 4 699 4 l674 -1 7 -32z m981 27 c58 0 128 -2 156 -6 47 -6 49 -7
38 -30 -6 -13 -16 -26 -23 -28 -15 -6 -53 4 -53 15 0 5 -5 9 -11 9 -5 0 -7 -4
-4 -10 7 -11 4 -11 -35 -14 -14 -2 -46 -6 -72 -10 -41 -6 -48 -5 -58 13 -12
23 -36 28 -42 9 -3 -7 -24 -11 -56 -10 -29 0 -52 -3 -52 -9 0 -5 -45 -9 -102
-9 -57 0 -208 -5 -337 -10 -128 -6 -235 -9 -236 -8 -2 2 -6 27 -10 57 l-7 54
398 -7 c220 -4 447 -7 506 -6z m298 -10 c20 -12 9 -21 -18 -13 -12 3 -19 9
-16 14 7 11 15 11 34 -1z m-4456 -16 c11 -4 16 -19 16 -51 l0 -44 -161 3
c-101 3 -163 8 -167 15 -7 11 -155 22 -302 23 -44 0 -70 4 -62 9 7 4 24 6 38
3 17 -3 24 0 24 12 0 9 -9 17 -22 18 -41 4 233 14 429 16 105 1 198 -1 207 -4z
m-831 -21 c-13 -2 -33 -2 -45 0 -13 2 -3 4 22 4 25 0 35 -2 23 -4z m44 -29
c-3 -3 -12 -4 -19 -1 -8 3 -5 6 6 6 11 1 17 -2 13 -5z m4927 -513 c3 -4 -22
-14 -57 -21 -34 -7 -123 -28 -197 -47 -149 -39 -238 -60 -287 -69 -32 -6 -33
-5 -33 26 0 40 -10 34 -19 -12 l-7 -33 -25 50 c-21 42 -31 51 -63 58 -29 7
-41 6 -55 -7 -24 -22 -46 -20 -70 5 -23 25 -62 20 -42 -5 9 -10 8 -15 -4 -20
-11 -4 -15 -20 -15 -60 l0 -55 -43 -6 c-57 -9 -112 -3 -113 13 -5 45 -6 46
-20 15 -12 -29 -19 -33 -53 -33 -31 0 -41 4 -46 20 -8 25 -25 26 -18 1 5 -21
-18 -24 -267 -36 -137 -7 -167 -12 -173 -29 -4 -10 23 -12 135 -8 117 4 140 2
136 -9 -3 -8 -18 -16 -34 -20 -29 -5 -29 -5 9 -12 36 -8 52 -27 22 -27 -8 0
-15 -4 -15 -10 0 -5 11 -10 25 -10 37 0 30 -17 -7 -18 -37 -1 -63 25 -45 46 8
11 2 13 -33 10 -26 -2 -45 -9 -48 -17 -3 -10 2 -12 21 -7 14 3 29 2 32 -4 4
-6 -8 -10 -27 -11 -30 -1 -31 -2 -8 -8 22 -6 23 -8 7 -14 -10 -4 -30 -7 -43
-7 -13 0 -24 -4 -24 -9 0 -4 23 -6 50 -3 42 4 50 2 50 -12 0 -10 -11 -19 -28
-22 -24 -5 -28 -10 -24 -29 5 -30 -28 -68 -51 -59 -10 3 -17 2 -17 -4 0 -6
-22 -13 -49 -17 -28 -4 -52 -13 -55 -21 -7 -19 -26 -18 -26 1 0 8 -5 15 -11
15 -9 0 -9 -46 1 -118 0 -2 10 0 23 3 l22 7 -21 -20 c-15 -14 -20 -28 -17 -46
3 -14 0 -33 -7 -41 -8 -10 -11 -31 -7 -58 3 -23 1 -51 -3 -62 -5 -11 -9 -17
-9 -13 -4 34 -51 747 -53 793 l-2 60 390 8 c214 4 598 11 854 15 256 5 470 10
477 10 6 1 14 -2 17 -7z m165 -16 c-1 -11 1 -27 4 -35 11 -29 61 -549 54 -557
-3 -2 -9 33 -13 79 -5 45 -10 73 -12 60 -2 -13 3 -94 12 -180 41 -416 58 -679
45 -687 -4 -3 -6 -12 -3 -19 3 -8 1 -17 -5 -21 -7 -3 -11 3 -12 17 0 13 -6 68
-12 123 -12 96 -13 100 -35 97 -14 -2 -29 4 -37 14 -11 16 -9 22 16 47 29 28
37 51 21 61 -5 3 -17 -9 -27 -27 -10 -17 -20 -26 -23 -19 -2 7 -22 12 -48 12
-28 0 -43 -4 -39 -10 3 -5 23 -10 43 -11 32 0 34 -1 14 -9 -28 -12 -49 -4 -86
29 l-28 26 7 -24 c5 -16 4 -21 -4 -17 -6 4 -17 29 -25 56 -16 54 -9 99 20 131
15 16 14 20 -7 48 -13 17 -30 31 -40 31 -15 0 -47 55 -37 65 2 2 21 -1 41 -7
24 -7 37 -17 37 -29 0 -12 11 -19 41 -24 30 -5 39 -11 35 -22 -4 -10 -1 -13
12 -11 21 5 92 -28 92 -43 0 -6 -15 -1 -34 10 -35 22 -76 21 -106 -2 -22 -16
-50 -59 -50 -74 0 -22 20 -14 30 11 11 31 48 56 81 56 25 0 79 -42 79 -61 0
-5 4 -9 9 -9 9 0 4 202 -5 230 -3 8 -7 44 -9 80 -2 36 -11 124 -19 195 -9 72
-16 133 -16 138 0 9 -60 -1 -75 -12 -17 -14 -63 -22 -69 -12 -3 5 -33 3 -68
-4 -35 -7 -97 -16 -139 -20 -42 -4 -81 -10 -88 -14 -8 -5 -7 -50 6 -172 9 -90
17 -191 18 -224 l0 -60 -71 -3 c-64 -3 -72 -1 -77 17 -3 14 1 21 19 25 13 4
24 11 24 16 0 6 6 10 14 10 17 0 10 39 -18 94 -18 34 -20 52 -15 106 7 75 2
157 -11 179 -5 9 -19 17 -32 18 -70 7 -85 14 -83 41 2 15 6 34 9 43 4 9 0 21
-9 29 -8 7 -15 21 -15 31 0 10 -5 21 -10 24 -24 15 5 22 87 24 l88 1 -30 -25
-30 -25 30 0 c99 -1 103 -3 121 -45 l18 -40 4 39 c4 47 29 72 86 87 23 5 48
12 56 15 12 5 181 31 228 36 11 1 12 16 7 65 l-6 64 36 -3 c29 -2 36 -6 34
-23z m-1951 -22 c8 -16 22 -229 28 -443 1 -36 7 -144 13 -240 19 -303 19 -330
10 -324 -5 3 -12 23 -15 45 -5 29 -11 39 -25 39 -13 0 -19 7 -19 24 0 33 18
43 29 15 8 -23 8 -23 15 4 7 31 -2 77 -15 77 -5 0 -8 -5 -6 -11 4 -21 -20 -20
-26 0 -3 15 1 21 17 23 16 2 22 11 24 41 l3 37 -40 0 c-35 0 -41 3 -41 21 0
11 -4 18 -8 15 -4 -2 -14 -1 -21 3 -23 15 14 59 44 53 16 -3 25 0 25 8 0 7 -8
10 -20 7 -11 -3 -22 -2 -25 3 -6 10 30 51 39 43 3 -3 6 3 6 14 0 26 -23 36
-45 19 -17 -12 -17 -13 -1 -19 24 -9 10 -27 -20 -27 -17 0 -24 5 -24 20 0 11
-7 20 -15 20 -8 0 -15 6 -15 13 0 9 -2 9 -8 0 -4 -6 -48 -14 -100 -18 -51 -4
-95 -12 -98 -17 -4 -6 -7 -32 -7 -60 -1 -54 10 -68 56 -68 17 0 27 -5 27 -15
0 -12 -9 -14 -44 -11 -33 4 -46 1 -50 -10 -8 -20 3 -44 20 -44 10 0 14 -12 14
-40 0 -48 -6 -51 -19 -7 l-9 32 -1 -33 c-1 -49 -18 -30 -26 31 -4 28 -12 57
-17 64 -5 7 -8 29 -7 50 3 51 -8 83 -27 76 -7 -3 -14 -1 -14 5 0 6 6 12 12 14
7 3 2 7 -10 10 -18 5 -22 2 -22 -18 0 -14 -6 -24 -14 -24 -8 0 -14 6 -13 13 2
63 -1 67 -50 67 -91 0 -91 0 -86 -93 2 -45 0 -88 -6 -96 -13 -20 -41 -6 -41
21 0 18 2 20 10 8 13 -21 18 -10 12 33 -3 27 -8 37 -18 33 -8 -3 -14 1 -14 9
0 9 6 12 15 9 12 -5 15 2 15 29 0 20 -4 39 -10 42 -5 3 -10 1 -10 -6 0 -8 -4
-8 -13 -1 -22 19 -40 -2 -35 -42 2 -20 0 -36 -4 -36 -17 0 -8 -67 12 -85 41
-37 20 -255 -24 -255 -18 0 -20 -8 -7 -29 7 -11 11 -10 20 5 9 16 10 13 11
-20 0 -37 -1 -39 -15 -20 -13 18 -14 15 -16 -31 l-1 -50 -11 45 c-6 25 -12 38
-14 29 -5 -19 -30 -25 -151 -35 -74 -6 -82 -5 -76 10 3 9 1 16 -5 16 -6 0 -11
-7 -11 -15 0 -8 -9 -15 -20 -15 -15 0 -20 7 -20 25 0 27 31 48 38 26 3 -9 7
-9 19 1 12 10 17 9 28 -5 7 -9 18 -17 25 -17 9 0 10 3 1 13 -9 11 4 14 71 16
45 1 84 4 86 6 3 3 7 55 10 117 4 95 2 111 -9 101 -8 -6 -74 -14 -146 -18
-121 -7 -133 -9 -133 -26 0 -14 -7 -19 -27 -19 -22 0 -25 -2 -13 -10 13 -9 13
-10 0 -10 -16 0 -21 -45 -7 -67 12 -19 5 -83 -10 -83 -7 0 -13 11 -13 25 0 14
-5 25 -11 25 -8 0 -8 4 -1 13 7 8 9 35 5 71 -6 58 -23 60 -23 2 0 -16 -3 -27
-6 -23 -9 8 -46 -32 -39 -44 4 -5 10 -7 15 -4 9 6 17 -32 12 -58 -4 -18 -4
-18 -18 0 -11 14 -15 15 -22 5 -5 -8 -20 -12 -33 -11 -13 2 -30 -1 -38 -5 -11
-7 -13 -5 -8 7 5 12 1 17 -12 17 -19 0 -31 18 -31 46 0 15 30 8 42 -10 5 -7 8
-6 9 4 1 8 5 2 9 -15 7 -28 8 -28 9 12 0 23 6 45 12 48 14 10 8 195 -7 195
-13 0 -20 32 -30 133 -5 54 -10 67 -24 67 -15 0 -18 -16 -24 -112 -4 -62 -9
-115 -12 -120 -2 -4 -32 -7 -66 -7 -36 1 -64 -4 -66 -10 -2 -6 -13 -11 -23
-11 -11 0 -18 -4 -15 -8 7 -12 136 -5 153 9 12 11 14 7 11 -27 -3 -39 -4 -39
-50 -44 -30 -4 -48 -2 -48 5 -1 23 -18 -23 -22 -61 -4 -29 -1 -47 12 -63 16
-23 17 -22 12 31 l-4 55 49 1 c49 2 50 2 45 -27 -2 -16 1 -32 7 -35 12 -8 15
-64 5 -90 -5 -13 -9 -13 -32 4 -15 11 -46 22 -69 26 l-41 6 1 -48 2 -49 -50 0
c-37 0 -49 4 -47 14 2 8 0 21 -3 30 -6 14 -8 14 -21 -3 -10 -14 -14 -16 -15
-5 0 8 -4 4 -9 -8 -13 -33 -30 -28 -30 8 0 28 2 31 25 25 18 -5 25 -2 25 9 0
8 5 15 10 15 6 0 10 11 10 25 0 22 4 25 33 25 19 0 36 3 40 6 9 9 -21 36 -36
31 -7 -2 -17 10 -23 27 -11 30 -12 31 -75 31 -58 1 -64 2 -67 23 -2 15 2 22
12 22 9 0 16 5 16 10 0 7 15 9 38 6 20 -3 29 -3 19 0 -12 4 -16 12 -12 25 5
14 2 19 -10 19 -11 0 -15 -5 -11 -15 3 -9 0 -15 -10 -15 -8 0 -12 5 -9 10 3 6
1 10 -4 10 -6 0 -11 -6 -11 -12 -1 -25 -18 17 -20 47 -4 64 -6 63 78 66 37 1
45 26 10 31 -16 2 -22 9 -20 22 2 11 -1 15 -7 11 -7 -4 -11 3 -12 17 l0 23 -9
-22 c-5 -13 -14 -23 -20 -23 -5 0 -9 -3 -7 -7 1 -5 -2 -9 -8 -11 -6 -1 -13 38
-16 94 -4 53 -11 99 -16 103 -6 3 -13 13 -16 21 -6 15 -7 -13 -10 -160 -2 -80
-3 -85 -24 -85 -34 0 -37 -12 -4 -18 25 -5 31 -13 37 -42 9 -52 1 -65 -46 -65
-27 0 -40 -4 -40 -14 0 -19 24 -27 60 -19 28 5 30 4 30 -25 0 -24 -5 -31 -22
-34 -13 -2 -21 -7 -18 -13 3 -5 9 -9 14 -7 12 4 26 -18 26 -40 0 -13 -12 -18
-52 -22 -103 -11 -154 -15 -237 -15 -70 -1 -82 -3 -77 -16 3 -8 1 -15 -3 -15
-5 0 -11 6 -14 14 -3 9 -15 12 -31 9 -19 -4 -26 -11 -26 -29 0 -13 4 -24 9
-24 5 0 17 -3 27 -7 10 -4 15 -2 11 3 -3 5 11 8 34 6 24 -3 39 0 39 7 0 6 14
11 30 11 20 0 30 5 30 15 0 18 39 20 45 3 4 -9 23 -12 62 -9 48 3 55 1 50 -13
-4 -10 -1 -16 8 -16 8 0 15 7 15 15 0 10 10 15 30 15 21 0 30 -5 30 -16 0 -8
5 -12 10 -9 14 8 25 -24 13 -36 -13 -13 -203 -21 -203 -9 0 6 -16 10 -35 10
-19 0 -35 -4 -35 -9 0 -10 -123 -22 -130 -12 -3 4 -13 -1 -22 -11 -17 -17 -17
-18 10 -18 23 -1 25 -2 9 -11 -9 -6 -15 -14 -12 -20 4 -5 -3 -9 -14 -9 -22 0
-27 -28 -12 -79 9 -33 25 -37 51 -11 18 18 39 22 153 30 73 5 158 9 191 10
l58 0 -6 -37 c-3 -21 -7 -47 -8 -58 -2 -11 -16 -26 -31 -33 -23 -11 -31 -11
-44 0 -11 8 -45 13 -100 13 -85 0 -110 15 -39 25 50 7 43 22 -17 38 -42 10
-56 10 -96 -4 -25 -9 -55 -16 -66 -16 -11 1 -15 -2 -9 -6 17 -11 26 -43 11
-41 -6 1 -20 -1 -30 -6 -16 -7 -17 -22 -13 -174 4 -123 3 -147 -4 -91 -4 41
-13 262 -19 490 -19 723 -23 834 -32 857 -4 12 -4 48 1 80 5 32 8 71 8 86 0
16 3 32 8 37 10 9 807 29 1449 36 215 3 399 6 410 8 11 2 100 4 197 5 160 1
178 -1 186 -16z m2190 -20 c16 -15 21 -40 31 -134 6 -64 11 -131 10 -150 l-1
-34 -8 35 c-5 19 -7 46 -4 60 4 21 3 22 -4 5 -8 -18 -10 -16 -16 13 -4 17 -11
32 -16 32 -4 0 -11 17 -15 38 -4 20 -10 42 -15 47 -4 6 -7 24 -6 40 1 17 -2
38 -7 48 -6 13 -3 17 12 17 10 0 28 -8 39 -17z m-4518 -23 c0 -5 -24 -10 -52
-10 -38 0 -49 3 -38 10 20 13 90 13 90 0z m-147 -7 c-7 -2 -19 -2 -25 0 -7 3
-2 5 12 5 14 0 19 -2 13 -5z m3502 -103 c3 -5 1 -10 -4 -10 -6 0 -11 5 -11 10
0 6 2 10 4 10 3 0 8 -4 11 -10z m-470 -71 c-8 -12 -45 -12 -45 0 0 10 30 20
43 14 4 -3 5 -9 2 -14z m148 14 c-7 -2 -21 -2 -30 0 -10 3 -4 5 12 5 17 0 24
-2 18 -5z m235 -89 c-2 -83 -11 -108 -20 -59 -3 14 -1 28 3 31 38 23 -51 31
-103 10 -36 -15 -48 -32 -48 -66 0 -10 -7 -20 -15 -24 -23 -8 -18 -35 8 -41
12 -2 38 -1 57 3 30 7 35 12 35 37 0 20 -5 30 -15 31 -42 3 -43 3 -30 19 7 9
18 14 24 12 6 -2 17 2 24 10 7 7 20 13 29 13 12 0 14 -7 10 -30 -4 -16 -2 -32
3 -35 6 -3 10 -35 10 -71 0 -38 4 -64 11 -64 5 0 7 5 3 12 -4 7 -3 8 4 4 7 -4
12 -18 12 -32 0 -14 -4 -23 -9 -20 -5 4 -11 0 -14 -6 -3 -7 -8 6 -12 29 -8 44
-40 76 -73 72 -9 -1 -36 -1 -59 0 -42 1 -43 2 -43 36 0 87 85 155 171 138 l29
-5 -7 47 c-5 36 -3 46 6 41 8 -5 11 -35 9 -92z m-341 51 c-2 -37 -27 -51 -27
-15 0 11 5 20 10 20 6 0 10 7 10 15 0 8 2 15 4 15 3 0 4 -16 3 -35z m-3927 8
c53 -10 34 -33 -28 -33 -64 0 -81 12 -51 34 13 9 31 14 39 10 8 -3 26 -8 40
-11z m4200 7 c0 -5 -7 -10 -16 -10 -8 0 -12 5 -9 10 3 6 10 10 16 10 5 0 9 -4
9 -10z m-3814 -32 c-2 -37 2 -37 -89 -4 -77 27 -72 34 25 35 l66 1 -2 -32z
m3693 -22 c-2 -2 -22 -6 -44 -9 -28 -5 -34 -4 -20 3 19 8 73 14 64 6z m-89
-16 c0 -5 -12 -10 -27 -9 -25 0 -26 1 -8 9 27 12 35 12 35 0z m510 -10 c14
-11 30 -20 35 -20 12 0 55 -73 55 -94 0 -9 4 -16 9 -16 9 0 1 -47 -13 -81 -20
-47 -169 -85 -225 -56 -30 15 -43 44 -15 33 67 -27 103 -25 83 4 -8 11 -12 12
-16 3 -7 -18 -14 -16 -44 10 -24 20 -52 76 -32 64 5 -3 7 9 5 26 -4 39 36 84
65 73 17 -7 17 -8 -2 -19 -36 -20 -46 -35 -39 -63 4 -16 9 -22 14 -14 5 8 9 4
13 -11 4 -13 4 -25 2 -28 -3 -2 -5 1 -5 7 0 7 -10 12 -22 12 -23 0 -23 -1 2
-14 15 -7 30 -9 36 -4 7 5 22 4 36 -1 25 -10 58 6 58 28 0 7 3 10 8 8 6 -4 7
24 3 73 -1 12 -3 13 -10 1 -7 -11 -10 -9 -16 8 -5 16 -14 21 -41 21 -19 0 -34
5 -34 11 0 6 17 9 45 6 57 -5 65 5 19 22 -46 16 -84 7 -123 -31 -22 -21 -31
-26 -31 -15 0 9 5 19 10 22 16 10 12 28 -5 21 -8 -3 -15 -2 -15 2 0 11 75 29
125 30 26 1 49 -5 65 -18z m-690 -39 c16 -2 11 -27 -9 -45 -12 -11 -21 -14
-26 -7 -3 6 -1 11 5 11 6 0 8 5 5 10 -4 6 -15 8 -25 5 -18 -6 -35 8 -27 23 4
6 41 8 77 3z m164 -45 c-7 -18 -29 -21 -39 -6 -3 6 4 14 17 19 28 10 30 9 22
-13z m497 -6 c5 0 9 -7 9 -16 0 -9 5 -12 13 -8 9 5 9 4 0 -6 -6 -7 -9 -18 -7
-24 3 -7 -8 -13 -29 -14 -27 -2 -36 2 -45 23 -8 16 -8 25 -1 25 6 0 8 4 5 9
-7 11 14 21 32 15 8 -2 18 -4 23 -4z m-757 -9 c3 -5 -1 -12 -10 -15 -22 -9
-24 -8 -24 9 0 16 25 21 34 6z m-3485 -53 c52 -16 53 -16 48 3 -3 10 -4 19 -2
19 2 0 10 3 19 6 11 4 16 1 16 -11 0 -14 6 -16 34 -11 33 6 34 5 38 -29 2 -19
0 -35 -5 -35 -5 0 -43 9 -85 19 -43 10 -89 22 -104 25 -20 5 -28 12 -28 29 0
12 4 17 8 12 4 -6 31 -18 61 -27z m4919 -41 c5 -32 5 -54 1 -50 -5 5 -11 35
-14 68 -6 72 1 62 13 -18z m-1191 31 c-3 -8 -6 -5 -6 6 -1 11 2 17 5 13 3 -3
4 -12 1 -19z m-27 2 c0 -5 -12 -10 -27 -9 l-28 1 25 8 c14 4 26 8 28 9 1 1 2
-3 2 -9z m153 -32 c-7 -40 -13 -49 -13 -20 0 11 -3 27 -6 36 -4 10 -1 16 10
16 12 0 14 -7 9 -32z m-423 9 c-26 -13 -41 -57 -19 -57 8 0 8 -4 -1 -15 -7 -9
-10 -18 -7 -21 3 -3 -1 -27 -9 -52 -7 -26 -14 -62 -14 -79 0 -20 -5 -33 -12
-33 -14 0 -47 90 -49 131 -1 17 -3 19 -6 7 -6 -23 -19 -23 -27 -1 -4 10 2 28
14 45 12 17 16 28 9 28 -7 0 -5 8 6 20 10 11 28 20 39 20 12 0 28 5 36 10 8 5
26 10 40 10 l25 0 -25 -13z m498 -21 c-2 -10 -8 -11 -28 -3 -25 10 -25 10 -2
14 12 3 22 10 23 16 0 9 2 9 6 0 2 -7 3 -19 1 -27z m-4158 -19 c0 -13 -6 -29
-12 -36 -10 -11 -10 -14 0 -18 6 -3 12 -17 12 -33 0 -23 3 -27 20 -23 11 3 20
1 20 -5 0 -6 -9 -14 -20 -17 -23 -7 -25 -23 -6 -47 16 -22 30 -24 23 -3 -4 8
-2 17 3 20 6 4 10 -3 10 -14 0 -12 5 -21 11 -21 5 0 7 -4 4 -10 -3 -5 -19 -10
-35 -10 -16 0 -36 -7 -45 -17 -10 -10 -19 -12 -23 -6 -4 5 -16 13 -26 17 -19
6 -19 7 0 21 17 13 17 14 2 15 -15 0 -18 10 -18 66 0 38 4 63 9 59 23 -14 20
18 -3 38 -14 13 -26 26 -26 29 0 9 27 15 68 17 27 1 32 -2 32 -22z m640 -7 c1
-12 3 -11 11 3 15 26 47 22 55 -7 3 -14 13 -25 22 -25 10 0 28 -2 42 -3 22 -3
25 0 22 25 -3 26 -1 27 37 27 l41 0 0 -70 c0 -63 -2 -70 -19 -70 -11 0 -23 9
-26 20 -4 11 -10 18 -15 15 -5 -3 -7 -12 -4 -19 7 -17 -9 -22 -71 -21 l-50 0
3 35 3 36 -63 13 c-35 8 -70 18 -78 23 -11 6 -8 7 8 3 18 -5 25 -2 29 13 6 24
53 26 53 2z m3110 -30 c0 5 7 10 15 10 8 0 15 -7 15 -15 0 -8 6 -15 13 -15 8
0 7 -4 -3 -11 -11 -8 -12 -12 -2 -16 6 -2 12 -11 12 -19 0 -8 5 -14 11 -14 5
0 8 -4 5 -9 -8 -12 4 -42 14 -36 8 5 50 -28 50 -39 0 -3 -13 -6 -29 -6 -32 0
-49 -14 -31 -25 6 -4 18 -1 26 6 17 14 23 10 25 -17 5 -50 -1 -74 -19 -74 -10
0 -19 7 -19 15 0 8 4 15 9 15 4 0 8 4 8 10 0 5 -7 7 -15 4 -8 -4 -15 -17 -15
-29 0 -25 -26 -40 -52 -30 -23 9 -30 72 -13 99 9 13 12 25 9 29 -4 4 0 17 8
29 14 22 14 25 -8 41 -17 13 -24 14 -24 5 -1 -30 -43 70 -44 105 l-2 39 28
-31 c15 -17 28 -27 28 -21z m-3220 30 c0 -12 -34 -12 -70 0 -20 7 -16 8 23 9
26 1 47 -3 47 -9z m225 0 c3 -5 1 -10 -4 -10 -6 0 -11 5 -11 10 0 6 2 10 4 10
3 0 8 -4 11 -10z m2394 -22 c33 1 33 1 15 -19 -12 -13 -15 -23 -7 -27 5 -4 14
-18 18 -31 5 -15 4 -21 -3 -17 -7 4 -14 -8 -18 -29 -8 -44 -16 -49 -41 -27
-25 22 -43 74 -43 124 0 36 2 39 23 32 12 -4 37 -6 56 -6z m48 -20 c-3 -8 -6
-5 -6 6 -1 11 2 17 5 13 3 -3 4 -12 1 -19z m-1169 -37 c-2 -14 -10 -27 -19
-29 -12 -2 -14 5 -11 32 3 25 8 33 19 29 8 -3 13 -16 11 -32z m1648 13 c-4 -9
-9 -15 -11 -12 -3 3 -3 13 1 22 4 9 9 15 11 12 3 -3 3 -13 -1 -22z m-855 -21
c-10 -17 -10 -16 -11 3 0 23 13 41 18 25 2 -6 -1 -18 -7 -28z m436 31 c-3 -3
-12 -4 -19 -1 -8 3 -5 6 6 6 11 1 17 -2 13 -5z m-2979 -42 c3 -17 -2 -22 -17
-22 -16 0 -21 6 -21 26 0 33 33 30 38 -4z m80 6 c11 -13 25 -35 31 -51 11 -27
11 -27 78 -21 37 3 71 11 75 17 6 9 8 9 8 0 0 -8 15 -13 39 -13 22 0 43 -5 47
-11 5 -8 9 -8 14 1 4 7 13 9 19 6 6 -4 9 -12 6 -17 -4 -5 -1 -9 5 -9 6 0 13 7
16 15 4 8 15 15 25 15 14 0 19 -7 19 -30 0 -29 2 -30 45 -30 34 0 45 4 45 16
0 10 7 14 23 12 16 -2 23 -11 25 -31 l3 -27 -108 5 c-59 3 -115 6 -123 7 -59
4 -70 -1 -70 -36 0 -35 13 -55 24 -37 8 12 116 13 116 1 0 -5 29 -6 65 -3 73
6 97 0 89 -21 -6 -17 -97 -27 -131 -14 -14 4 -23 4 -23 -2 0 -6 -10 -10 -22
-11 l-23 0 23 -9 c12 -5 22 -14 22 -20 0 -6 25 -10 60 -10 33 0 60 4 60 10 0
13 27 13 35 0 3 -6 4 -18 0 -28 -4 -15 -16 -19 -65 -20 -33 0 -60 4 -60 9 0 5
-7 9 -16 9 -8 0 -12 -4 -9 -10 3 -5 -1 -10 -9 -10 -10 0 -13 6 -10 15 7 18
-22 21 -29 3 -4 -8 -8 -4 -12 10 -4 12 -12 22 -17 22 -5 0 -6 -10 -3 -21 5
-16 4 -19 -5 -14 -7 4 -15 2 -19 -4 -9 -14 -116 -52 -159 -56 -20 -2 -39 3
-49 13 -14 15 -15 14 -8 -7 6 -21 4 -22 -27 -19 -25 2 -33 8 -33 23 0 17 8 20
50 23 58 4 64 8 67 45 2 27 18 39 18 14 0 -31 22 -36 45 -10 22 26 45 25 45
-3 0 -19 12 -18 32 4 9 9 30 29 47 44 17 15 31 30 31 32 0 5 -64 -2 -88 -10
-7 -2 -16 -4 -20 -5 -4 0 -12 -5 -17 -9 -15 -13 -19 49 -4 66 6 8 8 21 5 31
-4 9 -1 20 6 25 8 6 0 7 -22 3 -19 -3 -44 -6 -55 -6 -11 0 -46 -5 -78 -11 -52
-10 -59 -9 -72 8 -18 24 -19 34 -1 34 8 0 17 6 19 13 3 6 3 -4 0 -23 -6 -33
-5 -34 13 -20 10 8 20 15 22 16 1 0 -7 22 -18 48 -12 25 -25 44 -31 41 -7 -5
-29 33 -29 51 0 12 29 1 48 -18z m-282 -24 c-4 -12 -10 -14 -17 -7 -5 5 -7 17
-3 27 4 12 10 14 17 7 5 -5 7 -17 3 -27z m3964 6 c0 -23 -4 -30 -20 -30 -14 0
-20 7 -20 23 0 27 7 37 27 37 8 0 13 -12 13 -30z m330 6 c0 -3 -4 -8 -10 -11
-5 -3 -10 -1 -10 4 0 6 5 11 10 11 6 0 10 -2 10 -4z m-4543 -46 c-6 -16 -14
-30 -17 -30 -4 0 -5 14 -2 30 2 17 10 30 17 30 11 0 11 -6 2 -30z m2800 8 c-3
-8 -6 -5 -6 6 -1 11 2 17 5 13 3 -3 4 -12 1 -19z m1080 0 c-3 -8 -6 -5 -6 6
-1 11 2 17 5 13 3 -3 4 -12 1 -19z m1283 -2 c0 -11 -12 -12 -79 -8 -30 2 -17
19 19 24 34 5 60 -2 60 -16z m-4870 4 c0 -5 -9 -10 -20 -10 -11 0 -20 -5 -20
-11 0 -5 -5 -7 -10 -4 -8 5 -7 11 1 21 13 16 49 19 49 4z m2770 1 c0 -10 -26
-9 -36 2 -4 4 2 7 14 7 12 0 22 -4 22 -9z m1367 -23 c-3 -7 -5 -2 -5 12 0 14
2 19 5 13 2 -7 2 -19 0 -25z m-1067 12 c0 -5 -5 -10 -11 -10 -5 0 -7 5 -4 10
3 6 8 10 11 10 2 0 4 -4 4 -10z m1086 -126 c-9 -8 -16 -11 -16 -5 0 5 5 13 11
16 6 4 10 19 9 33 -3 43 3 50 7 9 3 -25 -1 -42 -11 -53z m-4169 45 c-13 -20
-27 -25 -27 -9 0 6 4 10 10 10 5 0 7 7 4 15 -5 11 -2 13 9 9 13 -5 14 -9 4
-25z m3243 0 c0 -12 -17 -12 -25 1 -3 5 -12 7 -20 3 -9 -3 -15 1 -15 10 0 13
5 14 30 6 17 -6 30 -15 30 -20z m-649 -103 c-6 -13 -21 16 -21 41 0 12 -4 25
-10 28 -16 10 -12 35 5 29 9 -4 16 0 17 7 1 8 4 -11 7 -41 4 -30 5 -59 2 -64z
m-2651 100 c0 -11 -19 -15 -25 -6 -3 5 1 10 9 10 9 0 16 -2 16 -4z m100 -6
c12 -8 11 -10 -7 -10 -13 0 -23 5 -23 10 0 13 11 13 30 0z m55 0 c3 -5 -1 -10
-9 -10 -9 0 -16 5 -16 10 0 6 4 10 9 10 6 0 13 -4 16 -10z m125 0 c0 -5 -7
-10 -16 -10 -8 0 -12 5 -9 10 3 6 10 10 16 10 5 0 9 -4 9 -10z m385 -20 c4 -6
-7 -10 -27 -9 -27 0 -30 2 -13 9 27 12 33 12 40 0z m3950 -20 c-3 -5 -17 -10
-31 -10 -13 0 -24 5 -24 10 0 6 14 10 31 10 17 0 28 -4 24 -10z m-465 -21 c0
-15 -4 -19 -16 -15 -9 3 -20 6 -26 6 -6 0 -6 6 2 15 18 22 40 18 40 -6z m180
5 c0 -8 -4 -12 -10 -9 -5 3 -10 10 -10 16 0 5 5 9 10 9 6 0 10 -7 10 -16z
m-1830 -67 c0 -12 -15 -15 -77 -14 -60 2 -77 5 -75 16 1 7 -3 20 -9 27 -21 25
4 39 35 19 16 -11 26 -13 26 -6 0 6 10 15 22 20 18 6 28 2 50 -20 16 -15 28
-34 28 -42z m1742 51 c-7 -7 -12 -8 -12 -2 0 14 12 26 19 19 2 -3 -1 -11 -7
-17z m479 -22 l43 -25 -30 -6 c-16 -3 -37 -8 -46 -10 -9 -1 -25 3 -35 11 -17
12 -16 13 7 15 l25 1 -25 8 -25 8 25 2 25 2 -25 8 c-23 7 -23 8 -4 9 12 1 41
-10 65 -23z m596 -8 c-3 -7 -5 -2 -5 12 0 14 2 19 5 13 2 -7 2 -19 0 -25z
m-3639 -1 c16 -19 3 -57 -19 -57 -10 0 -23 8 -28 18 -6 9 -11 11 -11 5 0 -14
-59 -48 -62 -36 -8 42 -2 62 20 68 13 3 30 1 37 -5 9 -8 14 -6 19 5 7 18 30
20 44 2z m1561 -32 c0 -5 -4 -3 -9 5 -5 8 -9 22 -9 30 0 16 17 -16 18 -35z
m998 10 c-21 -20 -27 -19 -27 4 0 11 8 21 18 23 23 5 27 -8 9 -27z m-3657 5
c0 -5 -4 -10 -10 -10 -5 0 -10 5 -10 10 0 6 5 10 10 10 6 0 10 -4 10 -10z
m-700 -10 c0 -5 -9 -10 -20 -10 -11 0 -20 5 -20 10 0 6 9 10 20 10 11 0 20 -4
20 -10z m4130 -10 c0 -13 -50 -13 -70 0 -11 7 -4 10 28 10 23 0 42 -4 42 -10z
m463 -19 c15 -6 13 -9 -17 -24 -21 -10 -38 -12 -41 -7 -3 6 -1 10 5 10 6 0 9
4 6 9 -10 16 19 24 47 12z m-2116 -43 c-3 -7 -5 -2 -5 12 0 14 2 19 5 13 2 -7
2 -19 0 -25z m2040 26 c-3 -3 -12 -4 -19 -1 -8 3 -5 6 6 6 11 1 17 -2 13 -5z
m-229 -26 c19 -19 15 -106 -5 -116 -10 -5 -23 -7 -30 -5 -6 2 -14 -1 -18 -6
-3 -6 -17 -11 -30 -11 -20 0 -23 6 -27 48 -6 61 -4 64 40 84 46 20 55 21 70 6z
m-771 -50 c-3 -7 -5 -2 -5 12 0 14 2 19 5 13 2 -7 2 -19 0 -25z m433 19 c0 -8
-14 -14 -35 -15 -21 -2 -35 2 -35 9 0 6 6 9 13 6 8 -3 20 -1 28 4 20 12 29 11
29 -4z m-3216 -13 c9 -23 8 -24 -12 -24 -26 0 -34 11 -21 27 15 17 26 17 33
-3z m970 -16 c7 -5 4 -8 -6 -8 -12 0 -18 7 -17 23 0 15 2 17 6 7 3 -8 11 -18
17 -22z m2406 17 c-7 -8 -21 -15 -31 -15 -11 0 -19 7 -19 15 0 10 10 15 31 15
27 0 30 -2 19 -15z m416 -10 c1 -8 -2 -15 -7 -15 -5 0 -9 10 -9 22 0 23 12 17
16 -7z m-66 -11 c0 -8 -4 -12 -10 -9 -5 3 -10 13 -10 21 0 8 5 12 10 9 6 -3
10 -13 10 -21z m34 11 c3 -9 0 -15 -9 -15 -8 0 -15 7 -15 15 0 8 4 15 9 15 5
0 11 -7 15 -15z m-3812 -27 c-9 -9 -12 -7 -12 12 0 19 3 21 12 12 9 -9 9 -15
0 -24z m1425 10 c-3 -8 -6 -5 -6 6 -1 11 2 17 5 13 3 -3 4 -12 1 -19z m2269
-5 c-10 -10 -19 5 -10 18 6 11 8 11 12 0 2 -7 1 -15 -2 -18z m-2403 2 c4 -8 2
-17 -3 -20 -6 -4 -10 3 -10 14 0 25 6 27 13 6z m224 -37 c-2 -13 -4 -5 -4 17
-1 22 1 32 4 23 2 -10 2 -28 0 -40z m-1610 20 c-3 -8 -6 -5 -6 6 -1 11 2 17 5
13 3 -3 4 -12 1 -19z m1712 -6 c-2 -15 0 -33 4 -40 6 -8 2 -12 -10 -12 -14 0
-19 7 -17 28 3 48 4 52 15 52 6 0 9 -12 8 -28z m2941 18 c8 -5 11 -10 5 -10
-5 0 -17 5 -25 10 -8 5 -10 10 -5 10 6 0 17 -5 25 -10z m-215 -22 c12 -5 30
-24 40 -41 10 -18 37 -52 59 -77 58 -65 86 -102 86 -116 0 -6 9 -14 20 -17 30
-8 27 -65 -5 -96 -14 -13 -25 -28 -25 -33 0 -6 -6 -5 -15 2 -12 10 -18 10 -30
0 -9 -7 -18 -10 -22 -6 -4 3 2 12 12 20 17 12 18 18 7 53 -7 22 -12 58 -12 79
0 32 -10 51 -56 109 -31 38 -59 76 -64 85 -5 9 -20 13 -39 12 -34 -3 -101 32
-79 41 17 8 94 -2 123 -15z m-1295 -19 c0 -4 -9 -9 -20 -12 -22 -6 -27 12 -8
31 9 9 14 9 20 -1 4 -6 8 -15 8 -18z m440 0 c0 -17 -4 -28 -10 -24 -5 3 -10
17 -10 31 0 13 5 24 10 24 6 0 10 -14 10 -31z m-3700 1 c0 -5 -4 -10 -10 -10
-5 0 -10 5 -10 10 0 6 5 10 10 10 6 0 10 -4 10 -10z m1234 -5 c-4 -8 -8 -15
-10 -15 -2 0 -4 7 -4 15 0 8 4 15 10 15 5 0 7 -7 4 -15z m-69 -4 c3 -5 2 -12
-2 -14 -5 -3 -89 -8 -188 -12 -141 -5 -177 -4 -168 5 7 8 59 14 140 17 70 3
130 7 132 9 9 8 80 4 86 -5z m475 -23 c0 -21 1 -21 13 -4 18 25 57 13 57 -17
-1 -20 -2 -20 -13 -5 -9 11 -18 13 -29 7 -9 -5 -23 -6 -32 -3 -17 7 -22 44 -6
44 6 0 10 -10 10 -22z m1740 1 c0 -6 -4 -7 -10 -4 -5 3 -10 11 -10 16 0 6 5 7
10 4 6 -3 10 -11 10 -16z m-1653 -11 c-3 -8 -6 -5 -6 6 -1 11 2 17 5 13 3 -3
4 -12 1 -19z m30 0 c-3 -8 -6 -5 -6 6 -1 11 2 17 5 13 3 -3 4 -12 1 -19z
m1891 11 c-2 -6 -7 -10 -11 -10 -4 1 -16 1 -27 1 -11 0 -20 5 -20 10 0 6 14
10 31 10 17 0 29 -5 27 -11z m542 1 c0 -5 -4 -10 -10 -10 -5 0 -10 5 -10 10 0
6 5 10 10 10 6 0 10 -4 10 -10z m34 -5 c-4 -8 -10 -12 -15 -9 -14 8 -10 24 6
24 9 0 12 -6 9 -15z m36 5 c0 -5 -4 -10 -10 -10 -5 0 -10 5 -10 10 0 6 5 10
10 10 6 0 10 -4 10 -10z m-495 -10 c-6 -10 6 -14 39 -10 11 1 15 -3 12 -9 -4
-6 -13 -11 -21 -11 -8 0 -17 -15 -21 -35 -8 -45 -13 -40 -24 22 l-8 48 -1 -54
c-1 -67 -15 -58 -17 10 -1 45 1 49 23 49 14 0 21 -4 18 -10z m-3809 -27 c-10
-10 -19 5 -10 18 6 11 8 11 12 0 2 -7 1 -15 -2 -18z m1884 -48 c0 -13 -7 -25
-15 -29 -18 -7 -21 20 -2 28 10 5 10 7 0 12 -7 3 -13 13 -13 21 0 13 3 13 15
3 8 -7 15 -23 15 -35z m2532 18 c8 -21 12 -24 15 -11 3 10 10 15 19 11 7 -3
11 -10 7 -17 -4 -6 0 -6 9 2 11 9 18 10 23 2 10 -17 85 -13 85 5 0 20 34 19
54 -1 9 -8 16 -17 16 -18 0 -7 -22 -66 -25 -66 -1 0 -31 9 -65 20 -34 11 -72
20 -84 20 -11 0 -38 5 -58 11 -30 8 -38 15 -38 34 0 19 7 28 28 34 1 1 8 -11
14 -26z m-2948 2 c-4 -8 -10 -15 -15 -15 -5 0 -9 7 -9 15 0 8 7 15 15 15 9 0
12 -6 9 -15z m2404 -3 c3 -9 -2 -13 -14 -10 -9 1 -19 9 -22 16 -3 9 2 13 14
10 9 -1 19 -9 22 -16z m452 8 c17 -11 9 -21 -16 -21 -36 1 -84 13 -84 22 0 12
81 11 100 -1z m-2903 -32 c-3 -7 -5 -2 -5 12 0 14 2 19 5 13 2 -7 2 -19 0 -25z
m1340 10 c-3 -8 -6 -5 -6 6 -1 11 2 17 5 13 3 -3 4 -12 1 -19z m416 -1 c3 -8
1 -20 -4 -28 -11 -19 -34 3 -26 25 8 20 23 21 30 3z m128 3 c5 0 9 -4 9 -9 0
-4 -11 -6 -25 -3 -14 2 -25 9 -25 14 0 6 7 7 16 4 9 -3 20 -6 25 -6z m449 -16
c0 -8 -4 -14 -10 -14 -5 0 -10 9 -10 21 0 11 5 17 10 14 6 -3 10 -13 10 -21z
m-728 -36 c36 -36 11 -50 -61 -36 -36 7 -37 24 -1 31 22 5 30 12 31 29 0 13 3
17 6 9 3 -7 14 -22 25 -33z m1088 27 c-7 -8 -27 -15 -44 -14 -31 1 -31 1 9 14
22 8 42 14 44 14 2 1 -2 -6 -9 -14z m-1414 -9 c8 -8 14 -21 13 -28 0 -10 -2
-10 -6 1 -4 10 -7 10 -13 1 -5 -8 -9 -3 -12 14 -6 30 -2 32 18 12z m834 -7 c0
-6 -4 -7 -10 -4 -5 3 -10 11 -10 16 0 6 5 7 10 4 6 -3 10 -11 10 -16z m715 -6
c21 -7 30 -16 32 -34 1 -13 3 -30 5 -38 2 -7 -3 -16 -9 -18 -9 -3 -13 5 -13
23 0 26 -1 27 -16 12 -9 -9 -13 -21 -9 -27 11 -20 83 -61 105 -61 21 0 27 -19
11 -35 -4 -6 -14 -32 -21 -58 -13 -50 -50 -86 -50 -49 0 15 -5 18 -24 15 -30
-6 -44 13 -16 22 27 8 62 -3 54 -18 -3 -7 2 -3 10 7 9 11 16 27 16 37 0 19
-40 34 -41 16 0 -8 -2 -8 -6 0 -3 8 -14 11 -26 8 -12 -4 -31 1 -42 10 -19 15
-19 15 10 10 l30 -6 -27 16 c-16 9 -28 19 -28 24 0 5 -12 17 -27 26 -25 17
-27 17 -40 -1 -7 -10 -13 -28 -13 -40 0 -23 -44 -59 -60 -49 -13 8 -13 42 0
50 6 3 10 17 10 31 0 14 6 26 13 28 68 18 72 21 69 54 -3 28 0 32 20 32 21 1
22 2 6 14 -36 27 -16 26 77 -1z m-577 1 c14 -15 14 -16 -3 -13 -10 2 -20 10
-23 17 -5 17 6 15 26 -4z m-260 -14 c14 0 14 -2 3 -9 -20 -13 -41 -2 -34 17 4
10 8 12 11 4 2 -7 11 -12 20 -12z m-2008 -15 c0 -14 -4 -25 -10 -25 -5 0 -10
11 -10 25 0 14 5 25 10 25 6 0 10 -11 10 -25z m630 16 c0 -5 -6 -12 -12 -14
-8 -3 -7 -6 4 -6 9 -1 20 4 23 9 8 13 55 13 55 0 0 -7 6 -7 18 -2 9 5 36 12
60 15 36 4 42 2 42 -13 0 -19 -50 -27 -214 -33 -65 -2 -69 -1 -72 21 -2 12 1
22 6 22 6 0 10 -6 10 -12 0 -7 5 -5 11 5 10 18 69 25 69 8z m1110 -21 c10 0
20 5 22 12 3 7 14 9 31 4 20 -5 27 -13 27 -31 0 -33 -20 -42 -39 -17 l-16 21
-18 -25 -18 -24 43 -2 c24 -1 56 -2 72 -1 15 1 24 -2 20 -7 -14 -13 -75 -26
-119 -25 l-40 0 -2 65 c-2 48 0 60 8 48 5 -10 18 -18 29 -18z m214 9 c-5 -8
-23 -8 -64 0 -3 1 1 5 8 10 17 10 64 2 56 -10z m-3592 -7 c-26 -20 -110 -47
-119 -39 -17 17 59 55 112 56 l30 1 -23 -18z m242 -101 c-4 -3 -9 0 -11 6 -4
10 -8 9 -20 -2 -18 -19 -32 -19 -39 0 -4 8 -10 15 -16 15 -5 0 -6 -4 -3 -10 3
-5 1 -10 -4 -10 -6 0 -12 11 -12 25 -1 14 -2 30 -3 36 -1 7 17 18 39 26 22 7
44 18 50 24 7 7 13 -8 18 -46 5 -32 5 -60 1 -64z m1426 100 c0 -19 26 -37 32
-21 4 10 58 1 58 -10 0 -5 -9 -12 -20 -15 -13 -4 -20 -16 -21 -33 -1 -24 -2
-25 -7 -5 -4 12 -19 31 -34 43 -27 21 -38 60 -18 60 6 0 10 -9 10 -19z m1017
13 c41 -11 14 -23 -42 -18 l-55 5 -1 -33 c0 -18 -5 -42 -10 -53 -7 -15 -8 -13
-3 12 4 25 1 32 -14 38 -25 7 -37 36 -20 47 15 9 113 10 145 2z m-2357 -46 c0
-18 7 -36 18 -44 15 -12 12 -13 -27 -14 -42 0 -43 1 -28 18 10 10 17 33 17 51
0 19 4 30 10 26 6 -3 10 -20 10 -37z m824 34 c-3 4 0 8 5 8 6 0 11 -7 11 -15
0 -11 -11 -15 -40 -15 -22 0 -43 0 -47 -1 -5 0 -9 6 -11 14 -2 11 6 13 42 7
25 -4 43 -3 40 2z m959 -12 c3 -11 2 -20 -3 -20 -4 0 -10 9 -13 20 -3 11 -2
20 3 20 4 0 10 -9 13 -20z m-82 -30 c10 -7 15 -73 5 -88 -5 -8 -1 -12 11 -12
23 0 42 -49 40 -105 l-2 -40 -47 -3 c-48 -3 -58 4 -36 26 7 7 8 12 1 12 -6 0
-13 37 -17 86 -5 70 -3 92 11 121 10 23 19 31 21 22 3 -8 8 -16 13 -19z
m-1361 1 c0 -11 -6 -26 -14 -34 -19 -18 -179 -32 -203 -18 -14 8 -10 10 24 11
24 0 48 7 57 16 9 8 22 12 28 9 7 -4 5 0 -5 8 -18 15 -18 16 5 20 13 2 42 5
66 6 35 1 42 -2 42 -18z m4597 -33 c-2 -13 -4 -5 -4 17 -1 22 1 32 4 23 2 -10
2 -28 0 -40z m-4001 17 c-29 -27 -31 -28 -61 -15 -17 7 -17 9 -2 9 9 1 17 6
17 12 0 5 3 8 8 6 4 -3 16 -1 27 4 35 14 39 10 11 -16z m2540 -12 l-1 -38 -75
0 c-57 0 -81 4 -102 19 -15 11 -32 15 -40 11 -9 -6 -10 -5 -3 3 8 8 112 28
211 41 7 0 11 -14 10 -36z m128 16 c19 -18 0 -16 -29 3 -27 18 -28 19 -5 13
14 -4 29 -11 34 -16z m-4084 3 c0 -21 -49 -46 -97 -50 -65 -5 -69 8 -10 36 42
21 107 29 107 14z m270 -22 c0 -18 -6 -33 -15 -37 -13 -4 -15 -25 -14 -117 1
-61 5 -115 9 -121 4 -5 10 -31 13 -57 6 -46 6 -48 -19 -48 -13 0 -36 7 -49 16
-23 15 -24 18 -10 44 20 39 19 47 -3 27 -10 -10 -22 -14 -25 -10 -4 3 -7 68
-7 143 l0 137 53 25 c67 33 67 33 67 -2z m290 15 c-7 -8 -17 -15 -22 -15 -6 0
-5 7 2 15 7 8 17 15 22 15 6 0 5 -7 -2 -15z m2270 -1 c0 -2 -7 -4 -15 -4 -8 0
-15 4 -15 10 0 5 7 7 15 4 8 -4 15 -8 15 -10z m2137 -3 c16 2 39 -4 52 -13 13
-9 30 -14 37 -11 8 3 14 -1 14 -11 0 -20 -30 -21 -56 -1 -10 8 -27 15 -36 15
-24 0 -68 21 -68 33 0 5 7 4 14 -3 8 -6 28 -10 43 -9z m-3471 -5 c3 7 14 10
24 7 15 -4 20 -14 20 -39 l0 -34 -59 1 c-33 1 -64 -2 -70 -6 -19 -11 -12 11 9
30 11 10 20 15 20 11 0 -4 7 -1 15 8 8 8 15 21 15 28 0 10 3 9 11 -2 7 -10 12
-11 15 -4z m549 -22 c21 -50 19 -56 -12 -52 -22 2 -29 10 -34 35 -6 30 4 53
23 53 4 0 15 -16 23 -36z m35 20 c0 -8 -5 -12 -10 -9 -6 4 -8 11 -5 16 9 14
15 11 15 -7z m1350 -14 c0 -22 -3 -23 -49 -14 -36 8 -41 21 -8 27 48 9 57 7
57 -13z m766 -14 c12 -12 12 -18 -2 -43 l-16 -28 6 27 c3 15 2 30 -4 33 -11 7
-14 25 -4 25 3 0 12 -6 20 -14z m-2831 -6 c3 -5 1 -10 -4 -10 -6 0 -11 5 -11
10 0 6 2 10 4 10 3 0 8 -4 11 -10z m1280 -27 c-4 -21 -8 -39 -8 -39 -1 -1 -29
-4 -62 -5 -51 -3 -60 -1 -63 14 -3 12 3 17 22 17 14 0 28 -5 32 -11 5 -8 10
-6 16 5 5 9 16 16 23 16 21 0 18 20 -2 21 -15 0 -15 2 2 9 41 17 48 13 40 -27z
m-1725 -15 l0 -38 -45 0 c-43 0 -59 12 -32 24 10 5 10 7 0 12 -16 7 -17 31 -1
36 7 3 27 4 45 4 31 -1 33 -3 33 -38z m-170 22 c-8 -5 -49 -10 -90 -10 -52 0
-70 3 -60 10 8 5 49 10 90 10 52 0 70 -3 60 -10z m1367 -22 c-3 -7 -5 -2 -5
12 0 14 2 19 5 13 2 -7 2 -19 0 -25z m1948 12 c3 -5 -1 -10 -9 -10 -9 0 -16 5
-16 10 0 6 4 10 9 10 6 0 13 -4 16 -10z m500 0 c3 -5 -1 -10 -9 -10 -8 0 -18
5 -21 10 -3 6 1 10 9 10 8 0 18 -4 21 -10z m342 4 c-3 -3 -12 -4 -19 -1 -8 3
-5 6 6 6 11 1 17 -2 13 -5z m-2184 -10 c9 -9 -4 -35 -14 -28 -5 3 -9 12 -9 20
0 14 12 19 23 8z m2680 -61 c-5 -2 -7 -48 -5 -103 l4 -100 -28 -11 c-42 -15
-162 4 -208 35 -14 9 -31 16 -38 15 -10 0 -10 -2 0 -6 6 -2 12 -13 12 -22 0
-13 14 -21 56 -31 43 -10 52 -16 38 -21 -25 -10 -277 -55 -384 -69 -47 -6 -97
-13 -112 -16 -34 -5 -38 16 -8 46 14 14 28 18 48 14 15 -3 64 4 109 15 45 12
102 21 127 21 36 0 44 3 40 15 -4 10 5 21 25 32 33 19 40 33 16 33 -8 0 -15 5
-15 10 0 6 -10 10 -22 11 -13 0 -32 4 -42 8 -18 7 -18 8 4 29 13 12 54 40 92
62 37 23 68 45 68 50 0 5 11 5 25 -2 22 -10 29 -20 27 -39 -1 -3 10 -12 23
-19 21 -11 27 -11 42 3 10 8 34 19 53 24 32 8 35 13 39 49 l4 39 9 -35 c5 -19
6 -36 1 -37z m-4677 50 c-10 -10 -136 -20 -136 -11 0 9 34 15 94 17 27 0 46
-2 42 -6z m818 -25 c24 -16 -6 -20 -36 -5 -21 10 -35 12 -39 6 -4 -7 -9 -5
-12 5 -5 11 3 16 31 18 20 2 39 -1 41 -7 2 -5 9 -13 15 -17z m773 -3 l37 -7
-24 -18 c-31 -24 -19 -37 34 -42 66 -5 56 -27 -15 -30 -36 -2 -64 -8 -66 -15
-4 -11 111 -19 231 -15 36 2 52 -3 62 -15 12 -17 13 -16 14 5 0 14 6 22 16 22
13 0 15 7 11 33 -5 35 5 67 17 49 10 -17 -12 -195 -26 -203 -10 -6 -14 2 -18
34 -6 51 -18 38 -16 -18 1 -33 6 -40 26 -45 22 -5 25 -12 24 -48 -1 -48 -5
-48 100 -6 41 17 79 24 123 24 36 0 73 4 83 10 14 8 25 3 50 -20 40 -37 72
-38 100 -3 l21 27 -23 10 c-22 10 -22 10 7 14 17 2 34 8 40 13 5 5 20 9 33 9
25 0 26 7 7 53 -7 16 -5 16 19 6 14 -7 26 -20 26 -30 0 -18 9 -22 67 -34 l32
-6 -5 63 c-3 35 -7 69 -10 77 -7 21 24 61 46 61 11 0 20 7 20 15 0 31 35 12
59 -33 10 -20 9 -23 -11 -31 -24 -9 -24 -10 27 -26 13 -4 14 -9 5 -25 -8 -15
-8 -20 2 -21 9 0 9 -2 2 -5 -7 -3 -10 -14 -7 -24 4 -16 0 -20 -18 -21 l-24 -1
25 -7 c20 -5 26 -14 28 -42 3 -34 2 -35 -32 -34 -21 1 -37 -4 -40 -12 -3 -7
-10 -13 -16 -13 -6 0 -8 5 -5 10 3 6 -3 10 -15 10 -12 0 -30 5 -40 10 -23 12
-60 0 -89 -31 -16 -18 -23 -20 -35 -10 -9 8 -15 8 -18 1 -4 -13 -178 -34 -189
-23 -4 4 -9 17 -11 28 -4 23 -36 23 -103 0 -119 -41 -172 -52 -215 -46 -25 4
-63 2 -86 -3 -28 -6 -50 -5 -70 3 -26 10 -24 11 21 6 49 -4 50 -4 20 10 -46
21 -108 28 -150 16 -50 -13 -69 -1 -24 16 20 8 24 11 9 8 -14 -2 -35 -5 -48
-5 -15 0 -21 -4 -16 -11 5 -9 -2 -10 -22 -5 -82 18 -96 19 -105 5 -6 -11 -9
-8 -9 9 0 23 4 26 52 36 25 6 26 9 18 32 -11 27 -5 48 11 39 5 -4 9 -15 9 -26
0 -13 4 -18 12 -13 8 5 9 2 5 -9 -5 -14 -1 -15 26 -10 18 3 40 10 50 15 9 5
17 5 17 0 0 -5 -15 -16 -32 -25 -33 -16 -32 -16 42 -10 72 5 88 3 211 -33 13
-3 15 1 11 21 -3 19 -11 25 -31 26 -14 1 -35 3 -46 5 -11 1 -45 6 -75 10 -54
7 -54 8 -22 16 18 5 39 5 47 1 18 -10 102 -4 86 7 -7 4 -16 29 -20 56 -5 36
-11 48 -22 45 -59 -16 -113 -24 -164 -25 -42 -1 -59 -5 -57 -13 1 -7 -2 -13
-8 -13 -10 0 -11 2 -16 55 -1 17 -3 35 -4 40 -1 6 -2 39 -1 75 1 47 4 60 11
49 5 -9 26 -20 47 -24z m-486 8 c1 -17 2 -17 6 0 5 18 23 24 23 7 0 -5 6 -9
12 -7 7 1 14 -8 16 -21 3 -21 0 -23 -35 -20 -33 3 -38 7 -41 31 -2 15 1 27 7
27 6 0 12 -8 12 -17z m3159 7 c0 -5 -9 -10 -21 -10 -11 0 -17 5 -14 10 3 6 13
10 21 10 8 0 14 -4 14 -10z m-3560 -15 c19 -23 9 -26 -40 -11 -27 8 -38 15
-30 19 28 10 58 7 70 -8z m630 5 c0 -5 -2 -10 -4 -10 -3 0 -8 5 -11 10 -3 6
-1 10 4 10 6 0 11 -4 11 -10z m2743 -10 c3 -11 17 -22 33 -25 51 -11 54 -14
54 -40 l0 -26 -29 20 c-16 12 -35 21 -42 21 -30 0 -79 25 -79 40 0 22 9 30 36
30 13 0 24 -8 27 -20z m-4121 0 c6 0 7 -7 4 -16 -5 -13 -2 -15 14 -11 17 4 20
0 20 -32 0 -21 -4 -51 -9 -67 -5 -16 -17 -56 -27 -89 -32 -106 -44 -102 -37
11 l5 100 -29 25 c-37 31 -38 70 -2 80 13 4 30 5 37 3 8 -2 18 -4 24 -4z m189
-21 c45 3 50 1 47 -15 -3 -16 -14 -19 -71 -22 -42 -2 -67 1 -67 8 0 5 5 10 10
10 6 0 10 8 10 18 0 26 14 38 18 15 2 -15 10 -17 53 -14z m439 19 c0 -4 7 -8
15 -8 8 0 15 -9 15 -20 0 -11 -4 -20 -10 -20 -5 0 -10 5 -10 11 0 6 -7 8 -16
5 -12 -4 -15 -2 -10 9 3 8 1 15 -4 15 -6 0 -10 4 -10 8 0 5 7 9 15 9 8 0 15
-4 15 -9z m1114 -6 c8 -14 -9 -31 -34 -34 -30 -4 -34 24 -5 34 29 9 33 9 39 0z
m2161 -2 c3 -5 -1 -10 -9 -10 -9 0 -16 5 -16 10 0 6 4 10 9 10 6 0 13 -4 16
-10z m-2095 -10 c0 -5 -9 -10 -20 -10 -11 0 -20 5 -20 10 0 6 9 10 20 10 11 0
20 -4 20 -10z m97 4 c-3 -3 -12 -4 -19 -1 -8 3 -5 6 6 6 11 1 17 -2 13 -5z
m2028 -4 c3 -5 1 -10 -4 -10 -6 0 -11 5 -11 10 0 6 2 10 4 10 3 0 8 -4 11 -10z
m-3365 -4 c0 -3 -4 -8 -10 -11 -5 -3 -10 -1 -10 4 0 6 5 11 10 11 6 0 10 -2
10 -4z m850 -22 c0 -8 -5 -12 -10 -9 -6 4 -8 11 -5 16 9 14 15 11 15 -7z
m-215 -4 c4 -6 -5 -10 -19 -10 -14 0 -26 5 -26 10 0 6 9 10 19 10 11 0 23 -4
26 -10z m3075 6 c0 -3 -9 -21 -21 -40 -15 -26 -28 -36 -46 -36 -13 0 -22 4
-18 10 3 5 12 7 20 4 11 -5 13 2 8 30 -5 35 -5 36 26 36 17 0 31 -2 31 -4z
m-2393 -12 c-3 -3 -12 -4 -19 -1 -8 3 -5 6 6 6 11 1 17 -2 13 -5z m2188 -4 c3
-5 -1 -10 -9 -10 -9 0 -16 5 -16 10 0 6 4 10 9 10 6 0 13 -4 16 -10z m-3878
-27 c-20 -2 -52 -2 -70 0 -17 2 0 4 38 4 39 0 53 -2 32 -4z m-515 -75 c-5 -81
-6 -84 -43 -93 l-26 -6 -2 80 c-1 51 2 81 8 81 6 0 11 -8 12 -17 0 -14 2 -13
9 5 5 12 18 22 28 22 17 0 19 -6 14 -72z m1112 47 c-27 -20 -51 -20 -34 0 7 8
22 15 33 15 20 0 20 0 1 -15z m476 5 c0 -5 -8 -10 -17 -10 -15 0 -16 2 -3 10
19 12 20 12 20 0z m-1683 -37 c-3 -10 -5 -4 -5 12 0 17 2 24 5 18 2 -7 2 -21
0 -30z m1593 22 c0 -8 5 -15 10 -15 6 0 10 -13 10 -30 0 -20 -5 -30 -15 -30
-10 0 -15 10 -15 29 0 16 -3 36 -6 45 -3 9 -1 16 5 16 6 0 11 -7 11 -15z m857
-57 c-2 -13 -4 -3 -4 22 0 25 2 35 4 23 2 -13 2 -33 0 -45z m1909 26 c13 -3
24 -13 24 -21 0 -10 6 -12 20 -8 13 4 22 1 26 -9 3 -9 13 -16 22 -16 22 0 6
-13 -18 -15 -11 -1 -27 7 -37 17 -9 10 -24 18 -33 18 -10 0 -23 7 -30 15 -7 9
-19 14 -27 11 -7 -3 -13 -2 -13 3 0 14 14 22 28 16 8 -3 25 -8 38 -11z m158 5
c14 -7 23 -16 20 -20 -3 -5 4 -9 14 -9 11 0 35 -6 53 -14 28 -12 31 -16 16
-21 -9 -4 -23 -2 -31 4 -7 6 -20 9 -28 6 -15 -6 -78 39 -78 56 0 12 4 11 34
-2z m-4334 -42 c0 -24 -3 -28 -10 -17 -13 20 -13 63 0 55 6 -3 10 -21 10 -38z
m1500 6 c0 -18 -5 -33 -11 -33 -5 0 -7 5 -4 10 3 6 1 10 -4 10 -6 0 -11 11
-11 23 0 14 6 24 15 24 10 0 15 -11 15 -34z m74 14 c6 -9 7 -19 3 -23 -9 -9
-37 15 -37 33 0 18 20 12 34 -10z m2724 5 c3 -9 -2 -13 -14 -10 -9 1 -19 9
-22 16 -3 9 2 13 14 10 9 -1 19 -9 22 -16z m-3200 3 c-3 -3 -41 -8 -84 -10
-53 -3 -72 -2 -59 4 21 10 152 15 143 6z m933 -12 c2 -23 -2 -47 -7 -53 -8 -8
-24 24 -24 48 0 26 29 31 31 5z m1061 -33 c15 -36 36 -44 72 -30 15 5 35 10
44 10 28 0 -1 -19 -42 -27 -32 -7 -41 -14 -49 -38 -26 -81 -49 -64 -53 39 -3
81 6 95 28 46z m1407 -21 c-19 -12 -39 -11 -39 1 0 6 9 10 20 10 11 0 20 6 21
13 0 8 2 8 6 -2 3 -7 -1 -17 -8 -22z m-2639 -5 c0 -7 -5 -16 -12 -20 -8 -5 -9
-2 -5 10 6 14 3 16 -13 11 -14 -4 -20 -2 -20 8 0 10 8 13 25 9 14 -2 25 -10
25 -18z m1777 4 c-3 -8 -6 -5 -6 6 -1 11 2 17 5 13 3 -3 4 -12 1 -19z m-2930
-25 c-3 -10 -5 -4 -5 12 0 17 2 24 5 18 2 -7 2 -21 0 -30z m864 -7 c14 -15 11
-26 -6 -26 -11 0 -15 10 -14 38 1 21 3 28 6 17 3 -11 9 -24 14 -29z m1903 25
c7 -10 -31 -61 -45 -61 -6 0 -17 -7 -25 -15 -19 -18 -68 -20 -82 -2 -6 6 -8
24 -5 40 5 24 9 27 47 26 35 0 37 -2 19 -9 -25 -10 -31 -30 -10 -30 20 0 57
30 57 46 0 15 35 20 44 5z m-1975 -51 c17 -77 15 -89 -11 -84 l-23 5 23 -10
c24 -11 31 -41 9 -41 -35 0 -44 23 -39 103 5 92 24 105 41 27z m-1038 -53 c-8
-8 -11 -5 -11 9 0 27 14 41 18 19 2 -9 -1 -22 -7 -28z m1225 5 c-4 -3 -12 0
-19 7 -9 9 -9 14 3 21 11 7 16 5 18 -6 2 -9 1 -18 -2 -22z m-1250 6 c-4 -27
-46 -39 -46 -13 0 12 21 27 47 34 2 1 1 -9 -1 -21z m991 -10 c-3 -7 -5 -2 -5
12 0 14 2 19 5 13 2 -7 2 -19 0 -25z m-50 0 c-3 -8 -6 -5 -6 6 -1 11 2 17 5
13 3 -3 4 -12 1 -19z m2840 11 c22 -8 24 -12 13 -19 -22 -14 -28 -12 -40 10
-12 23 -11 24 27 9z m-3837 -19 c0 -5 -4 -10 -10 -10 -5 0 -10 5 -10 10 0 6 5
10 10 10 6 0 10 -4 10 -10z m1593 -7 c-7 -2 -19 -2 -25 0 -7 3 -2 5 12 5 14 0
19 -2 13 -5z m-878 -33 c-28 -12 -45 -12 -45 0 0 6 15 10 33 9 27 0 29 -2 12
-9z m-215 -31 c0 -10 -4 -19 -10 -19 -5 0 -10 -4 -10 -10 0 -5 11 -10 25 -10
23 0 24 -2 13 -20 -7 -11 -24 -20 -38 -20 -55 0 -66 -39 -12 -41 19 0 6 -8
-42 -25 -82 -28 -93 -29 -76 -9 10 12 10 21 1 41 -14 32 -14 65 0 101 l11 28
10 -26 c6 -18 18 -28 36 -31 47 -6 60 0 54 29 -3 15 1 28 9 33 17 11 29 3 29
-21z m107 25 c-3 -3 -12 -4 -19 -1 -8 3 -5 6 6 6 11 1 17 -2 13 -5z m-863 -77
c-9 -24 -23 -11 -17 14 3 12 9 17 15 11 5 -5 6 -16 2 -25z m316 23 c0 -5 -5
-10 -11 -10 -5 0 -7 5 -4 10 3 6 8 10 11 10 2 0 4 -4 4 -10z m28 -24 c-7 -8
-17 -12 -22 -9 -4 3 -2 9 5 14 22 13 31 11 17 -5z m-1148 -73 c0 -10 9 -47 20
-81 27 -86 26 -102 -5 -102 -23 0 -25 -4 -26 -47 0 -27 -4 -57 -9 -68 -10 -23
-14 274 -4 299 8 21 24 20 24 -1z"/>
<path d="M568 6708 c-1 -18 -3 -78 -4 -133 -2 -55 -5 -152 -9 -215 -3 -63 -10
-212 -15 -330 -6 -118 -15 -264 -20 -325 -5 -60 -10 -131 -10 -156 l0 -47 248
-6 c883 -22 1224 -27 1297 -18 44 5 85 6 90 1 14 -10 581 -22 667 -13 l68 7 0
42 c0 23 8 57 18 76 14 28 16 54 13 149 -2 63 -3 133 -2 155 1 22 3 119 5 215
2 96 7 241 11 322 6 121 5 149 -6 152 -8 2 -162 13 -344 25 -181 12 -418 28
-525 36 -107 8 -278 19 -380 25 -496 27 -729 42 -878 55 -229 21 -222 22 -224
-17z m537 -118 c3 -5 -1 -10 -10 -10 -9 0 -13 5 -10 10 3 6 8 10 10 10 2 0 7
-4 10 -10z m575 0 c0 -5 -4 -10 -9 -10 -6 0 -13 5 -16 10 -3 6 1 10 9 10 9 0
16 -4 16 -10z m-205 -145 c454 -25 799 -46 813 -50 8 -3 12 -30 12 -90 l0 -85
-64 0 c-36 0 -68 -4 -71 -10 -4 -6 -12 -6 -23 0 -22 11 -255 27 -592 40 -338
13 -410 19 -411 33 -6 50 -6 79 -2 125 7 62 -34 57 338 37z m-468 -256 c15 -5
31 -16 35 -22 5 -8 29 -11 71 -9 90 5 145 -11 153 -45 5 -20 2 -31 -15 -44
l-22 -18 50 -38 c30 -22 47 -41 42 -46 -16 -16 -69 4 -121 45 -48 38 -77 46
-50 13 23 -27 4 -46 -42 -43 -39 3 -43 5 -40 27 1 13 -2 29 -8 36 -8 9 -5 14
11 18 16 4 20 12 17 34 -4 33 -33 44 -42 15 -9 -26 -48 -42 -101 -42 -38 0
-45 -3 -45 -19 0 -11 5 -21 12 -23 6 -2 9 -12 5 -21 -10 -26 -117 -22 -117 4
0 5 9 18 20 29 25 25 29 124 5 134 -8 3 -15 10 -15 16 0 13 160 13 197 -1z
m878 -43 c17 -11 25 -26 25 -46 0 -36 -39 -60 -100 -60 -33 0 -40 -3 -40 -19
0 -10 7 -22 16 -25 30 -12 2 -26 -52 -26 -41 0 -54 4 -54 15 0 8 7 15 15 15
12 0 15 14 15 70 0 40 -4 70 -10 70 -5 0 -10 7 -10 16 0 15 11 16 85 12 54 -4
94 -12 110 -22z m-338 -21 c17 -8 39 -25 49 -40 16 -24 16 -30 3 -53 -57 -100
-299 -72 -299 36 0 64 146 97 247 57z m487 -16 c6 -5 3 -11 -7 -15 -11 -4 -17
-17 -17 -36 0 -29 1 -29 47 -26 43 3 50 7 72 41 18 27 31 37 51 37 21 0 32
-11 63 -64 39 -65 55 -80 82 -70 17 7 22 104 5 104 -5 0 -10 7 -10 16 0 14 8
16 46 10 33 -4 61 -18 98 -47 49 -39 51 -40 54 -18 2 13 -3 26 -12 31 -27 15
-8 28 39 28 44 0 68 -16 45 -30 -7 -4 -15 -34 -19 -66 -8 -77 -28 -81 -96 -19
-78 71 -85 73 -85 25 0 -29 4 -40 15 -40 19 0 20 -19 1 -26 -8 -3 -56 -2 -108
3 -87 8 -93 9 -90 30 2 12 -2 24 -8 28 -13 8 -65 -3 -57 -12 4 -3 2 -15 -4
-25 -10 -19 -18 -20 -107 -13 -96 7 -132 18 -99 31 23 8 24 96 2 114 -10 8
-12 16 -6 19 14 9 94 1 105 -10z m650 -22 c11 -8 17 -23 14 -38 -2 -20 -8 -24
-38 -24 -31 0 -35 3 -38 29 -5 42 27 59 62 33z m-1639 -187 c3 -5 15 -10 25
-10 10 0 20 -5 22 -11 2 -6 64 -12 168 -15 91 -3 168 -9 172 -12 3 -4 8 -18
10 -32 l3 -25 -235 3 c-205 3 -237 6 -249 20 -10 12 -15 14 -18 5 -4 -12 -43
-19 -43 -8 0 13 51 85 60 85 5 0 16 -12 23 -26 10 -18 16 -23 22 -15 4 7 4 15
1 18 -7 7 13 33 25 33 4 0 11 -4 14 -10z m595 -35 c12 -11 56 -16 176 -21 87
-3 163 -9 167 -13 13 -13 -12 -64 -27 -58 -8 3 -20 -1 -26 -9 -16 -18 -57 -18
-67 1 -6 10 -31 15 -86 18 -42 2 -80 7 -84 10 -3 4 -12 2 -19 -4 -16 -13 -34
-4 -34 17 0 8 -7 14 -15 14 -8 0 -15 -7 -15 -15 0 -9 -9 -15 -22 -15 -20 0
-23 6 -25 45 -1 44 -1 45 29 45 17 0 39 -7 48 -15z m-118 -15 c19 0 19 -1 -4
-42 -28 -50 -54 -65 -44 -24 3 14 2 35 -3 45 -12 21 -3 34 17 26 7 -3 23 -5
34 -5z m698 -8 c0 -15 6 -18 30 -14 17 2 30 10 30 18 0 18 27 18 37 0 4 -7 25
-16 45 -20 31 -6 39 -3 48 14 17 33 40 25 42 -15 0 -19 1 -41 2 -47 1 -9 -17
-13 -59 -12 -33 1 -99 2 -146 3 l-87 1 0 38 c0 47 3 52 34 52 17 0 24 -6 24
-18z m-112 -11 c18 -1 22 -7 22 -32 l0 -30 -57 5 c-32 2 -59 5 -60 5 -2 1 -3
12 -3 25 0 27 13 35 50 30 14 -1 35 -3 48 -3z m22 -321 c0 -13 -11 -13 -30 0
-12 8 -11 10 8 10 12 0 22 -4 22 -10z"/>
<path d="M1378 6363 c-5 -63 6 -92 16 -46 8 36 5 103 -5 103 -4 0 -9 -26 -11
-57z"/>
<path d="M1493 6402 c25 -28 21 -52 -12 -65 -21 -8 -28 -17 -27 -34 1 -21 6
-23 56 -23 42 0 51 3 42 12 -7 7 -12 24 -12 39 0 14 -3 41 -6 58 -5 25 -11 31
-32 31 -24 0 -24 -1 -9 -18z"/>
<path d="M1586 6394 c-3 -9 -6 -31 -6 -51 0 -30 3 -34 23 -31 19 3 22 9 21 46
-1 38 2 42 23 42 20 0 23 -4 18 -27 -4 -16 -9 -39 -11 -52 -3 -14 -13 -31 -22
-38 -15 -11 -11 -12 24 -13 48 0 54 8 54 80 0 29 5 50 13 53 6 3 -20 6 -59 6
-57 1 -73 -2 -78 -15z"/>
<path d="M1800 6385 c7 -8 9 -26 5 -43 -4 -20 -1 -33 10 -42 8 -7 15 -19 15
-26 0 -16 26 -19 34 -5 4 5 7 34 7 65 2 52 3 56 25 56 22 0 23 -3 20 -46 -5
-64 2 -84 30 -84 21 0 24 5 26 38 1 20 1 47 0 60 -1 32 34 29 71 -5 l30 -28
-7 28 c-5 21 -3 27 11 29 34 3 -122 16 -206 17 -72 1 -82 -1 -71 -14z"/>
<path d="M2106 6380 c-2 -3 -4 -34 -5 -70 l-2 -65 21 25 c11 14 31 44 44 67
l24 41 -40 4 c-22 2 -41 1 -42 -2z"/>
<path d="M2224 6330 c13 -27 28 -56 35 -64 9 -11 9 -15 -1 -19 -8 -4 -7 -6 5
-6 14 -1 17 8 17 63 0 68 -6 76 -55 76 l-24 0 23 -50z"/>
<path d="M2020 6301 c0 -18 19 -51 30 -51 17 0 11 26 -10 45 -13 11 -20 14
-20 6z"/>
<path d="M1762 6281 c2 -7 7 -12 11 -12 12 1 9 15 -3 20 -7 2 -11 -2 -8 -8z"/>
<path d="M2170 6265 c0 -8 9 -15 20 -15 11 0 20 7 20 15 0 8 -9 15 -20 15 -11
0 -20 -7 -20 -15z"/>
<path d="M900 6135 c0 -24 3 -26 38 -23 29 2 37 7 37 23 0 16 -8 21 -37 23
-35 3 -38 1 -38 -23z"/>
<path d="M1142 6108 c3 -7 19 -14 37 -16 24 -3 32 0 29 10 -3 7 -19 14 -37 16
-24 3 -32 0 -29 -10z"/>
<path d="M1772 6108 c4 -29 64 -39 75 -13 7 21 -12 35 -50 35 -24 0 -28 -4
-25 -22z"/>
<path d="M1402 6103 c-7 -2 -17 -13 -22 -24 -34 -63 106 -105 146 -44 18 28 9
54 -23 66 -26 10 -79 11 -101 2z"/>
<path d="M2165 6050 c-3 -5 -1 -10 4 -10 6 0 11 5 11 10 0 6 -2 10 -4 10 -3 0
-8 -4 -11 -10z"/>
<path d="M2010 6006 c0 -16 41 -29 53 -17 5 5 -5 13 -22 19 -25 9 -31 8 -31
-2z"/>
<path d="M3319 6433 c-14 -35 -24 -103 -15 -103 3 0 16 6 27 13 17 10 23 10
26 0 5 -15 33 -17 33 -3 0 5 -6 31 -12 57 -18 69 -41 82 -59 36z m31 -39 c0
-14 -4 -23 -9 -20 -5 3 -7 15 -4 26 7 28 13 25 13 -6z"/>
<path d="M3410 6395 c0 -51 3 -65 15 -65 12 0 15 13 15 59 0 43 -4 60 -15 65
-12 4 -15 -6 -15 -59z"/>
<path d="M3460 6440 c0 -5 7 -10 15 -10 8 0 15 5 15 10 0 6 -7 10 -15 10 -8 0
-15 -4 -15 -10z"/>
<path d="M3847 6412 c-2 -11 -2 -37 2 -58 5 -31 11 -40 29 -42 21 -3 22 -2 11
16 -10 16 -10 26 -1 46 7 16 8 26 2 26 -6 0 -10 7 -10 15 0 21 -27 19 -33 -3z"/>
<path d="M4511 6408 c1 -17 2 -19 6 -5 3 12 14 17 38 17 32 0 35 -3 45 -42 16
-63 17 -65 25 -45 4 10 2 36 -5 58 -13 38 -14 39 -62 39 -43 0 -48 -2 -47 -22z"/>
<path d="M4634 6421 c-11 -11 -1 -16 33 -16 45 0 44 3 23 -165 -14 -118 -23
-132 -75 -120 -19 4 -35 4 -35 0 0 -10 36 -20 72 -20 25 0 27 4 37 58 6 31 16
80 21 107 6 28 11 70 13 95 l2 45 50 -2 c28 0 97 -4 155 -7 58 -3 134 -5 170
-5 78 -1 93 -9 88 -47 -3 -26 -6 -29 -35 -26 -46 3 -44 -24 2 -32 32 -6 35
-10 35 -41 0 -32 -2 -35 -30 -35 -23 0 -30 -4 -30 -20 0 -11 5 -20 10 -20 6 0
10 7 10 15 0 11 8 13 30 9 l30 -6 0 95 0 96 53 3 c28 2 -31 9 -133 17 -219 16
-490 28 -496 22z"/>
<path d="M3462 6373 c2 -27 8 -48 13 -48 6 0 11 21 13 48 3 38 0 47 -13 47
-13 0 -16 -9 -13 -47z"/>
<path d="M3512 6373 c4 -60 28 -71 28 -13 0 25 4 39 10 35 6 -3 10 -22 10 -41
0 -35 13 -46 24 -18 3 9 6 28 6 42 0 21 2 24 10 12 5 -8 10 -27 10 -42 0 -16
5 -28 10 -28 11 0 14 90 3 91 -5 0 -32 2 -61 4 l-53 4 3 -46z"/>
<path d="M3185 6400 c-9 -15 4 -30 26 -30 12 0 19 7 19 20 0 21 -33 29 -45 10z"/>
<path d="M3657 6404 c-13 -13 -7 -62 9 -78 17 -18 24 -19 48 -10 26 10 18 27
-9 22 -17 -4 -25 -1 -25 8 0 8 11 14 26 14 21 0 25 4 22 23 -2 16 -11 23 -33
25 -17 2 -34 0 -38 -4z"/>
<path d="M3777 6402 c-26 -3 -28 -6 -25 -45 4 -50 22 -56 26 -9 4 43 22 41 22
-3 0 -24 5 -35 15 -35 11 0 15 11 15 39 0 44 -14 58 -53 53z"/>
<path d="M3917 6394 c-12 -12 -8 -72 6 -81 42 -26 75 0 61 50 -7 24 -16 33
-35 35 -13 2 -28 0 -32 -4z m43 -49 c0 -14 -4 -25 -10 -25 -5 0 -10 11 -10 25
0 14 5 25 10 25 6 0 10 -11 10 -25z"/>
<path d="M4018 6393 c-27 -7 -22 -38 8 -51 14 -7 22 -17 19 -23 -5 -7 -11 -6
-21 2 -16 13 -30 6 -19 -10 3 -6 19 -11 36 -11 22 0 29 5 29 20 0 11 -9 25
-20 32 -27 17 -25 28 3 20 20 -5 21 -4 8 11 -7 9 -16 16 -20 16 -3 -1 -14 -3
-23 -6z"/>
<path d="M5350 6355 c21 -22 25 -36 24 -81 0 -30 3 -49 7 -42 10 19 16 148 7
148 -4 0 -8 -7 -8 -15 0 -8 -4 -15 -10 -15 -5 0 -10 4 -10 9 0 5 -8 12 -17 15
-13 5 -10 -1 7 -19z"/>
<path d="M5428 6373 c32 -6 38 -30 47 -170 l7 -122 -73 1 c-41 0 -80 5 -86 10
-7 6 -13 29 -13 51 0 22 -3 37 -7 33 -4 -4 -6 -25 -4 -47 l3 -40 -39 3 c-34 3
-38 6 -41 33 -4 33 -18 55 -36 55 -7 0 -7 -3 1 -8 18 -11 28 -68 13 -77 -6 -4
-40 -4 -75 0 -59 6 -64 8 -68 33 -4 25 -4 24 -6 -5 0 -17 2 -34 7 -36 4 -3
133 -10 287 -16 154 -7 303 -13 332 -15 28 -1 50 2 47 6 -3 4 -32 8 -64 8 -37
0 -64 5 -72 13 -10 12 -15 12 -26 0 -15 -15 -31 -16 -50 -4 -18 11 -40 273
-24 279 29 9 8 22 -35 21 -27 -1 -38 -4 -25 -6z"/>
<path d="M5556 6344 c17 -26 18 -26 26 -5 5 14 16 21 32 21 28 0 33 -12 39
-90 2 -25 4 -13 3 25 l-1 70 -58 3 -58 3 17 -27z"/>
<path d="M4868 6348 c-5 -12 -18 -18 -38 -18 -40 0 -38 -13 3 -25 26 -8 33
-16 35 -42 3 -27 0 -33 -17 -33 -30 0 -51 -11 -51 -26 0 -8 5 -14 11 -14 5 0
7 5 4 10 -4 6 8 10 29 10 l36 0 0 50 c0 37 4 50 14 50 9 0 16 -13 19 -32 3
-29 4 -27 5 10 2 35 -1 42 -17 42 -11 0 -21 8 -23 18 -3 16 -4 16 -10 0z"/>
<path d="M5732 6353 c43 -4 47 -7 53 -34 4 -17 9 -28 12 -25 3 2 2 18 -2 35
-6 30 -8 31 -58 29 l-52 -2 47 -3z"/>
<path d="M5827 6353 c-4 -3 -6 -18 -6 -32 1 -21 2 -22 6 -6 3 11 12 26 21 33
14 10 14 12 1 12 -9 0 -19 -3 -22 -7z"/>
<path d="M6001 6303 l2 -48 6 40 c5 31 11 41 31 46 23 6 22 7 -7 8 -33 1 -33
1 -32 -46z"/>
<path d="M6076 6330 c4 -14 11 -43 15 -65 7 -34 8 -32 4 14 -3 30 -10 59 -16
65 -8 8 -9 5 -3 -14z"/>
<path d="M6126 6332 c-3 -5 8 -6 25 -4 16 2 29 6 29 8 0 8 -49 4 -54 -4z"/>
<path d="M6200 6335 c0 -18 19 -40 26 -32 4 4 0 15 -9 24 -9 10 -17 13 -17 8z"/>
<path d="M5017 6323 c-16 -4 -18 -16 -17 -101 1 -54 1 -103 1 -111 -1 -10 -11
-12 -42 -7 -26 4 -38 3 -34 -4 3 -5 27 -10 52 -10 l45 0 -7 105 c-7 93 -6 105
9 105 9 0 16 7 16 15 0 8 -1 14 -2 14 -2 -1 -11 -3 -21 -6z"/>
<path d="M7400 6318 c0 -2 10 -57 21 -123 12 -66 25 -158 29 -205 5 -47 18
-159 29 -250 12 -91 26 -212 32 -270 6 -58 12 -107 14 -109 2 -2 188 -7 412
-12 224 -4 563 -11 752 -15 l344 -7 -6 44 c-3 24 -16 105 -27 179 -33 215
-100 674 -100 686 0 7 -106 15 -327 23 -304 11 -608 27 -978 51 -158 10 -195
12 -195 8z m878 -234 c263 -8 245 -1 256 -96 l7 -58 -133 0 c-73 0 -236 5
-363 11 -188 9 -232 14 -242 27 -15 19 -17 129 -3 134 5 2 63 0 127 -4 65 -3
223 -9 351 -14z m-522 -204 c9 -8 35 -15 58 -16 75 -1 85 -4 96 -25 9 -15 8
-24 -1 -35 -9 -11 -8 -18 6 -34 24 -26 39 -26 25 0 -39 73 89 118 164 59 33
-26 33 -59 2 -88 -20 -19 -33 -22 -68 -19 -24 3 -51 8 -61 12 -13 6 -16 5 -11
-8 11 -28 -42 -19 -79 14 -35 31 -58 41 -38 17 14 -18 4 -27 -30 -27 -26 0
-27 2 -22 40 3 21 2 47 -1 57 -7 17 -8 16 -24 -4 -9 -12 -32 -25 -51 -30 -32
-8 -33 -9 -16 -27 23 -22 8 -39 -30 -34 -27 3 -28 6 -31 62 -2 33 -8 64 -14
70 -5 5 -10 16 -10 24 0 19 111 12 136 -8z m527 -12 c12 -7 40 -14 62 -17 38
-6 40 -8 37 -38 -2 -17 1 -34 7 -37 17 -11 50 12 57 39 11 44 48 33 83 -25 17
-27 38 -50 46 -50 20 0 20 54 0 74 -22 21 -19 26 18 26 21 -1 44 -11 67 -31
20 -17 36 -25 39 -18 2 6 -2 16 -8 22 -6 6 -11 15 -11 19 0 10 54 11 64 1 4
-4 19 -7 34 -8 18 0 28 -6 30 -19 8 -40 -41 -45 -51 -4 -11 40 -26 8 -20 -42
7 -63 -3 -64 -70 -8 -46 39 -50 41 -45 18 3 -14 9 -32 12 -41 9 -20 -19 -27
-81 -21 -33 3 -43 8 -45 25 -5 31 -27 32 -38 2 -9 -25 -13 -26 -72 -23 -56 3
-63 5 -61 23 2 11 0 35 -3 54 l-5 33 -23 -21 c-12 -11 -32 -21 -44 -21 -24 0
-38 -15 -22 -25 23 -14 10 -35 -23 -35 l-32 0 -1 60 c0 34 -6 66 -12 72 -7 7
-12 16 -12 20 0 13 99 9 123 -4z m-393 -158 c0 -5 -4 -10 -10 -10 -5 0 -10 5
-10 10 0 6 5 10 10 10 6 0 10 -4 10 -10z m-65 -63 c4 -9 43 -13 138 -15 72 -2
135 -7 139 -11 10 -9 -6 -67 -18 -61 -5 2 -8 10 -6 16 1 7 -2 15 -8 19 -5 3
-10 1 -10 -4 0 -12 -237 -15 -302 -5 -35 6 -37 9 -31 33 9 38 8 38 53 39 25 1
43 -3 45 -11z m353 -9 c12 -12 56 -16 205 -18 77 -1 97 -4 97 -16 0 -8 4 -14
9 -14 5 0 7 9 4 20 -6 22 28 43 35 22 5 -15 42 -16 42 -2 0 6 7 10 15 10 8 0
15 -4 15 -9 0 -17 45 -21 57 -5 17 23 30 10 29 -27 l-1 -32 -95 2 c-52 2 -117
4 -145 5 -29 1 -61 -4 -77 -13 -22 -12 -31 -13 -51 -2 -13 7 -49 13 -81 13
-39 1 -60 6 -63 15 -4 11 -8 10 -18 -4 -13 -17 -14 -16 -24 10 -6 16 -11 35
-11 43 0 17 41 19 58 2z m442 -228 c0 -5 -4 -10 -9 -10 -6 0 -13 5 -16 10 -3
6 1 10 9 10 9 0 16 -4 16 -10z"/>
<path d="M8127 6029 c2 -23 -1 -47 -8 -55 -9 -11 -8 -14 9 -14 18 0 20 6 19
55 -1 32 -7 55 -13 55 -7 0 -9 -15 -7 -41z"/>
<path d="M8213 6059 c14 -8 22 -8 30 0 8 8 3 11 -18 11 -26 -1 -28 -2 -12 -11z"/>
<path d="M8289 6063 c-3 -27 4 -90 12 -97 20 -22 30 10 17 57 -11 41 -26 62
-29 40z"/>
<path d="M8346 6046 c10 -8 21 -10 22 -5 8 22 31 7 34 -23 2 -18 7 -33 12 -33
6 0 14 15 18 33 11 42 28 40 55 -6 l22 -37 1 43 0 42 -92 0 c-82 0 -90 -2 -72
-14z"/>
<path d="M8077 6043 c-8 -13 3 -53 14 -53 11 0 11 31 0 49 -5 7 -11 9 -14 4z"/>
<path d="M8018 6018 c-27 -27 -22 -45 12 -50 17 -3 30 -4 30 -4 0 1 -6 17 -13
36 -11 34 -13 34 -29 18z"/>
<path d="M7951 6004 c0 -11 3 -14 6 -6 3 7 2 16 -1 19 -3 4 -6 -2 -5 -13z"/>
<path d="M8350 5982 c0 -5 7 -15 15 -22 8 -7 15 -8 15 -2 0 5 -7 15 -15 22 -8
7 -15 8 -15 2z"/>
<path d="M8450 5966 c0 -9 5 -16 10 -16 6 0 10 4 10 9 0 6 -4 13 -10 16 -5 3
-10 -1 -10 -9z"/>
<path d="M7686 5846 c7 -19 48 -22 42 -3 -3 6 -14 13 -26 15 -16 3 -20 -1 -16
-12z"/>
<path d="M7840 5820 c0 -5 7 -10 15 -10 8 0 15 5 15 10 0 6 -7 10 -15 10 -8 0
-15 -4 -15 -10z"/>
<path d="M7989 5814 c-14 -17 -5 -40 23 -57 23 -15 68 0 68 22 0 44 -63 68
-91 35z"/>
<path d="M8230 5830 c0 -11 6 -20 13 -20 19 0 27 10 20 26 -8 21 -33 17 -33
-6z"/>
<path d="M5285 6290 c3 -5 8 -10 11 -10 2 0 4 5 4 10 0 6 -5 10 -11 10 -5 0
-7 -4 -4 -10z"/>
<path d="M5042 6240 c0 -19 2 -27 5 -17 2 9 2 25 0 35 -3 9 -5 1 -5 -18z"/>
<path d="M5801 6254 c0 -11 3 -14 6 -6 3 7 2 16 -1 19 -3 4 -6 -2 -5 -13z"/>
<path d="M6607 6263 c-13 -13 -7 -82 9 -97 20 -20 43 -20 51 -1 8 22 -6 33
-18 15 -8 -13 -10 -13 -19 0 -13 20 -13 57 0 65 6 3 10 1 10 -4 0 -6 7 -11 15
-11 21 0 19 17 -4 30 -23 12 -35 13 -44 3z"/>
<path d="M6690 6238 c0 -40 12 -88 21 -88 11 0 0 91 -12 105 -5 5 -9 -2 -9
-17z"/>
<path d="M3304 6236 c-3 -7 -4 -35 -2 -62 l3 -49 40 0 40 0 2 50 c2 36 -2 53
-14 63 -22 16 -62 15 -69 -2z m56 -27 c0 -5 -4 -9 -10 -9 -5 0 -10 7 -10 16 0
8 5 12 10 9 6 -3 10 -10 10 -16z m0 -55 c0 -8 -4 -14 -9 -14 -11 0 -22 26 -14
34 9 9 23 -3 23 -20z"/>
<path d="M6000 6218 c0 -19 2 -20 10 -8 13 19 13 30 0 30 -5 0 -10 -10 -10
-22z"/>
<path d="M3522 6176 c2 -31 8 -56 13 -56 15 0 13 102 -3 108 -10 3 -12 -9 -10
-52z"/>
<path d="M6515 6220 c-4 -6 -3 -14 0 -20 9 -15 35 -12 35 4 0 17 -27 29 -35
16z"/>
<path d="M6740 6193 c0 -24 5 -43 10 -43 13 0 13 50 0 70 -7 11 -10 4 -10 -27z"/>
<path d="M6780 6186 c0 -20 5 -36 10 -36 6 0 10 11 10 25 0 14 5 25 10 25 6 0
10 -11 10 -24 0 -14 5 -28 11 -31 7 -5 9 6 7 31 -3 34 -6 39 -30 42 -26 3 -28
1 -28 -32z"/>
<path d="M6860 6186 c0 -19 5 -38 10 -41 6 -4 10 10 10 34 0 23 -4 41 -10 41
-5 0 -10 -15 -10 -34z"/>
<path d="M3427 6204 c-11 -11 3 -24 18 -17 8 3 15 0 15 -6 0 -6 -6 -11 -14
-11 -19 0 -41 -29 -30 -40 5 -4 25 -10 44 -12 32 -3 35 0 38 24 4 38 -14 68
-42 68 -12 0 -26 -3 -29 -6z m37 -65 c-3 -5 -10 -7 -15 -3 -5 3 -7 10 -3 15 3
5 10 7 15 3 5 -3 7 -10 3 -15z"/>
<path d="M4110 6195 c0 -9 -10 -15 -26 -15 -23 0 -25 -3 -22 -42 3 -42 4 -43
42 -46 l38 -3 -5 58 c-4 32 -6 59 -7 61 -1 10 -20 -1 -20 -13z m0 -60 c0 -14
-4 -25 -10 -25 -5 0 -10 11 -10 25 0 14 5 25 10 25 6 0 10 -11 10 -25z"/>
<path d="M5381 6188 c1 -13 5 -34 9 -48 7 -21 8 -19 9 17 1 23 -3 45 -9 48 -6
3 -10 -4 -9 -17z"/>
<path d="M6904 6197 c-9 -24 14 -67 36 -67 11 0 20 7 20 16 0 8 -5 12 -11 8
-6 -3 -15 0 -20 7 -14 22 -11 29 12 29 11 0 17 5 14 10 -9 15 -45 12 -51 -3z"/>
<path d="M6980 6200 c0 -5 8 -10 18 -10 16 -1 16 -2 -2 -15 -24 -19 -14 -45
19 -45 21 0 25 5 25 28 0 15 -5 33 -12 40 -15 15 -48 16 -48 2z m40 -44 c0 -3
-4 -8 -10 -11 -5 -3 -10 -1 -10 4 0 6 5 11 10 11 6 0 10 -2 10 -4z"/>
<path d="M3574 6189 c-5 -9 -1 -11 14 -7 32 9 38 -10 7 -22 -40 -15 -29 -44
18 -48 l38 -3 -3 43 c-3 40 -5 43 -35 46 -17 2 -34 -2 -39 -9z m46 -49 c0 -5
-4 -10 -10 -10 -5 0 -10 5 -10 10 0 6 5 10 10 10 6 0 10 -4 10 -10z"/>
<path d="M3670 6155 c0 -33 4 -45 15 -45 10 0 15 11 15 35 0 46 18 45 22 -2 5
-56 28 -55 28 1 0 25 -3 47 -7 47 -75 11 -73 12 -73 -36z"/>
<path d="M3781 6187 c-15 -15 -14 -60 1 -75 17 -17 55 -15 62 4 5 13 1 15 -19
10 -22 -6 -25 -3 -25 19 0 22 4 25 20 20 14 -5 20 -2 20 9 0 9 -3 16 -7 17 -5
0 -15 2 -25 4 -9 2 -21 -2 -27 -8z"/>
<path d="M3870 6146 c0 -47 18 -64 54 -50 24 9 20 26 -6 22 -11 -2 -23 3 -25
10 -3 7 5 12 22 12 22 0 26 4 23 23 -2 17 -11 23 -35 25 -33 3 -33 3 -33 -42z"/>
<path d="M3969 6173 c-13 -15 -11 -16 16 -10 28 7 29 6 11 -8 -11 -8 -24 -15
-29 -15 -4 0 -7 -10 -5 -22 2 -19 10 -24 41 -26 37 -3 37 -3 37 35 0 59 -40
84 -71 46z m41 -53 c0 -5 -4 -10 -10 -10 -5 0 -10 5 -10 10 0 6 5 10 10 10 6
0 10 -4 10 -10z"/>
<path d="M4868 6183 c6 -2 12 -20 12 -40 l0 -35 -79 4 c-44 2 -77 0 -75 -4 8
-12 155 -21 166 -10 16 16 0 92 -20 91 -11 0 -12 -2 -4 -6z"/>
<path d="M5827 6169 c4 -13 8 -18 11 -10 2 7 -1 18 -6 23 -8 8 -9 4 -5 -13z"/>
<path d="M4167 6173 c-13 -12 -7 -70 8 -83 8 -6 22 -10 32 -8 22 4 30 62 12
84 -12 15 -41 19 -52 7z m36 -66 c-7 -12 -23 3 -23 22 0 28 14 35 21 9 3 -13
4 -26 2 -31z"/>
<path d="M4254 6158 c-4 -6 4 -21 20 -33 17 -13 24 -25 18 -29 -6 -3 -13 -2
-17 4 -3 5 -11 10 -17 10 -7 0 -6 -6 2 -15 17 -20 49 -19 57 2 4 10 -2 23 -15
34 -25 20 -29 34 -7 25 8 -3 15 -1 15 4 0 14 -47 12 -56 -2z"/>
<path d="M6101 6154 c0 -11 3 -14 6 -6 3 7 2 16 -1 19 -3 4 -6 -2 -5 -13z"/>
<path d="M5921 6083 c-1 -21 -6 -22 -67 -22 -36 1 -68 -2 -71 -5 -4 -3 33 -6
82 -6 68 0 85 3 78 13 -6 6 -13 19 -16 27 -4 10 -6 8 -6 -7z"/>
<path d="M6627 6074 c-4 -4 -7 -24 -7 -45 0 -27 6 -42 21 -53 24 -16 49 -11
49 10 0 17 -17 19 -22 2 -8 -23 -28 4 -28 38 0 34 22 48 34 22 3 -7 5 -4 3 7
-2 20 -36 33 -50 19z"/>
<path d="M4710 6063 c0 -5 17 -8 37 -8 32 0 39 -4 41 -24 2 -13 -1 -28 -6 -33
-7 -7 -7 -17 1 -30 10 -15 9 -21 -3 -28 -13 -8 -12 -10 3 -10 9 0 17 6 18 13
0 6 2 38 2 69 l2 58 -47 0 c-27 0 -48 -3 -48 -7z"/>
<path d="M4867 6040 c3 -11 7 -20 9 -20 2 0 4 9 4 20 0 11 -4 20 -9 20 -5 0
-7 -9 -4 -20z"/>
<path d="M6280 6051 c0 -5 -8 -12 -17 -14 -14 -4 -12 -5 5 -6 13 -1 22 5 22
14 0 8 -2 15 -5 15 -3 0 -5 -4 -5 -9z"/>
<path d="M6088 6043 c7 -3 16 -2 19 1 4 3 -2 6 -13 5 -11 0 -14 -3 -6 -6z"/>
<path d="M4900 6032 c0 -5 14 -7 30 -4 17 2 30 6 30 8 0 2 -13 4 -30 4 -16 0
-30 -4 -30 -8z"/>
<path d="M5030 6030 c20 -13 33 -13 25 0 -3 6 -14 10 -23 10 -15 0 -15 -2 -2
-10z"/>
<path d="M6532 6028 c5 -15 28 -18 29 -3 0 6 -7 12 -17 13 -10 3 -15 -1 -12
-10z"/>
<path d="M6717 6008 c7 -37 10 -44 19 -35 9 8 -6 67 -17 67 -4 0 -6 -15 -2
-32z"/>
<path d="M6757 6003 c9 -59 19 -61 25 -3 2 26 -1 35 -14 38 -14 3 -16 -3 -11
-35z"/>
<path d="M3309 5975 c-9 -41 -9 -59 -1 -67 8 -8 13 -7 18 5 8 21 30 22 38 2
10 -27 29 -17 23 13 -16 82 -23 97 -44 100 -18 3 -23 -4 -34 -53z m37 -23
c-11 -10 -15 4 -8 28 l7 25 3 -23 c2 -13 1 -26 -2 -30z"/>
<path d="M5158 6023 c17 -3 22 -11 22 -34 0 -26 -3 -29 -30 -29 -38 0 -40 -18
-2 -22 22 -2 28 -8 30 -35 3 -30 1 -33 -22 -33 -14 0 -26 -4 -26 -8 0 -4 15
-6 33 -4 l32 4 0 84 0 84 -30 -1 c-24 -1 -25 -3 -7 -6z"/>
<path d="M6810 6011 c0 -35 12 -51 36 -51 21 0 24 5 24 35 0 19 -4 35 -10 35
-5 0 -10 -14 -10 -31 0 -17 -4 -28 -10 -24 -5 3 -10 17 -10 31 0 13 -4 24 -10
24 -5 0 -10 -9 -10 -19z"/>
<path d="M6890 5994 c0 -27 5 -37 20 -41 24 -6 27 -23 4 -23 -8 0 -12 -4 -9
-10 10 -15 45 -12 51 5 4 8 3 35 0 60 -7 42 -9 45 -37 45 -27 0 -29 -3 -29
-36z m40 -4 c0 -11 -4 -20 -10 -20 -5 0 -10 9 -10 20 0 11 5 20 10 20 6 0 10
-9 10 -20z"/>
<path d="M6970 5991 c0 -23 5 -41 10 -41 6 0 10 15 10 34 0 19 -4 38 -10 41
-6 4 -10 -10 -10 -34z"/>
<path d="M7015 6020 c-3 -5 1 -10 9 -10 20 0 21 -16 1 -24 -17 -6 -21 -35 -5
-37 41 -5 45 -3 48 26 5 38 -36 72 -53 45z m35 -50 c0 -5 -4 -10 -10 -10 -5 0
-10 5 -10 10 0 6 5 10 10 10 6 0 10 -4 10 -10z"/>
<path d="M3958 5993 c7 -3 16 -2 19 1 4 3 -2 6 -13 5 -11 0 -14 -3 -6 -6z"/>
<path d="M4867 5994 c-6 -10 9 -42 16 -34 3 3 1 14 -3 24 -3 11 -9 15 -13 10z"/>
<path d="M3190 5970 c0 -15 7 -20 25 -20 18 0 25 5 25 20 0 15 -7 20 -25 20
-18 0 -25 -5 -25 -20z"/>
<path d="M3417 5984 c-4 -4 -7 -22 -7 -40 0 -24 5 -33 23 -38 35 -9 47 -7 47
9 0 18 -12 19 -28 3 -9 -9 -12 -5 -12 21 0 28 3 32 21 26 15 -5 20 -3 17 6 -5
15 -49 24 -61 13z"/>
<path d="M3514 5977 c-3 -9 -4 -28 -2 -44 2 -24 8 -28 36 -31 24 -2 32 1 32
12 0 19 -11 21 -28 4 -9 -9 -12 -7 -12 10 0 12 -5 22 -11 22 -5 0 -7 5 -4 10
3 6 18 7 32 4 19 -5 24 -3 21 7 -6 20 -57 24 -64 6z"/>
<path d="M3612 5973 c-5 -10 -6 -31 -3 -48 5 -25 11 -30 35 -30 16 0 31 6 34
13 3 9 -3 11 -23 6 -21 -5 -27 -4 -23 7 3 8 13 14 23 14 23 0 31 21 15 40 -17
20 -47 19 -58 -2z m38 -13 c0 -5 -4 -10 -10 -10 -5 0 -10 5 -10 10 0 6 5 10
10 10 6 0 10 -4 10 -10z"/>
<path d="M3700 5960 c0 -12 10 -25 25 -32 29 -13 24 -29 -7 -20 -14 3 -19 2
-14 -6 11 -18 56 -14 63 5 4 11 -1 22 -15 31 -25 16 -30 34 -7 26 8 -4 15 -1
15 5 0 6 -13 11 -30 11 -23 0 -30 -4 -30 -20z"/>
<path d="M3797 5974 c-13 -13 -7 -71 8 -84 8 -6 22 -10 32 -8 14 3 18 13 18
48 0 41 -2 45 -25 48 -14 2 -29 0 -33 -4z m38 -42 c0 -31 -19 -28 -23 4 -3 18
0 25 10 22 7 -3 13 -14 13 -26z"/>
<path d="M3884 5966 c-3 -7 -3 -26 0 -42 2 -16 5 -32 5 -36 1 -5 6 -8 11 -8 6
0 10 13 10 29 0 17 5 33 10 36 16 10 12 22 -11 28 -12 3 -22 0 -25 -7z"/>
<path d="M5040 5972 c0 -6 -15 -12 -32 -15 l-33 -3 32 -8 c17 -5 33 -16 36
-26 6 -24 -11 -50 -33 -50 -17 0 -20 -7 -20 -44 0 -44 0 -45 -37 -48 -37 -4
-37 -4 -11 -12 45 -13 58 -2 58 49 0 44 1 45 31 45 l31 0 -5 56 c-3 30 -8 58
-11 61 -3 4 -6 1 -6 -5z"/>
<path d="M3950 5925 c0 -33 4 -45 15 -45 11 0 15 12 15 45 0 33 -4 45 -15 45
-11 0 -15 -12 -15 -45z"/>
<path d="M4007 5963 c-24 -23 5 -93 39 -93 24 0 39 46 26 75 -11 24 -49 35
-65 18z m43 -38 c0 -14 -4 -25 -10 -25 -5 0 -10 11 -10 25 0 14 5 25 10 25 6
0 10 -11 10 -25z"/>
<path d="M4096 5955 c-3 -9 6 -26 22 -41 26 -25 27 -26 3 -19 -17 5 -22 4 -19
-6 3 -8 15 -14 29 -14 33 0 38 33 8 57 l-24 19 23 -6 c25 -7 31 10 6 19 -26
10 -42 7 -48 -9z"/>
<path d="M5616 5925 c4 -8 8 -15 10 -15 2 0 4 7 4 15 0 8 -4 15 -10 15 -5 0
-7 -7 -4 -15z"/>
<path d="M5985 5930 c3 -5 8 -10 11 -10 2 0 4 5 4 10 0 6 -5 10 -11 10 -5 0
-7 -4 -4 -10z"/>
<path d="M6053 5914 c-6 -13 -7 -24 -2 -24 12 0 31 38 21 44 -4 2 -12 -7 -19
-20z"/>
<path d="M5743 5923 c9 -2 23 -2 30 0 6 3 -1 5 -18 5 -16 0 -22 -2 -12 -5z"/>
<path d="M6639 5875 c-3 -2 -3 -26 1 -52 5 -45 7 -48 35 -48 26 0 30 4 33 32
4 43 -13 73 -42 73 -12 0 -25 -2 -27 -5z m45 -47 c7 -34 3 -44 -13 -33 -13 7
-15 65 -2 65 5 0 11 -14 15 -32z"/>
<path d="M5605 5850 l-30 -8 33 -1 c17 0 32 4 32 9 0 6 -1 9 -2 9 -2 -1 -16
-5 -33 -9z"/>
<path d="M7080 5828 c0 -42 8 -68 21 -68 11 0 0 81 -12 95 -5 5 -9 -6 -9 -27z"/>
<path d="M5191 5834 c0 -11 3 -14 6 -6 3 7 2 16 -1 19 -3 4 -6 -2 -5 -13z"/>
<path d="M6734 5836 c-12 -32 0 -61 29 -64 24 -3 27 0 27 25 0 45 -43 74 -56
39z m36 -32 c0 -13 -4 -24 -10 -24 -5 0 -10 14 -10 31 0 17 4 28 10 24 6 -3
10 -17 10 -31z"/>
<path d="M6828 5842 c-13 -2 -18 -13 -18 -38 0 -19 5 -34 10 -34 6 0 10 14 10
31 0 17 4 28 10 24 6 -3 10 -17 10 -31 0 -13 5 -24 11 -24 7 0 9 10 7 25 -3
14 -2 28 3 31 4 2 11 -12 15 -32 4 -25 9 -32 14 -23 5 8 6 26 3 41 -5 26 -34
38 -75 30z"/>
<path d="M5269 5803 c-4 -36 -1 -43 16 -47 30 -9 155 -7 155 2 0 4 -35 7 -77
7 l-78 0 -5 40 -6 40 -5 -42z"/>
<path d="M6550 5825 c0 -10 7 -15 18 -13 21 4 19 22 -2 26 -10 2 -16 -3 -16
-13z"/>
<path d="M6924 5818 c3 -13 6 -32 6 -42 0 -14 3 -17 10 -10 12 12 2 74 -12 74
-6 0 -8 -10 -4 -22z"/>
<path d="M6966 5825 c-3 -8 -1 -26 4 -40 11 -29 50 -35 50 -7 0 14 -2 15 -10
2 -10 -17 -15 -14 -25 18 -6 21 -4 23 14 17 24 -7 29 10 5 19 -24 9 -31 7 -38
-9z"/>
<path d="M7041 5813 c1 -27 15 -58 21 -47 8 13 -2 64 -13 64 -5 0 -9 -8 -8
-17z"/>
<path d="M7124 5798 c11 -54 27 -55 19 0 -3 17 -10 32 -15 32 -6 0 -8 -13 -4
-32z"/>
<path d="M7163 5814 c-9 -24 14 -64 37 -64 15 0 20 7 20 28 0 45 -43 72 -57
36z m34 -41 c-4 -17 -4 -17 -12 0 -4 9 -4 25 0 35 8 16 8 16 12 0 3 -10 3 -26
0 -35z"/>
<path d="M7240 5805 c0 -8 9 -19 20 -25 25 -13 27 -31 3 -24 -15 5 -15 4 -3
-4 8 -6 18 -8 22 -6 13 9 9 34 -7 40 -8 4 -15 12 -15 20 0 8 -4 14 -10 14 -5
0 -10 -7 -10 -15z"/>
<path d="M5191 5792 c-1 -23 -4 -24 -66 -20 -36 1 -65 0 -65 -4 0 -5 39 -8 87
-8 71 0 84 2 71 13 -9 6 -18 19 -21 27 -3 9 -6 6 -6 -8z"/>
<path d="M5670 5748 c0 -5 16 -8 35 -8 19 0 35 3 35 8 0 4 -16 7 -35 7 -19 0
-35 -3 -35 -7z"/>
<path d="M5608 5743 c6 -2 18 -2 25 0 6 3 1 5 -13 5 -14 0 -19 -2 -12 -5z"/>
<path d="M5945 5740 l-30 -8 27 -1 c15 0 30 4 33 9 3 6 5 9 3 9 -2 -1 -16 -5
-33 -9z"/>
<path d="M3020 5644 c0 -49 4 -61 35 -97 19 -22 50 -47 67 -54 37 -16 177 -31
302 -32 48 -1 91 -3 95 -5 3 -2 195 -7 426 -10 696 -11 1812 -35 2113 -46 427
-16 816 -28 1123 -36 l276 -7 -15 96 -16 96 -50 5 c-28 3 -150 8 -271 11 -256
7 -649 21 -990 35 -576 25 -1015 41 -1355 50 -880 23 -1158 31 -1355 40 -115
6 -249 10 -297 10 l-88 0 0 -56z m1770 -35 c18 -32 6 -51 -25 -39 -22 8 -25 7
-25 -10 0 -17 4 -19 28 -14 15 4 29 11 30 16 2 4 11 15 19 24 15 15 27 15 66
-1 13 -5 17 -2 17 14 0 14 6 21 20 21 18 0 20 -7 20 -62 0 -35 4 -58 8 -51 4
7 26 11 52 10 34 -2 46 -6 48 -20 3 -16 -4 -18 -65 -16 -37 1 -73 6 -80 11 -7
5 -14 5 -18 -2 -10 -16 -63 -12 -73 6 -8 14 -10 14 -21 0 -20 -24 -67 -20 -85
6 -19 27 -21 99 -4 116 20 20 76 15 88 -9z m385 -64 c0 -56 -3 -70 -16 -73
-13 -2 -18 8 -23 42 -4 27 -14 50 -24 56 -15 9 -15 12 8 30 44 35 55 23 55
-55z m107 58 c5 -3 7 -11 4 -19 -11 -28 4 -41 45 -40 33 1 43 7 59 34 27 44
60 44 61 0 l1 -33 7 30 c6 27 10 30 46 30 35 0 40 -3 43 -25 6 -40 18 -44 32
-11 21 51 70 39 70 -18 0 -13 9 -17 35 -17 40 0 50 -7 42 -29 -4 -9 -19 -15
-37 -15 -18 0 -33 -6 -36 -15 -7 -17 -44 -21 -44 -5 0 6 -11 10 -24 10 -14 0
-28 -4 -31 -10 -8 -13 -72 -13 -80 0 -4 6 -12 6 -23 -1 -14 -9 -26 -6 -55 10
-47 26 -91 27 -117 1 -25 -25 -35 -25 -58 -2 -22 22 -30 121 -11 133 12 7 55
3 71 -8z m519 -68 c4 -32 4 -65 2 -73 -10 -26 -37 -7 -45 32 -5 21 -16 45 -26
52 -16 13 -15 15 8 34 40 32 54 22 61 -45z m89 55 c13 -7 27 -7 43 1 20 9 30
8 50 -6 17 -10 27 -13 32 -6 9 16 62 13 68 -3 15 -38 19 -107 7 -121 -16 -20
-49 -19 -72 2 -10 9 -18 11 -18 5 0 -7 -30 -11 -84 -11 -91 0 -107 9 -85 52 9
16 9 22 0 25 -15 5 -14 45 1 60 15 15 33 15 58 2z m-847 -12 c7 -23 -4 -38
-29 -38 -27 0 -28 3 -14 31 12 21 36 25 43 7z"/>
<path d="M5896 5512 c-3 -6 -1 -14 5 -17 15 -10 25 3 12 16 -7 7 -13 7 -17 1z"/>
<path d="M5165 6690 c3 -5 10 -10 16 -10 5 0 9 5 9 10 0 6 -7 10 -16 10 -8 0
-12 -4 -9 -10z"/>
<path d="M7728 4503 c7 -3 16 -2 19 1 4 3 -2 6 -13 5 -11 0 -14 -3 -6 -6z"/>
<path d="M2930 4506 c0 -2 7 -6 15 -10 8 -3 15 -1 15 4 0 6 -7 10 -15 10 -8 0
-15 -2 -15 -4z"/>
<path d="M6451 3804 c0 -11 3 -14 6 -6 3 7 2 16 -1 19 -3 4 -6 -2 -5 -13z"/>
<path d="M6120 3489 c0 -5 5 -7 10 -4 6 3 10 8 10 11 0 2 -4 4 -10 4 -5 0 -10
-5 -10 -11z"/>
<path d="M7842 3750 c0 -14 2 -19 5 -12 2 6 2 18 0 25 -3 6 -5 1 -5 -13z"/>
<path d="M7852 3670 c0 -25 3 -70 8 -100 6 -47 7 -49 8 -15 0 22 -4 67 -8 100
-6 55 -7 56 -8 15z"/>
<path d="M7300 3580 c0 -5 5 -10 10 -10 6 0 10 5 10 10 0 6 -4 10 -10 10 -5 0
-10 -4 -10 -10z"/>
<path d="M7277 3555 c-4 -8 -2 -17 3 -20 6 -4 10 3 10 14 0 25 -6 27 -13 6z"/>
<path d="M7735 3064 c-25 -25 -16 -77 15 -85 l25 -7 -26 -1 c-22 -1 -39 -17
-39 -37 0 -2 23 -4 50 -4 42 0 50 3 50 18 0 10 -3 22 -7 26 -8 8 -9 12 -11 58
-3 36 -34 54 -57 32z m35 -44 c0 -5 -4 -10 -9 -10 -6 0 -13 5 -16 10 -3 6 1
10 9 10 9 0 16 -4 16 -10z"/>
<path d="M7917 2659 c4 -13 8 -18 11 -10 2 7 -1 18 -6 23 -8 8 -9 4 -5 -13z"/>
<path d="M3950 3485 c0 -8 5 -15 10 -15 6 0 10 7 10 15 0 8 -4 15 -10 15 -5 0
-10 -7 -10 -15z"/>
<path d="M4260 3457 c0 -18 5 -27 15 -27 13 0 14 4 4 23 -17 33 -19 33 -19 4z"/>
<path d="M4315 3440 c-3 -5 1 -10 10 -10 9 0 13 5 10 10 -3 6 -8 10 -10 10 -2
0 -7 -4 -10 -10z"/>
<path d="M4470 3440 c0 -5 7 -7 15 -4 8 4 15 8 15 10 0 2 -7 4 -15 4 -8 0 -15
-4 -15 -10z"/>
<path d="M5618 3443 c6 -2 18 -2 25 0 6 3 1 5 -13 5 -14 0 -19 -2 -12 -5z"/>
<path d="M4365 3430 c4 -6 11 -8 16 -5 14 9 11 15 -7 15 -8 0 -12 -5 -9 -10z"/>
<path d="M3867 3414 c-4 -4 -29 -6 -57 -5 l-50 1 -1 -37 c-1 -21 -2 -78 -4
-128 -1 -49 -4 -97 -6 -105 -3 -11 7 -16 39 -18 23 -2 42 1 42 6 0 5 15 12 33
16 24 5 28 9 17 16 -8 5 -18 6 -22 3 -5 -2 -14 0 -21 5 -7 5 -23 8 -37 7 -36
-3 -49 8 -20 16 24 7 24 7 3 8 -13 1 -23 6 -23 11 0 6 38 10 94 10 l94 0 7 30
c6 29 17 35 58 31 14 -2 17 6 17 39 0 39 -20 76 -34 63 -3 -4 -6 0 -6 8 0 12
-2 11 -10 -1 -8 -13 -11 -13 -22 1 -14 18 -80 34 -91 23z"/>
<path d="M4765 3407 c-4 -9 -5 -28 -3 -42 6 -27 -13 -40 -31 -22 -8 8 -11 8
-11 0 0 -7 9 -15 20 -18 11 -3 20 -11 20 -17 0 -6 6 -6 15 2 9 7 19 10 22 6 4
-4 2 -11 -5 -15 -9 -5 -7 -13 9 -27 20 -17 22 -17 16 -1 -4 11 -1 17 8 17 8 0
15 -6 15 -14 0 -17 27 -29 33 -13 2 6 6 3 10 -7 4 -9 3 -15 -2 -12 -11 7 -21
-39 -12 -53 4 -6 12 -6 21 -1 10 6 20 4 32 -7 15 -13 18 -13 19 -2 1 18 -2 81
-5 102 -3 21 -16 34 -16 16 0 -8 -10 -14 -24 -14 -13 0 -22 3 -19 8 4 7 2 8
-35 12 -30 3 -32 6 -53 67 -13 39 -19 48 -24 35z m122 -199 c-3 -8 -6 -5 -6 6
-1 11 2 17 5 13 3 -3 4 -12 1 -19z"/>
<path d="M4966 3410 c-14 -4 -16 -9 -8 -14 7 -4 10 -11 7 -16 -6 -9 20 -21 29
-13 9 9 7 41 -1 46 -5 3 -17 1 -27 -3z"/>
<path d="M5038 3413 c-25 -6 -23 -29 2 -29 13 0 20 7 20 18 0 10 -1 17 -2 17
-2 -1 -11 -3 -20 -6z"/>
<path d="M4805 3401 c-3 -5 -1 -12 5 -16 14 -9 52 4 45 16 -8 12 -42 12 -50 0z"/>
<path d="M4902 3389 c-12 -18 -11 -20 5 -17 10 2 19 11 21 21 5 23 -10 21 -26
-4z"/>
<path d="M4725 3370 c-3 -5 -1 -10 4 -10 6 0 11 5 11 10 0 6 -2 10 -4 10 -3 0
-8 -4 -11 -10z"/>
<path d="M4426 3348 c-10 -21 -57 -33 -67 -17 -4 7 -14 9 -25 4 -11 -5 -23 -9
-29 -9 -5 -1 -11 -11 -13 -23 -3 -21 6 -28 30 -24 4 0 5 -5 2 -13 -3 -8 -1
-17 5 -21 6 -3 11 -1 11 4 0 6 7 11 15 11 8 0 15 4 15 9 0 15 46 18 65 4 16
-11 21 -10 37 15 21 32 23 43 6 41 -26 -3 -37 2 -41 19 -4 16 -5 16 -11 0z"/>
<path d="M4906 3344 c-3 -9 -6 -17 -6 -20 0 -8 105 7 114 16 13 13 -19 13 -44
0 -14 -7 -23 -6 -34 5 -18 19 -22 19 -30 -1z"/>
<path d="M5133 3325 c0 -22 2 -30 4 -17 2 12 2 30 0 40 -3 9 -5 -1 -4 -23z"/>
<path d="M4850 3329 c0 -5 5 -7 10 -4 6 3 10 8 10 11 0 2 -4 4 -10 4 -5 0 -10
-5 -10 -11z"/>
<path d="M4976 3295 c-9 -13 -16 -27 -16 -30 0 -3 20 -5 45 -5 25 0 45 -4 45
-10 0 -5 4 -10 9 -10 13 0 0 54 -17 68 -24 19 -48 14 -66 -13z"/>
<path d="M5070 3310 c0 -5 5 -10 11 -10 5 0 7 5 4 10 -3 6 -8 10 -11 10 -2 0
-4 -4 -4 -10z"/>
<path d="M3674 3276 c-3 -21 -4 -39 -1 -42 3 -4 9 10 13 30 3 21 4 39 1 42 -3
4 -9 -10 -13 -30z"/>
<path d="M4720 3295 c0 -8 2 -15 4 -15 2 0 6 7 10 15 3 8 1 15 -4 15 -6 0 -10
-7 -10 -15z"/>
<path d="M5079 3209 c-3 -32 0 -46 9 -46 13 0 15 41 3 72 -6 15 -9 9 -12 -26z"/>
<path d="M4950 3231 c0 -5 5 -13 10 -16 6 -3 10 -2 10 4 0 5 -4 13 -10 16 -5
3 -10 2 -10 -4z"/>
<path d="M5050 3220 c0 -5 5 -10 11 -10 5 0 7 5 4 10 -3 6 -8 10 -11 10 -2 0
-4 -4 -4 -10z"/>
<path d="M3835 3200 c-19 -8 -19 -9 3 -9 12 -1 22 4 22 9 0 6 -1 10 -2 9 -2 0
-12 -4 -23 -9z"/>
<path d="M3900 3198 c0 -4 14 -8 30 -8 17 0 30 4 30 8 0 5 -13 9 -30 9 -16 0
-30 -4 -30 -9z"/>
<path d="M4330 3191 c0 -29 15 -33 18 -5 1 13 -3 24 -8 24 -6 0 -10 -9 -10
-19z"/>
<path d="M4730 3179 c0 -5 5 -7 10 -4 6 3 10 8 10 11 0 2 -4 4 -10 4 -5 0 -10
-5 -10 -11z"/>
<path d="M4730 3150 c0 -5 5 -10 10 -10 6 0 10 5 10 10 0 6 -4 10 -10 10 -5 0
-10 -4 -10 -10z"/>
<path d="M4295 3140 l-30 -8 33 -1 c17 0 35 -1 39 -2 4 0 9 4 11 10 4 12 -8
12 -53 1z"/>
<path d="M3677 3133 c-11 -10 -8 -43 3 -43 6 0 10 11 10 25 0 26 -2 29 -13 18z"/>
<path d="M3980 3119 c-14 -6 -36 -8 -50 -6 -14 3 -33 1 -43 -5 -12 -6 -23 -6
-29 0 -6 6 -23 4 -48 -4 -21 -7 -54 -14 -74 -16 -20 -1 -37 -6 -37 -10 -1 -4
-2 -14 -3 -20 -1 -7 -6 -15 -13 -18 -8 -3 -9 -10 -3 -20 7 -12 12 -12 22 -2
17 17 47 15 54 -3 7 -18 31 -20 36 -3 3 8 23 12 57 10 38 -1 53 2 57 13 4 8
16 15 28 15 15 0 17 -3 7 -9 -9 -6 -1 -10 25 -13 44 -6 63 0 43 13 -12 7 -12
9 0 9 10 0 11 7 6 28 -4 15 -8 33 -8 40 0 6 -1 12 -1 11 -1 0 -12 -5 -26 -10z
m-183 -75 c-3 -3 -12 -4 -19 -1 -8 3 -5 6 6 6 11 1 17 -2 13 -5z m86 -1 c-7
-2 -19 -2 -25 0 -7 3 -2 5 12 5 14 0 19 -2 13 -5z"/>
<path d="M4357 3053 c-10 -9 -9 -23 1 -23 5 0 9 7 9 15 0 17 -1 18 -10 8z"/>
<path d="M4490 3015 c0 -8 2 -15 4 -15 2 0 6 7 10 15 3 8 1 15 -4 15 -6 0 -10
-7 -10 -15z"/>
<path d="M4375 3010 c3 -5 10 -10 16 -10 5 0 9 5 9 10 0 6 -7 10 -16 10 -8 0
-12 -4 -9 -10z"/>
<path d="M4340 2936 c0 -8 -4 -16 -10 -18 -14 -5 -25 -68 -11 -68 6 0 10 6 9
13 -2 6 3 11 10 10 8 -2 12 10 12 37 0 22 -2 40 -5 40 -3 0 -5 -6 -5 -14z"/>
<path d="M3851 2894 c0 -11 3 -14 6 -6 3 7 2 16 -1 19 -3 4 -6 -2 -5 -13z"/>
<path d="M4360 2894 c0 -8 5 -12 10 -9 6 3 10 10 10 16 0 5 -4 9 -10 9 -5 0
-10 -7 -10 -16z"/>
<path d="M7063 3553 c9 -2 25 -2 35 0 9 3 1 5 -18 5 -19 0 -27 -2 -17 -5z"/>
<path d="M7106 3503 c9 -21 18 -44 22 -52 3 -8 -3 -20 -13 -27 -10 -8 -16 -16
-13 -20 4 -3 16 4 28 16 19 19 20 24 7 43 -7 12 -17 34 -21 50 -3 15 -11 27
-16 27 -6 0 -3 -17 6 -37z"/>
<path d="M6154 3384 c3 -9 6 -25 7 -37 l0 -22 9 23 c10 24 4 52 -12 52 -6 0
-7 -7 -4 -16z"/>
<path d="M6165 3290 c3 -5 8 -10 11 -10 2 0 4 5 4 10 0 6 -5 10 -11 10 -5 0
-7 -4 -4 -10z"/>
<path d="M3376 3363 c-6 -14 -5 -15 5 -6 7 7 10 15 7 18 -3 3 -9 -2 -12 -12z"/>
<path d="M6301 3304 c0 -11 3 -14 6 -6 3 7 2 16 -1 19 -3 4 -6 -2 -5 -13z"/>
<path d="M4998 3023 c7 -3 16 -2 19 1 4 3 -2 6 -13 5 -11 0 -14 -3 -6 -6z"/>
<path d="M6725 2919 c-11 -17 -2 -18 19 -3 17 12 17 14 4 14 -9 0 -20 -5 -23
-11z"/>
<path d="M6687 2885 c-4 -8 -2 -17 3 -20 6 -4 10 3 10 14 0 25 -6 27 -13 6z"/>
<path d="M6731 2874 c0 -11 3 -14 6 -6 3 7 2 16 -1 19 -3 4 -6 -2 -5 -13z"/>
<path d="M7510 2700 c0 -5 10 -10 23 -10 18 0 19 2 7 10 -19 13 -30 13 -30 0z"/>
<path d="M7070 2574 c0 -8 4 -12 10 -9 5 3 18 2 28 -4 11 -6 24 -6 33 0 13 8
12 10 -10 13 -5 0 -13 4 -17 9 -13 13 -44 7 -44 -9z"/>
<path d="M4890 2630 c0 -5 5 -10 10 -10 6 0 10 5 10 10 0 6 -4 10 -10 10 -5 0
-10 -4 -10 -10z"/>
<path d="M2740 2490 c0 -5 5 -10 11 -10 5 0 7 5 4 10 -3 6 -8 10 -11 10 -2 0
-4 -4 -4 -10z"/>
<path d="M2700 2450 c0 -32 14 -40 24 -15 3 8 1 15 -4 15 -5 0 -7 7 -4 15 4 8
1 15 -5 15 -6 0 -11 -13 -11 -30z"/>
<path d="M4810 2416 c0 -9 5 -16 10 -16 6 0 10 4 10 9 0 6 -4 13 -10 16 -5 3
-10 -1 -10 -9z"/>
<path d="M5853 2265 c0 -27 2 -38 4 -22 2 15 2 37 0 50 -2 12 -4 0 -4 -28z"/>
<path d="M5680 2185 c0 -8 5 -15 10 -15 6 0 10 7 10 15 0 8 -4 15 -10 15 -5 0
-10 -7 -10 -15z"/>
<path d="M5830 2180 c20 -13 43 -13 35 0 -3 6 -16 10 -28 10 -18 0 -19 -2 -7
-10z"/>
<path d="M5008 2123 c7 -3 16 -2 19 1 4 3 -2 6 -13 5 -11 0 -14 -3 -6 -6z"/>
<path d="M3750 1900 c0 -5 7 -7 15 -4 8 4 15 8 15 10 0 2 -7 4 -15 4 -8 0 -15
-4 -15 -10z"/>
</g>
</svg>
