<?xml version="1.0" standalone="no"?>
<!DOCTYPE svg PUBLIC "-//W3C//DTD SVG 20010904//EN"
 "http://www.w3.org/TR/2001/REC-SVG-20010904/DTD/svg10.dtd">
<svg version="1.0" xmlns="http://www.w3.org/2000/svg"
 width="773.000000pt" height="593.000000pt" viewBox="0 0 773.000000 593.000000"
 preserveAspectRatio="xMidYMid meet">

<g transform="translate(0.000000,593.000000) scale(0.100000,-0.100000)"
fill="#000000" stroke="none">
<path d="M0 5690 l0 -240 55 0 c34 0 57 -5 62 -13 4 -8 18 -16 31 -19 17 -5
22 -2 22 13 0 19 8 19 178 17 l177 -3 17 -190 c9 -104 17 -227 17 -271 1 -81
1 -82 -26 -87 -16 -3 -41 -4 -58 -2 -62 8 -122 8 -181 0 l-61 -7 -6 33 c-4 19
-14 106 -22 194 -19 181 -38 282 -29 150 5 -76 28 -274 39 -342 3 -18 2 -33
-4 -33 -5 0 -13 24 -17 53 -6 43 -9 48 -14 27 -4 -14 -5 -37 -2 -52 l4 -28
-75 0 c-41 0 -82 -3 -91 -6 -14 -5 -16 -37 -16 -255 l0 -248 318 6 c287 6 318
5 331 -10 7 -10 20 -17 27 -17 7 0 20 -12 28 -27 l15 -28 1 43 c0 33 4 42 18
43 9 1 109 5 222 8 l205 6 -3 76 -4 76 54 7 c30 4 72 3 95 -2 24 -6 47 -6 57
0 12 7 16 5 16 -12 0 -25 17 -27 23 -2 3 14 6 13 14 -8 6 -14 14 -34 17 -44 6
-18 7 -19 20 -1 13 18 14 17 21 -13 5 -23 12 -32 26 -32 18 0 19 5 13 51 -4
31 -3 50 2 48 24 -10 95 -99 106 -134 17 -51 44 -62 32 -14 -19 80 -2 136 21
68 6 -16 16 -33 22 -37 6 -4 13 -18 14 -32 4 -22 9 -25 49 -25 42 0 45 2 48
28 3 22 6 26 17 17 11 -9 15 -1 20 44 8 59 35 101 35 54 0 -31 19 -88 30 -88
4 0 10 10 13 23 4 12 7 27 9 32 4 18 51 37 58 24 5 -8 44 -10 131 -6 68 3 125
6 127 6 1 1 2 28 2 61 l0 60 155 0 c178 0 166 7 179 -102 9 -69 2 -66 166 -72
63 -3 154 -8 203 -13 67 -6 87 -5 87 5 0 6 5 12 10 12 6 0 10 9 10 20 0 24
-41 24 432 5 221 -8 375 -18 387 -25 12 -6 21 -20 21 -30 0 -11 6 -20 13 -20
7 0 18 -19 24 -43 9 -33 18 -45 42 -53 16 -7 32 -9 35 -6 3 3 6 29 6 59 l0 53
143 0 c182 0 187 -2 187 -51 0 -22 5 -39 11 -39 6 0 9 -16 8 -41 -2 -24 2 -43
9 -48 17 -10 5 -88 -14 -95 -9 -3 -14 -21 -14 -49 l0 -43 36 4 35 4 -5 54 c-2
30 0 54 5 54 5 0 9 25 9 55 0 42 -3 55 -15 55 -20 0 -19 3 10 46 30 45 31 67
4 92 -16 15 -20 29 -17 63 l3 44 130 8 c162 9 186 12 208 22 26 11 31 0 13
-27 -9 -12 -16 -37 -16 -55 0 -26 4 -33 20 -33 17 0 20 -7 20 -50 l0 -50 -161
0 c-88 0 -158 -4 -155 -8 3 -4 69 -9 148 -10 l143 -1 -2 -131 -2 -130 56 0
c43 0 53 3 45 13 -8 10 -21 141 -22 231 0 22 -4 27 -18 24 -16 -4 -17 2 -10
76 3 45 7 97 7 118 l1 36 53 0 c28 -1 81 2 117 7 44 5 62 4 55 -3 -11 -11 -96
-36 -158 -47 -46 -7 -55 -25 -30 -59 17 -24 23 -25 115 -26 93 0 129 11 98 30
-9 6 -11 21 -6 54 7 44 9 47 34 44 25 -3 27 -7 30 -56 2 -39 -1 -57 -12 -65
-12 -10 -15 -44 -17 -192 l-2 -180 33 0 c24 0 35 6 41 22 5 13 20 24 39 28 32
7 46 25 37 47 -4 8 -8 5 -12 -9 -9 -27 -41 -30 -53 -5 -15 27 -3 42 34 42 24
0 34 5 34 15 0 9 7 18 15 21 16 6 21 34 7 34 -5 0 -17 -9 -27 -20 -10 -11 -28
-20 -39 -20 -18 0 -22 7 -24 43 -5 68 -6 167 -4 250 l2 77 106 0 c115 0 133
-8 134 -57 0 -16 8 -25 25 -29 28 -7 318 11 334 21 6 3 11 15 11 26 0 18 9 19
230 19 l230 0 -22 -22 -23 -23 23 -3 c36 -5 52 5 52 33 l0 25 149 0 c89 0 152
4 156 10 9 15 208 13 223 -2 9 -9 15 -9 24 0 12 12 238 18 238 7 0 -3 5 -49
11 -101 7 -70 7 -99 -1 -109 -6 -7 -15 -71 -21 -142 -5 -70 -12 -134 -14 -140
-3 -10 -59 -13 -225 -13 -121 1 -220 4 -220 8 0 4 7 16 15 26 19 25 19 42 1
27 -8 -7 -17 -23 -20 -36 -4 -14 -14 -25 -22 -25 -15 0 -16 19 -9 193 3 105 4
189 1 186 -3 -3 -10 -82 -16 -175 -6 -93 -12 -176 -15 -184 -6 -20 -154 -27
-167 -8 -8 10 -11 10 -15 1 -6 -15 -83 -18 -83 -3 0 6 -4 10 -10 10 -5 0 -9
-6 -7 -12 1 -10 -24 -14 -95 -16 l-97 -3 -4 38 -4 38 -1 -37 -2 -36 -72 -7
c-40 -3 -89 -6 -108 -5 -69 1 -246 -10 -317 -21 -52 -7 -78 -7 -92 1 -14 7
-21 7 -21 0 0 -6 -28 -9 -72 -8 -40 1 -121 -1 -180 -5 -76 -5 -108 -4 -108 3
0 7 -5 8 -12 3 -22 -13 -40 -12 -56 4 -25 25 -81 7 -95 -30 -4 -13 -314 -10
-372 3 -52 12 -173 19 -385 23 -69 2 -131 6 -137 10 -18 11 -16 90 2 134 18
42 15 49 -13 34 -29 -15 -52 -14 -52 4 0 8 -7 15 -15 15 -8 0 -15 4 -15 9 0 5
-16 11 -36 13 -34 4 -54 -11 -54 -40 0 -11 38 -4 56 9 12 10 57 -18 49 -31 -3
-4 -1 -37 4 -72 4 -34 7 -68 4 -74 -3 -7 -68 -9 -211 -6 -114 2 -208 5 -209 6
-2 2 -6 44 -9 94 -8 103 -15 113 -17 26 -2 -53 -4 -59 -27 -64 -23 -6 -24 -7
-6 -17 12 -7 17 -17 13 -27 -8 -20 -74 -22 -126 -4 -47 16 -48 17 -31 28 20
12 2 30 -30 30 -78 -1 -76 0 -57 -14 9 -7 17 -16 17 -20 0 -3 -42 -6 -92 -6
-93 1 -93 1 -70 20 l23 19 -33 3 c-23 2 -33 8 -33 20 0 9 -4 20 -8 24 -4 4 -7
-18 -7 -49 0 -55 -5 -63 -35 -57 -5 1 -114 1 -243 1 -175 0 -232 3 -231 12 5
38 -16 52 -28 20 -11 -29 -24 -33 -125 -33 l-97 0 -3 27 c-3 25 -4 26 -20 10
-14 -15 -41 -17 -200 -17 -120 0 -188 4 -195 11 -8 8 -17 7 -34 -1 -14 -8 -88
-14 -195 -18 l-172 -5 -7 23 -8 24 -14 -27 -14 -28 -137 3 -137 3 3 61 c2 33
-1 79 -7 101 -10 36 -14 40 -37 35 -21 -4 -24 -8 -19 -31 4 -20 0 -32 -15 -46
-16 -14 -20 -30 -20 -77 l0 -58 -155 0 c-109 0 -155 3 -155 11 0 12 -29 38
-42 39 -5 0 -8 -11 -8 -25 0 -24 -18 -33 -34 -17 -4 4 -13 7 -19 7 -7 0 -12 9
-13 20 -2 41 -5 46 -29 55 -19 7 -25 17 -25 40 0 20 -5 30 -15 30 -20 0 -19
-25 5 -94 12 -32 18 -61 15 -65 -10 -10 -508 -14 -502 -4 3 5 34 10 68 11 35
2 65 4 67 7 2 2 1 12 -2 23 -5 15 -15 20 -38 18 -26 -1 -36 5 -52 31 -31 48
-57 41 -62 -17 -2 -25 -11 -50 -19 -56 -8 -6 -12 -14 -8 -17 3 -4 -1 -7 -10
-7 -15 0 -17 -17 -17 -162 1 -194 5 -205 85 -205 32 -1 57 5 70 16 35 29 59
37 90 31 24 -4 31 -11 33 -33 4 -33 18 -35 28 -4 6 19 9 15 20 -28 8 -27 16
-92 20 -142 l6 -93 -177 0 -176 0 3 -22 c3 -22 7 -23 118 -23 63 0 125 4 137
9 12 5 30 6 40 2 15 -6 15 -8 3 -16 -11 -7 -5 -10 23 -10 38 0 43 -5 28 -28
-10 -17 -186 -11 -220 7 -17 10 -25 10 -31 2 -3 -7 -14 -9 -23 -5 -10 3 -17 1
-17 -5 0 -6 -13 -11 -30 -11 l-30 0 0 -290 0 -290 231 0 c154 0 228 -3 224
-10 -4 -7 68 -10 219 -10 124 1 230 -1 235 -4 5 -4 15 -39 22 -79 7 -39 19
-78 26 -85 15 -16 18 -102 3 -102 -5 0 -10 -9 -10 -19 0 -16 -11 -22 -55 -31
-30 -6 -59 -9 -64 -6 -4 3 -11 24 -15 46 l-6 40 -70 0 -69 0 -12 60 c-6 33
-16 60 -21 60 -7 0 -6 -95 2 -125 1 -5 2 -28 1 -50 -1 -43 -16 -39 -25 7 -8
45 -14 48 -88 48 l-71 0 6 -37 c4 -21 3 -44 -1 -50 -6 -9 -49 -14 -136 -17
-151 -6 -138 -20 -155 169 -7 71 -15 132 -18 135 -3 3 -3 -26 1 -65 3 -38 9
-110 12 -158 l6 -89 -86 4 -86 3 0 -128 c0 -147 -18 -125 145 -176 103 -32
158 -58 100 -47 -16 3 -78 19 -137 34 l-108 29 0 -247 0 -246 113 13 c118 14
214 35 185 41 -10 2 -18 10 -18 18 0 23 29 74 43 74 29 1 42 21 47 77 l5 58
100 0 c55 0 118 -2 140 -5 40 -6 39 -6 -20 -14 -121 -16 -102 -25 50 -25 187
0 235 6 235 28 0 14 2 14 10 1 7 -11 3 -18 -13 -27 -20 -11 -19 -12 16 -13 21
0 52 7 69 16 26 13 38 14 62 6 57 -20 90 -23 326 -28 129 -2 241 -6 248 -9 7
-3 22 0 33 6 15 7 24 7 34 -1 9 -7 26 -9 45 -5 18 4 36 2 44 -4 9 -8 22 -8 44
0 21 7 36 7 49 0 16 -9 14 -11 -15 -17 -18 -4 -34 -9 -36 -13 -6 -9 166 -7
187 3 10 5 23 4 30 -3 9 -7 24 -8 48 -1 36 11 73 4 64 -11 -4 -5 2 -9 11 -9
16 0 16 -1 0 -19 -17 -18 -16 -19 18 -19 33 0 35 2 30 27 -6 27 -5 28 47 30
29 1 55 3 57 5 2 3 22 -2 44 -10 50 -17 51 -17 44 1 -3 9 0 15 9 15 9 0 15 9
15 21 0 15 -4 19 -16 15 -9 -3 -18 -6 -20 -6 -2 0 -4 -9 -4 -20 0 -23 -13 -26
-32 -7 -17 16 -191 22 -238 8 -19 -6 -38 -7 -42 -3 -9 9 20 54 31 47 4 -2 22
6 40 19 36 27 76 31 299 30 78 -1 142 3 142 7 0 9 114 11 144 2 15 -4 16 -7 5
-14 -10 -6 -6 -9 14 -9 15 0 27 5 27 10 0 6 16 10 34 10 24 0 44 8 63 26 l28
26 -678 -4 c-373 -1 -677 1 -677 6 0 4 -10 6 -22 3 -13 -3 -61 -2 -108 3 -72
7 -62 8 60 4 80 -2 152 -3 160 -3 8 0 147 -1 309 -2 209 -1 291 2 287 10 -5 8
85 11 311 13 415 2 440 2 491 -5 24 -3 42 -1 42 4 0 6 49 9 123 9 67 -1 180 2
251 6 105 6 128 5 121 -6 -6 -9 -4 -11 5 -5 16 10 340 17 733 16 201 -1 296 2
292 9 -3 5 0 10 9 10 8 0 16 -4 18 -8 2 -5 111 -5 243 1 132 5 291 9 353 8 73
-1 112 2 112 9 0 7 49 10 148 8 81 -2 215 1 297 6 83 5 166 9 185 8 202 -3
150 -17 -95 -26 -671 -23 -1163 -37 -1600 -46 -275 -5 -581 -12 -680 -15 -99
-2 -294 -5 -432 -5 -210 0 -253 -2 -253 -14 0 -16 27 -29 41 -20 5 3 9 0 9 -6
0 -12 314 -7 430 6 30 4 73 6 95 5 140 -5 356 -3 390 4 37 7 38 8 15 16 -22 7
-20 8 10 6 20 -1 35 -7 35 -14 0 -7 3 -13 8 -13 38 0 42 1 22 9 -32 13 65 23
113 12 23 -5 40 -6 37 -1 -2 4 32 7 76 8 59 1 78 -2 74 -11 -4 -7 0 -4 8 6 17
21 62 24 54 3 -8 -20 3 -22 148 -20 269 4 508 4 512 0 3 -2 23 2 46 10 33 12
52 12 101 3 34 -6 72 -15 86 -20 53 -19 377 -10 500 14 31 6 226 19 340 23
120 4 469 -16 570 -32 141 -22 451 -80 691 -128 124 -25 273 -48 332 -52 l107
-7 0 36 0 36 -52 5 c-93 10 -317 14 -268 5 25 -4 62 -8 82 -8 45 -1 59 -18 22
-27 -38 -10 -363 48 -779 137 -55 12 -159 39 -231 61 -128 37 -133 38 -205 27
-76 -11 -138 -1 -124 21 4 6 -11 11 -37 11 l-43 2 35 6 35 7 -42 8 c-48 9 -55
21 -18 30 34 9 32 28 -2 20 -16 -3 -33 -7 -40 -9 -7 -2 -10 2 -6 11 3 8 20 15
42 15 20 1 52 3 71 5 119 9 290 15 720 23 393 8 710 21 820 34 13 2 15 79 18
616 2 485 0 616 -10 623 -10 6 -10 8 0 8 9 0 12 92 12 427 0 234 -2 424 -4
422 -3 -3 -7 -45 -10 -94 l-5 -90 -107 -3 c-65 -2 -111 1 -118 8 -5 5 -22 10
-37 10 l-28 0 5 63 c9 127 11 183 6 209 -8 48 -20 21 -27 -62 -5 -58 -11 -80
-21 -80 -18 0 -18 -10 1 -24 11 -8 13 -24 8 -68 -5 -55 -7 -58 -37 -63 -17 -3
-62 -5 -101 -4 -100 2 -98 2 -91 -25 7 -29 -10 -45 -57 -53 -30 -5 -36 -2 -42
18 -6 17 -2 27 15 41 18 15 20 21 10 33 -7 8 -10 22 -6 30 3 8 8 97 12 197 6
146 10 185 22 194 8 6 74 14 145 18 72 3 133 8 135 11 3 2 -1 11 -8 20 -11 13
-8 14 21 10 24 -4 28 -3 15 3 -17 7 -11 13 39 40 32 18 62 32 66 32 4 0 29 11
55 25 62 33 72 32 36 -5 -17 -16 -33 -30 -37 -30 -3 0 -17 -12 -30 -27 -21
-24 -26 -26 -34 -13 -8 12 -13 12 -23 2 -9 -9 -9 -12 5 -12 9 0 17 -7 17 -15
0 -8 11 -17 25 -21 26 -6 34 -23 13 -25 -19 -3 91 -17 135 -18 l37 -1 0 54 0
53 -45 17 c-24 10 -50 14 -57 10 -9 -6 -9 -3 1 9 7 9 20 17 28 17 10 0 13 6 9
16 -7 19 19 50 30 33 3 -6 0 -15 -7 -20 -10 -6 -7 -10 11 -17 22 -8 25 -7 28
16 2 14 -2 29 -10 33 -10 7 -10 9 0 9 8 0 12 23 12 83 l0 84 -193 -5 -194 -4
0 35 c0 20 4 34 9 31 5 -4 4 3 -4 15 -15 25 -21 26 -53 5 -15 -10 -34 -14 -49
-10 -14 3 -62 -3 -108 -14 -46 -11 -100 -20 -120 -20 -20 0 -43 -6 -51 -14
-10 -10 -43 -16 -108 -18 l-94 -3 -3 28 c-2 16 2 34 8 42 8 10 8 19 -2 34 -10
16 -10 27 -1 50 6 17 8 33 5 36 -8 7 -31 -70 -41 -135 -4 -25 -10 -51 -14 -58
-10 -16 -98 -16 -132 0 -24 11 -25 13 -8 20 11 5 -2 7 -34 5 l-53 -4 0 42 0
42 55 18 c30 9 55 19 55 21 0 2 -26 3 -57 1 l-58 -2 -6 38 c-5 33 -3 40 15 47
18 7 21 14 18 59 -4 50 -22 73 -22 27 0 -27 -35 -42 -57 -24 -10 8 -13 2 -13
-30 0 -44 -10 -52 -66 -52 -19 0 -34 -4 -34 -10 0 -5 -19 -13 -41 -16 -33 -6
-44 -13 -55 -38 -8 -17 -18 -38 -23 -46 -5 -8 -13 -28 -18 -45 -4 -16 -13 -30
-18 -30 -25 -2 -56 -18 -65 -35 -12 -23 -5 -28 52 -40 l43 -9 -65 -2 c-138 -5
-1675 -4 -1889 2 -196 5 -209 6 -101 9 98 3 109 5 52 7 -108 6 -110 9 -113
166 -2 120 -12 156 -22 77 -2 -19 -5 -2 -5 38 -1 49 -6 71 -13 67 -7 -5 -9
-59 -5 -167 l5 -160 -37 3 c-66 4 -80 0 -88 -23 -9 -31 -22 -38 -70 -38 -43 0
-54 10 -54 50 0 14 -8 18 -32 18 -18 0 -39 0 -45 1 -10 1 -13 31 -13 117 0 65
-4 113 -9 110 -5 -3 -7 -55 -5 -116 2 -93 0 -110 -12 -110 -8 0 -12 -4 -9 -10
3 -5 1 -10 -4 -10 -6 0 -11 4 -11 10 0 6 -29 9 -67 9 -38 -1 -103 -1 -145 0
l-78 1 -1 53 c0 28 -3 46 -6 39 -2 -6 -9 -10 -14 -6 -10 6 -13 127 -3 136 3 3
6 68 8 144 2 112 5 139 17 139 95 -2 318 -19 315 -24 -3 -4 -1 -22 4 -41 l8
-35 1 41 c1 40 20 62 40 49 4 -2 72 -5 149 -6 138 -1 142 -1 142 -22 0 -46 12
-67 36 -67 19 0 23 6 26 37 l3 36 155 -2 c162 -2 170 -5 170 -48 0 -13 5 -24
10 -24 42 -5 45 -3 48 31 2 19 7 39 12 43 4 5 78 6 163 2 l156 -8 3 -56 3 -56
43 -1 c23 -1 45 3 48 8 3 5 10 53 14 106 5 53 12 113 17 132 l9 35 119 -2 120
-2 7 -48 c3 -26 7 -90 7 -140 1 -91 4 -100 27 -85 10 6 22 125 24 244 1 14 6
28 13 31 7 2 66 2 132 -1 l120 -4 0 -47 c1 -143 6 -222 14 -217 5 3 12 48 16
98 4 51 11 98 15 103 5 6 10 24 12 40 l3 30 80 3 c44 2 84 8 90 14 7 7 2 9
-15 6 -14 -2 -66 1 -115 8 l-90 13 150 -5 c83 -3 152 -10 153 -15 2 -5 20 -10
40 -10 l37 -1 -30 -8 c-19 -5 14 -8 93 -9 l122 -1 0 -141 0 -141 166 4 c91 1
168 6 170 9 2 4 -5 17 -15 31 -11 13 -24 42 -30 65 -6 23 -16 45 -21 48 -10 6
-8 64 3 83 14 21 34 13 40 -15 3 -16 17 -45 31 -66 14 -21 26 -42 26 -47 0
-16 20 -11 27 6 3 9 1 19 -6 23 -18 12 4 61 27 61 15 0 18 -6 15 -23 -3 -13 2
-39 11 -58 l15 -34 -2 40 c-2 31 2 40 16 43 13 3 17 -3 17 -22 0 -24 3 -26 28
-20 15 4 45 19 68 35 22 15 53 29 70 31 25 3 29 8 32 36 2 17 6 32 10 32 4 0
20 11 36 25 l29 25 230 0 c207 0 231 2 243 18 7 9 14 25 14 35 0 30 59 163 80
182 11 10 26 15 36 11 21 -8 54 20 54 45 0 28 39 47 83 42 l37 -5 0 -69 c0
-38 3 -69 8 -69 4 0 18 7 30 16 13 9 31 13 43 9 18 -6 20 -4 14 14 -4 12 -2
21 4 21 7 0 11 24 11 60 l0 60 -3865 0 -3865 0 0 -240z m2286 -69 c5 -6 122
-11 261 -13 138 -2 255 -7 259 -11 8 -8 12 -91 28 -524 l7 -173 -151 0 -150 0
0 44 c0 74 -22 104 -33 46 -10 -49 -37 -39 -37 15 l0 45 31 -7 32 -6 -7 194
c-3 107 -9 233 -12 282 l-7 87 -97 0 c-82 0 -101 -3 -123 -20 -35 -28 -98 -27
-115 1 -11 18 -11 23 5 35 21 15 94 19 109 5z m-954 -125 c4 -6 6 -15 4 -21
-5 -15 -89 -7 -102 10 -10 14 -19 13 -75 -1 -103 -26 -138 -29 -145 -10 -15
40 -3 43 158 38 98 -3 156 -8 160 -16z m-416 -44 c17 -26 25 -118 24 -277 0
-77 0 -170 1 -206 l0 -67 -161 -7 c-88 -4 -163 -6 -165 -4 -2 2 -11 87 -19
189 -9 102 -19 194 -23 204 -3 11 -6 55 -8 98 l-2 77 81 4 c229 9 261 8 272
-11z m1527 -39 c4 -32 9 -160 13 -286 l7 -227 -169 2 -169 3 -13 190 c-7 105
-17 194 -23 200 -8 7 -9 -17 -5 -85 3 -52 8 -142 12 -200 l6 -106 -171 -2
c-156 -2 -171 0 -172 16 -1 15 -2 15 -6 -1 -4 -16 -11 -17 -46 -12 -46 7 -71
30 -63 58 3 13 0 17 -11 13 -8 -3 -21 -6 -29 -6 -11 0 -14 -9 -12 -32 l3 -33
-91 -3 -91 -3 -8 103 c-5 57 -9 137 -10 178 -1 41 -8 110 -14 154 -7 43 -10
84 -7 92 4 11 39 14 174 14 l169 0 11 -147 10 -148 -5 159 -4 159 68 -6 c37
-4 114 -9 171 -13 93 -6 103 -8 107 -28 2 -11 6 -30 8 -41 3 -11 5 3 6 32 l1
52 78 4 c42 1 120 4 173 5 l96 2 6 -57z m-1423 2 c0 -8 3 -14 8 -13 24 7 51
-15 54 -45 l3 -32 22 22 c16 16 20 29 16 57 -6 44 7 48 121 44 l79 -3 3 -95
c2 -52 5 -170 8 -261 l4 -166 -111 -6 c-62 -4 -140 -7 -173 -7 l-62 0 -6 93
c-12 184 -18 425 -12 436 10 15 46 -4 46 -24z m2248 -11 c18 -5 -3 -43 -31
-54 -21 -8 -21 -9 -2 -9 20 -1 52 -38 47 -54 -1 -5 2 -6 7 -3 5 4 13 -4 17
-16 8 -22 8 -22 15 7 5 21 7 7 8 -45 1 -65 -2 -77 -19 -88 -17 -11 -20 -23
-20 -97 0 -50 4 -85 10 -85 6 0 10 -13 10 -30 0 -27 -3 -30 -32 -31 -60 -1
-323 2 -325 4 -1 2 -5 118 -9 259 l-7 256 159 -5 c87 -2 165 -6 172 -9z m4009
-441 c-4 -3 1 -12 11 -19 24 -19 3 -31 -43 -26 -27 3 -35 8 -31 19 3 8 6 19 6
24 0 5 14 9 32 9 17 0 28 -3 25 -7z m-4768 -22 c16 -10 6 -31 -14 -31 -17 0
-28 17 -20 30 8 12 16 12 34 1z m3811 -61 c0 -5 -5 -10 -11 -10 -5 0 -7 5 -4
10 3 6 8 10 11 10 2 0 4 -4 4 -10z m40 0 c0 -5 -4 -10 -10 -10 -5 0 -10 5 -10
10 0 6 5 10 10 10 6 0 10 -4 10 -10z m-123 -26 c-3 -3 -12 -4 -19 -1 -8 3 -5
6 6 6 11 1 17 -2 13 -5z m-419 -138 c2 -16 -2 -48 -8 -71 l-12 -42 -66 -7
c-37 -3 -121 -6 -187 -6 l-120 0 5 65 c3 35 10 69 15 74 15 14 65 18 225 17
l145 -1 3 -29z m-803 -221 c-50 -21 -75 -27 -75 -17 0 6 17 14 38 20 53 14 72
13 37 -3z m-3258 -72 c-3 -10 -5 -4 -5 12 0 17 2 24 5 18 2 -7 2 -21 0 -30z
m3910 -603 c7 -36 12 -79 13 -96 0 -19 6 -34 15 -38 8 -3 15 -12 15 -21 0 -12
-14 -15 -72 -15 -39 0 -68 -3 -64 -7 3 -4 28 -6 54 -4 64 3 43 -17 -23 -22
-41 -3 -36 -4 23 -5 l73 -2 -3 -117 -3 -118 -80 0 -80 0 4 145 c3 123 6 148
22 169 10 13 19 35 19 50 0 14 5 44 11 66 27 106 58 112 76 15z m1749 48 c-3
-13 -8 -52 -11 -88 -2 -36 -7 -85 -9 -110 -3 -25 -7 -81 -11 -125 -3 -44 -8
-94 -11 -112 l-6 -32 -304 1 c-284 1 -440 12 -474 33 -25 15 -93 5 -132 -21
-21 -13 -40 -24 -43 -24 -3 0 -5 35 -5 79 l0 78 53 7 c82 9 227 7 227 -4 0 -5
-15 -10 -32 -11 -18 0 -51 -4 -73 -9 -32 -7 -22 -9 45 -5 51 2 86 8 88 15 2 6
14 15 27 20 18 7 24 19 30 60 6 42 12 53 31 61 14 5 102 12 197 15 130 5 176
10 189 21 9 8 22 12 27 8 14 -8 14 5 1 25 -6 10 -10 11 -10 3 0 -7 -4 -13 -10
-13 -5 0 -10 20 -10 45 0 43 1 45 29 45 16 0 36 7 45 15 8 8 30 15 48 15 18 1
47 7 63 15 42 19 46 18 41 -7z m-6554 -63 c10 -27 18 -57 18 -67 0 -19 54 -31
133 -28 73 3 75 3 84 -22 6 -20 8 -17 13 17 l5 40 82 3 c91 3 123 -7 123 -41
1 -21 1 -21 15 -3 14 19 15 19 35 1 24 -22 94 -24 199 -7 69 11 108 35 73 44
-14 4 -19 2 -16 -7 6 -15 -45 -23 -158 -24 -67 -1 -79 1 -88 18 -23 45 -17 47
118 49 87 2 122 -1 112 -8 -9 -6 -10 -10 -3 -10 6 0 15 4 18 10 7 12 88 8 97
-5 4 -5 3 -14 -2 -20 -5 -6 -1 -20 11 -35 l20 -25 -7 50 c-4 28 -8 53 -11 58
-2 4 -93 8 -201 8 -108 1 -188 3 -177 6 11 3 25 11 31 19 9 11 51 16 191 20
173 5 180 4 198 -16 11 -12 15 -21 10 -20 -38 8 -39 -9 -10 -160 11 -55 14
-60 16 -30 1 19 2 51 1 70 -2 34 12 70 22 59 15 -14 6 -171 -11 -205 -5 -10
-9 -59 -8 -107 2 -57 -2 -92 -10 -100 -8 -9 -80 -12 -256 -12 l-244 0 -3 53
-3 52 -75 0 c-61 0 -74 -3 -74 -16 0 -14 -8 -15 -57 -8 -32 4 -78 8 -103 9
l-45 0 0 -45 c0 -41 -2 -45 -25 -45 -24 0 -25 4 -33 70 -4 39 -9 76 -12 83 -4
10 -56 12 -237 12 l-233 -1 2 28 c1 15 -3 85 -9 155 -6 70 -8 139 -4 152 l6
26 173 3 c94 1 199 3 232 2 l59 0 18 -50z m5017 49 c29 -6 31 -10 31 -48 0
-23 7 -52 16 -65 14 -19 16 -38 10 -109 -10 -133 -59 -222 -121 -222 -8 0 -15
-6 -15 -14 0 -8 -7 -17 -16 -20 -8 -3 -13 -2 -10 3 3 5 -1 12 -10 15 -12 4
-15 2 -10 -9 3 -9 0 -15 -8 -15 -26 0 -36 74 -16 124 8 21 16 26 45 26 l35 0
1 63 c0 61 3 98 14 209 5 53 4 57 -17 61 -18 3 -16 5 8 6 17 0 46 -2 63 -5z
m1146 -14 c-3 -5 -25 -9 -48 -9 l-42 2 35 7 c52 11 62 11 55 0z m-3475 -26
c-5 -5 -7 -20 -3 -32 5 -22 4 -22 -131 -22 -129 0 -136 1 -136 20 0 14 7 20
23 21 l22 0 -22 9 c-13 5 -23 11 -23 13 0 2 63 3 139 3 96 -1 137 -4 131 -12z
m-1164 -9 c4 -8 13 -15 20 -15 19 0 34 -41 34 -91 0 -21 4 -39 10 -39 6 0 8
18 5 43 -2 23 -1 47 3 53 4 7 85 13 215 18 186 5 207 4 207 -10 0 -13 -5 -15
-27 -8 -46 14 -115 8 -125 -10 -5 -9 -17 -16 -27 -16 -10 0 -24 -7 -31 -15
-12 -14 -7 -20 14 -16 4 1 5 -11 1 -26 l-7 -28 28 25 c16 14 34 32 41 40 9 11
12 12 13 2 0 -9 7 -11 20 -7 30 10 59 -3 57 -25 -1 -13 -12 -22 -32 -26 -16
-4 -39 -10 -50 -12 -11 -3 -87 -6 -170 -8 l-149 -2 -1 -56 -1 -56 78 0 c45 0
77 4 74 9 -3 5 -15 7 -26 4 -15 -4 -20 0 -21 13 -1 16 -2 17 -6 2 -6 -22 -63
-20 -63 2 0 29 17 45 33 32 7 -7 17 -9 20 -6 4 4 44 8 89 10 46 3 105 9 131
14 67 14 66 14 73 -29 6 -37 9 -40 43 -43 l36 -3 8 -84 c5 -46 6 -89 3 -97 -4
-11 -48 -14 -230 -14 l-224 0 -7 68 c-6 63 -33 168 -41 160 -2 -2 0 -52 4
-112 4 -59 6 -109 3 -112 -2 -2 -78 -4 -168 -4 -148 0 -163 2 -163 18 0 9 -7
100 -15 202 -8 102 -15 202 -15 222 l0 37 63 4 c177 10 268 7 273 -8z m861
-45 c7 -30 16 -113 19 -183 l6 -128 31 7 c17 3 47 12 67 19 30 11 35 17 35 44
0 24 6 36 25 46 34 19 69 19 77 -1 5 -12 12 -9 39 17 25 24 35 29 38 18 3 -8
6 -69 8 -137 l3 -122 -237 -2 c-131 -1 -277 -3 -325 -3 l-88 0 -6 110 c-4 61
-10 170 -14 243 l-8 133 158 -3 159 -3 13 -55z m883 30 c9 -17 21 -20 81 -20
l70 0 -2 -200 c-1 -110 -5 -203 -10 -206 -4 -2 -140 -6 -302 -8 l-295 -2 -1
100 c-1 56 -4 150 -7 209 -3 59 -2 107 3 106 4 -1 60 -1 123 0 89 1 111 4 102
13 -7 7 -12 16 -12 20 0 4 54 8 120 8 109 0 120 -2 130 -20z m1658 -40 c-2
-24 -9 -45 -15 -48 -14 -4 -17 26 -7 77 9 46 26 23 22 -29z m-258 41 c3 -1 2
-76 -1 -168 -4 -93 -7 -187 -8 -210 l-1 -43 -44 0 c-25 0 -48 5 -51 10 -3 6
-21 10 -38 11 -27 0 -29 2 -12 9 18 8 17 9 -8 9 -23 1 -27 -2 -22 -18 7 -24
-17 -31 -117 -31 -62 0 -78 3 -78 15 0 20 -68 17 -80 -4 -7 -14 -31 -16 -154
-16 l-146 0 -3 106 c-1 65 -7 112 -14 121 -10 11 -10 30 -2 79 16 92 17 92 95
96 38 2 71 8 72 14 2 5 43 9 90 9 52 0 82 -4 74 -9 -10 -6 -7 -10 13 -15 21
-5 25 -11 19 -24 -12 -24 -11 -152 1 -154 6 -2 11 12 13 30 3 34 18 43 24 15
2 -10 7 20 11 67 4 46 9 86 11 88 10 9 294 19 356 13z m1620 -6 c0 -8 -8 -15
-17 -16 -10 -1 -26 -2 -36 -3 -10 0 -23 -12 -30 -26 -10 -20 -21 -26 -54 -28
-36 -3 -41 0 -47 22 -5 19 -14 25 -38 28 -22 2 -34 9 -36 21 -3 15 8 17 127
17 110 0 131 -2 131 -15z m-6880 -10 c0 -8 -7 -15 -15 -15 -8 0 -15 7 -15 15
0 8 7 15 15 15 8 0 15 -7 15 -15z m6120 -36 c10 -5 -3 -8 -35 -9 -50 0 -50 0
-63 -40 -6 -22 -12 -49 -12 -60 0 -22 -30 -34 -76 -28 -29 3 -29 3 -26 67 l4
64 -61 -5 c-34 -2 -61 -1 -61 3 0 11 86 19 154 12 48 -4 66 -3 66 6 0 13 82 6
110 -10z m750 -10 c0 -12 -37 -12 -44 0 -3 4 -3 11 0 14 8 7 44 -4 44 -14z
m-3680 -9 c-24 -5 -28 -8 -12 -9 13 0 21 -5 18 -10 -3 -4 -43 -8 -90 -8 -77 0
-84 1 -83 18 1 17 10 19 102 18 70 -1 90 -4 65 -9z m4085 -55 c-1 -25 -6 -31
-30 -35 -24 -4 -30 -10 -30 -29 0 -18 -7 -26 -27 -32 -30 -8 -38 -3 -38 22 0
12 10 21 26 25 20 5 24 11 20 27 -9 35 11 59 47 55 28 -3 32 -6 32 -33z m105
5 c0 -5 -4 -10 -10 -10 -5 0 -10 5 -10 10 0 6 5 10 10 10 6 0 10 -4 10 -10z
m-4330 -30 c12 -8 9 -10 -12 -10 -16 0 -28 5 -28 10 0 13 20 13 40 0z m-1360
-15 c30 -15 42 -57 21 -70 -6 -3 -10 -13 -9 -23 0 -9 -4 -41 -8 -70 -5 -42 -4
-56 7 -63 24 -15 27 -11 35 59 l8 67 9 -65 c5 -36 14 -68 21 -72 12 -8 7 -9
-54 -10 -58 -1 -106 4 -87 9 18 5 23 19 8 25 -5 2 -13 15 -16 31 -6 21 -4 27
10 27 13 0 16 6 11 26 -6 24 -12 34 -42 67 -6 7 -16 22 -22 33 -9 16 -8 21 3
21 8 0 12 -4 9 -9 -10 -17 27 -7 44 11 21 24 18 24 52 6z m916 -20 c-8 -21
-50 -16 -54 7 -2 11 5 18 20 20 29 5 43 -6 34 -27z m1837 4 c-19 -19 -75 -25
-203 -23 -175 3 -171 2 -135 19 38 17 355 21 338 4z m2916 -15 c25 -8 -2 -21
-56 -28 -47 -6 -53 -5 -53 12 0 10 3 22 7 25 6 6 72 0 102 -9z m-4263 -19 c14
-13 10 -15 -30 -15 -34 0 -46 4 -46 15 0 10 10 15 31 15 17 0 37 -7 45 -15z
m1288 -22 c10 -26 -4 -39 -39 -35 -20 2 -35 0 -35 -6 0 -6 -3 -18 -6 -27 -6
-14 -1 -16 27 -15 51 3 59 1 59 -14 0 -10 11 -13 35 -12 39 2 56 -23 35 -49
-24 -29 -85 -11 -73 21 8 21 -31 25 -167 21 -120 -4 -167 3 -155 24 4 5 35 9
69 9 63 0 63 0 62 28 -1 26 -4 28 -37 26 -20 -1 -42 -5 -48 -9 -18 -11 -43 3
-39 22 3 16 18 18 136 19 73 1 135 3 137 6 10 10 34 4 39 -9z m46 -14 c0 -11
-4 -17 -10 -14 -5 3 -10 13 -10 21 0 8 5 14 10 14 6 0 10 -9 10 -21z m1379 17
c-11 -9 -69 -15 -64 -6 3 6 20 10 37 10 17 0 29 -2 27 -4z m130 -25 c66 -8 90
-19 91 -43 0 -15 -33 -38 -55 -38 -18 0 -26 -8 -35 -35 l-12 -35 -76 0 c-42 0
-87 -3 -99 -6 -26 -7 -33 20 -8 30 9 3 12 12 9 21 -4 9 3 26 16 40 18 19 20
27 11 43 -6 12 -11 23 -11 26 0 8 82 7 169 -3z m1485 -19 c16 -9 -19 -22 -61
-22 -29 0 -42 -4 -40 -12 1 -8 -12 -14 -35 -16 -35 -3 -37 -2 -34 25 2 15 4
29 5 30 2 5 156 0 165 -5z m-2959 -22 c-8 -13 -65 -13 -85 0 -11 7 0 10 38 10
33 0 51 -4 47 -10z m-4123 -52 c-9 -9 -15 -9 -24 0 -10 10 -10 15 2 22 20 12
38 -6 22 -22z m-101 8 c-1 -16 -31 -15 -31 1 0 8 7 13 16 11 8 -2 15 -7 15
-12z m303 -17 c-10 -16 -24 -9 -24 12 0 18 2 19 15 9 8 -7 12 -16 9 -21z m-59
11 c-3 -5 -10 -10 -16 -10 -5 0 -9 5 -9 10 0 6 7 10 16 10 8 0 12 -4 9 -10z
m6853 -7 c-15 -2 -42 -2 -60 0 -18 2 -6 4 27 4 33 0 48 -2 33 -4z m-5769 -61
c-1 -20 -3 -29 -6 -19 -2 9 -8 17 -12 17 -4 0 -7 10 -5 23 3 30 3 29 14 22 6
-3 9 -23 9 -43z m-639 28 c0 -5 -7 -10 -15 -10 -8 0 -15 5 -15 10 0 6 7 10 15
10 8 0 15 -4 15 -10z m-690 -9 c0 -5 3 -16 6 -25 4 -11 1 -16 -10 -16 -10 0
-16 9 -16 25 0 14 5 25 10 25 6 0 10 -4 10 -9z m110 -16 c0 -14 -4 -25 -10
-25 -5 0 -10 11 -10 25 0 14 5 25 10 25 6 0 10 -11 10 -25z m3800 15 c0 -5
-18 -10 -40 -10 -22 0 -40 5 -40 10 0 6 18 10 40 10 22 0 40 -4 40 -10z m215
0 c-3 -5 -22 -10 -41 -10 -19 0 -34 5 -34 10 0 6 18 10 41 10 24 0 38 -4 34
-10z m-3870 -10 c-3 -5 -15 -10 -26 -10 -11 0 -17 5 -14 10 3 6 15 10 26 10
11 0 17 -4 14 -10z m55 -5 c0 -8 -6 -15 -14 -15 -17 0 -28 14 -19 24 12 12 33
6 33 -9z m6145 -95 c0 -12 14 -15 65 -15 l65 0 -1 -172 0 -173 90 -2 91 -2
-92 -3 c-51 -2 -93 -8 -94 -13 -7 -57 -11 -55 96 -55 l100 0 -4 -160 c-2 -88
-4 -161 -5 -162 -1 -2 -54 -6 -118 -9 -117 -7 -144 0 -120 29 5 7 13 33 16 60
l7 47 -75 0 c-80 0 -103 15 -57 38 22 10 15 11 -51 7 -51 -4 -78 -2 -78 5 0 5
18 10 40 10 22 0 40 5 40 10 0 14 67 13 76 -1 3 -6 19 -9 35 -5 16 3 29 1 29
-4 0 -6 11 -10 25 -10 18 0 25 5 25 20 0 17 -7 20 -44 20 -72 0 -77 4 -58 51
14 37 14 40 -4 60 -10 12 -28 25 -40 29 -31 12 -25 38 10 46 52 11 93 48 49
43 -10 -1 -32 -1 -50 0 -29 1 -31 3 -28 30 4 29 3 30 -43 33 -39 3 -47 7 -50
25 -8 53 97 87 135 43 10 -11 25 -20 35 -20 10 0 23 9 30 20 7 11 23 20 35 20
13 0 23 4 23 8 0 11 -195 4 -232 -8 -17 -6 -28 -5 -28 1 0 5 -9 4 -20 -3 -13
-8 -23 -9 -29 -3 -17 17 -1 53 25 58 13 2 21 0 18 -4 -6 -11 165 -10 226 0 39
7 34 9 -43 10 -80 1 -87 3 -78 18 6 11 6 24 -1 36 -9 17 -17 18 -72 13 -65 -7
-96 -2 -96 18 0 30 25 37 125 34 81 -2 100 -6 100 -18z m495 1 c0 -12 -26 -21
-61 -21 -28 0 -37 9 -22 23 10 10 83 8 83 -2z m250 -78 c0 -32 -7 -139 -15
-238 -8 -99 -15 -188 -15 -198 0 -16 -8 -18 -62 -16 -75 2 -84 6 -65 27 19 23
28 52 16 52 -5 0 -20 -7 -33 -15 -21 -14 -25 -14 -36 0 -13 16 -7 45 10 45 14
0 13 -17 -2 -23 -7 -2 -9 -8 -5 -13 12 -13 42 10 45 36 4 22 2 23 -45 17 -33
-5 -43 -4 -33 3 10 6 11 10 3 10 -20 0 -15 28 6 40 11 5 29 10 40 10 12 0 21
5 21 10 0 6 12 10 28 11 34 1 20 6 -40 14 -32 4 -48 11 -48 21 0 8 -5 14 -11
14 -5 0 -8 4 -5 8 3 5 -6 15 -19 22 -29 16 -32 36 -8 62 21 24 121 26 129 3 9
-22 51 -19 64 5 6 11 21 20 33 21 21 1 20 1 -3 8 -14 4 -61 4 -104 -1 -101
-11 -171 -5 -171 13 0 11 17 13 75 12 101 -3 220 7 220 18 0 5 -42 9 -94 9
-89 0 -95 1 -93 20 1 11 4 20 7 20 3 1 28 7 55 15 28 7 74 14 103 14 l52 1 0
-57z m-5066 9 c2 -4 -20 -9 -50 -10 -33 -2 -54 1 -54 7 0 12 96 15 104 3z
m253 -24 c6 -7 15 -92 22 -188 6 -96 15 -214 18 -262 4 -59 2 -88 -5 -88 -11
0 -10 -25 1 -36 4 -4 7 -16 7 -26 0 -17 -11 -19 -180 -18 l-180 2 -2 71 c0 40
-2 83 -4 97 -4 33 -11 148 -20 298 -6 115 -6 122 11 116 13 -5 16 -4 11 4 -10
17 6 21 109 30 155 14 201 13 212 0z m336 -154 c3 -4 -1 -16 -9 -29 -15 -22
-11 -96 6 -120 19 -27 29 -116 32 -275 l3 -175 -112 -3 c-62 -1 -114 -1 -114
0 -7 16 -23 461 -19 518 l5 75 68 1 c37 1 71 4 74 8 8 8 58 8 66 0z m271 -69
c18 -28 52 -32 121 -14 22 6 45 10 50 10 6 -1 33 -2 62 -4 28 -1 54 -5 58 -8
9 -9 -31 -78 -69 -119 -50 -54 -86 -101 -86 -111 0 -21 30 -6 59 29 l31 37
-16 -33 c-18 -38 -13 -52 11 -28 21 20 26 20 18 1 -5 -14 5 -16 63 -13 l69 3
6 40 c11 80 20 8 17 -145 l-3 -155 -176 -3 -176 -2 -7 37 c-3 21 -6 81 -7 133
-1 52 -5 109 -9 125 -5 17 -6 -42 -3 -131 3 -89 1 -164 -3 -167 -5 -3 -56 -7
-114 -9 l-105 -3 -6 70 c-4 39 -8 160 -10 270 l-4 200 100 6 c55 3 103 6 106
7 4 1 14 -9 23 -23z m826 8 c1 -10 2 -70 3 -133 l2 -115 33 -3 c29 -3 32 -1
32 22 0 33 18 33 30 1 21 -55 48 -18 51 69 1 22 5 14 13 -28 19 -97 36 -84 36
28 0 53 4 96 9 96 10 0 21 -73 21 -138 0 -68 7 -47 15 43 8 101 25 123 25 33
0 -37 5 -70 10 -73 6 -3 10 4 11 17 0 20 2 19 11 -7 6 -16 16 -38 23 -48 17
-25 33 -3 37 53 2 25 2 -22 0 -105 -2 -82 -7 -166 -11 -185 l-7 -35 -293 -5
c-162 -3 -321 -3 -355 0 l-61 5 -3 257 -2 257 27 3 c16 2 99 5 186 6 144 2
157 1 157 -15z m-1808 -93 c23 -259 28 -322 28 -382 0 -58 -3 -68 -17 -68 -10
0 -91 -2 -180 -5 -89 -3 -164 -1 -167 4 -6 9 -46 442 -46 493 l0 27 123 4 c67
2 151 3 187 3 l65 -1 7 -75z m4336 1 l1 -39 -49 -7 c-57 -8 -70 -2 -70 30 0
47 9 55 65 55 l53 0 0 -39z m-2181 -53 c-3 -7 -5 -2 -5 12 0 14 2 19 5 13 2
-7 2 -19 0 -25z m256 12 c60 0 42 -17 -25 -23 -35 -3 -64 -4 -66 -3 -1 2 1 11
4 20 5 12 13 16 28 12 11 -3 38 -6 59 -6z m317 -7 c2 -2 3 -19 2 -38 -2 -18 1
-36 7 -40 7 -4 11 5 11 24 0 20 5 31 14 31 12 0 13 -6 4 -32 -10 -36 -14 -48
-23 -90 -3 -16 -10 -28 -16 -28 -5 0 -32 -10 -60 -22 -52 -24 -53 -27 -64
-111 -10 -72 -25 -46 -25 43 0 43 -4 82 -10 85 -13 8 -13 116 1 152 5 15 16
31 22 35 11 7 127 -1 137 -9z m1665 7 c-3 -5 -11 -10 -16 -10 -6 0 -7 5 -4 10
3 6 11 10 16 10 6 0 7 -4 4 -10z m-583 -12 c-37 -10 -47 -27 -38 -64 l7 -27
25 24 25 23 -5 -113 c-2 -62 -7 -116 -10 -119 -6 -5 -34 23 -77 76 -5 6 -23
12 -39 12 l-29 0 45 -72 c32 -53 41 -74 31 -80 -6 -4 -45 -8 -85 -8 l-74 0 2
103 c1 56 2 110 1 120 -2 31 -25 13 -27 -21 -1 -17 -5 -57 -9 -89 l-7 -58 -37
44 c-29 34 -42 42 -64 39 l-27 -3 40 -62 c21 -34 36 -65 31 -67 -7 -5 -130 -7
-186 -4 -11 1 -27 -1 -35 -3 -13 -3 -15 13 -15 106 1 61 -2 99 -6 85 -4 -14
-7 -62 -8 -107 l-1 -83 -60 -2 c-33 -1 -67 -2 -75 -2 -13 -1 -16 23 -18 166
-2 132 1 169 11 173 8 3 46 5 85 6 40 0 92 4 117 8 67 12 553 11 512 -1z
m-4515 -10 c39 -4 48 -12 38 -35 -13 -30 -12 -81 1 -228 7 -76 11 -142 8 -145
-3 -3 -65 -6 -139 -8 l-133 -4 -5 54 c-4 29 -11 101 -18 161 -7 59 -10 109 -8
112 5 4 117 13 193 14 l49 1 -7 32 c-8 42 -16 46 -79 37 -111 -16 -174 -10
-150 15 7 6 156 3 250 -6z m307 -10 c3 -13 6 -55 6 -95 0 -59 -3 -71 -15 -67
-8 3 -17 14 -20 25 -9 28 -28 23 -23 -6 l5 -25 -98 0 c-87 0 -99 2 -100 18 0
9 -4 50 -7 89 -5 48 -4 74 3 77 5 2 62 5 126 5 113 1 117 0 123 -21z m3415 6
c2 -2 -5 -4 -16 -4 -11 0 -26 -7 -33 -15 -11 -13 -7 -15 24 -15 33 0 35 -2 31
-27 -3 -16 -7 -63 -9 -106 -3 -49 -10 -82 -19 -92 -13 -13 -16 -13 -21 0 -3 8
-17 15 -32 15 -20 0 -25 4 -20 16 8 21 -11 44 -35 44 -22 0 -25 -17 -5 -39 26
-29 67 -111 61 -121 -3 -6 -40 -10 -81 -10 l-75 0 3 178 3 177 85 5 c78 5 128
3 139 -6z m1416 6 c-3 -5 -11 -10 -16 -10 -6 0 -7 5 -4 10 3 6 11 10 16 10 6
0 7 -4 4 -10z m-5440 -11 c3 -4 2 -21 -2 -39 -5 -18 -3 -90 4 -168 16 -186 16
-192 -2 -192 -9 0 -15 9 -15 25 l0 24 -122 3 -123 3 -17 145 c-23 195 -24 184
15 197 33 12 250 13 262 2z m3468 -29 c9 0 17 -7 17 -15 0 -8 -6 -15 -13 -15
-18 0 -38 -36 -31 -55 5 -11 0 -18 -15 -22 -11 -3 -21 -9 -21 -14 0 -5 -15 -9
-32 -9 l-33 0 25 -13 c14 -7 26 -19 26 -27 4 -33 17 -61 28 -57 20 8 46 -13
46 -38 0 -26 -5 -28 -87 -39 -61 -9 -72 7 -68 96 1 39 -1 97 -5 128 -7 51 1
77 20 65 4 -2 24 3 46 10 21 8 48 13 59 10 11 -3 28 -5 38 -5z m2567 -49 c0
-13 -39 -21 -100 -19 -50 1 -51 2 -12 5 23 2 40 8 37 14 -4 5 12 9 34 9 23 0
41 -4 41 -9z m55 -10 c-3 -6 12 -11 32 -13 32 -2 37 -6 35 -23 -2 -11 -5 -21
-5 -22 -5 -4 -71 -6 -152 -5 -84 2 -88 3 -67 18 12 8 43 19 70 23 26 4 56 12
67 19 25 14 28 15 20 3z m-955 -116 l0 -35 -105 0 c-68 0 -105 -4 -105 -11 0
-7 28 -8 89 -4 96 8 106 4 95 -40 l-6 -26 -116 3 -116 3 -1 65 c0 36 5 68 10
72 6 4 65 8 133 8 l122 0 0 -35z m-4507 8 c3 -5 8 -47 12 -96 6 -76 5 -86 -9
-81 -8 3 -21 19 -28 35 -17 39 -25 37 -20 -6 l4 -35 -95 0 -94 0 -7 46 c-8 61
-8 129 1 137 9 10 231 9 236 0z m5211 -8 c4 -10 -1 -15 -16 -15 -17 0 -18 2
-8 15 7 8 14 15 15 15 2 0 5 -7 9 -15z m66 -5 c0 -5 -7 -10 -16 -10 -8 0 -12
5 -9 10 3 6 10 10 16 10 5 0 9 -4 9 -10z m-30 -24 c0 -2 -7 -6 -15 -10 -8 -3
-15 -1 -15 4 0 6 7 10 15 10 8 0 15 -2 15 -4z m240 -20 c0 -2 3 -11 6 -20 5
-12 0 -16 -22 -15 -16 0 -38 4 -49 8 -19 8 -19 8 0 19 19 11 65 16 65 8z
m-4975 -15 c3 -5 1 -13 -5 -16 -15 -9 -43 3 -35 15 8 13 32 13 40 1z m65 -1
c0 -5 -7 -10 -15 -10 -8 0 -15 5 -15 10 0 6 7 10 15 10 8 0 15 -4 15 -10z
m200 0 c0 -5 -7 -10 -15 -10 -8 0 -15 5 -15 10 0 6 7 10 15 10 8 0 15 -4 15
-10z m-1872 -85 c0 -29 0 -29 -8 -5 -4 14 -8 41 -8 60 l0 35 8 -30 c4 -16 8
-43 8 -60z m4172 55 c0 -13 -7 -20 -20 -20 -22 0 -23 1 -14 24 9 23 34 20 34
-4z m-4046 -10 c8 0 13 -17 15 -49 1 -42 -2 -49 -21 -54 -33 -9 -38 -1 -38 60
0 46 3 54 16 49 9 -3 21 -6 28 -6z m1748 -14 c-2 -10 4 -16 18 -16 15 0 20 -6
20 -26 l0 -27 -151 5 c-120 5 -154 9 -167 22 -19 19 -22 18 83 22 39 1 76 3
83 3 6 1 12 8 12 16 0 8 7 15 15 15 8 0 15 -7 15 -15 0 -23 37 -18 43 6 7 24
33 20 29 -5z m-282 4 c0 -5 -4 -10 -10 -10 -5 0 -10 5 -10 10 0 6 5 10 10 10
6 0 10 -4 10 -10z m70 6 c0 -3 -4 -8 -10 -11 -5 -3 -10 -1 -10 4 0 6 5 11 10
11 6 0 10 -2 10 -4z m-90 -52 c0 -2 -7 -4 -15 -4 -8 0 -15 4 -15 10 0 5 7 7
15 4 8 -4 15 -8 15 -10z m3394 -340 c5 -12 2 -15 -10 -10 -8 3 -27 6 -40 6
-13 0 -24 5 -24 10 0 17 67 12 74 -6z m-734 -138 c25 1 34 -1 21 -3 -19 -4
-21 -7 -10 -14 19 -12 -46 0 -91 18 l-35 13 35 -7 c19 -4 55 -7 80 -7z m93 7
c-7 -2 -19 -2 -25 0 -7 3 -2 5 12 5 14 0 19 -2 13 -5z m-3290 -10 c-7 -2 -21
-2 -30 0 -10 3 -4 5 12 5 17 0 24 -2 18 -5z m2950 0 c-7 -2 -19 -2 -25 0 -7 3
-2 5 12 5 14 0 19 -2 13 -5z m114 1 c-3 -3 -12 -4 -19 -1 -8 3 -5 6 6 6 11 1
17 -2 13 -5z m-801 -22 c-10 -2 -22 0 -28 6 -6 6 0 7 19 4 21 -5 23 -7 9 -10z
m149 8 c8 -13 -5 -13 -25 0 -13 8 -13 10 2 10 9 0 20 -4 23 -10z m172 4 c-3
-3 -12 -4 -19 -1 -8 3 -5 6 6 6 11 1 17 -2 13 -5z m101 -1 c-10 -2 -26 -2 -35
0 -10 3 -2 5 17 5 19 0 27 -2 18 -5z m95 0 c-13 -2 -33 -2 -45 0 -13 2 -3 4
22 4 25 0 35 -2 23 -4z m-1060 -10 c-7 -2 -21 -2 -30 0 -10 3 -4 5 12 5 17 0
24 -2 18 -5z m-2916 -9 c-3 -3 -12 -4 -19 -1 -8 3 -5 6 6 6 11 1 17 -2 13 -5z
m201 -1 c-21 -2 -55 -2 -75 0 -21 2 -4 4 37 4 41 0 58 -2 38 -4z m205 0 c-29
-2 -78 -2 -110 0 -32 2 -8 3 52 3 61 0 87 -1 58 -3z m1754 1 c-3 -3 -12 -4
-19 -1 -8 3 -5 6 6 6 11 1 17 -2 13 -5z m70 0 c-3 -3 -12 -4 -19 -1 -8 3 -5 6
6 6 11 1 17 -2 13 -5z m150 0 c-3 -3 -12 -4 -19 -1 -8 3 -5 6 6 6 11 1 17 -2
13 -5z m40 0 c-3 -3 -12 -4 -19 -1 -8 3 -5 6 6 6 11 1 17 -2 13 -5z m-1762
-74 c3 -5 -1 -10 -9 -10 -9 0 -16 5 -16 10 0 6 4 10 9 10 6 0 13 -4 16 -10z
m181 -25 c-22 -17 -46 -20 -46 -6 0 10 22 18 50 20 11 0 10 -4 -4 -14z m-59
-1 c-3 -3 -12 -4 -19 -1 -8 3 -5 6 6 6 11 1 17 -2 13 -5z m113 -18 c0 -3 -4
-8 -10 -11 -5 -3 -10 -1 -10 4 0 6 5 11 10 11 6 0 10 -2 10 -4z"/>
<path d="M730 5107 c-42 -20 -49 -27 -43 -43 4 -11 9 -12 19 -3 11 9 14 7 14
-10 0 -11 -5 -21 -12 -21 -6 0 -3 -9 7 -20 34 -37 125 -18 125 27 0 14 -6 23
-15 23 -8 0 -15 6 -15 14 0 18 -27 46 -43 45 -7 0 -23 -6 -37 -12z"/>
<path d="M1418 5315 c4 -21 10 -25 38 -25 46 0 43 -14 -6 -30 -42 -14 -48 -21
-27 -38 12 -10 18 -12 36 -12 5 0 17 -8 27 -17 15 -16 18 -16 46 0 16 9 38 17
48 17 20 0 90 28 90 36 0 3 -9 2 -20 -1 -14 -5 -20 -2 -20 9 0 12 -11 16 -42
17 -24 0 -37 3 -30 6 6 2 10 9 6 14 -3 5 0 9 5 9 6 0 11 6 11 13 0 8 -20 12
-72 11 -40 -1 -78 2 -84 7 -8 6 -10 2 -6 -16z"/>
<path d="M1913 5243 c0 -24 1 -25 12 -10 7 9 17 17 24 17 6 0 11 5 11 10 0 6
-11 10 -24 10 -19 0 -23 -5 -23 -27z"/>
<path d="M2171 5134 c-39 -49 -21 -71 26 -34 28 22 43 25 43 10 0 -5 -9 -10
-20 -10 -11 0 -20 -7 -20 -15 0 -9 7 -15 16 -13 10 2 19 -3 21 -9 6 -17 -39
-17 -55 -1 -17 17 -35 -3 -30 -33 3 -22 7 -24 51 -21 42 3 47 2 47 -16 0 -25
35 -39 55 -22 10 9 19 8 37 -3 13 -8 42 -17 66 -21 46 -7 51 0 33 48 -10 24
-12 24 -85 19 -72 -6 -76 -5 -76 15 0 15 -5 20 -15 16 -23 -9 -19 48 5 74 19
20 22 20 55 7 51 -22 61 -18 31 12 -21 21 -29 24 -35 14 -7 -10 -13 -10 -29
-2 -11 6 -39 11 -61 11 -31 0 -44 -6 -60 -26z"/>
<path d="M1743 5055 c0 -44 2 -61 4 -37 2 23 2 59 0 80 -2 20 -4 1 -4 -43z"/>
<path d="M2402 5123 c-10 -4 -10 -8 -1 -19 13 -16 29 -10 29 12 0 15 -6 16
-28 7z"/>
<path d="M1606 5101 c-3 -5 4 -11 16 -14 25 -7 33 -3 23 12 -8 13 -32 14 -39
2z"/>
<path d="M1632 5020 c0 -14 2 -19 5 -12 2 6 2 18 0 25 -3 6 -5 1 -5 -13z"/>
<path d="M1692 5020 c0 -14 2 -19 5 -12 2 6 2 18 0 25 -3 6 -5 1 -5 -13z"/>
<path d="M1022 5295 c0 -16 2 -22 5 -12 2 9 2 23 0 30 -3 6 -5 -1 -5 -18z"/>
<path d="M1081 5294 c0 -11 3 -14 6 -6 3 7 2 16 -1 19 -3 4 -6 -2 -5 -13z"/>
<path d="M1070 5231 c0 -11 21 -19 38 -14 20 8 14 19 -13 21 -14 1 -25 -2 -25
-7z"/>
<path d="M1140 5100 c0 -5 5 -10 10 -10 6 0 10 5 10 10 0 6 -4 10 -10 10 -5 0
-10 -4 -10 -10z"/>
<path d="M3022 5355 l-24 -25 27 -12 c23 -10 32 -9 57 5 29 17 32 17 65 -3 45
-26 50 -26 55 11 l5 32 -56 -6 c-40 -4 -61 -2 -75 9 -26 18 -27 18 -54 -11z"/>
<path d="M3002 5274 c3 -25 8 -29 36 -32 37 -4 41 6 12 31 -11 9 -20 14 -20
11 0 -4 -7 -1 -16 7 -14 11 -15 9 -12 -17z"/>
<path d="M3126 5249 c-45 -15 -48 -17 -28 -28 11 -6 37 -11 56 -11 31 0 36 3
36 24 0 33 -7 35 -64 15z"/>
<path d="M5706 4631 c-8 -13 10 -17 50 -13 19 2 31 8 28 13 -7 12 -71 12 -78
0z"/>
<path d="M5642 3488 c-18 -18 -15 -34 7 -35 13 -1 20 6 24 23 5 26 -11 32 -31
12z"/>
<path d="M5645 3420 c4 -6 11 -8 16 -5 14 9 11 15 -7 15 -8 0 -12 -5 -9 -10z"/>
<path d="M7310 3580 c0 -13 5 -20 13 -17 6 2 12 10 12 17 0 7 -6 15 -12 18 -8
2 -13 -5 -13 -18z"/>
<path d="M7286 3484 c-9 -22 -8 -24 9 -24 8 0 15 9 15 20 0 24 -15 27 -24 4z"/>
<path d="M6780 3458 c0 -35 12 -30 17 7 2 14 -1 25 -7 25 -5 0 -10 -14 -10
-32z"/>
<path d="M6568 3473 c6 -2 18 -2 25 0 6 3 1 5 -13 5 -14 0 -19 -2 -12 -5z"/>
<path d="M751 3798 c0 -10 -8 -18 -16 -18 -8 0 -15 -4 -15 -10 0 -5 7 -10 15
-10 8 0 15 -7 15 -15 0 -8 5 -15 10 -15 6 0 10 7 10 15 0 8 7 15 15 15 8 0 15
5 15 10 0 6 -9 10 -19 10 -11 0 -22 8 -24 18 -4 16 -5 16 -6 0z"/>
<path d="M1571 3753 c-1 -16 5 -23 17 -23 10 0 13 3 6 8 -6 4 -14 14 -17 22
-4 10 -6 8 -6 -7z"/>
<path d="M1540 3740 c0 -5 5 -10 11 -10 5 0 7 5 4 10 -3 6 -8 10 -11 10 -2 0
-4 -4 -4 -10z"/>
<path d="M1205 3680 c3 -5 10 -10 16 -10 5 0 9 5 9 10 0 6 -7 10 -16 10 -8 0
-12 -4 -9 -10z"/>
<path d="M1360 3414 c0 -8 7 -22 15 -31 12 -12 19 -12 30 -3 8 7 23 9 37 4 35
-11 250 -11 271 1 12 7 23 6 37 -3 28 -17 30 -16 30 18 l0 30 -210 0 c-184 0
-210 -2 -210 -16z m325 -4 c3 -5 -1 -10 -10 -10 -9 0 -13 5 -10 10 3 6 8 10
10 10 2 0 7 -4 10 -10z m-218 -6 c-3 -3 -12 -4 -19 -1 -8 3 -5 6 6 6 11 1 17
-2 13 -5z m73 -4 c0 -5 -4 -10 -9 -10 -6 0 -13 5 -16 10 -3 6 1 10 9 10 9 0
16 -4 16 -10z m72 -2 c-9 -9 -15 -9 -24 0 -9 9 -7 12 12 12 19 0 21 -3 12 -12z"/>
<path d="M2742 3474 c-5 -9 -23 -19 -41 -22 -32 -7 -32 -7 -11 -25 20 -17 22
-17 48 13 22 24 30 28 40 18 10 -10 15 -10 20 -1 8 13 52 6 52 -8 0 -5 7 -9
15 -9 8 0 15 4 15 9 0 15 -29 33 -45 28 -8 -4 -17 -2 -20 3 -10 16 -63 11 -73
-6z"/>
<path d="M5286 3692 l-79 -87 34 -3 c28 -3 39 2 63 30 16 18 43 49 60 68 17
20 40 46 50 58 l19 22 -34 -1 c-30 -1 -44 -12 -113 -87z"/>
<path d="M5222 3553 c2 -5 19 -32 38 -61 35 -52 59 -67 99 -60 20 3 17 8 -28
58 -28 30 -51 58 -51 63 0 4 -14 7 -31 7 -17 0 -29 -3 -27 -7z"/>
<path d="M5457 3434 c-4 -4 -7 -16 -7 -26 0 -15 6 -19 28 -16 19 2 27 9 27 23
0 20 -33 33 -48 19z m33 -13 c0 -6 -4 -13 -10 -16 -5 -3 -10 1 -10 9 0 9 5 16
10 16 6 0 10 -4 10 -9z"/>
<path d="M3323 3713 c9 -2 23 -2 30 0 6 3 -1 5 -18 5 -16 0 -22 -2 -12 -5z"/>
<path d="M3378 3713 c7 -3 16 -2 19 1 4 3 -2 6 -13 5 -11 0 -14 -3 -6 -6z"/>
<path d="M6920 3090 c0 -5 5 -10 10 -10 6 0 10 5 10 10 0 6 -4 10 -10 10 -5 0
-10 -4 -10 -10z"/>
<path d="M6871 3074 c0 -11 3 -14 6 -6 3 7 2 16 -1 19 -3 4 -6 -2 -5 -13z"/>
<path d="M6895 3060 c3 -5 8 -10 11 -10 2 0 4 5 4 10 0 6 -5 10 -11 10 -5 0
-7 -4 -4 -10z"/>
<path d="M7169 2818 c0 -2 -2 -36 -3 -75 -1 -50 3 -73 11 -73 7 0 11 19 10 53
0 28 3 62 7 75 7 17 5 22 -8 22 -9 0 -16 -1 -17 -2z"/>
<path d="M6968 2693 c7 -3 16 -2 19 1 4 3 -2 6 -13 5 -11 0 -14 -3 -6 -6z"/>
<path d="M2590 2936 c0 -2 7 -6 15 -10 8 -3 15 -1 15 4 0 6 -7 10 -15 10 -8 0
-15 -2 -15 -4z"/>
<path d="M2663 2913 c-3 -7 -11 -13 -18 -13 -12 0 -45 -31 -45 -43 0 -4 25 -7
55 -7 30 0 55 -4 55 -10 0 -5 12 -9 28 -9 16 1 20 3 10 6 -10 2 -18 11 -18 19
0 9 -12 14 -37 15 -21 0 -32 3 -25 6 6 2 10 9 6 14 -3 5 5 9 18 9 43 0 53 17
13 22 -25 3 -39 0 -42 -9z"/>
<path d="M2718 2883 c7 -3 16 -2 19 1 4 3 -2 6 -13 5 -11 0 -14 -3 -6 -6z"/>
<path d="M2639 2801 c8 -5 20 -7 28 -4 9 4 11 0 6 -13 -9 -25 -25 -39 -43 -39
-9 0 -14 -7 -12 -20 5 -27 1 -26 68 -16 48 7 52 9 24 11 l-35 3 35 7 c28 6 30
8 10 9 -22 1 -25 5 -24 36 2 34 1 35 -35 35 -25 0 -32 -3 -22 -9z"/>
<path d="M2718 2803 c7 -3 16 -2 19 1 4 3 -2 6 -13 5 -11 0 -14 -3 -6 -6z"/>
<path d="M2613 2664 c-8 -21 -3 -23 42 -14 22 4 38 8 35 9 -3 0 -20 5 -38 10
-26 8 -34 7 -39 -5z"/>
<path d="M5177 2785 c-4 -8 -2 -17 3 -20 6 -4 10 -4 10 -1 0 2 3 11 6 20 3 9
2 16 -4 16 -5 0 -12 -7 -15 -15z"/>
<path d="M5100 2665 c0 -8 5 -15 10 -15 6 0 10 7 10 15 0 8 -4 15 -10 15 -5 0
-10 -7 -10 -15z"/>
<path d="M6017 2804 c-24 -24 -25 -27 -9 -44 12 -15 19 -17 30 -8 13 11 42 61
42 73 0 15 -40 2 -63 -21z"/>
<path d="M6221 2705 c-40 -14 -26 -30 19 -20 35 8 63 36 34 34 -11 -1 -34 -7
-53 -14z"/>
<path d="M1670 2690 c0 -5 6 -10 14 -10 8 0 17 -6 19 -12 3 -7 6 -3 6 10 1 16
-5 22 -19 22 -11 0 -20 -4 -20 -10z"/>
<path d="M1700 2626 c0 -8 -3 -21 -6 -30 -4 -11 -1 -16 10 -16 11 0 16 9 16
30 0 17 -4 30 -10 30 -5 0 -10 -6 -10 -14z"/>
<path d="M5460 2766 c0 -2 7 -9 15 -16 13 -11 14 -10 9 4 -5 14 -24 23 -24 12z"/>
<path d="M5380 2670 c0 -5 5 -10 10 -10 6 0 10 5 10 10 0 6 -4 10 -10 10 -5 0
-10 -4 -10 -10z"/>
<path d="M2115 2571 c-3 -5 -1 -12 5 -16 5 -3 10 1 10 9 0 18 -6 21 -15 7z"/>
<path d="M7690 5731 c0 -5 9 -7 20 -4 11 3 20 7 20 9 0 2 -9 4 -20 4 -11 0
-20 -4 -20 -9z"/>
<path d="M71 5384 c0 -11 3 -14 6 -6 3 7 2 16 -1 19 -3 4 -6 -2 -5 -13z"/>
<path d="M7283 5363 c2 -20 8 -27 25 -28 30 -2 26 34 -5 46 -19 7 -21 5 -20
-18z"/>
<path d="M7161 5334 c0 -11 3 -14 6 -6 3 7 2 16 -1 19 -3 4 -6 -2 -5 -13z"/>
<path d="M137 5285 c21 -213 29 -269 39 -272 11 -4 -15 213 -35 292 -9 36 -10
34 -4 -20z"/>
<path d="M4629 5277 c-17 -14 -11 -58 9 -65 8 -2 12 9 12 37 0 23 -1 41 -2 41
-2 0 -10 -6 -19 -13z"/>
<path d="M7225 5250 c4 -6 11 -8 16 -5 14 9 11 15 -7 15 -8 0 -12 -5 -9 -10z"/>
<path d="M4437 5157 c-21 -33 -21 -34 3 -40 26 -7 31 3 22 38 l-8 28 -17 -26z"/>
<path d="M6643 5118 c1 -28 -2 -53 -8 -55 -12 -4 -7 -113 5 -113 22 0 31 34
29 104 -1 42 1 79 4 83 14 13 6 33 -12 33 -16 0 -19 -7 -18 -52z"/>
<path d="M7359 5066 c-9 -20 -10 -29 -1 -38 8 -8 14 -4 23 16 9 20 10 29 1 38
-8 8 -14 4 -23 -16z"/>
<path d="M4426 5039 c-15 -25 -17 -43 -12 -90 6 -57 5 -59 -19 -59 -13 0 -27
-5 -31 -12 -5 -8 2 -9 26 -5 18 4 44 7 59 8 14 0 22 2 16 5 -6 2 -9 40 -7 94
2 49 0 90 -5 90 -5 0 -17 -14 -27 -31z"/>
<path d="M120 4998 c0 -18 5 -40 10 -48 7 -11 10 -4 10 27 0 23 -4 45 -10 48
-6 4 -10 -7 -10 -27z"/>
<path d="M270 5000 c0 -19 5 -30 14 -30 20 0 29 30 11 36 -8 4 -12 10 -9 15 3
5 0 9 -5 9 -6 0 -11 -13 -11 -30z"/>
<path d="M5503 4985 c0 -22 2 -30 4 -17 2 12 2 30 0 40 -3 9 -5 -1 -4 -23z"/>
<path d="M5181 4958 c1 -45 2 -49 9 -23 11 44 11 75 0 75 -6 0 -9 -23 -9 -52z"/>
<path d="M4822 4978 c-17 -17 -15 -58 3 -58 14 0 20 -12 16 -33 -1 -5 4 -7 11
-5 7 3 15 18 16 34 2 16 8 35 14 41 7 9 3 15 -17 23 -32 12 -29 12 -43 -2z"/>
<path d="M350 4930 c0 -5 7 -10 16 -10 8 0 12 5 9 10 -3 6 -10 10 -16 10 -5 0
-9 -4 -9 -10z"/>
<path d="M5450 4890 c-9 -6 -10 -10 -3 -10 6 0 15 5 18 10 8 12 4 12 -15 0z"/>
<path d="M5493 4884 c0 -8 10 -17 21 -19 32 -8 304 -1 312 8 11 11 -3 20 -28
18 -64 -5 -228 -4 -264 1 -31 5 -41 3 -41 -8z"/>
<path d="M4163 4883 c9 -2 23 -2 30 0 6 3 -1 5 -18 5 -16 0 -22 -2 -12 -5z"/>
<path d="M4528 4883 c6 -2 18 -2 25 0 6 3 1 5 -13 5 -14 0 -19 -2 -12 -5z"/>
<path d="M4598 4883 c6 -2 18 -2 25 0 6 3 1 5 -13 5 -14 0 -19 -2 -12 -5z"/>
<path d="M4648 4883 c7 -3 16 -2 19 1 4 3 -2 6 -13 5 -11 0 -14 -3 -6 -6z"/>
<path d="M5098 4883 c7 -3 16 -2 19 1 4 3 -2 6 -13 5 -11 0 -14 -3 -6 -6z"/>
<path d="M5250 4880 c0 -5 7 -10 15 -10 8 0 15 5 15 10 0 6 -7 10 -15 10 -8 0
-15 -4 -15 -10z"/>
<path d="M5358 4883 c6 -2 18 -2 25 0 6 3 1 5 -13 5 -14 0 -19 -2 -12 -5z"/>
<path d="M6683 4583 c9 -2 25 -2 35 0 9 3 1 5 -18 5 -19 0 -27 -2 -17 -5z"/>
<path d="M6675 4560 c-3 -6 1 -7 9 -4 18 7 21 14 7 14 -6 0 -13 -4 -16 -10z"/>
<path d="M7415 4560 c3 -5 8 -10 11 -10 2 0 4 5 4 10 0 6 -5 10 -11 10 -5 0
-7 -4 -4 -10z"/>
<path d="M7451 4561 c-8 -5 -11 -16 -7 -29 6 -19 10 -20 48 -9 46 14 65 37 23
30 -15 -3 -25 -1 -25 6 0 13 -19 14 -39 2z"/>
<path d="M1225 4516 c17 -12 18 -16 5 -32 -13 -15 -13 -16 0 -11 8 4 23 10 33
13 9 4 17 15 17 25 0 15 -7 19 -37 19 -34 0 -35 -1 -18 -14z"/>
<path d="M1320 4460 c0 -5 5 -10 10 -10 6 0 10 5 10 10 0 6 -4 10 -10 10 -5 0
-10 -4 -10 -10z"/>
<path d="M2232 4458 c-7 -7 -12 -19 -12 -28 0 -9 -5 -21 -12 -28 -7 -7 -9 -12
-4 -12 14 0 33 25 40 53 7 30 5 32 -12 15z"/>
<path d="M5841 4463 c0 -7 -10 -13 -20 -13 -25 0 -29 -33 -33 -227 l-3 -143
26 0 c22 0 28 5 33 34 9 46 9 206 1 239 -4 16 -3 27 3 27 14 0 24 31 13 44 -5
6 -11 20 -14 31 -2 11 -5 14 -6 8z m-17 -240 c-4 -43 -8 -80 -10 -82 -2 -2 -4
32 -4 77 0 50 4 82 10 82 7 0 9 -26 4 -77z"/>
<path d="M2481 4444 c0 -11 3 -14 6 -6 3 7 2 16 -1 19 -3 4 -6 -2 -5 -13z"/>
<path d="M2517 4396 c-4 -10 -5 -21 -2 -24 9 -9 17 6 13 25 -3 17 -4 17 -11
-1z"/>
<path d="M3042 4365 c0 -16 2 -22 5 -12 2 9 2 23 0 30 -3 6 -5 -1 -5 -18z"/>
<path d="M6296 4345 c7 -17 13 -18 32 -6 11 7 10 10 -3 15 -26 10 -35 7 -29
-9z"/>
<path d="M372 4333 c5 -25 28 -28 28 -4 0 12 -6 21 -16 21 -9 0 -14 -7 -12
-17z"/>
<path d="M6311 4311 c-7 -5 -14 -25 -16 -45 -3 -34 -2 -36 18 -29 12 4 32 7
44 6 15 -1 23 7 28 24 7 29 5 32 -24 38 -11 2 -25 6 -29 9 -4 2 -14 1 -21 -3z"/>
<path d="M6495 4301 c3 -6 -3 -14 -12 -20 -16 -9 -14 -10 10 -11 20 0 27 5 27
20 0 11 -7 20 -16 20 -8 0 -13 -4 -9 -9z"/>
<path d="M2529 4257 c0 -1 -3 -15 -5 -30 -6 -34 14 -33 27 0 5 15 3 23 -7 27
-8 3 -14 4 -15 3z"/>
<path d="M1431 4224 c0 -11 3 -14 6 -6 3 7 2 16 -1 19 -3 4 -6 -2 -5 -13z"/>
<path d="M6435 4200 c-3 -5 1 -10 9 -10 9 0 16 5 16 10 0 6 -4 10 -9 10 -6 0
-13 -4 -16 -10z"/>
<path d="M2518 4182 c-33 -4 -37 -22 -8 -29 11 -3 20 -9 20 -14 0 -18 19 -9
25 12 9 26 -2 36 -37 31z"/>
<path d="M3695 4180 c3 -5 8 -10 11 -10 2 0 4 5 4 10 0 6 -5 10 -11 10 -5 0
-7 -4 -4 -10z"/>
<path d="M6290 4157 c0 -9 4 -17 9 -17 5 0 16 -3 25 -6 12 -4 16 0 16 16 0 18
-3 20 -13 11 -10 -8 -17 -7 -25 1 -9 9 -12 8 -12 -5z"/>
<path d="M7195 4160 c3 -5 -3 -11 -12 -14 -10 -2 -4 -4 12 -3 32 2 41 18 12
23 -9 1 -15 -2 -12 -6z"/>
<path d="M5340 4150 c0 -5 5 -10 10 -10 6 0 10 5 10 10 0 6 -4 10 -10 10 -5 0
-10 -4 -10 -10z"/>
<path d="M2818 4124 c-17 -17 -8 -44 15 -44 13 0 17 3 11 8 -7 4 -13 15 -15
25 -2 11 -7 15 -11 11z"/>
<path d="M3158 4113 c6 -2 18 -2 25 0 6 3 1 5 -13 5 -14 0 -19 -2 -12 -5z"/>
<path d="M5338 4113 c7 -3 16 -2 19 1 4 3 -2 6 -13 5 -11 0 -14 -3 -6 -6z"/>
<path d="M2571 4094 c0 -11 3 -14 6 -6 3 7 2 16 -1 19 -3 4 -6 -2 -5 -13z"/>
<path d="M4770 4040 c0 -5 5 -10 10 -10 6 0 10 5 10 10 0 6 -4 10 -10 10 -5 0
-10 -4 -10 -10z"/>
<path d="M7 3343 c7 -2 19 -2 26 0 6 3 1 5 -13 5 -14 0 -19 -2 -13 -5z"/>
<path d="M211 2604 c0 -11 3 -14 6 -6 3 7 2 16 -1 19 -3 4 -6 -2 -5 -13z"/>
<path d="M240 2585 c-7 -8 -8 -15 -2 -15 5 0 15 7 22 15 7 8 8 15 2 15 -5 0
-15 -7 -22 -15z"/>
<path d="M920 2475 c0 -7 -7 -18 -16 -23 -19 -10 -11 -32 12 -32 8 0 14 9 14
19 0 11 3 26 6 35 3 9 1 16 -5 16 -6 0 -11 -7 -11 -15z"/>
<path d="M840 2435 c0 -8 7 -15 15 -15 8 0 15 7 15 15 0 8 -7 15 -15 15 -8 0
-15 -7 -15 -15z"/>
<path d="M7670 2098 c0 -4 -78 -7 -172 -5 -179 2 -308 -8 -308 -24 0 -5 87 -9
207 -9 165 0 217 3 260 17 53 17 71 33 33 30 -11 -1 -20 -5 -20 -9z"/>
<path d="M6221 2077 c-14 -6 -26 -17 -28 -24 -4 -12 59 -9 127 7 l35 8 -43 1
c-26 1 -41 5 -37 11 9 14 -25 12 -54 -3z m26 -13 c-3 -3 -12 -4 -19 -1 -8 3
-5 6 6 6 11 1 17 -2 13 -5z"/>
<path d="M6430 2043 c0 -7 303 -84 325 -83 23 2 -90 39 -181 59 -142 32 -144
32 -144 24z"/>
<path d="M6253 2023 c9 -2 23 -2 30 0 6 3 -1 5 -18 5 -16 0 -22 -2 -12 -5z"/>
<path d="M5338 2013 c7 -3 16 -2 19 1 4 3 -2 6 -13 5 -11 0 -14 -3 -6 -6z"/>
<path d="M7176 1982 c-4 -7 6 -13 26 -17 69 -12 178 -26 303 -40 72 -8 146
-19 165 -25 19 -5 41 -10 47 -10 17 0 17 69 1 75 -7 2 -107 6 -223 10 -115 3
-233 8 -261 12 -32 3 -54 1 -58 -5z"/>
<path d="M3608 1973 c6 -2 18 -2 25 0 6 3 1 5 -13 5 -14 0 -19 -2 -12 -5z"/>
<path d="M2328 1953 c7 -3 16 -2 19 1 4 3 -2 6 -13 5 -11 0 -14 -3 -6 -6z"/>
<path d="M4000 1924 c0 -9 5 -14 12 -12 18 6 21 28 4 28 -9 0 -16 -7 -16 -16z"/>
<path d="M4865 1900 c-7 -12 2 -12 30 0 19 8 19 9 -2 9 -12 1 -25 -3 -28 -9z"/>
<path d="M2614 1861 c-27 -5 -30 -8 -18 -19 8 -7 14 -8 14 -2 0 5 6 10 14 10
8 0 18 5 21 10 3 6 5 9 3 9 -2 -1 -17 -4 -34 -8z"/>
<path d="M6260 1855 c0 -9 6 -12 15 -9 8 4 12 10 9 15 -8 14 -24 10 -24 -6z"/>
<path d="M2125 1840 c3 -5 21 -10 38 -9 27 0 29 2 12 9 -28 12 -57 12 -50 0z"/>
<path d="M6118 1843 c7 -3 16 -2 19 1 4 3 -2 6 -13 5 -11 0 -14 -3 -6 -6z"/>
<path d="M6236 1831 c-7 -10 52 -26 61 -17 8 8 3 12 -29 20 -15 3 -29 2 -32
-3z"/>
<path d="M5975 1820 c-4 -6 7 -10 27 -9 27 0 30 2 13 9 -27 12 -33 12 -40 0z"/>
<path d="M6168 1813 c6 -2 18 -2 25 0 6 3 1 5 -13 5 -14 0 -19 -2 -12 -5z"/>
<path d="M2480 1799 c0 -5 5 -7 10 -4 6 3 10 8 10 11 0 2 -4 4 -10 4 -5 0 -10
-5 -10 -11z"/>
<path d="M2574 1795 c4 -11 -2 -15 -22 -16 -26 -1 -26 -1 8 -16 28 -12 41 -13
67 -3 18 6 37 8 43 5 13 -8 0 28 -14 37 -6 4 -28 8 -50 8 -30 0 -37 -3 -32
-15z"/>
<path d="M6378 1803 c7 -3 16 -2 19 1 4 3 -2 6 -13 5 -11 0 -14 -3 -6 -6z"/>
<path d="M5458 1793 c12 -2 32 -2 45 0 12 2 2 4 -23 4 -25 0 -35 -2 -22 -4z"/>
<path d="M2700 1783 c0 -5 11 -16 25 -23 20 -10 28 -11 37 -2 17 17 41 15 34
-3 -3 -9 0 -15 10 -15 12 0 12 4 4 20 -6 11 -19 20 -29 20 -10 0 -33 3 -50 6
-17 4 -31 2 -31 -3z"/>
<path d="M3840 1769 c0 -3 -21 -5 -47 -4 -32 2 -36 1 -10 -2 20 -2 35 -8 32
-14 -4 -5 1 -9 9 -9 27 0 17 -15 -17 -28 -48 -17 -81 -15 -102 8 -16 17 -19
18 -33 4 -12 -12 -27 -15 -61 -10 -62 8 -83 -6 -51 -32 l24 -19 -23 -12 c-16
-9 -20 -18 -15 -33 5 -18 3 -20 -16 -15 -15 4 -20 2 -16 -8 7 -19 -30 -48 -54
-42 -13 3 -20 0 -20 -9 0 -8 -5 -14 -11 -14 -6 0 -8 8 -4 19 8 25 -9 35 -34
20 -15 -10 -22 -10 -35 4 -9 8 -16 20 -16 26 0 7 -18 11 -42 10 -24 -1 -70 -1
-103 0 -33 1 -75 -1 -93 -4 -19 -2 -30 0 -27 5 4 6 0 10 -9 10 -8 0 -23 3 -33
6 -13 4 -14 3 -5 -4 10 -7 6 -11 -18 -15 -26 -6 -30 -10 -25 -27 5 -16 -1 -23
-29 -37 -20 -9 -36 -20 -36 -25 0 -4 -9 -8 -20 -8 -11 0 -20 7 -20 15 0 8 -10
16 -22 17 -70 5 -114 5 -122 0 -17 -10 -107 -11 -101 -1 13 21 -59 1 -75 -21
-10 -13 -69 -28 -89 -23 -12 3 -21 1 -21 -6 0 -6 -11 -11 -25 -11 -14 0 -25 4
-25 9 0 15 -72 24 -80 10 -6 -9 -19 -9 -58 1 -28 6 -56 9 -62 5 -5 -3 -15 -3
-22 1 -13 8 -115 13 -135 6 -7 -2 -11 -8 -8 -12 9 -14 -28 -22 -120 -27 -329
-16 -455 -25 -455 -34 0 -4 -17 -8 -37 -7 -42 1 -279 -20 -303 -27 -23 -7
-156 -26 -240 -35 -41 -5 -100 -14 -130 -20 -30 -6 -89 -13 -130 -16 -41 -2
-113 -9 -159 -14 -46 -5 -87 -7 -91 -5 -9 6 -62 -15 -71 -28 -3 -4 -60 -8
-126 -8 -94 0 -124 -3 -133 -14 -7 -8 -19 -15 -26 -15 -11 0 -14 -17 -14 -69
l0 -70 32 4 c18 2 451 10 963 16 830 11 931 14 943 28 11 14 13 14 27 -3 12
-16 23 -18 79 -12 35 3 493 13 1017 21 1171 18 1549 24 1839 30 413 8 952 17
1260 21 168 2 373 8 455 14 83 5 317 13 520 17 204 3 397 7 430 8 33 1 84 3
113 4 l52 1 0 119 0 119 -117 6 c-65 4 -179 8 -253 10 -74 2 -189 6 -255 10
-66 3 -135 2 -153 -3 -20 -6 -44 -6 -64 0 -18 5 -62 11 -97 14 -36 3 -67 9
-70 13 -3 4 -17 9 -31 10 -14 1 -77 6 -140 12 -63 5 -141 11 -173 12 -32 2
-61 8 -65 14 -4 6 -28 14 -53 18 -48 7 -102 -1 -94 -13 6 -10 -55 -6 -85 6
-14 5 -45 11 -69 12 -24 1 -52 6 -62 12 -13 7 -30 5 -55 -6 -24 -10 -64 -14
-115 -13 -85 1 -95 5 -35 12 71 9 52 19 -23 12 -81 -7 -174 1 -165 15 3 5 15
10 27 10 17 1 18 2 4 6 -9 2 -15 9 -12 14 4 5 -9 9 -27 8 -30 -1 -31 -2 -8 -8
24 -7 24 -7 -8 -14 -18 -4 -31 -11 -28 -16 8 -13 -18 -21 -35 -10 -8 4 -25 5
-38 2 -17 -4 -22 -2 -17 6 5 7 -3 11 -23 11 -17 0 -31 -4 -31 -10 0 -6 -26
-10 -57 -10 -36 0 -53 4 -44 9 8 5 9 11 3 15 -6 3 -13 2 -17 -4 -3 -5 -37 -10
-75 -10 -61 0 -69 2 -75 21 -4 13 -12 18 -22 15 -8 -3 -20 -3 -26 1 -5 3 -40
6 -76 5 -50 0 -59 1 -36 8 30 8 30 8 3 9 -35 1 -58 -8 -58 -24 0 -14 -22 -25
-51 -25 -11 0 -16 5 -13 14 7 18 -23 28 -46 16 -27 -14 -73 -13 -64 2 5 8 2 9
-12 3 -10 -4 -34 -10 -52 -13 -26 -3 -31 -1 -26 12 10 26 -2 45 -25 39 -12 -3
-18 -10 -15 -15 4 -6 0 -14 -7 -19 -19 -12 -62 -11 -54 1 11 17 -42 31 -70 18
-19 -8 -22 -14 -13 -20 8 -5 3 -7 -14 -6 -14 1 -42 -7 -62 -17 -28 -15 -36
-26 -36 -46 0 -15 6 -30 13 -33 10 -5 10 -7 0 -12 -7 -3 -13 -14 -13 -25 0
-13 -7 -19 -22 -19 -13 0 -36 -7 -52 -15 -22 -12 -32 -12 -43 -4 -7 7 -16 9
-19 6 -3 -3 8 -13 25 -22 21 -10 31 -12 31 -4 0 8 5 8 16 -1 13 -12 11 -15
-17 -27 -22 -9 -36 -10 -43 -3 -5 5 -27 10 -48 10 -31 0 -38 4 -38 19 0 11 -8
22 -17 25 -10 3 2 2 26 -1 29 -3 41 -2 37 5 -4 6 -13 9 -20 6 -8 -3 -17 -1
-21 5 -8 14 -72 14 -80 1 -11 -18 -35 -11 -35 10 0 12 7 20 18 20 14 0 13 4
-7 19 -16 12 -21 24 -17 37 5 16 -2 24 -36 41 l-43 22 45 2 c28 1 36 3 20 6
-40 7 -46 20 -19 42 l24 20 -35 1 c-22 0 -30 3 -22 8 7 5 -9 8 -38 8 -27 -1
-50 -4 -50 -7z m56 -61 c9 -15 -24 -38 -55 -38 -14 0 -38 -12 -53 -27 l-28
-27 0 25 c0 17 -3 20 -9 10 -11 -17 -45 0 -61 30 -11 19 -9 20 27 13 47 -9 47
-9 108 9 65 19 63 19 71 5z m-266 -28 c-8 -5 -19 -10 -25 -10 -5 0 -3 5 5 10
8 5 20 10 25 10 6 0 3 -5 -5 -10z m40 -40 c-20 -13 -53 -13 -45 0 3 6 18 10
33 10 21 0 24 -2 12 -10z m1955 -33 c7 -6 2 -8 -15 -3 -14 3 -40 6 -57 6 -18
0 -33 5 -33 11 0 13 90 1 105 -14z m-2010 3 c7 -12 -2 -12 -30 0 -19 8 -19 9
2 9 12 1 25 -3 28 -9z m2630 -10 c-3 -5 -17 -10 -31 -10 -14 0 -22 4 -19 10 3
6 17 10 31 10 14 0 22 -4 19 -10z m-3045 -4 c0 -14 -62 -66 -78 -66 -18 0 -19
3 -9 30 10 27 19 32 75 39 6 0 12 -1 12 -3z m1182 -41 c0 -5 -5 -11 -11 -13
-6 -2 -11 4 -11 13 0 9 5 15 11 13 6 -2 11 -8 11 -13z m258 -66 c0 -5 -29 -9
-65 -9 -67 0 -80 5 -45 18 25 9 110 3 110 -9z m931 -2 c-13 -13 -26 -3 -16 12
3 6 11 8 17 5 6 -4 6 -10 -1 -17z m-298 -4 c-7 -2 -13 -11 -13 -19 0 -11 -5
-12 -17 -6 -10 4 -29 7 -43 6 -50 -5 -54 10 -5 16 64 9 93 10 78 3z m-506 -19
c-3 -3 -12 -4 -19 -1 -8 3 -5 6 6 6 11 1 17 -2 13 -5z m-154 -11 c-7 -2 -21
-2 -30 0 -10 3 -4 5 12 5 17 0 24 -2 18 -5z m-1225 -15 c-6 -18 -28 -21 -28
-4 0 9 7 16 16 16 9 0 14 -5 12 -12z m285 5 c-7 -2 -19 -2 -25 0 -7 3 -2 5 12
5 14 0 19 -2 13 -5z m1174 1 c-3 -3 -12 -4 -19 -1 -8 3 -5 6 6 6 11 1 17 -2
13 -5z m-712 -28 c26 -19 13 -46 -22 -46 -20 0 -31 7 -39 25 -10 21 -9 24 10
28 11 2 24 5 27 6 3 0 14 -5 24 -13z m270 -5 c-3 -7 0 -20 6 -27 9 -12 4 -14
-27 -14 -36 1 -38 2 -20 15 26 20 12 31 -20 17 -14 -7 -22 -17 -18 -23 7 -11
-60 -8 -133 7 -38 7 -43 21 -10 28 52 12 66 13 145 12 65 -1 81 -4 77 -15z
m290 -11 c3 -5 -3 -10 -15 -10 -12 0 -18 5 -15 10 3 6 10 10 15 10 5 0 12 -4
15 -10z m-899 -10 c15 -6 24 -13 22 -16 -8 -8 -58 7 -58 17 0 11 3 11 36 -1z
m844 0 c0 -5 -8 -10 -17 -10 -15 0 -16 2 -3 10 19 12 20 12 20 0z m97 4 c-3
-3 -12 -4 -19 -1 -8 3 -5 6 6 6 11 1 17 -2 13 -5z m-1284 -18 c3 -8 -1 -20 -9
-27 -12 -10 -13 -9 -8 5 5 12 0 16 -20 16 -14 0 -26 5 -26 10 0 16 57 12 63
-4z m1117 4 c0 -15 -54 -34 -58 -21 -2 6 -13 11 -23 11 -11 0 -18 3 -15 8 7
11 96 14 96 2z m555 1 c19 -8 19 -8 -3 -15 -12 -4 -37 -4 -55 0 -32 7 -32 7
-7 15 32 9 41 9 65 0z m-242 -8 c3 -5 -10 -8 -29 -9 -19 0 -34 3 -34 8 0 10
57 11 63 1z m1110 0 c-7 -2 -21 -2 -30 0 -10 3 -4 5 12 5 17 0 24 -2 18 -5z
m-2443 -13 c0 -5 -7 -10 -15 -10 -8 0 -15 5 -15 10 0 6 7 10 15 10 8 0 15 -4
15 -10z m460 -10 c-14 -11 -41 -22 -60 -25 -19 -3 -47 -8 -62 -10 -15 -2 -30
-1 -32 4 -3 5 15 11 41 15 25 3 51 10 57 15 12 9 41 18 66 20 9 0 6 -7 -10
-19z m-645 -11 c-8 -12 -35 -12 -35 0 0 11 22 20 33 14 4 -2 5 -9 2 -14z
m1599 -6 c-11 -12 -18 -13 -27 -4 -8 8 -7 11 6 11 9 0 17 5 17 11 0 5 5 7 10
4 6 -4 4 -12 -6 -22z m-1701 10 c-13 -2 -33 -2 -45 0 -13 2 -3 4 22 4 25 0 35
-2 23 -4z m1322 -23 c3 -5 -1 -10 -9 -10 -8 0 -18 5 -21 10 -3 6 1 10 9 10 8
0 18 -4 21 -10z"/>
<path d="M2070 1760 c-12 -8 -11 -10 8 -10 12 0 22 5 22 10 0 13 -11 13 -30 0z"/>
<path d="M4988 1763 c6 -2 18 -2 25 0 6 3 1 5 -13 5 -14 0 -19 -2 -12 -5z"/>
<path d="M6425 1760 c-4 -7 13 -9 51 -5 76 7 82 15 11 15 -31 0 -59 -5 -62
-10z"/>
<path d="M5595 1750 c3 -5 10 -10 16 -10 5 0 9 5 9 10 0 6 -7 10 -16 10 -8 0
-12 -4 -9 -10z"/>
<path d="M6298 1753 c7 -3 16 -2 19 1 4 3 -2 6 -13 5 -11 0 -14 -3 -6 -6z"/>
<path d="M2635 1740 c-3 -5 -1 -10 4 -10 6 0 11 5 11 10 0 6 -2 10 -4 10 -3 0
-8 -4 -11 -10z"/>
<path d="M3035 1741 c-21 -4 -31 -13 -33 -29 -2 -12 0 -22 5 -21 16 1 67 35
71 47 4 13 3 13 -43 3z"/>
<path d="M3208 1743 c7 -3 16 -2 19 1 4 3 -2 6 -13 5 -11 0 -14 -3 -6 -6z"/>
<path d="M3745 1740 c-4 -6 5 -10 19 -10 14 0 26 5 26 10 0 6 -9 10 -19 10
-11 0 -23 -4 -26 -10z"/>
<path d="M4835 1730 c-4 -6 3 -10 14 -10 25 0 27 6 6 13 -8 4 -17 2 -20 -3z"/>
<path d="M4988 1733 c7 -3 16 -2 19 1 4 3 -2 6 -13 5 -11 0 -14 -3 -6 -6z"/>
<path d="M4360 1726 c0 -9 40 -13 46 -5 3 5 -6 9 -20 9 -14 0 -26 -2 -26 -4z"/>
<path d="M4658 1723 c12 -2 32 -2 45 0 12 2 2 4 -23 4 -25 0 -35 -2 -22 -4z"/>
<path d="M4770 1720 c0 -5 7 -7 15 -4 8 4 15 8 15 10 0 2 -7 4 -15 4 -8 0 -15
-4 -15 -10z"/>
<path d="M5768 1693 c7 -3 16 -2 19 1 4 3 -2 6 -13 5 -11 0 -14 -3 -6 -6z"/>
<path d="M5838 1693 c7 -3 16 -2 19 1 4 3 -2 6 -13 5 -11 0 -14 -3 -6 -6z"/>
<path d="M5453 1683 c9 -2 25 -2 35 0 9 3 1 5 -18 5 -19 0 -27 -2 -17 -5z"/>
<path d="M3028 1663 c7 -3 16 -2 19 1 4 3 -2 6 -13 5 -11 0 -14 -3 -6 -6z"/>
<path d="M5280 1660 c0 -6 7 -10 15 -10 8 0 15 2 15 4 0 2 -7 6 -15 10 -8 3
-15 1 -15 -4z"/>
<path d="M5678 1653 c6 -2 18 -2 25 0 6 3 1 5 -13 5 -14 0 -19 -2 -12 -5z"/>
<path d="M136 1523 c-11 -11 -6 -21 13 -26 20 -5 49 7 35 15 -21 11 -42 16
-48 11z"/>
<path d="M7430 1170 l-185 -6 243 -2 c156 -1 242 2 242 8 0 6 -24 9 -57 8 -32
-1 -141 -5 -243 -8z"/>
<path d="M6779 1156 c-2 -2 -292 -10 -644 -17 -352 -8 -613 -17 -580 -20 33
-3 49 -7 35 -8 -23 -2 -24 -3 -5 -11 19 -8 -66 -13 -190 -12 -22 0 -73 1 -114
1 -117 1 -76 12 65 17 70 2 130 6 132 9 10 9 -368 4 -2298 -35 -1158 -23
-1633 -31 -2335 -40 -407 -6 -764 -10 -792 -10 l-53 0 0 -515 0 -515 3865 0
3865 0 0 577 0 576 -182 -7 c-101 -3 -363 -11 -583 -16 -220 -6 -445 -13 -500
-15 -229 -11 -849 -16 -835 -7 8 5 148 12 310 16 162 3 520 11 795 17 275 6
502 12 504 15 5 5 -454 5 -460 0z m-1666 -63 c-13 -2 -35 -2 -50 0 -16 2 -5 4
22 4 28 0 40 -2 28 -4z m-1263 -97 c0 -11 -19 -15 -25 -6 -3 5 1 10 9 10 9 0
16 -2 16 -4z"/>
</g>
</svg>
