<?xml version="1.0" standalone="no"?>
<!DOCTYPE svg PUBLIC "-//W3C//DTD SVG 20010904//EN"
 "http://www.w3.org/TR/2001/REC-SVG-20010904/DTD/svg10.dtd">
<svg version="1.0" xmlns="http://www.w3.org/2000/svg"
 width="780.000000pt" height="1040.000000pt" viewBox="0 0 780.000000 1040.000000"
 preserveAspectRatio="xMidYMid meet">

<g transform="translate(0.000000,1040.000000) scale(0.100000,-0.100000)"
fill="#000000" stroke="none">
<path d="M0 9696 l0 -705 38 2 c20 1 114 0 209 -1 l171 -2 21 -34 c12 -18 21
-45 21 -59 0 -14 3 -27 8 -29 4 -1 22 -21 40 -43 35 -43 42 -71 16 -61 -9 3
-20 3 -26 0 -6 -4 -60 -8 -122 -10 -140 -4 -211 -11 -259 -23 -32 -8 -41 -6
-56 10 -18 20 -18 19 -25 -12 -3 -17 -6 -45 -6 -61 0 -26 -2 -29 -15 -18 -13
11 -15 6 -15 -33 0 -27 5 -47 13 -50 9 -4 9 -7 -1 -18 -9 -10 -12 -70 -12
-230 l0 -216 25 5 c32 6 75 -5 75 -19 0 -7 -13 -9 -32 -6 -37 5 -68 -7 -68
-27 0 -10 10 -13 38 -9 20 2 60 6 88 7 28 2 56 6 62 10 7 4 16 5 21 1 5 -3 12
-1 15 4 9 14 -6 20 -53 25 -94 8 -16 31 99 29 120 -2 170 -11 170 -31 0 -4
-28 -6 -62 -4 -35 2 -81 -1 -103 -6 -22 -6 -31 -10 -20 -11 11 -1 33 -12 49
-26 16 -14 34 -22 40 -17 15 10 99 7 121 -5 9 -6 15 -18 13 -29 -2 -14 -12
-19 -38 -20 -56 -1 -90 -14 -90 -35 0 -19 -20 -26 -34 -12 -3 4 -49 7 -101 8
l-94 1 -37 -44 c-30 -35 -41 -42 -60 -38 l-24 6 0 -246 0 -247 224 7 224 6 30
-30 c18 -18 41 -30 56 -30 14 0 26 -6 26 -12 0 -9 4 -8 10 2 20 31 73 -32 73
-86 0 -13 3 -25 8 -25 5 -1 14 -2 19 -3 6 0 10 -5 9 -11 0 -5 -7 -9 -15 -7 -8
2 -14 -2 -14 -8 0 -5 8 -10 18 -10 27 0 43 -15 36 -33 -5 -15 -8 -15 -29 -1
-13 9 -28 15 -32 15 -4 0 -26 4 -48 10 l-39 11 27 20 c18 13 27 29 27 48 0 28
-21 55 -33 43 -12 -12 -7 -36 10 -49 16 -12 13 -13 -23 -14 -45 0 -58 -7 -45
-24 13 -18 20 -56 10 -62 -5 -3 -9 1 -9 9 0 19 -32 47 -54 47 -9 0 -29 -9 -44
-19 -24 -18 -36 -19 -115 -11 -49 5 -91 11 -94 14 -4 3 -11 1 -18 -4 -16 -14
-105 -18 -137 -7 -61 20 -58 64 -58 -882 l0 -861 23 0 c13 0 28 5 35 12 10 10
18 7 38 -13 34 -35 24 -57 -29 -61 -45 -3 -53 -17 -18 -33 26 -12 28 -45 3
-45 -11 0 -26 -8 -35 -18 -15 -16 -17 -48 -17 -244 l0 -226 25 -6 c32 -8 32
-19 0 -40 l-25 -16 0 -175 c0 -175 0 -175 23 -175 162 -2 356 -11 412 -19 39
-6 94 -11 123 -11 45 0 52 -3 52 -20 0 -22 -20 -26 -52 -9 -43 23 -89 -26 -56
-59 9 -9 8 -12 -4 -12 -9 0 -19 -6 -22 -12 -5 -10 -7 -10 -12 0 -8 17 -80 16
-87 -2 -3 -8 2 -18 11 -22 12 -5 6 -9 -24 -15 -22 -4 -58 -19 -78 -33 -20 -14
-43 -23 -50 -20 -7 3 -25 -9 -39 -25 -14 -17 -31 -31 -37 -31 -7 0 -9 -8 -5
-20 5 -15 2 -20 -10 -20 -9 0 -19 9 -22 20 -3 12 -14 20 -25 20 -18 0 -20 -4
-14 -40 6 -38 5 -40 -19 -40 -15 0 -25 -6 -25 -15 0 -8 -9 -20 -20 -27 -19
-12 -20 -27 -20 -1006 0 -546 4 -991 8 -988 4 2 16 -2 26 -9 18 -14 18 -15 -8
-26 l-26 -12 0 -959 0 -958 800 0 800 0 -15 24 c-9 13 -18 48 -22 77 -3 30
-10 56 -14 60 -5 3 -12 27 -15 55 -4 27 -12 56 -19 64 -6 8 -18 35 -25 59 -8
24 -22 46 -31 48 -9 3 -16 12 -14 21 1 10 0 11 -2 5 -3 -7 -13 -13 -24 -13
-15 0 -19 -5 -15 -17 3 -10 2 -24 -3 -32 -13 -20 -34 -2 -28 25 4 21 0 24 -25
24 -25 0 -28 -3 -22 -24 3 -14 1 -27 -6 -31 -16 -10 -29 12 -23 36 5 17 0 19
-40 19 -27 0 -47 -5 -50 -12 -4 -10 -6 -10 -6 0 -1 6 -13 12 -27 12 -22 0 -25
2 -14 15 7 8 19 15 26 15 8 0 14 7 14 15 0 12 -7 14 -27 9 -16 -4 -36 -11 -45
-15 -9 -5 -33 -9 -52 -9 -25 0 -36 -4 -36 -15 0 -23 -15 -18 -49 16 -26 26
-37 30 -73 27 -39 -3 -43 -6 -46 -30 -3 -22 -9 -28 -28 -28 -24 0 -32 -14 -14
-25 16 -10 11 -25 -8 -25 -12 0 -23 -15 -35 -47 -21 -58 -21 -63 -2 -63 8 0
15 -9 15 -20 0 -11 -4 -20 -8 -20 -18 0 -72 73 -72 98 -1 25 -1 26 -12 7 -27
-46 -55 -57 -78 -30 -17 21 -27 19 -36 -7 -7 -21 -9 -19 -20 17 -7 23 -13 31
-13 19 -1 -11 -7 -26 -13 -33 -10 -11 -10 -14 0 -18 6 -3 12 -9 12 -14 0 -4
-6 -6 -13 -3 -9 3 -18 -9 -27 -36 -7 -22 -19 -45 -27 -51 -7 -6 -13 -18 -13
-25 0 -21 -18 -17 -25 6 -18 56 54 271 123 370 l24 35 -5 -30 c-3 -16 -8 -39
-11 -50 -4 -11 -2 -27 4 -35 8 -12 13 -13 30 -2 11 6 29 12 40 12 12 0 20 7
20 16 0 9 9 18 20 21 11 3 20 12 20 19 0 8 10 14 25 14 13 0 53 13 87 29 70
32 126 51 151 51 9 0 25 12 34 27 10 16 29 38 43 50 14 12 22 24 19 27 -3 4
-37 2 -75 -4 -100 -14 -124 -13 -124 6 0 11 -5 14 -16 10 -19 -7 -47 12 -38
25 3 5 -2 9 -10 9 -9 0 -16 -6 -16 -12 0 -7 -29 -28 -65 -46 -70 -35 -75 -36
-75 -23 0 5 17 15 37 21 21 7 47 20 58 30 11 10 45 33 76 52 30 18 68 43 85
56 16 13 74 55 129 94 55 39 122 90 148 114 52 47 110 70 149 61 13 -4 58 -31
100 -61 41 -29 84 -57 96 -60 19 -6 19 -4 11 31 -11 50 -11 240 0 248 5 3 14
-9 19 -27 6 -18 25 -78 42 -133 18 -55 35 -122 39 -149 l6 -50 176 -100 c96
-56 213 -119 259 -141 47 -22 114 -57 149 -77 36 -21 102 -53 148 -72 58 -25
93 -46 118 -75 20 -22 46 -43 58 -47 12 -4 54 -27 94 -51 44 -26 122 -59 199
-84 104 -33 134 -48 168 -79 39 -36 41 -42 40 -94 l0 -56 898 0 c494 0 898 4
898 8 0 4 -9 31 -21 61 -11 30 -18 63 -16 73 3 10 2 18 -3 18 -4 0 -10 25 -13
56 -5 44 -11 59 -32 76 -20 16 -24 23 -13 29 10 6 10 11 0 21 -6 6 -12 8 -12
4 0 -5 -7 -3 -15 4 -11 9 -15 9 -15 1 0 -7 -9 -9 -24 -5 -14 3 -41 1 -60 -6
-25 -8 -41 -8 -55 -1 -13 7 -20 8 -23 1 -2 -7 -17 -8 -43 -2 -37 8 -38 10 -15
16 23 6 65 13 83 15 4 1 7 5 7 11 0 5 -7 7 -15 4 -13 -5 -15 7 -15 73 0 48 -5
84 -12 91 -9 9 -8 12 5 12 13 0 17 9 17 40 l0 40 -47 -2 -48 -1 43 -4 c29 -3
42 -9 42 -20 0 -15 -6 -15 -135 -1 -11 1 -23 7 -27 12 -4 6 -8 1 -8 -11 0 -26
-18 -31 -26 -8 -7 17 -89 21 -114 5 -9 -5 -19 -5 -27 1 -7 6 -17 8 -23 4 -7
-4 -14 2 -17 14 -6 25 -11 26 -35 4 -16 -15 -22 -15 -41 -4 -15 10 -22 10 -25
2 -2 -6 -11 -11 -20 -11 -9 0 -31 -9 -49 -19 -17 -11 -40 -17 -50 -15 -13 4
-23 -3 -33 -20 -9 -18 -22 -26 -41 -26 -15 0 -31 -5 -34 -10 -4 -6 -10 -8 -15
-5 -5 3 -11 1 -15 -5 -3 -5 -15 -10 -25 -10 -10 0 -25 -8 -32 -17 -7 -10 -23
-27 -36 -37 -22 -19 -23 -19 -42 2 -11 12 -20 34 -20 49 -1 29 -18 58 -35 59
-25 1 -72 18 -88 32 -9 8 -20 13 -23 9 -3 -3 -26 1 -52 8 -25 8 -48 12 -51 10
-4 -2 -29 19 -56 46 -27 27 -54 49 -60 49 -6 0 -24 18 -41 40 -16 22 -36 40
-45 40 -15 0 -35 48 -55 133 -3 15 -10 27 -15 27 -5 0 -9 11 -9 24 0 13 -3 32
-6 41 -6 13 -9 14 -16 3 -6 -9 -7 -6 -3 9 4 15 0 26 -15 36 -13 9 -18 20 -14
31 3 9 1 16 -5 16 -6 0 -11 7 -11 15 0 9 -7 27 -17 41 -12 19 -22 24 -39 20
-15 -4 -32 2 -53 20 -19 16 -39 24 -51 21 -26 -7 -112 12 -131 29 -8 8 -25 14
-37 14 -19 0 -22 -6 -22 -40 0 -29 -4 -40 -15 -40 -8 0 -15 -7 -15 -15 0 -18
-21 -19 -76 -2 -25 7 -39 17 -37 25 3 6 0 12 -6 12 -6 0 -11 -6 -11 -14 0 -11
-20 -14 -99 -13 -74 2 -97 5 -94 15 8 18 -11 15 -34 -8 -21 -19 -49 -26 -146
-34 -26 -2 -53 -9 -60 -15 -10 -7 -22 -3 -46 18 -24 20 -44 28 -74 28 -23 1
-60 8 -82 16 -22 8 -49 18 -59 21 -17 6 -18 9 -5 21 8 7 30 15 49 16 19 2 40
7 47 12 7 5 20 6 31 3 31 -10 46 34 46 137 0 54 4 95 10 99 6 4 -1 8 -16 8
-16 0 -28 3 -28 6 0 10 30 31 68 50 37 19 40 35 12 74 -15 21 -17 30 -8 33 10
4 10 6 1 6 -7 1 -26 -12 -42 -28 -22 -21 -36 -28 -53 -24 -18 5 -21 3 -11 -7
9 -10 6 -20 -14 -46 -14 -19 -31 -34 -39 -34 -7 0 -16 -9 -19 -20 -3 -11 -23
-36 -43 -55 -31 -29 -34 -37 -22 -45 13 -8 13 -10 -2 -10 -10 0 -22 -9 -28
-20 -6 -11 -16 -20 -21 -20 -24 0 -89 -62 -89 -84 0 -23 -9 -27 -65 -27 -100
1 -108 28 -52 186 22 64 28 72 68 92 24 12 56 22 70 23 14 0 34 7 45 15 10 8
29 15 40 15 12 0 27 6 33 14 6 8 51 26 99 41 103 33 163 61 177 84 15 26 72
157 115 266 48 121 74 165 97 165 10 1 36 8 58 16 22 9 83 18 135 20 52 2 174
8 270 12 170 8 176 8 222 -15 26 -12 50 -27 53 -33 12 -19 84 -60 106 -60 18
0 20 -4 14 -31 -6 -26 -2 -37 18 -58 39 -39 179 -201 208 -241 15 -19 43 -51
64 -70 20 -19 53 -53 73 -75 53 -57 104 -107 132 -129 58 -45 146 -123 167
-148 13 -15 60 -42 104 -60 l81 -33 -5 -38 c-5 -35 -2 -40 31 -61 155 -97 294
-125 452 -92 36 8 106 19 155 26 172 24 321 -16 429 -115 43 -39 46 -45 46
-92 0 -28 -10 -79 -21 -114 -12 -35 -25 -95 -30 -134 -16 -131 -25 -180 -39
-205 -7 -14 -14 -36 -16 -50 -1 -22 -39 -175 -63 -255 -5 -16 -12 -56 -15 -87
l-6 -58 180 0 180 0 0 39 c0 32 5 43 29 60 40 28 44 27 37 -14 -4 -19 -5 -35
-3 -35 2 0 21 13 42 30 20 16 42 27 47 24 6 -4 8 -28 6 -55 l-5 -49 407 0 407
0 -4 28 c-3 15 -10 37 -16 50 -12 26 1 42 36 42 10 0 22 12 27 26 13 33 13 34
-5 34 -18 0 -19 14 -5 41 9 16 7 19 -10 19 -28 0 -28 50 0 57 11 3 20 9 20 14
0 15 40 10 46 -6 10 -24 -5 -65 -22 -65 -13 0 -14 -3 -4 -15 6 -8 9 -19 5 -25
-4 -6 4 -10 19 -10 14 0 27 4 30 9 8 12 53 2 67 -15 14 -16 29 -18 29 -4 0 6
10 24 22 41 30 39 32 86 6 95 -21 6 -48 -11 -48 -33 0 -7 -8 -16 -17 -20 -10
-3 -25 -12 -35 -20 -20 -18 -36 1 -18 22 16 19 26 125 12 125 -6 0 -14 -5 -17
-10 -10 -17 -25 -11 -18 8 11 30 25 44 33 32 5 -8 15 -1 29 19 12 17 31 31 41
31 12 0 17 5 14 14 -6 16 26 27 57 19 14 -4 18 -11 14 -22 -5 -12 -3 -13 6 -4
6 6 14 32 16 57 7 57 -13 69 -50 32 -15 -14 -33 -26 -42 -26 -24 0 -18 26 10
38 15 7 25 20 25 32 0 11 7 36 14 55 12 27 21 35 40 35 24 0 26 -3 26 -47 l0
-48 17 33 c15 31 15 34 -4 60 -34 46 -35 70 -5 90 15 9 36 25 46 34 11 10 26
18 33 18 18 0 53 -37 53 -55 0 -19 17 -19 50 0 19 11 21 14 7 15 -9 0 -23 12
-30 27 -6 16 -17 32 -24 36 -18 11 -16 54 2 61 8 3 15 11 15 18 0 8 12 18 28
24 18 7 31 23 40 48 8 21 11 40 9 43 -3 3 -22 0 -41 -7 -20 -6 -41 -8 -47 -5
-17 11 -1 55 32 86 30 28 63 30 52 3 -3 -8 1 -14 11 -14 8 0 18 11 22 25 8 34
38 34 32 0 -7 -34 11 -56 40 -49 21 6 26 18 24 54 0 8 5 18 11 23 7 5 2 7 -14
5 -15 -1 -33 5 -44 15 -10 10 -23 16 -29 14 -16 -6 -40 49 -30 71 4 9 8 24 8
32 1 17 56 27 56 11 0 -6 9 -11 20 -11 25 0 25 12 0 35 -11 10 -20 28 -20 39
0 12 -4 17 -8 11 -4 -5 -17 -16 -29 -22 -20 -12 -23 -11 -29 12 -4 17 -1 32
10 44 9 10 16 21 16 24 0 7 12 23 58 73 15 17 21 29 14 32 -7 2 -12 20 -12 41
0 30 7 44 38 74 21 20 43 37 50 37 7 0 12 5 12 10 0 17 23 11 48 -12 l24 -23
19 24 c26 32 23 86 -5 86 -26 0 -32 21 -8 27 20 6 25 35 10 55 -7 9 -3 14 15
18 14 4 42 28 64 55 21 26 50 56 66 65 38 23 75 101 87 184 5 38 15 81 21 95
10 21 9 29 -4 44 -25 28 -21 58 14 94 27 29 30 30 26 10 -3 -12 0 -28 7 -35 7
-7 15 -19 18 -27 3 -8 10 9 17 39 6 30 17 61 23 68 8 10 7 20 -3 40 -11 21
-11 27 -1 30 6 3 12 9 12 15 0 5 9 21 19 35 11 13 23 44 27 68 3 25 12 50 20
56 8 6 14 20 14 31 0 11 9 31 20 45 12 15 18 34 15 44 -8 23 15 59 37 59 22 0
24 -18 3 -26 -8 -4 -15 -15 -15 -26 0 -30 44 -20 48 11 5 35 31 70 64 87 17 9
27 21 25 28 -8 20 11 158 23 170 6 6 10 229 10 631 0 404 -4 615 -10 605 -5
-8 -10 -24 -10 -35 0 -11 -36 -128 -80 -260 -44 -132 -83 -251 -86 -264 -3
-13 -17 -56 -31 -95 -14 -39 -35 -99 -46 -133 -21 -64 -47 -87 -70 -64 -9 9
-6 13 11 17 25 7 28 17 8 33 -10 8 -16 9 -21 1 -8 -13 -25 -13 -25 0 0 6 7 10
15 10 11 0 15 11 15 40 0 35 3 40 23 40 15 0 26 9 35 30 20 44 12 55 -38 51
-28 -2 -46 2 -51 11 -7 10 -9 10 -9 1 0 -7 -7 -13 -15 -13 -8 0 -15 -7 -15
-16 0 -8 -4 -12 -10 -9 -15 9 -12 46 4 64 27 30 24 71 -5 71 -17 0 -20 -4 -15
-24 3 -14 2 -28 -4 -31 -5 -3 -10 1 -10 9 0 9 -7 16 -15 16 -22 0 -18 31 5 37
11 3 20 14 20 24 0 13 7 19 24 19 23 0 24 2 15 32 -5 18 -6 41 -3 51 5 16 3
17 -15 5 -12 -7 -21 -17 -21 -21 0 -5 -7 -2 -15 7 -17 16 -21 86 -5 86 6 0 10
-5 10 -11 0 -5 5 -7 11 -3 8 5 8 9 -1 14 -8 5 -12 46 -12 128 0 100 3 124 16
138 11 11 14 23 9 38 -11 30 -6 88 7 96 7 4 13 34 15 66 1 33 10 104 18 159
27 174 29 207 9 242 -22 40 -68 93 -80 93 -14 0 -22 26 -22 76 0 24 -4 44 -10
44 -12 0 -213 -102 -220 -112 -3 -4 -26 -16 -51 -27 -67 -30 -88 -90 -32 -91
18 0 89 -39 103 -55 15 -19 -22 -37 -122 -60 -79 -18 -105 -38 -45 -34 79 6
87 2 87 -38 0 -21 -5 -56 -10 -78 -6 -22 -15 -103 -20 -181 -6 -96 -25 -218
-59 -390 -28 -137 -55 -276 -61 -309 -17 -97 -66 -308 -104 -450 -12 -41 -46
-190 -86 -375 -31 -142 -62 -273 -74 -315 -33 -115 -48 -173 -57 -225 -9 -58
-28 -81 -58 -73 -14 3 -23 -4 -33 -24 -9 -18 -26 -32 -52 -41 -45 -15 -104 -7
-108 15 -2 12 -10 9 -32 -12 -25 -24 -28 -31 -23 -73 3 -25 10 -48 16 -50 6
-2 11 -9 11 -16 0 -7 6 -18 13 -24 6 -7 17 -34 22 -60 6 -25 13 -45 18 -44 4
1 20 -4 36 -12 16 -9 31 -12 34 -9 4 3 13 1 21 -6 11 -9 15 -9 19 1 13 33 5
-33 -11 -90 l-18 -63 -32 35 c-31 35 -67 47 -74 26 -5 -16 -77 -39 -120 -40
-21 0 -38 -4 -38 -10 0 -5 -5 -10 -10 -10 -6 0 -5 8 2 20 11 16 9 22 -9 40
-12 11 -31 20 -43 20 -13 0 -20 7 -20 20 0 24 -6 25 -26 6 -19 -19 -18 -26 4
-26 11 0 26 -8 35 -18 15 -17 15 -20 -8 -44 -21 -23 -23 -30 -12 -50 7 -13 19
-22 28 -20 9 2 19 -4 22 -13 5 -11 0 -15 -19 -15 -15 0 -23 -4 -19 -11 11 -17
-83 -1 -131 23 -28 13 -48 18 -54 12 -5 -5 -22 -45 -38 -89 -37 -99 -47 -83
-29 46 7 52 10 105 7 117 -6 27 -26 26 -23 0 2 -10 -3 -18 -10 -18 -9 0 -11
12 -9 40 2 22 8 40 13 40 5 0 9 6 9 13 0 8 9 22 20 32 23 21 26 35 8 35 -17 0
-58 -61 -58 -86 0 -11 -7 -29 -15 -40 -8 -10 -15 -29 -15 -41 0 -12 -5 -25
-11 -28 -6 -4 -9 -32 -8 -64 2 -41 -3 -65 -14 -82 -9 -13 -17 -31 -17 -41 0
-9 -4 -19 -9 -22 -5 -3 -12 -21 -15 -40 -11 -55 -22 -59 -179 -61 -127 -1
-148 1 -199 22 -32 13 -78 23 -102 23 -26 0 -51 6 -60 15 -8 8 -19 15 -25 15
-23 0 -48 24 -44 41 3 9 0 26 -7 38 -8 16 -17 20 -35 15 -15 -4 -25 -2 -25 5
0 6 -7 11 -15 11 -8 0 -15 5 -15 10 0 6 -7 13 -16 17 -18 6 -84 72 -84 83 0 4
-24 17 -52 31 -29 13 -55 27 -58 30 -3 4 -23 10 -45 13 -55 10 -88 39 -90 79
-2 53 -25 107 -44 107 -10 0 -25 8 -34 18 -21 23 -22 62 -2 62 30 0 14 36 -40
86 -30 29 -55 55 -55 59 0 4 -29 34 -65 67 -36 33 -65 67 -65 75 0 8 -4 11
-10 8 -5 -3 -13 7 -16 22 -4 15 -18 39 -31 53 -13 14 -26 33 -29 43 -3 9 -11
17 -19 17 -8 0 -15 12 -17 28 -4 34 -21 32 -30 -5 -4 -15 -11 -44 -16 -63 -5
-20 -4 -51 1 -72 5 -21 6 -58 3 -83 -7 -43 -9 -45 -40 -45 -30 0 -33 3 -29 24
3 13 0 27 -6 30 -6 4 -11 19 -11 34 -1 22 -9 31 -49 50 -26 12 -52 22 -57 22
-5 0 -17 -19 -28 -43 -10 -23 -20 -36 -23 -30 -3 10 -10 10 -24 2 -11 -5 -28
-8 -37 -5 -10 4 -27 -1 -38 -9 -22 -16 -64 -20 -64 -5 0 6 -10 10 -23 10 -12
0 -32 7 -44 15 -18 13 -22 13 -33 0 -7 -8 -17 -12 -24 -8 -7 5 -7 2 1 -8 15
-18 -5 -33 -57 -43 -19 -4 -43 -10 -52 -12 -13 -4 -18 0 -18 13 0 11 -4 23 -9
29 -16 15 -83 226 -78 244 2 9 -4 28 -14 41 -10 13 -19 29 -19 35 0 6 -9 21
-20 34 -11 13 -20 31 -20 42 0 10 -5 18 -11 18 -18 0 -38 32 -39 62 0 21 11
33 56 63 31 21 75 44 97 53 44 16 117 78 117 98 0 6 28 42 61 80 53 60 90 121
112 186 3 10 32 31 64 47 32 16 95 52 141 79 69 42 97 53 178 67 53 10 92 20
87 24 -5 3 -12 14 -16 24 -5 12 -1 17 12 17 25 0 17 36 -10 43 -11 3 -19 14
-19 25 0 11 -7 32 -15 48 -23 45 -15 92 90 529 13 55 27 116 30 135 4 19 12
55 20 80 7 25 25 95 39 155 14 61 38 166 54 235 16 69 37 161 47 205 22 101
39 160 59 207 24 56 22 70 -10 58 -33 -13 -91 -13 -151 1 -41 10 -58 8 -120
-11 -40 -12 -71 -25 -68 -30 2 -4 -6 -5 -18 -3 -27 5 -67 -29 -67 -57 0 -14
-7 -20 -23 -20 -12 0 -28 -9 -35 -20 -7 -11 -21 -20 -33 -20 -14 0 -19 -5 -17
-17 2 -10 9 -19 16 -19 6 -1 17 -2 22 -3 6 0 10 -15 10 -32 0 -16 -4 -28 -9
-25 -16 10 -41 -5 -39 -23 2 -10 -5 -17 -19 -19 -12 -2 -24 -11 -26 -20 -3
-10 -5 -5 -6 11 -1 21 4 27 20 27 12 0 17 4 14 11 -4 5 -19 8 -34 4 -21 -4
-32 0 -49 20 -29 33 -47 27 -48 -16 -1 -58 -4 -69 -18 -69 -7 0 -16 10 -19 22
-4 12 -9 19 -13 15 -4 -4 -14 -1 -22 6 -12 9 -16 9 -19 0 -7 -20 -20 -15 -28
10 -6 18 -8 15 -16 -23 -12 -59 -6 -73 43 -110 26 -19 36 -30 25 -30 -9 0 -17
-7 -17 -16 0 -11 6 -15 20 -11 30 8 33 -7 9 -48 -24 -40 -37 -36 -42 14 -2 18
-11 38 -21 43 -19 10 -19 9 -35 -76 -11 -57 -8 -81 9 -71 4 3 11 -2 14 -11 9
-24 7 -31 -5 -14 -9 12 -10 11 -6 -7 3 -13 1 -26 -4 -29 -5 -3 -7 -9 -4 -15 7
-10 -20 -225 -37 -304 -6 -27 -10 -102 -10 -166 1 -93 -1 -119 -13 -129 -13
-11 -13 -14 1 -25 13 -9 15 -21 10 -51 -3 -21 -6 -59 -6 -84 0 -49 -6 -63 -32
-73 -9 -3 -22 -16 -28 -28 -12 -21 -11 -22 16 -16 27 5 29 3 31 -26 3 -35 -11
-57 -37 -57 -10 0 -25 -15 -34 -35 -9 -19 -21 -35 -26 -35 -15 0 -23 21 -11
33 14 14 14 30 1 22 -6 -4 -17 -1 -25 5 -12 10 -12 15 2 36 8 13 13 33 10 44
-3 11 0 20 5 20 7 0 7 4 0 13 -15 18 -4 109 16 127 21 19 22 55 2 56 -8 0 -24
5 -34 9 -14 6 -25 1 -45 -23 -14 -16 -45 -40 -68 -51 -49 -24 -62 -44 -61 -90
1 -39 13 -47 44 -30 17 9 22 18 18 31 -4 14 3 22 28 32 28 13 33 13 36 0 2 -8
8 -14 13 -14 26 0 2 -20 -61 -50 -62 -30 -70 -37 -70 -62 0 -32 3 -33 60 -13
24 8 44 14 46 13 14 -15 0 -41 -43 -84 -55 -55 -68 -84 -61 -136 3 -18 0 -40
-6 -50 -13 -22 -1 -35 19 -18 8 7 15 8 15 3 0 -19 -85 -68 -119 -69 -18 -1
-36 -5 -40 -10 -3 -5 -13 -9 -21 -9 -8 0 -19 -10 -25 -22 -9 -22 -47 -35 -72
-26 -24 9 -9 46 27 66 19 10 39 25 43 33 11 19 41 18 34 0 -5 -11 0 -13 25 -5
17 4 38 15 48 24 9 8 24 15 33 15 25 0 20 18 -5 22 -20 3 -24 11 -31 63 -4 33
-5 68 -3 78 8 32 -28 15 -43 -20 -12 -27 -34 -44 -61 -48 -3 0 -9 -3 -15 -6
-5 -4 -23 -9 -40 -12 -16 -4 -25 -4 -18 -1 8 4 5 12 -9 26 -18 18 -20 28 -14
77 4 31 7 62 6 69 -3 28 -2 77 5 292 l6 225 -33 36 c-18 19 -58 53 -88 74 -30
22 -61 46 -68 55 -11 12 -12 -13 -7 -145 3 -88 11 -189 18 -225 13 -73 13 -75
5 -405 -3 -132 -9 -248 -13 -258 -6 -13 -15 -17 -32 -14 -16 3 -27 -1 -33 -13
-5 -10 -7 -19 -5 -22 8 -8 -29 -36 -50 -38 -37 -4 -41 0 -42 35 -1 35 13 56
26 38 3 -6 17 -13 31 -16 21 -5 30 1 53 34 48 69 31 103 -38 75 -21 -9 -45
-16 -55 -16 -10 0 -23 -7 -30 -15 -10 -12 -32 -15 -96 -14 -92 2 -85 -4 -88
74 -1 20 -7 31 -19 33 -24 5 -49 -17 -42 -36 3 -8 0 -21 -7 -30 -11 -13 -10
-14 10 -8 25 8 32 -11 7 -20 -20 -8 -19 -24 1 -24 11 0 14 -5 10 -16 -3 -9 -6
-22 -6 -30 0 -8 -6 -11 -15 -8 -8 4 -15 2 -15 -4 0 -15 -29 -23 -36 -9 -4 7
-4 9 1 5 15 -14 35 14 35 46 0 37 -31 76 -61 76 -23 0 -154 -64 -164 -81 -4
-6 -2 -16 4 -22 6 -6 11 -21 11 -34 0 -12 8 -38 17 -58 l17 -36 -29 -25 c-46
-37 -85 -56 -109 -52 -12 3 -27 -1 -34 -8 -15 -16 -16 -54 -2 -54 6 0 10 -9
10 -20 0 -31 29 -70 47 -63 12 5 14 15 9 46 -6 36 -5 39 14 34 11 -3 18 -2 15
3 -3 4 2 11 10 14 9 3 18 -1 21 -9 5 -11 14 -9 48 10 47 26 75 21 58 -11 -5
-11 -7 -25 -4 -33 3 -10 -2 -13 -22 -9 -37 7 -49 -11 -37 -62 10 -44 6 -70
-10 -70 -5 0 -14 -11 -19 -25 -10 -25 -64 -65 -88 -65 -8 0 -23 12 -35 26 -46
56 -70 74 -98 74 -17 0 -29 5 -29 13 0 16 24 85 33 93 15 15 6 32 -23 44 -16
7 -30 18 -30 24 -1 18 -46 46 -82 50 -18 2 -34 8 -34 15 -1 6 -2 22 -3 35 0
14 -7 31 -14 38 -10 9 -16 56 -21 143 -4 72 -12 150 -17 175 -15 71 -15 74 5
78 22 5 156 141 156 158 0 13 -23 24 -51 24 -10 0 -19 6 -19 13 0 7 -9 30 -19
51 -11 21 -27 58 -35 84 -18 53 -63 122 -80 122 -13 0 -43 32 -76 80 -13 19
-38 52 -56 73 -17 21 -34 51 -37 67 -4 16 -17 34 -29 41 -13 7 -47 32 -76 56
-30 23 -58 43 -63 43 -5 0 -9 6 -9 14 0 19 -52 38 -84 30 -15 -3 -32 -1 -41 6
-13 10 -105 8 -124 -4 -4 -3 -13 -1 -20 4 -11 6 -11 12 3 31 24 34 20 38 -26
27 -29 -6 -44 -6 -46 1 -4 13 -39 14 -47 2 -3 -5 0 -13 6 -16 15 -10 -25 -37
-44 -30 -7 3 -20 -1 -27 -10 -11 -13 -5 -15 48 -15 34 0 64 -4 67 -10 4 -6
-12 -10 -42 -10 -30 0 -61 -8 -83 -20 -19 -11 -43 -23 -52 -26 -10 -4 -18 -10
-18 -15 0 -5 -19 -8 -42 -6 -37 2 -44 6 -46 25 -2 13 4 32 13 42 15 17 14 18
-13 28 -31 11 -82 5 -82 -9 0 -5 -9 -9 -20 -9 -11 0 -20 4 -20 9 0 12 58 71
70 71 15 0 12 47 -2 53 -10 4 -9 8 2 16 12 8 5 11 -27 11 -36 0 -43 3 -43 20
0 19 55 79 73 80 4 0 7 -17 7 -37 1 -32 3 -36 13 -22 13 17 53 26 160 35 48 5
67 10 67 20 0 10 -13 14 -41 14 -30 0 -40 4 -36 13 4 10 -2 13 -19 9 -13 -2
-27 -8 -30 -13 -6 -11 -114 -12 -114 -1 1 13 24 38 42 45 10 3 18 16 18 27 0
13 7 20 20 20 15 0 20 7 20 25 0 25 -15 35 -22 14 -5 -14 -74 5 -80 21 -2 6
-28 6 -66 -1 -65 -10 -101 -5 -114 15 -15 23 5 102 38 153 19 28 34 61 34 72
0 12 5 21 10 21 6 0 10 7 10 15 0 9 7 18 15 21 8 4 22 21 31 39 14 31 18 33
87 39 81 7 193 21 342 42 124 17 191 20 233 10 32 -8 32 -8 32 32 0 22 -6 45
-14 51 -17 14 -26 58 -19 93 4 23 9 27 29 22 20 -5 24 -2 24 18 0 40 18 49 57
30 34 -16 35 -18 30 -64 l-6 -48 51 -15 c61 -18 58 -18 58 -4 0 5 -4 8 -9 5
-5 -3 -11 3 -14 14 -4 16 2 20 50 26 39 5 57 3 63 -6 4 -6 10 -11 14 -11 22 3
27 -2 24 -21 -3 -20 1 -23 26 -20 23 3 28 1 23 -12 -4 -9 -2 -16 3 -16 6 0 10
-8 11 -17 1 -12 4 -9 9 7 4 16 3 29 -5 35 -7 6 -18 27 -25 47 -13 36 -15 37
-33 21 -18 -17 -19 -17 -28 0 -6 9 -14 17 -20 17 -11 0 -107 42 -194 85 -60
30 -60 30 -57 70 2 22 7 51 13 66 6 15 6 35 1 49 -6 16 -4 33 5 52 19 38 29
42 66 27 47 -18 57 -34 45 -73 -13 -40 4 -81 42 -102 60 -33 123 -55 140 -49
11 3 30 0 42 -7 13 -7 25 -13 28 -13 18 -4 60 -30 60 -37 0 -4 5 -8 10 -8 6 0
10 9 10 20 0 11 5 20 10 20 6 0 10 -6 10 -14 0 -8 9 -21 20 -29 23 -16 16 -27
-17 -27 -13 0 -23 -4 -23 -10 0 -5 5 -10 11 -10 6 0 24 -9 40 -21 30 -21 30
-25 11 -79 -5 -12 -3 -13 10 -2 28 23 30 -14 2 -48 -14 -16 -23 -34 -19 -40 3
-5 1 -10 -4 -10 -6 0 -3 -9 6 -20 21 -25 35 -26 32 -2 -3 21 10 52 22 52 5 0
9 -7 9 -15 0 -8 5 -15 10 -15 6 0 10 -9 10 -21 0 -11 -4 -18 -9 -14 -15 8 -23
-29 -12 -56 10 -24 10 -23 10 6 1 33 17 24 24 -15 4 -21 4 -20 6 8 0 17 5 32
9 32 5 0 14 29 21 65 12 60 12 67 -7 97 -11 18 -32 71 -47 118 -15 47 -35 103
-45 125 -42 94 -58 133 -73 180 -41 127 -76 245 -88 292 -8 35 -19 55 -31 59
-10 3 -25 19 -34 35 -12 25 -13 36 -3 63 8 23 9 38 2 51 -9 16 -12 13 -23 -19
-14 -43 -46 -76 -72 -76 -38 0 -76 29 -88 66 -22 64 0 212 35 236 17 13 21 9
40 -32 15 -33 16 -45 7 -66 -14 -30 -16 -64 -3 -64 8 0 19 23 35 73 10 30 39
15 64 -31 13 -24 26 -42 27 -40 2 2 -1 23 -6 48 -18 86 -22 130 -11 142 7 9 5
23 -7 48 -10 19 -45 88 -79 154 -33 65 -66 141 -73 170 -12 53 -33 100 -54
126 -39 47 -69 214 -51 290 4 21 -2 31 -37 60 -24 19 -60 56 -81 83 -41 51
-62 59 -75 25 -4 -12 -10 -17 -13 -12 -5 8 3 61 34 232 5 30 18 61 28 69 9 8
15 23 13 33 -4 14 2 19 24 22 26 3 28 6 25 38 -5 45 -25 68 -46 51 -19 -16
-32 -8 -51 29 -14 27 -14 30 5 40 15 8 19 17 15 31 -4 11 -2 19 4 19 6 0 11
-7 11 -15 0 -11 12 -15 46 -15 l46 0 -24 29 c-13 17 -28 30 -34 30 -7 1 -14
10 -17 21 -3 12 -14 20 -27 20 -13 0 -20 5 -18 13 7 18 57 15 83 -5 33 -25 78
-23 113 7 36 30 62 32 62 6 0 -24 -16 -36 -24 -19 -3 9 -12 4 -26 -14 -14 -18
-31 -28 -47 -28 -22 0 -24 -2 -12 -16 7 -9 14 -37 14 -62 1 -26 0 -41 -2 -34
-3 7 -14 17 -24 23 -17 9 -20 7 -17 -8 2 -15 -3 -18 -34 -17 -21 1 -38 -3 -38
-7 0 -5 19 -9 43 -9 66 0 87 -9 87 -37 0 -13 11 -36 24 -50 19 -20 31 -25 55
-21 28 4 32 2 29 -16 -2 -16 -10 -21 -33 -21 -21 0 -31 -5 -33 -19 -2 -10 0
-21 6 -25 5 -3 6 -15 1 -26 -7 -19 -8 -19 -8 3 -1 13 -7 22 -16 22 -8 0 -14 3
-13 8 2 4 -5 18 -15 32 -17 23 -19 24 -31 8 -10 -14 -12 -53 -6 -139 0 -4 12
-10 26 -13 27 -7 163 -142 164 -162 0 -16 -59 -39 -69 -28 -4 5 -13 35 -20 67
-7 31 -17 57 -23 57 -6 0 -8 -12 -3 -32 4 -18 7 -54 6 -80 0 -29 7 -62 19 -85
10 -21 21 -49 24 -63 21 -112 28 -130 49 -130 12 0 36 -12 52 -26 29 -26 29
-26 5 -19 -14 4 -31 12 -37 17 -16 13 -133 27 -133 16 0 -18 48 -38 77 -32 20
4 45 -1 76 -15 25 -12 53 -21 61 -21 9 0 16 -4 16 -9 0 -14 70 -38 96 -33 15
3 24 11 24 22 0 13 10 19 37 22 47 6 141 -9 174 -27 30 -17 203 -35 339 -37
89 0 131 6 222 33 32 10 40 9 62 -9 26 -20 27 -20 87 -2 34 11 64 21 67 25 3
3 -6 18 -21 32 -21 21 -29 25 -39 15 -17 -17 -38 -15 -38 3 0 8 -4 15 -10 15
-5 0 -33 11 -62 24 -54 25 -167 73 -225 95 -17 7 -42 10 -54 6 -22 -7 -22 -7
4 24 15 18 27 39 27 47 0 9 8 14 18 13 9 -1 24 1 32 4 44 18 89 25 87 14 -1
-7 19 -14 53 -18 30 -3 68 -11 83 -17 32 -14 96 -16 114 -4 10 6 9 13 -3 30
-8 12 -19 20 -24 17 -11 -7 -70 22 -70 33 0 4 -22 20 -49 36 -49 29 -85 76
-58 76 7 0 18 -5 25 -12 9 -9 12 -9 12 0 0 7 -11 17 -25 22 -24 9 -36 40 -15
40 5 0 12 16 16 36 4 20 9 32 13 27 23 -31 129 -45 172 -23 35 19 22 38 -28
43 -53 5 -164 32 -203 50 -14 6 -36 24 -51 40 l-25 29 -32 -27 c-35 -30 -122
-60 -131 -46 -6 8 -43 23 -71 27 -8 1 -30 8 -48 15 -28 12 -34 12 -42 -1 -17
-27 -11 -40 19 -40 16 0 36 -6 43 -12 41 -39 48 -42 68 -23 24 21 40 12 22
-13 -7 -9 -16 -27 -22 -39 -6 -15 -18 -23 -34 -23 -28 0 -74 -18 -94 -37 -36
-34 -47 -7 -47 109 0 104 -17 152 -29 81 -3 -21 -10 -44 -15 -52 -11 -18 -31
-5 -31 20 0 10 -4 19 -9 19 -5 0 -11 9 -14 20 -7 26 -52 27 -68 1 -7 -11 -20
-16 -30 -14 -12 3 -30 -7 -49 -26 -36 -35 -37 -35 -125 -19 l-65 13 0 36 c0
26 6 41 23 53 22 16 21 16 -15 10 -31 -5 -39 -3 -44 12 -13 34 -25 45 -40 33
-8 -6 -30 -8 -58 -4 -42 7 -46 10 -46 36 0 37 15 44 40 19 l21 -21 17 20 c15
18 33 21 172 26 l155 6 -50 -21 c-53 -23 -78 -40 -71 -47 3 -3 78 -11 168 -18
90 -8 183 -18 208 -24 25 -6 85 -10 133 -11 68 0 89 -3 93 -15 7 -17 50 -20
59 -5 4 6 14 9 23 6 10 -3 34 -6 55 -8 21 -1 40 -5 43 -9 2 -4 37 -15 78 -24
62 -15 80 -16 105 -5 30 12 30 12 25 78 -5 63 -4 70 28 117 l33 50 115 13 c63
7 138 14 165 15 40 2 65 12 119 46 l69 43 86 -17 c121 -23 148 -30 213 -54 46
-17 80 -21 170 -20 111 0 176 -7 345 -36 138 -24 135 -25 156 48 10 34 30 95
44 135 l26 72 51 0 c50 0 52 1 64 35 13 34 14 34 79 37 63 3 67 4 74 31 8 28
1 32 -43 29 -14 -1 -18 6 -18 38 0 35 5 43 32 60 41 25 52 22 56 -18 3 -31 22
-46 22 -18 0 8 4 17 9 20 5 4 7 -3 4 -14 -6 -23 15 -28 23 -5 4 8 10 12 15 9
6 -3 32 0 59 7 58 15 75 5 41 -22 -21 -18 -22 -19 -4 -19 29 0 83 20 83 31 0
16 73 -2 113 -27 25 -17 40 -35 44 -54 7 -39 18 -38 38 4 l16 34 37 -15 c33
-14 37 -14 49 3 17 23 16 34 -1 34 -7 0 -21 11 -30 25 -9 14 -25 25 -36 25
-13 0 -20 7 -20 19 0 20 36 71 51 71 5 0 45 20 90 45 62 34 85 43 95 34 8 -6
26 -8 44 -4 17 4 36 2 43 -3 7 -5 28 -13 47 -17 19 -3 43 -9 53 -11 18 -6 50
-60 61 -106 5 -21 16 -30 47 -40 38 -11 42 -10 58 11 13 16 24 21 45 17 37 -7
56 2 67 31 8 21 14 24 36 18 43 -10 12 19 -41 39 -30 12 -52 29 -70 56 -32 48
-33 60 -5 60 18 0 19 3 9 15 -7 8 -10 21 -7 29 4 10 -4 15 -24 18 -17 3 -32 2
-34 -2 -2 -3 1 -26 6 -50 10 -44 7 -70 -10 -70 -5 0 -12 29 -16 64 -7 66 -6
66 -80 119 -23 18 -11 38 35 57 37 15 60 0 53 -33 -4 -16 1 -13 20 13 23 32
64 60 110 74 26 8 22 43 -5 42 -14 -1 -23 5 -23 14 0 29 161 16 196 -16 17
-15 19 -15 19 -1 0 20 37 32 55 17 8 -7 26 -9 43 -5 27 6 29 4 28 -24 -1 -22
-6 -31 -18 -31 -10 0 -18 5 -18 10 0 6 -4 10 -9 10 -15 0 -81 -63 -81 -78 0
-7 -14 -27 -30 -44 -17 -16 -27 -35 -24 -40 5 -7 -1 -9 -14 -6 -28 8 -28 -7
-1 -26 l22 -15 -24 -5 c-13 -3 -44 -10 -69 -15 -44 -9 -44 -9 -10 -10 19 -1
55 -7 79 -14 38 -12 48 -21 74 -70 l30 -56 -24 -20 c-13 -11 -29 -20 -35 -21
-11 0 -44 -32 -44 -42 0 -9 39 -18 110 -28 164 -21 357 -52 382 -60 18 -6 32
-4 44 4 19 14 12 36 -12 36 -10 0 -13 7 -8 26 5 20 2 26 -15 31 -18 5 -21 11
-16 33 10 44 -11 44 -24 1 -10 -34 -41 -65 -41 -42 0 5 -24 12 -53 15 -62 8
-72 14 -81 44 -4 12 -14 22 -22 22 -8 0 -14 10 -14 25 0 28 12 32 30 10 10
-13 15 -12 31 8 17 20 20 20 32 6 16 -21 54 -33 62 -20 8 14 -24 47 -55 56
-31 9 -40 22 -40 56 0 17 8 30 25 39 22 12 32 11 83 -10 113 -47 143 -81 178
-200 9 -30 22 -65 31 -78 20 -32 11 -50 -31 -58 -35 -6 -49 -22 -23 -26 50 -6
101 -20 140 -39 l39 -18 16 31 c33 58 54 80 74 74 34 -8 47 4 62 57 17 60 70
137 93 137 9 0 41 -12 71 -26 44 -21 65 -25 99 -20 24 3 43 2 43 -1 0 -4 -7
-27 -16 -50 -9 -24 -14 -46 -10 -50 10 -10 118 46 111 57 -3 6 -13 10 -21 10
-9 0 -14 11 -14 35 0 29 -5 36 -32 48 -90 40 -130 49 -179 43 -40 -5 -49 -4
-49 8 0 9 -9 20 -20 26 -35 19 -44 50 -42 147 2 83 1 93 -18 103 -23 12 -25
32 -8 59 9 15 9 28 1 55 -8 26 -8 36 0 36 20 0 -7 16 -50 30 -34 10 -42 18
-47 43 -4 19 -1 39 9 53 8 13 15 33 15 45 0 18 -5 20 -26 16 -14 -2 -27 0 -29
7 -12 43 -39 108 -49 119 -23 23 -36 55 -36 92 0 20 -4 45 -10 55 -13 23 -4
27 101 36 120 10 132 15 124 61 -3 20 -17 57 -31 83 -14 25 -26 59 -26 75 -1
17 -19 68 -40 114 -45 94 -43 106 24 102 24 -1 52 -3 63 -3 46 -3 82 3 99 15
12 9 29 60 52 158 19 79 37 152 40 162 5 16 -61 17 -1280 17 -1071 0 -1286 -2
-1286 -13 0 -8 -9 -22 -20 -32 -11 -10 -18 -21 -15 -25 2 -4 -3 -16 -11 -26
-15 -18 -15 -18 -11 3 3 13 1 25 -3 28 -5 3 3 18 17 33 l25 27 -107 3 c-65 2
-112 -1 -120 -8 -7 -6 -19 -8 -26 -6 -8 2 -33 7 -56 10 -43 6 -43 6 -44 -26
-1 -18 -3 -25 -6 -15 -5 19 -25 24 -21 5 1 -7 -2 -23 -6 -35 -6 -20 -14 -23
-64 -23 -31 0 -64 5 -72 10 -10 6 -11 10 -2 10 19 0 14 26 -10 55 l-23 25
-790 -2 c-647 -3 -785 -5 -761 -16 22 -10 27 -17 23 -35 -3 -12 -11 -50 -18
-85 -13 -67 -34 -92 -76 -92 -25 0 -30 19 -13 50 7 14 6 23 -5 34 -19 19 -45
90 -45 123 l0 24 -240 -1 c-142 -1 -240 -5 -240 -11 0 -5 4 -9 10 -9 5 0 9
-10 9 -22 -1 -13 2 -31 6 -40 11 -27 -22 -23 -47 5 -18 20 -19 20 -13 2 5 -15
-3 -11 -29 14 -40 39 -42 38 -21 -12 17 -42 18 -47 6 -47 -8 0 -18 22 -26 59
-12 52 -17 61 -30 61 -18 0 -18 -2 -1 -45 13 -31 13 -35 0 -35 -7 0 -14 7 -14
15 0 8 -5 25 -12 39 -11 26 -13 26 -122 25 -83 0 -106 -3 -92 -11 32 -18 56
-42 56 -55 0 -10 -4 -11 -19 -1 -15 9 -23 9 -34 0 -24 -20 -65 1 -69 35 -3 26
-6 28 -55 31 l-53 3 10 -27 c6 -15 9 -29 6 -31 -7 -8 -46 21 -52 39 -5 17 -42
18 -565 18 l-559 0 0 -704z m1784 682 c12 -38 14 -78 5 -78 -5 0 -11 6 -13 13
-2 6 -8 27 -14 45 -8 26 -8 32 4 32 8 0 16 -6 18 -12z m84 0 c7 -1 10 -8 7
-15 -3 -8 -5 -22 -5 -31 -1 -12 -5 -10 -15 8 -7 14 -19 25 -26 25 -7 0 -14 6
-17 14 -4 11 1 12 19 7 13 -4 30 -8 37 -8z m4611 -40 c0 7 6 10 11 7 6 -4 8
-10 5 -15 -3 -6 11 -10 32 -9 21 0 47 -1 58 -1 11 -1 46 2 78 6 l57 7 0 -34
c0 -19 -7 -61 -15 -94 -8 -33 -14 -75 -15 -93 0 -40 -24 -52 -48 -24 -9 11
-26 30 -37 43 -11 13 -47 38 -80 54 -57 29 -60 32 -67 75 -3 25 -3 63 0 85 6
40 6 40 13 10 4 -16 7 -24 8 -17z m-6420 10 c16 -43 23 -88 13 -88 -11 0 -42
71 -42 95 0 23 19 18 29 -7z m1941 -8 c0 -11 -2 -20 -4 -20 -2 0 -6 9 -9 20
-3 11 -1 20 4 20 5 0 9 -9 9 -20z m432 -25 c-11 -38 -45 -42 -50 -6 -3 18 0
22 11 18 10 -4 17 2 21 16 3 15 9 18 15 12 6 -6 7 -22 3 -40z m-598 10 c3 -8
1 -15 -4 -15 -6 0 -10 7 -10 15 0 8 2 15 4 15 2 0 6 -7 10 -15z m-574 -5 c0
-13 -11 -13 -30 0 -12 8 -11 10 8 10 12 0 22 -4 22 -10z m3270 2 c0 -4 -5 -13
-12 -20 -9 -9 -7 -12 10 -12 26 0 27 -8 7 -37 -14 -20 -14 -23 1 -31 11 -6 17
-30 21 -88 5 -84 15 -114 38 -114 18 0 19 -23 4 -52 -6 -11 -12 -33 -14 -50
-4 -28 -2 -29 20 -24 26 7 31 0 16 -22 -9 -15 -68 -14 -88 1 -15 11 -70 -1
-57 -12 5 -5 25 -14 46 -20 33 -11 67 -37 93 -73 6 -7 29 -39 53 -70 28 -38
52 -60 70 -64 15 -3 34 -8 42 -12 8 -3 25 -7 38 -8 21 -3 20 0 -13 43 -19 25
-35 49 -35 52 0 4 -22 24 -50 45 -27 21 -50 41 -50 45 1 3 16 18 35 32 32 24
38 26 70 15 19 -7 45 -23 59 -37 44 -44 57 -51 82 -46 13 2 27 0 30 -4 3 -5
20 -15 38 -23 58 -24 116 -103 116 -159 0 -11 11 -30 25 -43 14 -13 25 -33 25
-45 0 -12 7 -42 17 -68 14 -41 14 -50 2 -76 -12 -24 -21 -30 -49 -31 -59 -1
-63 -3 -55 -21 5 -10 9 -29 10 -43 2 -31 30 -39 38 -10 3 11 13 20 22 20 12 0
15 -5 9 -22 -4 -13 -10 -25 -14 -28 -4 -3 -11 -19 -14 -37 -6 -28 -12 -32 -49
-38 -23 -4 -50 -12 -60 -17 -30 -15 -39 1 -20 35 10 18 21 34 25 37 16 13 1
46 -27 59 -17 7 -25 15 -17 18 6 3 12 12 12 20 0 10 -6 13 -16 9 -9 -3 -21 -6
-28 -6 -17 0 -17 -36 0 -51 13 -10 12 -14 -2 -30 -24 -27 -29 -24 -32 23 -1
23 -5 44 -7 46 -2 3 -19 -1 -37 -9 -18 -7 -42 -12 -52 -10 -11 1 -39 0 -63 -4
-33 -5 -43 -10 -39 -21 6 -15 -22 -34 -51 -34 -10 0 -31 -7 -47 -15 -38 -20
-46 -9 -46 72 0 75 -46 215 -114 348 -45 90 -46 90 -95 102 -27 6 -59 21 -70
32 -12 12 -25 21 -31 21 -17 0 -11 36 15 81 l24 44 73 -6 c76 -6 88 -4 88 12
0 6 -5 7 -10 4 -9 -5 -114 20 -128 31 -11 8 13 45 39 58 27 13 29 13 29 -5 0
-26 49 -38 62 -15 14 25 29 19 22 -8 -4 -19 -2 -24 10 -22 23 3 33 16 45 60
12 47 10 51 -18 36 -16 -8 -21 -8 -22 2 0 10 -2 11 -6 0 -5 -14 -73 -45 -81
-38 -8 9 8 37 18 31 15 -9 69 73 85 129 10 35 12 62 6 88 -11 45 -3 88 15 88
8 0 14 -4 14 -8z m-2744 -43 c24 -6 44 -15 44 -19 0 -4 -18 -14 -40 -23 -35
-13 -40 -20 -40 -46 0 -27 -3 -31 -27 -31 -42 0 -49 11 -45 61 4 45 8 50 60
68 2 1 23 -4 48 -10z m2527 -26 c2 -5 7 -20 10 -34 6 -24 4 -26 -23 -25 -33 1
-34 3 -20 40 9 25 25 34 33 19z m-4226 -55 c-3 -8 -6 -5 -6 6 -1 11 2 17 5 13
3 -3 4 -12 1 -19z m3663 2 c0 -5 -4 -10 -10 -10 -5 0 -10 5 -10 10 0 6 5 10
10 10 6 0 10 -4 10 -10z m60 -22 c0 -13 -23 -5 -28 10 -2 7 2 10 12 6 9 -3 16
-11 16 -16z m498 -30 c-6 -18 -25 -20 -31 -3 -5 10 0 15 14 15 12 0 19 -5 17
-12z m2172 2 c0 -5 14 -10 32 -10 19 0 28 -4 23 -9 -14 -12 -97 1 -103 17 -2
7 6 12 22 12 14 0 26 -4 26 -10z m-2527 -27 c21 -12 57 -18 107 -19 41 -1 82
-2 90 -3 8 -1 30 2 48 5 26 5 36 2 47 -12 19 -26 14 -68 -8 -72 -31 -6 -49 6
-38 25 8 17 3 18 -74 16 -63 -2 -86 1 -95 12 -14 17 -45 21 -35 5 4 -7 -3 -9
-19 -5 -14 3 -38 8 -53 11 -16 3 -36 13 -47 22 -10 9 -20 16 -22 15 -2 -2 -12
-2 -21 -2 -18 2 37 15 70 18 10 0 32 -7 50 -16z m-2033 -18 c0 -22 -15 -26
-36 -10 -16 12 -17 16 -5 24 18 11 41 3 41 -14z m1857 -166 c20 -8 21 -9 5
-43 -19 -41 -28 -42 -12 -1 13 34 7 42 -23 27 -12 -6 -34 -16 -49 -21 -26 -10
-26 -9 -17 22 5 18 9 33 9 35 0 5 59 -8 87 -19z m-777 -3 c0 -8 8 -17 18 -20
10 -3 7 -4 -8 -3 -24 2 -44 37 -21 37 6 0 11 -6 11 -14z m910 -31 c19 -23 -20
-71 -57 -69 -15 1 -29 3 -31 3 -1 1 7 19 18 41 22 42 48 52 70 25z m-90 -20
c-7 -9 -15 -13 -18 -10 -3 2 1 11 8 20 7 9 15 13 18 10 3 -2 -1 -11 -8 -20z
m-3026 -42 c-9 -53 -9 -76 0 -113 8 -32 -9 -62 -23 -41 -7 11 -10 7 -14 -15
-2 -18 -5 -8 -6 24 0 29 3 62 9 72 7 13 5 26 -5 47 -19 36 -19 53 0 53 8 0 15
5 15 10 0 6 7 10 16 10 13 0 14 -8 8 -47z m1064 -5 c14 -14 16 -28 2 -28 -5 0
-14 9 -20 20 -12 22 -1 27 18 8z m2226 -15 c-26 -19 -36 -16 -24 7 6 12 16 17
27 13 14 -6 14 -8 -3 -20z m126 18 c0 -22 -26 -28 -44 -10 -19 19 -19 19 12
19 18 0 32 -4 32 -9z m-1199 -80 c15 -11 34 -36 43 -56 12 -24 24 -35 39 -35
20 -1 21 -2 5 -14 -10 -7 -18 -16 -18 -18 0 -3 8 -5 18 -4 13 1 18 -8 20 -38
2 -25 0 -36 -7 -31 -6 3 -11 15 -11 25 0 10 -4 22 -10 25 -5 3 -10 1 -10 -4 0
-6 -7 -11 -15 -11 -8 0 -15 -7 -15 -16 0 -13 -6 -14 -32 -8 -18 4 -45 7 -60 7
-32 -1 -32 -1 -16 44 7 20 17 32 25 29 7 -3 10 1 6 11 -3 8 -1 18 5 22 7 4 8
19 2 46 -11 48 -12 89 -2 63 4 -9 19 -26 33 -37z m-1171 6 c0 -13 -15 -40 -34
-60 -26 -28 -41 -37 -66 -37 -32 0 -33 0 -15 20 10 11 24 20 31 20 7 0 28 18
46 40 18 22 34 40 36 40 1 0 2 -10 2 -23z m-510 -22 c7 -18 16 -22 42 -21 22
1 34 7 36 19 4 21 28 22 36 1 9 -22 8 -26 -5 -18 -7 4 -10 1 -7 -6 6 -19 28
-24 28 -7 0 8 7 17 15 21 11 4 24 -11 46 -50 31 -54 61 -80 79 -69 6 3 10 12
10 19 0 7 10 22 23 34 19 18 26 20 39 9 19 -14 35 -77 20 -77 -6 0 -17 7 -26
15 -23 23 -36 18 -52 -21 -16 -38 -17 -39 -96 -19 -16 4 -31 0 -47 -14 -13
-12 -28 -21 -32 -21 -5 0 -6 -7 -3 -15 4 -8 3 -15 0 -15 -14 0 -83 39 -95 53
-13 16 -51 197 -44 210 7 11 23 -2 33 -28z m841 -48 c14 -86 39 -125 39 -62 1
34 2 37 11 21 7 -11 10 -52 7 -104 -4 -69 -8 -87 -24 -99 -16 -12 -20 -11 -31
4 -7 9 -13 27 -13 40 0 13 -9 31 -20 40 -11 10 -20 23 -20 30 0 7 -18 26 -39
41 -48 33 -89 98 -72 115 19 19 45 -6 51 -49 3 -23 10 -39 18 -38 6 1 18 2 25
3 7 0 18 13 24 29 11 26 11 26 12 -15 1 -24 6 -43 11 -43 15 0 12 86 -4 125
-14 32 -12 50 4 40 5 -3 14 -38 21 -78z m491 46 c22 -19 24 -66 3 -83 -21 -18
-38 -3 -24 21 12 23 12 22 -18 38 -13 6 -23 18 -23 26 0 20 39 19 62 -2z m65
-55 c-3 -8 -6 -5 -6 6 -1 11 2 17 5 13 3 -3 4 -12 1 -19z m94 -13 c27 -19 51
-30 54 -25 9 15 25 12 25 -5 0 -20 -35 -54 -52 -51 -7 1 -19 5 -25 9 -7 5 -17
6 -22 3 -5 -3 -23 -1 -41 5 -30 11 -31 14 -25 48 12 63 18 65 86 16z m1377
-22 c3 -59 -19 -93 -61 -93 -13 0 -28 -5 -34 -11 -16 -16 -204 -12 -219 4 -6
7 -14 35 -17 64 l-6 51 77 7 c42 4 100 13 127 20 28 8 68 13 90 12 l40 -2 3
-52z m-1738 -25 c0 -21 -3 -29 -10 -22 -5 5 -7 19 -4 32 9 31 14 27 14 -10z
m1078 0 c46 -35 49 -44 28 -74 -12 -16 -18 -17 -35 -7 -15 10 -20 9 -25 -2 -8
-21 -29 -18 -49 6 -15 17 -21 18 -33 8 -8 -6 -17 -9 -21 -6 -3 4 -11 3 -17 -2
-6 -4 -26 -11 -44 -14 -33 -7 -33 -6 -27 24 5 20 1 38 -10 55 -23 36 -10 43
19 11 32 -34 63 -35 76 -2 6 16 15 23 24 19 8 -3 23 -1 33 5 27 16 36 14 81
-21z m-1127 -17 c-16 -30 -14 -72 3 -65 19 7 58 -14 50 -27 -3 -5 -1 -15 4
-22 5 -7 11 -22 14 -33 5 -18 0 -23 -24 -28 l-30 -6 22 -35 c12 -19 19 -39 15
-45 -10 -16 -34 -12 -47 9 -6 10 -17 17 -24 14 -17 -6 -48 43 -40 63 3 9 15
18 26 21 15 4 19 11 15 24 -4 11 -2 19 4 19 27 0 7 18 -26 23 -28 5 -40 3 -46
-8 -11 -20 -28 -9 -21 13 18 56 46 81 56 50 3 -7 16 6 29 29 23 41 41 45 20 4z
m784 19 c3 -5 1 -10 -4 -10 -6 0 -11 5 -11 10 0 6 2 10 4 10 3 0 8 -4 11 -10z
m76 1 c-11 -7 -11 -15 -2 -42 15 -44 6 -49 -15 -7 -9 18 -24 38 -33 45 -13 10
-10 12 24 13 27 0 35 -3 26 -9z m1110 -18 c25 -66 -19 -110 -96 -94 -36 8 -37
9 -10 10 67 3 75 9 75 62 0 54 15 64 31 22z m-1865 9 c6 -4 16 -17 23 -29 11
-22 10 -23 -19 -23 -27 0 -29 2 -21 18 7 13 6 23 -1 30 -13 13 1 16 18 4z
m1184 -12 c13 -7 21 -7 25 0 11 18 25 11 25 -13 0 -32 -31 -60 -56 -50 -24 9
-34 22 -34 51 0 24 11 27 40 12z m125 0 c3 -5 1 -10 -4 -10 -6 0 -11 5 -11 10
0 6 2 10 4 10 3 0 8 -4 11 -10z m-1117 -21 c2 -9 -3 -19 -10 -22 -19 -7 -52
19 -43 33 10 16 49 8 53 -11z m522 2 c17 -33 11 -48 -10 -22 -11 13 -20 27
-20 32 0 16 19 9 30 -10z m390 -12 c0 -5 -7 -9 -15 -9 -9 0 -12 6 -9 15 6 15
24 11 24 -6z m-1701 -1 c24 -8 39 -18 39 -28 -1 -8 1 -22 3 -30 3 -10 -5 -16
-23 -18 -22 -3 -30 2 -38 22 -8 21 -16 26 -44 26 -54 0 -96 11 -96 26 0 18
104 19 159 2z m2327 -17 c-4 -6 -17 -11 -28 -11 -21 0 -21 1 -3 20 19 21 44
13 31 -9z m-2186 -16 c0 -8 -4 -15 -10 -15 -5 0 -10 7 -10 15 0 8 5 15 10 15
6 0 10 -7 10 -15z m615 -15 c-6 -10 -45 -1 -45 10 0 4 11 5 25 2 14 -2 23 -8
20 -12z m3570 -11 c44 -12 91 -52 80 -68 -8 -14 -68 -7 -73 8 -2 7 -25 22 -50
32 -36 16 -43 22 -32 29 19 12 27 12 75 -1z m-4568 -35 c13 -4 21 -10 18 -14
-5 -8 -82 3 -92 14 -8 8 45 8 74 0z m251 -31 c3 -17 -3 -24 -22 -29 -26 -6
-96 12 -96 25 0 20 29 32 70 29 38 -3 46 -7 48 -25z m652 2 c0 -8 5 -15 10
-15 6 0 10 -17 10 -39 0 -36 -2 -39 -32 -44 -36 -5 -49 0 -30 12 7 4 12 23 11
42 -3 36 6 59 22 59 5 0 9 -7 9 -15z m1173 -12 c-7 -2 -21 -2 -30 0 -10 3 -4
5 12 5 17 0 24 -2 18 -5z m662 -52 c8 -16 20 -31 26 -33 8 -3 10 -14 5 -32 -5
-20 -10 -25 -19 -18 -7 6 -27 12 -46 14 -49 4 -59 27 -31 66 29 40 45 40 65 3z
m-2445 -31 c0 -5 -4 -10 -10 -10 -5 0 -10 5 -10 10 0 6 5 10 10 10 6 0 10 -4
10 -10z m1183 -10 c24 0 28 -3 17 -10 -8 -5 -26 -6 -40 -3 -32 7 -34 9 -24 24
6 10 9 10 12 1 2 -7 18 -12 35 -12z m-1223 -12 c0 -13 -23 -5 -28 10 -2 7 2
10 12 6 9 -3 16 -11 16 -16z m130 3 c0 -11 -4 -23 -10 -26 -6 -4 -10 5 -10 19
0 14 5 26 10 26 6 0 10 -9 10 -19z m3780 9 c0 -5 -7 -10 -15 -10 -8 0 -15 5
-15 10 0 6 7 10 15 10 8 0 15 -4 15 -10z m-3865 -20 c3 -5 -1 -10 -9 -10 -9 0
-16 5 -16 10 0 6 4 10 9 10 6 0 13 -4 16 -10z m-95 -35 c0 -8 -9 -15 -20 -15
-20 0 -26 11 -13 23 12 13 33 7 33 -8z m2049 -9 c-2 -2 -15 -7 -29 -11 -25 -8
-25 -8 -6 14 13 14 23 18 30 11 5 -5 8 -11 5 -14z m2226 -7 c7 -20 -17 -83
-35 -94 -6 -3 -10 -23 -10 -43 0 -48 -40 -109 -62 -96 -4 3 -8 17 -8 31 0 25
-1 25 -19 9 -22 -20 -31 -11 -56 47 -14 34 -14 40 0 68 15 28 19 30 56 24 35
-6 40 -4 49 19 5 14 17 26 25 26 9 0 18 7 21 15 9 22 32 18 39 -6z m-882 -36
c-7 -2 -19 -2 -25 0 -7 3 -2 5 12 5 14 0 19 -2 13 -5z m1004 -35 c18 -7 33
-16 33 -20 0 -4 12 -3 26 2 46 18 73 13 80 -16 9 -36 -4 -44 -85 -51 -85 -7
-111 8 -111 64 0 36 7 39 57 21z m-614 -9 c20 -5 37 -14 37 -18 0 -10 -35 -21
-69 -21 -22 0 -50 24 -51 43 0 10 38 9 83 -4z m-1428 -40 c4 -11 4 -36 1 -54
-6 -28 -11 -33 -44 -39 -20 -3 -89 -6 -153 -6 l-117 0 -16 34 c-9 19 -16 46
-16 60 l0 26 169 0 c163 0 170 -1 176 -21z m-1195 -39 c11 -22 23 -40 26 -40
2 0 0 10 -7 21 -9 17 -8 20 3 15 7 -3 21 -9 30 -12 10 -3 20 -15 24 -26 3 -11
12 -17 19 -14 9 3 12 0 8 -10 -6 -17 -2 -17 32 -2 22 10 28 9 36 -3 7 -11 9
-11 9 0 0 8 6 11 16 7 9 -3 27 3 41 14 31 24 75 28 67 5 -4 -8 -1 -15 5 -15 6
0 11 8 11 18 1 10 10 2 25 -23 21 -33 25 -36 25 -17 0 12 3 22 8 22 4 0 7 -23
8 -50 0 -50 -11 -66 -23 -32 -9 24 -25 33 -39 21 -7 -6 -18 -9 -26 -8 -7 1
-21 -1 -30 -4 -10 -4 -25 -9 -33 -12 -9 -2 -25 -20 -36 -40 -20 -33 -24 -35
-73 -35 -40 0 -57 -5 -71 -20 -17 -19 -18 -19 -43 0 -13 11 -31 20 -38 20 -21
0 -17 36 6 51 20 14 21 16 5 87 -15 73 -19 122 -10 122 2 0 14 -18 25 -40z
m1920 -1 c11 -31 18 -39 32 -36 23 6 23 2 -1 -20 -10 -10 -21 -38 -24 -63 -3
-25 -6 -46 -6 -47 -1 -2 -8 -3 -17 -3 -9 0 -23 -8 -30 -17 -11 -15 -15 -16
-23 -4 -12 19 -41 6 -41 -19 0 -16 5 -19 25 -15 14 3 36 7 50 10 14 3 25 2 25
-2 0 -16 -102 -73 -130 -73 -11 0 -20 -4 -20 -9 0 -5 -12 -12 -27 -16 -16 -4
-53 -22 -84 -41 -55 -33 -90 -41 -123 -28 -9 3 -16 11 -16 16 0 6 7 7 15 4 8
-3 22 -9 30 -12 11 -4 15 0 15 15 0 16 -6 21 -29 21 -29 0 -81 49 -81 77 0 15
31 33 58 33 18 0 42 -36 42 -65 0 -21 18 -18 25 4 3 10 30 35 59 54 30 20 69
54 87 76 17 22 41 44 53 47 12 4 30 13 41 21 19 14 18 15 -10 10 -16 -2 -38
-8 -47 -12 -13 -5 -18 -3 -18 9 0 20 -14 21 -30 1 -15 -18 -63 -20 -58 -2 3 6
21 20 41 30 20 9 37 24 37 32 0 8 15 18 33 24 17 5 50 17 72 25 57 22 60 20
75 -25z m-339 13 c1 -9 1 -21 0 -26 -1 -5 5 -6 13 -3 22 8 46 -36 46 -83 0
-41 -14 -80 -28 -80 -13 0 -33 67 -34 109 0 28 -4 38 -13 35 -8 -4 -14 6 -17
28 -3 27 0 34 14 35 10 1 19 -5 19 -15z m556 1 c2 -6 -3 -13 -12 -16 -10 -5
-15 0 -15 14 0 21 21 22 27 2z m-1401 -24 c-1 -16 -5 -29 -9 -29 -4 0 -11 0
-16 0 -5 0 -16 13 -24 28 -13 28 -13 28 19 29 29 1 31 -2 30 -28z m71 15 c-3
-3 -12 -4 -19 -1 -8 3 -5 6 6 6 11 1 17 -2 13 -5z m-845 -69 c0 -5 -5 -11 -11
-13 -6 -2 -11 4 -11 13 0 9 5 15 11 13 6 -2 11 -8 11 -13z m-123 -11 c24 -12
36 -13 44 -5 20 20 25 11 15 -26 -10 -34 -13 -51 -17 -90 -1 -15 -41 -18 -41
-3 0 6 -12 10 -27 10 -34 0 -88 -45 -96 -80 -3 -14 -12 -34 -20 -44 -13 -18
-16 -15 -55 39 -29 40 -42 69 -42 91 0 28 3 31 23 26 12 -3 32 -12 45 -20 12
-8 22 -11 22 -8 0 4 10 2 21 -5 20 -10 21 -9 16 13 -7 27 0 41 31 57 12 6 22
20 22 30 0 35 13 38 59 15z m2472 -40 c9 -11 9 -14 -1 -14 -10 0 -10 -3 0 -15
7 -9 10 -25 6 -41 -6 -23 -11 -25 -34 -20 -39 10 -73 8 -88 -5 -8 -7 -28 -9
-50 -5 -27 6 -39 3 -52 -11 -10 -10 -31 -25 -47 -33 -17 -9 -31 -25 -33 -37
-3 -19 -8 -21 -32 -16 -43 8 -49 -18 -16 -62 28 -36 26 -39 -28 -35 -16 1 -40
-4 -52 -11 -34 -18 -38 -7 -15 32 25 41 26 49 6 49 -8 0 -15 9 -15 21 0 15 4
19 19 14 26 -8 71 4 71 19 0 6 14 29 31 50 29 34 35 37 65 31 33 -6 34 -5 34
27 0 18 9 44 19 58 17 21 22 23 46 12 36 -17 102 -15 108 2 7 17 41 11 58 -10z
m-294 -19 c-2 -5 -14 -15 -28 -22 -32 -16 -47 -1 -30 30 11 21 16 23 37 13 13
-6 22 -15 21 -21z m1704 5 c6 -16 15 -30 20 -30 4 0 6 -6 3 -14 -9 -24 -52 -7
-59 25 -12 53 19 69 36 19z m-3256 -18 c13 -30 39 -28 65 6 24 30 23 26 -5
-41 -31 -72 -65 -74 -85 -4 -6 23 -14 48 -17 55 -10 24 31 9 42 -16z m848 1
c-7 -2 -21 -2 -30 0 -10 3 -4 5 12 5 17 0 24 -2 18 -5z m2367 -14 c0 -6 -4 -7
-10 -4 -5 3 -10 11 -10 16 0 6 5 7 10 4 6 -3 10 -11 10 -16z m-6011 -13 c8 -9
10 -16 4 -16 -6 0 -9 -9 -6 -20 3 -11 9 -18 13 -15 8 5 104 -254 97 -262 -5
-5 -44 57 -68 108 -9 20 -22 40 -28 43 -6 4 -9 11 -6 15 2 5 -7 9 -21 9 -14 0
-31 8 -39 18 -14 18 -14 18 -15 -4 0 -29 -29 -41 -42 -18 -7 13 -13 14 -23 6
-21 -18 -57 23 -49 55 4 18 1 27 -10 31 -30 12 -16 24 27 24 34 0 48 -5 66
-26 17 -19 25 -23 31 -14 6 9 12 9 28 -1 12 -7 25 -10 29 -5 10 10 -25 36 -49
36 -17 0 -38 28 -38 51 0 17 78 5 99 -15z m751 5 c17 -33 12 -154 -9 -202 -11
-24 -22 -65 -26 -91 -6 -37 -11 -48 -25 -48 -10 0 -21 7 -24 16 -3 8 -9 13
-14 10 -4 -2 -14 -1 -22 5 -11 6 -6 9 18 9 30 0 32 2 32 36 0 26 4 35 13 31
31 -12 61 142 41 209 -13 45 -3 60 16 25z m-52 -77 c-10 -29 -22 -44 -50 -57
-21 -10 -38 -23 -38 -28 0 -5 -12 -14 -26 -20 -33 -12 -77 15 -111 66 -21 33
-20 33 37 -12 l59 -45 25 18 c14 11 26 22 26 26 0 4 12 20 26 35 15 15 34 39
42 52 21 31 26 14 10 -35z m92 18 c0 -15 -2 -15 -10 -2 -13 20 -13 33 0 25 6
-3 10 -14 10 -23z m447 -81 c15 -91 25 -113 19 -43 -3 29 -1 52 4 52 6 0 10
-4 10 -10 0 -5 8 -10 19 -10 10 0 25 -7 32 -16 12 -15 11 -19 -9 -32 -28 -19
-28 -32 1 -32 12 0 17 -4 11 -8 -6 -4 -13 -15 -17 -24 -4 -10 -12 -15 -21 -12
-9 3 -17 -3 -21 -15 -9 -28 -33 -26 -45 3 -5 13 -14 27 -19 31 -17 10 -13 25
7 26 9 1 4 4 -13 8 -20 5 -28 12 -26 22 3 8 7 39 9 69 4 53 15 73 37 67 5 -2
15 -36 22 -76z m1717 51 c17 -33 13 -42 -32 -68 -29 -16 -34 -17 -42 -4 -16
26 -11 50 16 75 34 32 40 31 58 -3z m-1488 -13 c-8 -11 -25 -28 -38 -37 -23
-15 -23 -15 2 14 39 45 62 60 36 23z m3864 -4 c0 -8 -4 -15 -10 -15 -5 0 -10
7 -10 15 0 8 5 15 10 15 6 0 10 -7 10 -15z m-570 -20 c0 -7 -7 -16 -16 -19 -8
-3 -12 -2 -9 3 3 5 1 12 -5 16 -6 4 -8 10 -5 15 8 13 35 1 35 -15z m-3730 -5
c0 -11 6 -38 12 -60 12 -37 26 -47 61 -41 4 0 7 -3 7 -9 0 -5 -9 -10 -20 -10
-23 0 -24 -4 -10 -31 9 -16 7 -19 -14 -19 -13 0 -26 7 -30 15 -6 17 -37 20
-52 5 -7 -7 -19 -4 -36 10 -15 11 -36 20 -47 20 -12 0 -21 5 -21 10 0 14 73
13 87 -1 8 -8 13 1 18 37 7 58 21 94 35 94 5 0 10 -9 10 -20z m1410 10 c-20
-13 -43 -13 -35 0 3 6 16 10 28 10 18 0 19 -2 7 -10z m-690 -25 c0 -8 -7 -15
-15 -15 -9 0 -12 6 -9 15 4 8 10 15 15 15 5 0 9 -7 9 -15z m2670 11 c0 -2 -7
-9 -15 -16 -12 -10 -15 -10 -15 4 0 9 7 16 15 16 8 0 15 -2 15 -4z m-2890 -18
c0 -25 -25 -78 -36 -78 -21 0 -27 20 -11 38 7 9 17 25 20 35 7 19 27 23 27 5z
m2630 -7 c0 -6 -4 -13 -10 -16 -5 -3 -10 1 -10 9 0 9 5 16 10 16 6 0 10 -4 10
-9z m-1555 -26 c0 -11 -8 -21 -17 -23 -14 -3 -18 3 -18 23 0 20 4 26 18 23 9
-2 17 -12 17 -23z m1509 -5 c-6 -25 -3 -30 14 -30 14 0 24 -10 31 -31 15 -43
14 -46 -11 -52 -26 -5 -134 -34 -160 -43 -12 -4 -18 0 -18 11 0 12 -5 15 -17
10 -10 -4 -28 -10 -40 -12 -37 -8 -27 22 12 37 19 8 35 19 35 26 0 12 57 34
86 34 6 0 20 18 33 40 26 47 43 52 35 10z m252 -7 c-10 -10 -19 5 -10 18 6 11
8 11 12 0 2 -7 1 -15 -2 -18z m-4387 -14 c16 -15 19 -24 12 -33 -8 -10 -3 -20
20 -40 40 -36 29 -46 -14 -13 -26 19 -34 33 -34 57 0 18 -6 36 -14 41 -8 5 -9
9 -3 9 5 0 20 -9 33 -21z m1625 -15 c26 -10 19 -32 -8 -27 -32 6 -42 -13 -11
-21 17 -4 23 -11 18 -23 -5 -13 -2 -15 15 -11 12 4 22 2 22 -3 0 -15 -77 -10
-90 6 -7 8 -16 12 -21 9 -5 -3 -9 6 -9 20 0 43 40 67 84 50z m-426 -38 c36
-38 39 -46 18 -46 -15 0 -66 55 -66 71 0 17 16 9 48 -25z m1165 14 c-3 -11 -7
-20 -9 -20 -2 0 -4 9 -4 20 0 11 4 20 9 20 5 0 7 -9 4 -20z m-1433 -36 c0 -8
-4 -12 -10 -9 -5 3 -10 10 -10 16 0 5 5 9 10 9 6 0 10 -7 10 -16z m210 -5 c0
-5 -4 -9 -10 -9 -5 0 -10 7 -10 16 0 8 5 12 10 9 6 -3 10 -10 10 -16z m-290
-7 c0 -14 -23 -32 -42 -32 -23 0 -23 9 0 26 19 15 42 18 42 6z m3020 -17 c0
-15 -6 -25 -14 -25 -8 0 -16 -7 -20 -15 -8 -21 -26 -19 -26 3 0 24 28 62 46
62 8 0 14 -10 14 -25z m-305 -7 c-10 -32 -12 -33 -29 -15 -12 12 -13 17 -3 20
6 3 3 6 -9 6 -11 1 -30 -9 -41 -21 -39 -44 -37 -47 22 -47 31 1 59 -2 62 -5
16 -16 -20 -24 -123 -29 -86 -5 -116 -3 -130 8 -16 11 -16 14 -4 18 40 14 42
16 11 14 -19 -1 -36 3 -38 10 -6 17 37 53 63 53 18 0 21 -4 17 -22 l-5 -23 21
24 c16 18 29 22 56 19 19 -2 35 -2 35 2 0 3 23 6 51 8 49 3 50 2 44 -20z m859
-4 c11 -28 6 -51 -15 -78 -20 -25 -21 -25 -44 -8 -30 21 -30 23 0 56 14 15 25
31 25 37 0 15 27 10 34 -7z m-3896 -35 c12 -19 11 -20 -10 -17 -12 2 -24 11
-26 21 -5 24 20 21 36 -4z m102 11 c0 -13 -32 -28 -47 -23 -19 7 -16 21 5 26
30 8 42 7 42 -3z m2580 -8 c10 -2 11 -5 3 -13 -11 -11 -73 -3 -73 10 0 6 28 7
70 3z m647 -24 c-3 -8 -6 -5 -6 6 -1 11 2 17 5 13 3 -3 4 -12 1 -19z m393 -3
c0 -9 -9 -15 -22 -15 -21 0 -21 0 -2 15 24 18 24 18 24 0z m800 5 c0 -5 9 -10
20 -10 11 0 20 -4 20 -9 0 -6 -12 -6 -30 0 -28 10 -41 29 -20 29 6 0 10 -4 10
-10z m-3057 -100 c-5 -20 -15 -25 -26 -13 -8 7 11 33 23 33 5 0 6 -9 3 -20z
m92 4 c15 -10 22 -21 18 -31 -4 -11 -1 -14 13 -11 12 2 20 13 22 31 4 34 12
34 43 1 22 -24 28 -25 81 -20 51 6 57 5 63 -14 3 -11 3 -29 0 -40 -5 -16 -2
-20 19 -20 29 0 43 17 27 33 -18 18 -13 27 14 27 17 0 29 -8 37 -25 14 -30 19
-31 36 -5 7 12 17 18 23 14 6 -4 6 -11 -2 -20 -15 -18 -7 -27 15 -18 11 4 15
12 10 23 -16 41 -11 46 48 46 53 0 57 2 52 20 l-6 20 16 -20 c13 -17 17 -18
26 -5 9 13 12 13 21 -2 6 -11 22 -18 39 -18 36 0 38 -13 7 -54 -13 -17 -26
-39 -30 -48 -9 -26 -21 -22 -34 12 -9 24 -17 30 -42 30 -21 0 -29 -4 -25 -13
11 -29 -29 -44 -134 -51 -100 -7 -104 -6 -109 14 -4 14 -12 20 -27 18 -15 -2
-21 3 -22 17 -1 11 -3 34 -4 50 -1 17 -4 24 -7 18 -2 -7 -11 -13 -18 -13 -8 0
-30 -13 -48 -30 -60 -53 -157 -33 -157 32 0 17 -3 19 -12 10 -17 -17 -28 -15
-28 4 0 9 9 18 20 21 11 3 20 12 20 19 0 18 5 18 35 -2z m795 -4 c0 -5 -4 -10
-10 -10 -5 0 -17 -14 -25 -30 -15 -30 -79 -70 -91 -58 -10 11 8 80 24 85 8 4
20 -1 27 -10 11 -15 14 -14 35 8 25 26 40 32 40 15z m976 -52 c4 -6 -1 -17
-11 -25 -21 -15 -37 -1 -28 24 6 16 29 17 39 1z m-146 -7 c0 -6 -4 -13 -10
-16 -5 -3 -10 1 -10 9 0 9 5 16 10 16 6 0 10 -4 10 -9z m-880 -61 c0 -5 -7
-10 -17 -10 -14 0 -14 -2 2 -20 18 -19 17 -20 -2 -20 -26 0 -38 47 -14 53 27
8 31 7 31 -3z m870 -5 c0 -8 -7 -15 -15 -15 -8 0 -15 7 -15 15 0 8 7 15 15 15
8 0 15 -7 15 -15z m-236 -40 c15 -8 42 -15 58 -15 36 0 71 -17 62 -31 -3 -5
-31 -9 -62 -9 -32 1 -93 -2 -138 -6 -85 -7 -87 -6 -98 38 -6 27 -5 27 51 31
32 2 67 4 78 5 11 1 33 -5 49 -13z m-534 -39 c0 -2 3 -11 6 -20 8 -22 -46 -46
-106 -46 -46 0 -50 2 -50 24 0 29 17 43 33 27 16 -16 52 -14 67 4 11 13 50 22
50 11z m665 -36 c3 -5 -1 -10 -9 -10 -9 0 -16 5 -16 10 0 6 4 10 9 10 6 0 13
-4 16 -10z m-1599 -28 c-7 -21 -42 -36 -52 -21 -3 5 2 9 10 9 8 0 20 9 26 21
14 25 24 19 16 -9z m1150 -7 c-11 -8 -22 -12 -25 -9 -6 6 19 24 34 24 6 -1 1
-7 -9 -15z m268 -5 c-13 -13 -134 -33 -166 -28 -18 3 67 21 167 37 5 0 4 -4
-1 -9z m-2584 -20 c0 -5 -5 -10 -11 -10 -5 0 -7 5 -4 10 3 6 8 10 11 10 2 0 4
-4 4 -10z m470 -9 c0 -11 -10 -27 -22 -35 -25 -18 -29 -17 60 -19 28 -1 42 -5
42 -15 0 -7 5 -10 10 -7 16 10 22 -19 10 -49 -14 -37 -42 -30 -56 14 -6 19
-19 36 -28 38 -14 3 -15 -3 -10 -37 4 -28 3 -41 -5 -41 -6 0 -11 6 -11 14 0 8
-4 26 -9 40 -8 18 -15 23 -31 19 -18 -5 -19 -7 -4 -17 10 -8 14 -22 12 -41
l-5 -30 -8 33 c-4 17 -14 32 -21 32 -11 0 -11 -5 -2 -25 13 -29 3 -45 -15 -23
-6 8 -22 18 -34 21 -19 4 -23 1 -23 -19 0 -13 -4 -24 -10 -24 -5 0 -10 7 -10
17 0 9 -11 30 -24 48 -23 30 -23 32 -6 43 13 8 21 8 25 1 4 -5 15 -7 25 -4 11
3 20 0 24 -10 5 -15 28 -22 24 -7 -3 8 82 98 95 100 4 1 7 -7 7 -17z m-772
-13 c7 -7 12 -21 12 -32 0 -12 7 -30 15 -40 27 -36 14 -105 -18 -93 -12 4 -13
14 -7 49 8 40 2 64 -27 121 -6 11 12 8 25 -5z m1050 -5 c23 -13 32 -24 32 -43
0 -20 -2 -22 -10 -10 -8 12 -10 10 -10 -8 0 -13 4 -20 10 -17 6 3 10 -1 10 -9
0 -20 -60 -23 -61 -3 0 9 -2 9 -6 -1 -9 -23 -23 -1 -23 39 0 39 -13 52 -24 24
-3 -9 -19 -15 -41 -15 -27 0 -35 4 -35 18 0 10 5 23 10 28 18 18 112 15 148
-3z m-496 -15 c-18 -18 -15 -65 6 -77 14 -9 15 -12 3 -20 -8 -5 -11 -16 -8
-25 4 -10 1 -16 -8 -16 -8 0 -14 3 -13 8 5 17 -12 72 -23 72 -8 0 -9 -13 -5
-42 7 -40 6 -41 -11 -25 -21 19 -63 13 -63 -9 0 -21 -18 -17 -25 6 -3 11 -15
20 -26 20 -14 0 -19 7 -19 25 0 14 5 25 11 25 7 0 8 11 4 31 -5 22 -4 29 4 25
6 -4 11 -12 11 -17 0 -6 11 -27 25 -47 14 -20 25 -31 25 -25 0 7 -4 15 -10 18
-16 10 -12 28 5 21 8 -3 22 -9 30 -12 8 -3 15 -1 15 5 0 14 59 71 73 71 7 0 6
-5 -1 -12z m-1242 -53 c6 -8 9 -19 5 -25 -4 -6 1 -20 11 -31 14 -15 14 -19 3
-19 -23 0 -39 21 -39 51 0 15 -6 30 -12 32 -8 4 -7 6 3 6 9 1 22 -6 29 -14z
m60 -25 c25 -50 10 -53 -19 -4 -24 40 -25 44 -11 44 5 0 19 -18 30 -40z m45 0
c3 -5 19 -10 34 -10 20 0 31 -7 39 -25 16 -34 15 -45 -3 -45 -8 0 -15 7 -15
15 0 9 -9 15 -25 15 -17 0 -29 9 -40 30 -14 27 -5 44 10 20z m1665 -35 c0 -16
-43 -31 -59 -20 -19 11 -12 24 17 28 15 2 30 5 35 6 4 0 7 -6 7 -14z m-750 1
c0 -3 -4 -8 -10 -11 -5 -3 -10 -1 -10 4 0 6 5 11 10 11 6 0 10 -2 10 -4z
m-793 -72 c-9 -9 -28 6 -21 18 4 6 10 6 17 -1 6 -6 8 -13 4 -17z m1226 19 c-7
-2 -19 -2 -25 0 -7 3 -2 5 12 5 14 0 19 -2 13 -5z m-1256 -209 c-3 -3 -12 -4
-19 -1 -8 3 -5 6 6 6 11 1 17 -2 13 -5z m1040 -64 c8 -12 9 -21 3 -25 -13 -8
-32 4 -25 16 4 5 -1 9 -9 9 -8 0 -18 5 -21 10 -3 6 4 10 17 10 13 0 29 -9 35
-20z m-687 -96 c25 -9 50 -20 56 -25 6 -5 19 -7 28 -3 20 8 21 -9 2 -25 -11
-10 -21 -9 -45 3 -16 9 -33 20 -36 26 -3 5 -14 10 -24 10 -10 0 -24 7 -31 15
-16 19 -6 19 50 -1z m165 -132 c-12 -31 -25 9 -24 73 l0 60 16 -58 c8 -32 12
-65 8 -75z m1330 98 c3 -5 1 -10 -4 -10 -6 0 -11 5 -11 10 0 6 2 10 4 10 3 0
8 -4 11 -10z m-1280 -147 c14 -34 18 -258 5 -282 -6 -13 -14 -73 -16 -134 -2
-62 -6 -152 -9 -202 -2 -49 -5 -117 -5 -149 0 -33 -3 -56 -7 -53 -12 13 -13
359 -1 417 11 54 13 334 2 351 -3 5 -14 9 -25 9 -14 0 -19 7 -19 30 0 27 3 30
34 30 23 0 36 -6 41 -17z m1118 -30 c4 -3 -9 -21 -28 -40 -31 -30 -39 -33 -89
-32 -31 1 -56 3 -56 5 0 17 26 40 40 37 10 -3 37 5 61 16 47 22 62 25 72 14z
m-1867 -27 c10 -8 16 -17 12 -21 -8 -8 -48 13 -48 25 0 14 13 12 36 -4z m114
-26 c11 -6 17 -17 14 -25 -5 -11 3 -17 25 -21 31 -7 81 -60 81 -87 0 -14 -20
-27 -40 -27 -4 0 -11 11 -14 25 -5 18 -13 25 -30 25 -31 0 -50 24 -44 55 3 14
-1 30 -8 36 -14 12 -19 29 -8 29 3 0 14 -5 24 -10z m1550 0 c8 -5 12 -12 8
-15 -8 -8 -58 5 -58 16 0 12 31 11 50 -1z m-864 -207 c-3 -8 -6 -17 -6 -19 0
-2 -4 -4 -10 -4 -5 0 -10 11 -10 25 0 18 4 23 16 18 8 -3 13 -12 10 -20z m414
17 c0 -5 -7 -10 -15 -10 -8 0 -15 5 -15 10 0 6 7 10 15 10 8 0 15 -4 15 -10z
m40 -20 c13 -8 13 -10 -2 -10 -9 0 -20 5 -23 10 -8 13 5 13 25 0z m-1420 -25
c0 -8 -7 -15 -15 -15 -16 0 -20 12 -8 23 11 12 23 8 23 -8z m47 -101 c-3 -3
-12 -4 -19 -1 -8 3 -5 6 6 6 11 1 17 -2 13 -5z m457 -283 c3 -9 13 -26 22 -38
16 -22 15 -23 -4 -23 -11 0 -22 7 -26 15 -10 26 -26 16 -42 -25 -9 -22 -20
-40 -26 -40 -5 0 -6 -9 -3 -20 5 -16 2 -20 -15 -20 -15 0 -22 8 -27 31 -3 19
-14 34 -25 36 -10 3 -18 9 -18 14 0 5 7 6 15 3 9 -4 15 0 16 7 1 8 2 19 3 26
0 6 18 25 39 42 33 25 42 28 62 19 13 -6 26 -18 29 -27z m-519 -114 c-1 -52 9
-60 27 -22 10 22 16 25 42 19 43 -9 54 -22 25 -29 -14 -3 -33 -20 -44 -36 -19
-28 -24 -30 -68 -26 -36 3 -54 0 -71 -14 -23 -18 -76 -36 -76 -25 0 12 62 106
70 106 5 0 17 -12 28 -27 20 -27 21 -27 28 -8 4 11 12 24 18 28 6 5 1 5 -12 2
-31 -9 -38 16 -16 55 27 45 49 35 49 -23z m255 28 c14 -17 4 -39 -16 -31 -8 3
-14 1 -14 -4 0 -6 -7 -10 -16 -10 -8 0 -13 -4 -10 -8 2 -4 1 -14 -3 -20 -6
-10 -13 -10 -34 -1 -15 7 -27 17 -27 22 0 5 -8 16 -17 23 -24 17 -14 24 41 28
26 2 50 7 53 10 11 10 30 7 43 -9z m100 -16 c17 -30 11 -34 -15 -9 -14 13 -25
27 -25 31 0 14 30 -2 40 -22z m140 3 c0 -5 17 -17 38 -26 37 -17 69 -52 58
-64 -3 -3 -24 0 -47 7 -31 10 -44 20 -55 46 -17 41 -17 45 -4 45 6 0 10 -4 10
-8z m75 -12 c3 -5 1 -10 -4 -10 -6 0 -11 5 -11 10 0 6 2 10 4 10 3 0 8 -4 11
-10z m-815 -75 c0 -18 -85 -21 -96 -3 -5 7 -1 9 13 6 13 -3 24 1 32 14 9 15
15 16 31 8 11 -6 20 -17 20 -25z m1125 -85 c7 0 15 5 17 12 3 7 5 -31 6 -83 2
-65 -1 -89 -8 -79 -5 8 -10 33 -10 56 0 22 -5 45 -12 52 -9 9 -9 12 2 12 8 0
1 13 -18 33 -18 18 -32 37 -32 42 0 6 10 -2 21 -17 11 -16 27 -28 34 -28z
m-85 -44 c0 -3 -4 -8 -10 -11 -5 -3 -10 -1 -10 4 0 6 5 11 10 11 6 0 10 -2 10
-4z m84 -167 c20 -12 36 -27 36 -35 0 -26 -79 22 -80 49 0 11 5 9 44 -14z
m448 -90 c47 -24 74 -60 93 -122 46 -156 -18 -270 -141 -251 -59 8 -126 69
-143 129 -25 85 -25 137 -1 189 40 83 100 101 192 55z m-936 -57 c-9 -8 -26
10 -26 26 1 15 2 15 15 -2 8 -11 13 -21 11 -24z m-38 -35 c52 -10 66 -22 37
-33 -8 -4 -15 -13 -15 -21 0 -9 -7 -12 -17 -9 -10 2 -37 8 -61 11 -31 5 -42
11 -38 21 3 7 1 16 -4 19 -19 12 -10 23 18 23 15 -1 51 -5 80 -11z m-292 -12
c20 -8 40 -13 44 -10 5 3 11 1 14 -4 3 -5 -16 -16 -43 -25 -62 -20 -58 -20
-71 5 -9 15 -8 24 1 35 14 17 12 17 55 -1z m-147 -31 c32 -16 38 -39 10 -39
-8 0 -34 -14 -58 -32 -44 -33 -75 -41 -86 -23 -11 17 -54 11 -64 -9 -12 -22
-41 -35 -53 -23 -19 19 146 142 191 142 16 0 42 -7 60 -16z m75 0 c10 -25 7
-34 -9 -34 -8 0 -15 4 -15 9 0 5 -3 16 -6 25 -4 10 -1 16 9 16 8 0 18 -7 21
-16z m1306 -318 c0 -2 -7 -6 -15 -10 -8 -3 -15 -1 -15 4 0 6 7 10 15 10 8 0
15 -2 15 -4z m-749 -67 c16 -17 29 -42 29 -56 0 -22 -3 -24 -32 -18 -26 6 -30
5 -25 -9 8 -21 -2 -20 -19 2 -18 23 -18 52 0 52 8 0 18 5 22 12 4 6 3 8 -3 5
-14 -9 -47 18 -39 31 12 20 37 13 67 -19z m744 21 c3 -6 -1 -7 -9 -4 -18 7
-21 14 -7 14 6 0 13 -4 16 -10z m-985 -25 c7 -8 19 -15 26 -15 8 0 14 -10 14
-24 0 -14 5 -28 10 -31 18 -11 11 -35 -10 -35 -11 0 -20 -4 -20 -10 0 -5 7
-10 15 -10 8 0 15 -4 15 -10 0 -5 -11 -10 -24 -10 -14 0 -28 -4 -31 -10 -3 -5
-15 -10 -26 -10 -15 0 -19 5 -14 19 4 12 0 21 -11 25 -24 9 -30 -1 -16 -24 7
-11 12 -22 12 -24 0 -7 -134 -56 -153 -56 -9 0 -17 5 -17 10 0 6 -5 10 -11 10
-6 0 -8 -9 -4 -20 5 -14 2 -20 -9 -20 -9 0 -16 7 -16 15 0 17 -9 19 -29 6 -9
-6 -10 -11 -2 -15 22 -14 10 -23 -46 -41 -32 -10 -63 -22 -69 -27 -14 -10 -44
0 -44 16 -1 19 -36 55 -66 66 -20 8 -24 14 -16 22 6 6 8 23 5 38 -6 32 -13 29
232 101 77 23 167 49 200 59 75 23 89 24 105 5z m1050 -5 c0 -5 -4 -10 -10
-10 -5 0 -10 5 -10 10 0 6 5 10 10 10 6 0 10 -4 10 -10z m-910 -33 c0 -16 -3
-18 -9 -9 -13 21 -23 -15 -11 -39 8 -14 7 -19 -3 -19 -20 0 -37 21 -37 47 0
13 -4 23 -10 23 -5 0 -10 5 -10 11 0 7 11 9 30 6 18 -4 30 -2 30 4 0 6 5 7 10
4 6 -3 10 -16 10 -28z m715 -137 c-3 -5 -1 -10 5 -10 6 0 8 -5 4 -11 -4 -7
-10 -7 -16 -1 -9 9 -3 32 8 32 3 0 2 -4 -1 -10z m-900 -840 c-3 -5 -18 -10
-33 -10 -21 0 -24 2 -12 10 20 13 53 13 45 0z m3132 -37 c-3 -5 -8 -32 -11
-62 -8 -66 -25 -105 -48 -109 -16 -3 -16 0 -4 35 7 21 16 55 20 75 4 21 14 44
22 53 16 16 28 20 21 8z m-3070 -9 c-3 -3 -12 -4 -19 -1 -8 3 -5 6 6 6 11 1
17 -2 13 -5z m-127 -34 c0 -5 -7 -10 -16 -10 -8 0 -12 5 -9 10 3 6 10 10 16
10 5 0 9 -4 9 -10z m3155 -230 c-2 -35 -25 -67 -25 -34 0 28 11 64 20 64 4 0
6 -14 5 -30z m3411 -78 c-16 -16 -17 -15 -12 13 2 17 5 35 6 40 1 6 6 0 12
-13 9 -18 8 -26 -6 -40z m-6561 28 c3 -5 1 -10 -4 -10 -6 0 -11 5 -11 10 0 6
2 10 4 10 3 0 8 -4 11 -10z m6571 -116 c-9 -13 -20 -24 -25 -24 -11 0 10 72
24 82 17 12 18 -31 1 -58z m25 -63 c-6 -10 -8 -21 -5 -24 4 -3 -4 -22 -16 -42
-25 -41 -21 -61 5 -22 32 50 43 34 12 -18 l-32 -54 -8 41 c-6 28 -5 49 3 67 7
14 17 36 23 49 6 12 14 22 19 22 5 0 4 -8 -1 -19z m279 -343 c0 -16 -3 -19
-11 -11 -6 6 -8 16 -5 22 11 17 16 13 16 -11z m-290 -23 c0 -8 -4 -15 -10 -15
-5 0 -7 7 -4 15 4 8 8 15 10 15 2 0 4 -7 4 -15z m246 -12 c-10 -10 -19 5 -10
18 6 11 8 11 12 0 2 -7 1 -15 -2 -18z m-3882 -102 c-22 -21 -27 -21 -18 3 3 9
13 16 22 16 13 0 12 -3 -4 -19z m-99 -12 c0 -8 -5 -13 -12 -12 -7 2 -10 -3 -7
-11 3 -8 1 -17 -4 -20 -15 -9 -23 23 -11 45 11 22 34 21 34 -2z m71 -45 c-3
-9 -6 -19 -6 -24 0 -4 -11 -10 -25 -12 -26 -5 -25 2 3 35 19 21 36 22 28 1z
m4017 -22 c-3 -9 -15 -37 -25 -61 -11 -24 -26 -71 -33 -105 -14 -63 -41 -143
-54 -161 -4 -5 -13 -29 -20 -53 -6 -23 -16 -40 -21 -37 -10 6 -1 43 18 73 8
13 16 45 16 72 1 27 5 52 9 56 4 4 7 18 7 32 0 16 7 26 20 29 l21 6 -21 19
-21 20 22 21 c14 13 18 22 11 25 -7 2 -9 8 -6 14 4 6 10 5 15 -3 6 -10 9 -4 9
17 0 34 11 49 39 51 15 1 18 -3 14 -15z m-4336 -19 c8 -21 -40 -61 -85 -69
-37 -7 -39 -7 -44 21 -2 15 8 25 42 42 54 27 79 29 87 6z m-607 -133 c0 -5 18
-10 40 -10 34 0 40 -3 40 -21 0 -11 -7 -27 -15 -35 -8 -9 -15 -20 -15 -25 0
-5 7 -9 15 -9 8 0 15 7 15 15 0 20 16 19 24 0 8 -23 -30 -57 -55 -50 -12 4
-18 12 -15 21 3 8 0 14 -7 14 -39 -1 -63 -19 -108 -83 -47 -68 -51 -71 -92
-72 -23 -1 -50 -5 -59 -10 -11 -4 -18 -3 -18 3 0 6 14 13 30 17 17 4 30 11 30
15 0 5 7 7 15 4 12 -5 15 3 15 35 0 23 -4 41 -10 41 -5 0 -10 10 -9 23 0 20 1
21 8 2 7 -16 9 -14 14 14 6 27 10 32 24 26 73 -31 74 -31 88 -11 8 10 12 23 9
28 -3 5 5 17 17 27 20 16 21 21 10 35 -9 10 -10 16 -2 16 6 0 11 -4 11 -10z
m-260 -50 c0 -11 -7 -20 -15 -20 -15 0 -21 21 -8 33 12 13 23 7 23 -13z m550
-32 c0 -7 -4 -19 -9 -27 -11 -17 -23 1 -15 23 7 19 24 21 24 4z m230 -7 c0 -6
-4 -13 -10 -16 -5 -3 -10 1 -10 9 0 9 5 16 10 16 6 0 10 -4 10 -9z m-523 -53
c-3 -8 -6 -5 -6 6 -1 11 2 17 5 13 3 -3 4 -12 1 -19z m-240 6 c-3 -3 -12 -4
-19 -1 -8 3 -5 6 6 6 11 1 17 -2 13 -5z m5433 -154 c11 -7 12 -12 3 -21 -13
-13 -33 -4 -33 17 0 16 9 18 30 4z m-5370 -38 c0 -13 -12 -22 -22 -16 -10 6
-1 24 13 24 5 0 9 -4 9 -8z m4930 -76 c0 -8 -4 -18 -10 -21 -5 -3 -10 3 -10
14 0 12 5 21 10 21 6 0 10 -6 10 -14z m-4060 -258 c0 -24 -6 -83 -14 -133 -10
-65 -12 -140 -7 -270 4 -99 5 -185 3 -192 -5 -17 -52 26 -52 48 0 10 -11 26
-25 37 -21 16 -24 25 -19 52 5 22 9 28 15 18 6 -9 9 -6 9 10 0 14 -4 21 -11
17 -11 -7 -5 45 12 101 5 17 16 90 23 161 13 123 33 193 56 193 6 0 10 -19 10
-42z m4270 -12 c0 -7 -7 -19 -15 -26 -12 -10 -15 -9 -15 7 0 11 3 23 7 26 11
12 23 8 23 -7z m-5067 -196 c-26 -23 -88 -58 -95 -54 -17 11 -7 34 15 34 12 0
33 9 47 19 22 18 53 19 33 1z m6 -82 c-8 -15 -40 -41 -76 -62 -29 -17 -10 13
22 35 21 15 35 32 35 45 0 11 3 24 7 28 12 11 21 -27 12 -46z m1598 -17 l23
-19 -30 -32 c-21 -22 -29 -39 -25 -51 4 -12 1 -21 -9 -25 -9 -3 -16 -17 -16
-30 0 -13 -4 -24 -9 -24 -14 0 -33 28 -26 40 7 11 -5 13 -29 4 -24 -9 -19 -31
15 -64 42 -40 26 -80 -20 -51 -10 7 -19 4 -27 -7 -12 -16 -14 -16 -27 2 -14
19 -15 19 -26 -2 -16 -31 -68 -30 -81 1 -5 12 -9 16 -9 10 -1 -19 -26 -16 -45
6 -16 18 -16 20 10 40 15 11 37 21 50 21 28 0 107 30 99 38 -8 8 26 42 42 42
7 0 22 9 34 21 11 11 30 22 42 25 11 2 28 11 36 19 15 15 14 18 -8 36 -20 17
-21 19 -5 19 11 -1 29 -9 41 -19z m-1597 -41 c0 -6 -8 -13 -17 -16 -10 -3 -26
-10 -35 -15 -12 -6 -18 -6 -18 1 0 9 47 39 63 40 4 0 7 -5 7 -10z m1226 -1 c4
-7 21 -9 40 -6 38 6 47 -7 12 -17 -33 -9 -108 -7 -108 2 0 25 43 41 56 21z
m3126 -101 c-7 -7 -12 -8 -12 -2 0 14 12 26 19 19 2 -3 -1 -11 -7 -17z m-4355
-4 c-3 -3 -12 -4 -19 -1 -8 3 -5 6 6 6 11 1 17 -2 13 -5z m4063 -4 c0 -5 -2
-10 -4 -10 -3 0 -8 5 -11 10 -3 6 -1 10 4 10 6 0 11 -4 11 -10z m280 -90 c0
-5 -5 -10 -11 -10 -5 0 -7 5 -4 10 3 6 8 10 11 10 2 0 4 -4 4 -10z m-2890 -64
c0 -11 -19 -15 -25 -6 -3 5 1 10 9 10 9 0 16 -2 16 -4z m3130 -266 c0 -5 -4
-10 -10 -10 -5 0 -10 5 -10 10 0 6 5 10 10 10 6 0 10 -4 10 -10z m-660 -130
c0 -11 -4 -20 -9 -20 -7 0 -8 17 -2 38 4 10 11 -2 11 -18z m-30 0 c0 -5 -4
-10 -9 -10 -6 0 -13 5 -16 10 -3 6 1 10 9 10 9 0 16 -4 16 -10z m-4335 -243
c-5 -17 -12 -24 -21 -20 -17 6 -18 29 -1 48 17 19 29 3 22 -28z m-205 -109 c0
-19 -31 -48 -52 -48 -25 0 -23 10 10 37 31 25 42 28 42 11z m200 -288 c12 -23
37 -59 56 -80 20 -22 33 -43 30 -49 -8 -13 -46 -1 -46 14 0 8 -9 16 -20 20
-25 8 -80 78 -80 102 0 48 34 44 60 -7z m3545 -380 c-9 -15 -35 -12 -35 3 0 7
5 18 12 25 9 9 14 9 21 -3 4 -8 5 -20 2 -25z m-6 -82 c-2 -63 -13 -93 -30 -82
-5 3 -9 25 -9 49 0 31 5 47 18 54 11 7 13 10 3 11 -11 0 -11 3 -1 15 7 8 14
15 17 15 2 0 3 -28 2 -62z m-2167 -153 c3 -3 -1 -36 -9 -73 -21 -103 -21 -104
-28 -154 -4 -34 -12 -51 -26 -59 -12 -6 -23 -8 -27 -4 -8 8 26 240 40 271 10
22 37 32 50 19z m-2272 -46 c-13 -23 -33 -21 -38 4 -3 12 4 17 23 17 23 0 25
-2 15 -21z m2370 -9 c0 -5 -4 -19 -9 -32 -5 -13 -12 -32 -16 -43 -6 -20 -7
-20 -20 -1 -13 17 -12 54 2 79 6 10 43 9 43 -3z m440 -31 c0 -12 -37 -12 -44
0 -3 4 -3 11 0 14 8 7 44 -4 44 -14z m512 -11 c16 -13 37 -128 24 -128 -4 0
-24 11 -45 25 -64 43 -80 98 -29 108 13 2 26 5 29 6 3 0 12 -5 21 -11z m1046
-50 c-10 -21 -23 -36 -28 -33 -6 4 -10 1 -10 -4 0 -6 -4 -11 -10 -11 -5 0 -10
6 -10 13 1 16 35 57 49 57 6 0 11 5 11 11 0 6 -9 8 -22 4 -22 -7 -22 -7 -4 8
33 25 46 0 24 -45z m-4488 2 c0 -40 0 -40 -37 -39 -35 0 -36 1 -15 11 24 12
28 23 12 33 -12 7 9 34 28 35 7 0 12 -14 12 -40z m403 23 c9 -3 17 -10 17 -15
0 -6 9 -8 20 -5 25 7 36 -9 19 -29 -11 -14 -14 -14 -23 -2 -15 20 -51 38 -75
38 -12 0 -21 4 -21 8 0 15 14 23 29 16 9 -3 24 -9 34 -11z m2157 8 c0 -5 -7
-17 -16 -26 -13 -13 -19 -14 -25 -4 -4 7 -5 18 -2 26 6 15 43 18 43 4z m990
-53 c0 -14 -8 -18 -35 -18 -19 0 -35 3 -35 6 0 4 10 22 22 41 l21 35 13 -23
c7 -13 13 -32 14 -41z m-3480 22 c0 -5 -4 -10 -10 -10 -5 0 -10 5 -10 10 0 6
5 10 10 10 6 0 10 -4 10 -10z m2985 0 c3 -5 1 -10 -4 -10 -6 0 -11 5 -11 10 0
6 2 10 4 10 3 0 8 -4 11 -10z m32 -42 c-3 -8 -6 -5 -6 6 -1 11 2 17 5 13 3 -3
4 -12 1 -19z m183 -30 c0 -7 -9 -24 -19 -37 -16 -21 -19 -22 -25 -6 -4 11 0
25 11 36 21 21 33 24 33 7z m267 -54 c-3 -3 -12 -4 -19 -1 -8 3 -5 6 6 6 11 1
17 -2 13 -5z m-3122 -24 c3 -5 2 -10 -4 -10 -5 0 -13 5 -16 10 -3 6 -2 10 4
10 5 0 13 -4 16 -10z"/>
<path d="M4856 9731 c-14 -16 -15 -20 -2 -30 20 -17 36 -6 36 25 0 29 -11 31
-34 5z"/>
<path d="M4640 9499 c0 -5 5 -7 10 -4 6 3 10 8 10 11 0 2 -4 4 -10 4 -5 0 -10
-5 -10 -11z"/>
<path d="M4595 9480 c-8 -13 5 -13 25 0 13 8 13 10 -2 10 -9 0 -20 -4 -23 -10z"/>
<path d="M3051 9634 c0 -11 3 -14 6 -6 3 7 2 16 -1 19 -3 4 -6 -2 -5 -13z"/>
<path d="M2981 9614 c0 -11 3 -14 6 -6 3 7 2 16 -1 19 -3 4 -6 -2 -5 -13z"/>
<path d="M1455 9681 c4 -8 2 -16 -5 -21 -9 -5 -10 -17 -5 -36 8 -27 9 -27 12
-6 3 12 11 22 19 22 20 0 17 14 -8 36 -12 10 -18 13 -13 5z"/>
<path d="M2435 9480 c3 -5 10 -10 16 -10 5 0 9 5 9 10 0 6 -7 10 -16 10 -8 0
-12 -4 -9 -10z"/>
<path d="M3170 8991 c0 -25 6 -27 13 -6 4 8 2 17 -3 20 -6 4 -10 -3 -10 -14z"/>
<path d="M555 8840 c3 -5 10 -10 16 -10 5 0 9 5 9 10 0 6 -7 10 -16 10 -8 0
-12 -4 -9 -10z"/>
<path d="M4093 8603 c-3 -10 -8 -21 -10 -25 -2 -5 2 -8 10 -8 17 0 30 37 16
46 -5 3 -12 -3 -16 -13z"/>
<path d="M1589 6013 c-21 -56 7 -115 61 -127 39 -9 55 7 55 58 0 55 -33 96
-77 96 -22 0 -31 -6 -39 -27z"/>
<path d="M285 5398 c-6 -13 -19 -24 -30 -26 -33 -6 -42 -22 -12 -22 15 0 27 4
27 8 0 5 13 7 29 4 19 -3 30 1 34 12 16 42 -30 65 -48 24z"/>
<path d="M7458 3451 c-10 -21 -18 -44 -18 -52 0 -8 9 6 20 30 12 24 19 48 18
52 -2 4 -11 -10 -20 -30z"/>
<path d="M7402 3260 c0 -14 2 -19 5 -12 2 6 2 18 0 25 -3 6 -5 1 -5 -13z"/>
<path d="M1620 10390 c0 -5 5 -10 10 -10 6 0 10 5 10 10 0 6 -4 10 -10 10 -5
0 -10 -4 -10 -10z"/>
<path d="M1300 10365 c0 -8 5 -15 10 -15 6 0 10 7 10 15 0 8 -4 15 -10 15 -5
0 -10 -7 -10 -15z"/>
<path d="M7370 10200 c-20 -20 -24 -34 -35 -109 -3 -24 -9 -49 -13 -55 -27
-44 -98 -299 -87 -315 3 -6 27 -13 53 -16 81 -11 102 -16 116 -31 12 -12 18
-12 42 1 15 7 44 17 66 20 21 4 38 10 38 13 0 14 -17 33 -31 36 -36 7 -49 20
-49 46 l0 28 -30 -30 c-23 -23 -36 -29 -53 -24 -12 4 -37 9 -54 13 -25 4 -33
11 -33 27 0 28 46 200 65 240 18 40 45 134 45 158 0 23 -15 23 -40 -2z"/>
<path d="M7592 9697 c18 -18 58 -23 58 -7 0 6 -9 10 -19 10 -11 0 -28 3 -38 7
-17 6 -17 6 -1 -10z"/>
<path d="M7337 9455 c-28 -44 -46 -105 -31 -105 28 1 62 48 67 92 4 26 3 49
-1 51 -4 3 -19 -14 -35 -38z"/>
<path d="M5800 8845 c0 -8 5 -15 10 -15 6 0 10 -7 10 -15 0 -20 16 -19 24 1 4
9 5 17 4 18 -2 1 -13 7 -25 14 -19 10 -23 10 -23 -3z"/>
<path d="M7622 8853 c-12 -2 -29 -15 -37 -27 -15 -23 -65 -161 -65 -180 0 -7
17 -10 46 -7 26 2 73 -2 104 -9 49 -10 59 -16 65 -37 4 -17 11 -23 21 -19 9 3
22 6 30 6 11 0 14 23 14 119 0 127 -4 137 -55 132 -11 -1 -37 5 -57 14 -21 8
-39 14 -40 14 -2 -1 -13 -4 -26 -6z"/>
<path d="M5874 8834 c-4 -10 -9 -22 -11 -26 -2 -5 0 -8 6 -8 11 0 26 39 17 47
-3 3 -9 -3 -12 -13z"/>
<path d="M5875 8530 c4 -6 11 -8 16 -5 14 9 11 15 -7 15 -8 0 -12 -5 -9 -10z"/>
<path d="M6975 8470 c-17 -18 -17 -20 -1 -20 9 0 19 7 23 15 9 25 -2 27 -22 5z"/>
<path d="M7752 8332 c-9 -6 -5 -12 13 -20 33 -15 35 -15 35 2 0 8 -7 17 -16
20 -19 7 -16 7 -32 -2z"/>
<path d="M7630 8280 c-19 -11 -43 -19 -52 -20 -9 0 -26 -14 -38 -31 -13 -17
-33 -34 -46 -39 -21 -8 -24 -16 -24 -61 0 -36 5 -55 16 -64 19 -13 21 3 -45
-282 -48 -202 -63 -235 -105 -231 -24 2 -31 9 -38 33 -4 17 -23 46 -42 65 -42
42 -46 82 -15 150 18 39 19 50 8 82 -16 49 2 170 35 239 l25 51 -42 -8 c-23
-4 -76 -8 -117 -9 -73 -2 -75 -3 -78 -29 -3 -23 0 -26 20 -22 61 12 108 15
108 7 0 -10 -9 -20 -59 -64 -17 -15 -31 -35 -31 -45 0 -17 -29 -52 -62 -75
-21 -14 -72 -259 -83 -397 -6 -73 -74 -364 -104 -443 -6 -15 -20 -66 -31 -114
-12 -49 -37 -133 -56 -188 -19 -55 -36 -116 -38 -135 -4 -44 -20 -76 -46 -90
-22 -12 -54 -67 -42 -73 11 -7 168 -2 245 8 41 5 67 4 67 -2 0 -16 63 -30 125
-27 82 3 158 13 167 22 4 4 15 29 25 56 10 26 23 49 28 50 6 0 15 -19 20 -42
10 -38 13 -42 24 -28 11 13 61 24 61 13 0 -1 -8 -25 -19 -53 -14 -41 -16 -54
-6 -67 16 -22 25 -21 25 2 0 10 7 24 15 31 8 7 15 19 15 27 0 8 7 13 18 11 13
-3 17 -14 17 -50 l0 -46 22 24 c24 27 51 31 59 10 3 -7 -6 -34 -19 -59 -21
-39 -23 -48 -11 -58 20 -16 40 -5 60 33 22 43 21 43 39 28 19 -15 20 -59 2
-85 -30 -45 -29 -55 11 -72 20 -9 65 -21 100 -28 l62 -12 0 639 0 639 -28 5
c-20 4 -30 14 -38 38 -9 29 -7 35 17 59 15 15 33 27 38 27 7 0 11 27 11 69 l0
69 -40 7 c-22 4 -43 11 -46 16 -9 15 49 129 69 135 19 6 23 40 5 46 -9 3 -9
21 -1 74 6 38 10 107 9 154 -1 77 -3 85 -20 82 -10 -2 -15 1 -11 7 3 6 0 9 -7
6 -8 -3 -19 7 -26 25 -16 36 -49 39 -102 10z m105 -166 c-22 -16 -41 -4 -31
21 5 13 10 14 28 4 21 -11 21 -12 3 -25z m-147 -309 c-4 -16 -9 -79 -10 -140
-2 -102 -4 -113 -29 -145 -14 -19 -39 -55 -54 -79 -26 -42 -28 -43 -41 -26
-13 18 -14 18 -34 0 -26 -24 -25 -18 10 106 40 143 76 246 100 286 11 19 20
42 20 52 0 9 5 22 12 29 17 17 37 -44 26 -83z m80 -27 c-12 -19 -12 -27 -1
-48 7 -14 18 -48 24 -76 10 -46 10 -55 -7 -78 -22 -30 -34 -33 -34 -8 0 9 -7
30 -15 46 -18 34 -19 55 -4 129 10 46 16 57 32 57 18 0 18 -2 5 -22z m-418
-302 c0 -13 -7 -29 -15 -36 -12 -10 -15 -9 -15 6 0 32 12 64 21 58 5 -3 9 -16
9 -28z m-27 -96 c-3 -11 -7 -20 -9 -20 -2 0 -4 9 -4 20 0 11 4 20 9 20 5 0 7
-9 4 -20z m412 -119 c3 -5 1 -12 -5 -16 -5 -3 -10 1 -10 9 0 18 6 21 15 7z
m-376 -125 c11 -29 -23 -59 -58 -51 -19 4 -32 1 -41 -10 -7 -9 -26 -25 -42
-36 l-28 -20 0 26 c0 18 6 29 20 32 15 4 18 11 14 28 -7 27 21 75 42 75 8 0
17 7 21 16 5 13 11 10 35 -13 17 -15 33 -37 37 -47z m-259 -326 c-16 -29 -6
-36 22 -16 56 39 87 6 36 -38 -35 -30 -59 -76 -40 -76 4 0 19 11 32 25 53 56
122 7 111 -80 -2 -17 1 -16 21 7 17 21 29 26 46 22 12 -4 22 -10 22 -14 0 -4
10 -11 23 -14 l22 -7 -21 -9 c-12 -4 -35 -31 -53 -59 -31 -51 -44 -59 -71 -41
-12 7 -12 14 -2 43 17 47 15 54 -8 25 -11 -14 -29 -28 -40 -31 -19 -5 -50 15
-50 32 0 5 -18 11 -40 15 -28 4 -40 11 -41 24 -1 9 -2 22 -4 27 -1 6 -3 21 -4
35 l-2 25 -18 -22 c-23 -28 -41 -30 -41 -5 0 25 54 132 82 162 19 20 23 22 26
8 2 -9 -2 -27 -8 -38z"/>
<path d="M7072 6658 c-7 -7 -12 -20 -12 -31 0 -30 34 -16 38 16 4 29 -6 35
-26 15z"/>
<path d="M2097 7844 c-8 -8 1 -24 14 -24 5 0 9 7 9 15 0 15 -12 20 -23 9z"/>
<path d="M1400 7811 c0 -5 6 -14 14 -20 16 -13 32 2 21 19 -8 12 -35 13 -35 1z"/>
<path d="M1780 7774 c0 -11 5 -14 16 -10 9 3 22 6 30 6 8 0 14 5 14 10 0 6
-13 10 -30 10 -21 0 -30 -5 -30 -16z"/>
<path d="M2880 7640 c0 -10 10 -29 23 -40 12 -12 22 -24 22 -28 0 -4 8 -24 18
-44 13 -27 22 -35 33 -31 13 5 15 1 10 -15 -5 -14 -1 -24 11 -31 13 -8 14 -10
3 -11 -24 0 14 -32 42 -35 13 -1 26 -3 30 -4 4 0 19 -27 34 -58 15 -32 27 -59
28 -59 1 -1 16 -5 35 -9 33 -7 34 -6 18 10 -31 31 -37 53 -40 149 -2 91 -3 95
-29 111 -24 14 -33 30 -30 56 1 4 -22 9 -51 12 -29 3 -70 15 -92 26 -49 26
-65 26 -65 1z"/>
<path d="M2685 7520 c-3 -5 3 -10 14 -10 12 0 21 5 21 10 0 6 -6 10 -14 10 -8
0 -18 -4 -21 -10z"/>
<path d="M3848 7485 c-6 -27 8 -43 23 -28 9 9 1 53 -11 53 -4 0 -10 -11 -12
-25z"/>
<path d="M2877 7451 c-3 -14 -1 -18 9 -14 8 3 14 11 14 19 0 21 -17 17 -23 -5z"/>
<path d="M3660 7345 c0 -8 -9 -15 -20 -15 -11 0 -20 -4 -20 -10 0 -11 36 -31
53 -29 27 3 36 -2 30 -17 -5 -12 2 -15 41 -13 30 2 46 7 46 16 0 7 -8 13 -17
13 -15 1 -14 3 5 13 17 10 20 15 10 25 -7 7 -20 12 -29 12 -10 0 -21 5 -24 10
-10 17 -75 12 -75 -5z"/>
<path d="M2975 7336 c-14 -10 -10 -15 35 -35 59 -27 74 -22 39 12 -32 31 -54
38 -74 23z"/>
<path d="M3380 7200 c-9 -6 -10 -10 -3 -10 6 0 15 5 18 10 8 12 4 12 -15 0z"/>
<path d="M3325 7180 c-8 -13 5 -13 25 0 13 8 13 10 -2 10 -9 0 -20 -4 -23 -10z"/>
<path d="M6445 7078 c4 -30 -2 -67 -19 -123 -13 -44 -22 -82 -20 -84 2 -2 14
3 26 11 16 11 28 36 41 84 20 78 30 94 70 111 15 7 27 19 27 28 0 12 -14 15
-66 15 l-65 0 6 -42z"/>
<path d="M1860 7036 c46 -29 282 -136 298 -136 15 0 -36 33 -75 49 -26 10 -82
34 -123 53 -42 20 -87 38 -100 42 l-25 7 25 -15z"/>
<path d="M3853 6795 c-3 -9 -3 -18 -1 -21 3 -3 8 4 11 16 6 23 -1 27 -10 5z"/>
<path d="M3328 6773 c6 -2 18 -2 25 0 6 3 1 5 -13 5 -14 0 -19 -2 -12 -5z"/>
<path d="M6598 6629 c-10 -5 -24 -9 -30 -7 -7 1 -31 -7 -53 -17 -28 -14 -35
-21 -22 -23 26 -5 114 27 121 44 6 16 6 16 -16 3z"/>
<path d="M6305 6560 c-5 -7 16 -9 62 -4 89 9 93 14 10 14 -36 0 -69 -5 -72
-10z"/>
<path d="M2963 6518 c-36 -40 -76 -63 -125 -72 -37 -7 -54 -26 -23 -26 13 0
13 -3 3 -20 -7 -11 -21 -20 -30 -20 -10 0 -17 -5 -15 -12 1 -6 -8 -14 -21 -17
-13 -3 -22 -10 -21 -16 3 -21 25 -43 45 -46 31 -6 93 31 91 53 -2 18 14 28
106 74 16 8 36 14 45 14 9 0 22 11 29 25 6 14 7 25 2 25 -5 0 -9 -4 -9 -10 0
-15 -42 -12 -64 5 -27 20 -11 35 40 35 49 0 57 11 19 28 -36 17 -39 16 -72
-20z"/>
<path d="M3165 6491 c-3 -6 0 -11 7 -11 7 0 0 -11 -15 -25 -15 -14 -27 -30
-27 -35 0 -14 18 -21 25 -10 3 5 26 19 51 30 24 11 44 25 44 30 0 4 8 11 18
13 9 3 -2 5 -25 6 -23 0 -48 4 -56 7 -8 3 -18 1 -22 -5z"/>
<path d="M6336 6490 c-16 -5 -33 -7 -37 -4 -10 6 -29 -28 -29 -51 0 -9 -10
-39 -21 -66 -15 -34 -27 -49 -40 -49 -11 0 -19 -5 -19 -10 0 -6 -10 -24 -22
-41 -20 -27 -21 -31 -6 -45 19 -19 93 -37 120 -28 24 7 39 44 26 61 -18 22 -1
40 41 46 22 3 54 12 72 21 18 9 51 16 74 16 27 0 54 8 76 23 30 20 34 28 34
67 0 44 -1 45 -34 48 -27 3 -39 -2 -62 -28 -16 -17 -33 -28 -39 -25 -5 3 -20
-1 -32 -9 -23 -17 -55 -20 -82 -10 -30 12 -16 21 40 27 54 6 103 32 87 48 -13
12 -116 19 -147 9z m-56 -180 c0 -5 -4 -10 -10 -10 -5 0 -10 5 -10 10 0 6 5
10 10 10 6 0 10 -4 10 -10z"/>
<path d="M1862 6452 c-27 -9 10 -32 51 -32 28 0 38 3 31 10 -14 14 -66 28 -82
22z"/>
<path d="M5140 6358 c-13 -51 -29 -105 -36 -120 -16 -30 -19 -78 -5 -78 16 0
61 41 75 68 14 28 46 169 46 203 0 14 -7 19 -29 19 -28 0 -29 -2 -51 -92z"/>
<path d="M5247 6423 c-21 -42 -12 -54 34 -47 37 6 39 5 39 -18 0 -17 -14 -37
-46 -63 -25 -21 -43 -44 -40 -51 6 -16 -51 -84 -68 -80 -6 2 -8 1 -3 -1 8 -5
10 -75 1 -97 -3 -9 -14 -16 -24 -16 -10 0 -21 -8 -24 -17 -5 -12 -9 -14 -18
-5 -17 17 -23 15 -36 -13 -15 -32 -16 -95 -2 -95 6 0 10 5 10 10 0 6 5 10 12
10 6 0 2 -10 -10 -23 -12 -13 -22 -31 -22 -40 0 -9 -4 -18 -9 -21 -5 -3 -11
-18 -14 -33 -3 -16 -14 -58 -25 -96 l-21 -67 53 -25 c29 -14 60 -25 69 -25 8
0 17 -5 19 -11 4 -12 19 16 36 69 14 45 84 152 98 152 6 0 74 -25 149 -56 151
-61 259 -81 282 -52 10 12 94 207 125 290 8 23 4 33 -34 84 -24 31 -66 80 -94
108 -28 28 -59 63 -69 79 -10 16 -26 27 -40 27 -13 0 -25 7 -29 15 -3 10 -16
14 -38 13 -29 -3 -33 0 -36 25 -2 16 4 39 13 53 8 13 14 24 13 25 -2 0 -30 2
-63 4 -33 3 -86 7 -117 10 -55 6 -58 5 -71 -22z"/>
<path d="M1982 6406 c7 -8 16 -12 21 -9 11 7 -2 23 -19 23 -12 0 -12 -2 -2
-14z"/>
<path d="M3060 6383 c0 -13 5 -23 10 -23 13 0 13 11 0 30 -8 12 -10 11 -10 -7z"/>
<path d="M3111 6384 c0 -11 3 -14 6 -6 3 7 2 16 -1 19 -3 4 -6 -2 -5 -13z"/>
<path d="M7468 6374 c-5 -4 -8 -16 -8 -28 0 -14 3 -17 11 -9 6 6 9 19 7 28 -1
9 -6 13 -10 9z"/>
<path d="M6129 6338 c-22 -18 -49 -64 -49 -83 0 -14 4 -13 26 4 15 12 32 21
39 21 11 0 35 41 35 60 0 14 -33 12 -51 -2z"/>
<path d="M2243 6308 c2 -7 12 -13 22 -13 10 0 20 6 23 13 2 7 -6 12 -23 12
-17 0 -25 -5 -22 -12z"/>
<path d="M2960 6310 c0 -5 -7 -10 -15 -10 -8 0 -15 -6 -15 -14 0 -19 17 -29
25 -16 11 18 45 11 45 -9 0 -10 7 -24 16 -32 13 -10 17 -10 25 2 6 10 9 11 9
1 0 -7 5 -10 10 -7 16 10 11 48 -9 73 -14 15 -30 22 -55 22 -20 0 -36 -4 -36
-10z"/>
<path d="M3778 6258 c-8 -13 -18 -49 -22 -82 -3 -32 -11 -67 -17 -77 -5 -10
-6 -19 -2 -19 16 1 61 56 65 79 5 37 32 49 58 26 l21 -19 -3 49 c-3 48 -4 50
-30 48 -16 -1 -28 2 -28 8 0 18 -28 9 -42 -13z"/>
<path d="M2785 6170 c-3 -5 -1 -10 4 -10 6 0 11 5 11 10 0 6 -2 10 -4 10 -3 0
-8 -4 -11 -10z"/>
<path d="M2561 6156 c-12 -14 -5 -16 72 -16 53 0 87 -4 89 -11 2 -6 14 -2 28
10 l25 21 -35 -2 c-19 0 -64 2 -100 6 -54 7 -68 5 -79 -8z"/>
<path d="M2844 6141 c23 -26 49 -28 44 -3 -2 10 -14 18 -33 20 -30 4 -30 4
-11 -17z"/>
<path d="M6850 6057 c0 -7 4 -17 9 -22 5 -6 11 -21 13 -35 2 -18 10 -26 29
-28 22 -3 29 2 38 30 7 18 12 35 12 37 0 5 -79 31 -93 31 -5 0 -8 -6 -8 -13z"/>
<path d="M2040 6000 c0 -5 -9 -12 -20 -15 -11 -3 -20 -12 -20 -19 0 -9 -9 -12
-25 -8 -51 9 -22 -18 65 -62 49 -25 103 -46 120 -46 16 0 30 -4 30 -10 0 -5
-7 -10 -15 -10 -8 0 -15 -4 -15 -9 0 -5 23 -2 50 7 28 9 50 21 50 27 0 13 -68
50 -87 48 -7 0 -13 2 -13 6 0 3 -22 6 -49 6 -26 0 -55 6 -65 14 -15 13 -15 14
1 26 21 16 25 42 7 49 -8 3 -14 1 -14 -4z"/>
<path d="M6040 5981 l-44 -6 24 -15 c14 -9 61 -27 105 -40 44 -13 86 -28 94
-34 8 -6 32 -16 55 -22 59 -16 136 -44 176 -64 19 -10 55 -21 80 -25 94 -15
258 -77 422 -161 38 -19 73 -34 80 -34 11 0 87 -47 98 -61 3 -3 21 -14 40 -24
19 -10 53 -33 76 -51 23 -19 44 -34 47 -34 3 0 34 -19 69 -42 35 -24 83 -54
108 -67 25 -14 47 -28 50 -31 14 -19 227 -100 264 -100 13 0 16 10 16 49 l0
50 -65 -3 c-58 -3 -73 1 -133 31 -37 19 -74 41 -83 49 -8 8 -21 14 -27 14 -7
0 -12 3 -12 8 0 4 -14 15 -30 24 -17 10 -33 25 -37 35 -4 10 -12 23 -17 29 -6
6 -18 22 -26 34 -21 32 -191 182 -226 200 -50 25 -155 90 -248 152 -48 33
-103 68 -121 78 -18 10 -43 27 -54 37 -18 15 -45 18 -218 19 -109 1 -247 4
-308 7 -60 3 -130 2 -155 -2z"/>
<path d="M2080 5972 c0 -10 48 -37 55 -31 2 3 -9 13 -25 23 -17 9 -30 13 -30
8z"/>
<path d="M2630 5949 c-7 -11 -9 -23 -6 -26 7 -7 36 22 36 36 0 18 -19 12 -30
-10z"/>
<path d="M3931 5921 c-57 -8 -58 -12 -53 -204 l4 -148 31 3 32 3 0 145 0 145
40 5 c35 4 40 9 43 33 4 30 -2 31 -97 18z"/>
<path d="M3761 5904 c0 -11 3 -14 6 -6 3 7 2 16 -1 19 -3 4 -6 -2 -5 -13z"/>
<path d="M3726 5857 c-3 -12 -9 -44 -15 -72 -6 -27 -13 -86 -16 -130 -3 -44
-8 -110 -11 -147 l-7 -68 44 -1 c33 0 39 -2 24 -9 -33 -13 -62 -63 -70 -118
-8 -58 -1 -63 38 -32 14 11 29 20 34 20 4 0 23 14 42 32 l34 32 -7 80 c-3 45
-8 131 -11 191 -6 144 -10 185 -23 215 -13 33 -50 37 -56 7z"/>
<path d="M4697 5682 c-21 -22 -22 -42 -3 -42 24 0 139 -195 186 -316 59 -155
103 -202 250 -269 47 -21 144 -67 215 -103 72 -35 159 -75 193 -88 99 -38 319
-93 397 -99 39 -3 132 -13 209 -22 117 -14 157 -15 264 -5 70 7 131 17 137 23
7 8 -10 9 -60 4 -253 -23 -586 6 -748 66 -28 11 -88 32 -132 46 -44 14 -92 34
-107 44 -14 11 -33 19 -41 19 -9 0 -17 4 -19 8 -1 5 -41 23 -88 42 -47 18 -94
41 -105 50 -11 9 -38 26 -60 37 -221 113 -235 128 -256 268 -8 50 -18 83 -30
94 -10 9 -30 39 -45 66 -66 126 -114 195 -134 195 -4 0 -14 -8 -23 -18z"/>
<path d="M2385 5577 c-10 -8 -15 -19 -11 -25 3 -6 -4 -18 -16 -26 -17 -12 -18
-16 -6 -16 8 0 21 7 28 15 7 8 20 15 30 15 16 0 50 29 50 43 0 12 -56 7 -75
-6z"/>
<path d="M1753 5548 c2 -7 12 -13 22 -13 10 0 20 6 23 13 2 7 -6 12 -23 12
-17 0 -25 -5 -22 -12z"/>
<path d="M4605 5519 c-4 -6 -5 -12 -2 -15 2 -3 7 2 10 11 7 17 1 20 -8 4z"/>
<path d="M1786 5505 c-3 -9 0 -15 9 -15 16 0 20 16 6 24 -5 3 -11 -1 -15 -9z"/>
<path d="M3514 5470 c-32 -27 -66 -50 -75 -50 -17 0 -29 -19 -29 -46 0 -22 34
-16 60 11 29 31 40 32 33 3 -4 -17 4 -10 30 21 30 38 54 97 44 107 -2 2 -30
-19 -63 -46z"/>
<path d="M1785 5421 c-3 -5 -1 -12 5 -16 12 -7 30 2 30 16 0 12 -27 12 -35 0z"/>
<path d="M3444 5276 c-42 -54 -61 -101 -45 -111 6 -3 28 19 50 49 22 30 50 57
61 61 14 4 20 15 20 33 l-1 27 -29 -35 c-31 -35 -38 -35 -19 2 21 38 3 26 -37
-26z"/>
<path d="M7120 5300 c0 -11 3 -20 8 -20 4 0 18 -3 32 -7 l25 -6 -24 27 c-29
31 -41 33 -41 6z"/>
<path d="M0 5285 c0 -8 4 -15 10 -15 5 0 7 7 4 15 -4 8 -8 15 -10 15 -2 0 -4
-7 -4 -15z"/>
<path d="M1440 5280 c0 -11 -6 -20 -12 -20 -20 0 61 -63 118 -91 56 -28 84
-24 84 11 0 14 7 20 22 20 16 0 19 3 11 11 -8 8 -20 9 -42 1 -33 -12 -42 0
-13 17 14 9 11 10 -18 11 -20 0 -56 13 -85 30 -59 35 -65 36 -65 10z"/>
<path d="M3776 5255 c-4 -17 -13 -25 -29 -25 -21 -1 -21 -1 -3 -15 24 -19 15
-65 -14 -65 -15 0 -20 -7 -20 -25 0 -30 34 -47 65 -33 18 8 20 20 22 99 2 86
-8 116 -21 64z"/>
<path d="M1770 5215 c0 -8 2 -15 4 -15 2 0 6 7 10 15 3 8 1 15 -4 15 -6 0 -10
-7 -10 -15z"/>
<path d="M2216 5195 c-15 -14 -37 -25 -50 -25 -12 0 -36 -10 -53 -23 -29 -21
-30 -24 -17 -47 12 -23 13 -23 14 -5 1 18 2 18 10 -2 5 -13 13 -23 18 -23 5 0
9 -7 9 -15 0 -8 -6 -15 -14 -15 -16 0 -16 -5 -1 -33 11 -21 11 -21 19 -2 4 11
5 -7 2 -40 -3 -33 -10 -68 -14 -77 -12 -22 -11 -61 0 -54 11 7 22 -20 15 -38
-4 -9 5 -15 25 -18 31 -4 43 6 19 15 -7 3 -1 6 15 6 31 1 37 20 7 28 -20 5
-27 20 -29 66 -1 25 7 31 35 28 6 -1 19 8 29 19 10 11 13 20 7 20 -11 0 -28
38 -24 53 1 4 -6 3 -17 -2 -14 -8 -17 -17 -13 -33 3 -12 7 -17 10 -10 5 16 22
15 22 -2 0 -7 -9 -16 -20 -19 -11 -3 -20 -1 -20 4 0 5 -6 9 -13 9 -9 0 -13 14
-12 42 1 41 18 57 53 52 6 -1 17 -2 22 -3 6 0 10 -8 10 -16 0 -10 10 -15 30
-15 23 0 30 -4 30 -20 0 -11 7 -20 15 -20 8 0 15 -9 15 -20 0 -12 11 -31 25
-44 31 -29 32 -42 1 -50 -13 -3 -26 -15 -29 -27 -4 -15 -11 -20 -23 -15 -14 5
-15 1 -10 -28 5 -24 3 -36 -6 -39 -7 -2 -5 -3 5 -2 9 2 17 -1 17 -5 0 -5 35
-16 78 -25 42 -9 128 -27 190 -42 62 -14 115 -24 117 -22 2 2 7 32 10 66 7 57
6 61 -11 59 -30 -5 -37 5 -15 21 25 17 27 48 6 94 -22 52 -49 78 -96 94 -41
15 -45 14 -70 -4 -25 -19 -29 -19 -58 -5 -33 16 -41 34 -16 34 23 0 18 30 -10
52 -29 22 -25 38 10 38 32 0 41 18 21 38 -16 16 -17 16 -10 0 5 -14 1 -18 -18
-18 -13 0 -33 7 -44 15 -10 8 -36 15 -56 15 -21 0 -38 5 -38 10 0 6 -9 10 -19
10 -11 0 -23 9 -26 20 -8 27 -26 25 -59 -5z m-51 -67 c4 4 1 -3 -6 -15 -12
-21 -14 -21 -21 -5 -11 27 -9 35 5 23 8 -6 17 -7 22 -3z m239 -64 c3 -8 2 -12
-4 -9 -6 3 -10 10 -10 16 0 14 7 11 14 -7z"/>
<path d="M2556 5211 c-28 -6 -29 -7 -12 -23 25 -26 46 -20 59 15 7 18 2 19
-47 8z"/>
<path d="M1684 5192 c3 -4 1 -25 -4 -45 -4 -21 -4 -39 1 -43 5 -3 9 7 9 21 0
17 4 25 13 22 6 -2 11 -10 10 -16 -5 -19 11 -11 30 15 19 25 19 25 -2 31 -11
3 -18 9 -15 14 3 5 -7 9 -21 9 -14 0 -24 -4 -21 -8z"/>
<path d="M1877 5186 c-4 -9 -1 -18 5 -22 7 -5 5 -12 -7 -21 -18 -13 -18 -13 1
-13 16 0 17 -2 4 -10 -13 -8 -13 -10 0 -10 9 0 7 -6 -8 -16 l-23 -16 26 -14
c15 -8 32 -11 37 -8 18 11 -3 -57 -23 -77 -20 -20 -39 -25 -39 -9 0 5 -7 7
-15 4 -23 -9 -87 16 -81 32 7 19 -40 68 -92 94 -38 20 -45 21 -58 8 -8 -8 -12
-22 -8 -31 11 -29 139 -117 170 -117 16 0 36 -5 44 -11 11 -8 8 -9 -15 -5
l-30 6 24 -18 c29 -21 124 -62 130 -56 2 2 -3 12 -13 23 -15 16 -15 19 -1 31
9 7 13 20 10 27 -10 29 6 63 30 63 13 0 27 5 30 10 3 6 1 10 -5 10 -6 0 -8 5
-5 10 10 16 35 11 35 -7 0 -22 6 -14 14 20 5 22 3 27 -12 27 -10 0 -27 7 -38
15 -10 8 -26 15 -35 15 -21 0 -32 39 -16 59 6 9 7 13 3 9 -5 -4 -15 -3 -21 2
-9 8 -14 6 -18 -4z m16 -241 c-13 -9 -29 -12 -40 -8 -16 6 -15 8 7 14 44 12
56 10 33 -6z"/>
<path d="M2490 5180 c-12 -8 -11 -10 8 -10 12 0 22 5 22 10 0 13 -11 13 -30 0z"/>
<path d="M690 5156 c0 -14 5 -26 10 -26 6 0 10 9 10 19 0 11 -4 23 -10 26 -6
4 -10 -5 -10 -19z"/>
<path d="M3425 5152 c-21 -27 -54 -91 -55 -104 0 -5 5 -8 10 -8 6 0 10 6 10
14 0 8 16 36 36 61 20 26 32 51 27 55 -4 5 -17 -3 -28 -18z"/>
<path d="M3831 5134 c0 -11 3 -14 6 -6 3 7 2 16 -1 19 -3 4 -6 -2 -5 -13z"/>
<path d="M692 5103 c3 -18 29 -25 48 -13 19 12 3 30 -26 30 -18 0 -25 -5 -22
-17z"/>
<path d="M1740 5110 c0 -5 7 -10 16 -10 8 0 12 5 9 10 -3 6 -10 10 -16 10 -5
0 -9 -4 -9 -10z"/>
<path d="M3403 5041 c-27 -13 -33 -22 -33 -50 0 -30 2 -32 18 -20 44 34 62 54
62 71 0 21 -4 21 -47 -1z"/>
<path d="M1866 5042 c-3 -6 -1 -14 5 -17 15 -10 25 3 12 16 -7 7 -13 7 -17 1z"/>
<path d="M709 4977 c-13 -10 -13 -19 -4 -57 l12 -45 5 55 c3 30 5 56 4 57 -1
2 -9 -3 -17 -10z"/>
<path d="M3420 4955 c-5 -12 -19 -31 -33 -41 -26 -21 -52 -63 -44 -71 3 -2 17
3 32 13 21 14 28 15 35 4 11 -18 30 -3 30 24 0 15 9 27 25 34 16 7 25 20 25
34 0 33 -58 35 -70 3z"/>
<path d="M1972 4940 c0 -14 2 -19 5 -12 2 6 2 18 0 25 -3 6 -5 1 -5 -13z"/>
<path d="M1931 4914 c0 -11 3 -14 6 -6 3 7 2 16 -1 19 -3 4 -6 -2 -5 -13z"/>
<path d="M790 4897 l-25 -11 33 -4 c17 -2 32 -7 32 -13 0 -14 40 -11 55 4 11
11 10 15 -6 25 -23 15 -56 14 -89 -1z"/>
<path d="M2240 4903 c0 -6 -7 -13 -15 -15 -11 -2 -12 -7 -4 -18 8 -11 12 -12
16 -2 8 21 23 13 23 -14 0 -14 4 -23 10 -19 6 3 10 12 10 19 0 17 -39 65 -40
49z"/>
<path d="M3375 4782 c-55 -42 -74 -79 -33 -67 12 4 29 10 36 12 7 3 12 -3 12
-16 0 -12 6 -21 15 -21 19 0 36 41 24 56 -6 7 -5 22 1 38 18 48 11 48 -55 -2z"/>
<path d="M3370 4643 c-46 -20 -70 -42 -70 -65 0 -23 3 -22 70 10 39 19 56 34
58 50 4 26 -8 27 -58 5z"/>
<path d="M3470 4639 c0 -24 23 -21 28 4 2 10 -3 17 -12 17 -10 0 -16 -9 -16
-21z"/>
<path d="M3505 4559 c-8 -25 -1 -34 20 -26 19 8 20 47 1 47 -8 0 -18 -9 -21
-21z"/>
<path d="M3333 4538 c-24 -12 -73 -103 -73 -135 0 -11 5 -24 12 -31 19 -19 38
6 38 49 0 28 6 42 22 53 43 31 68 16 68 -39 0 -32 15 -39 35 -18 13 12 15 26
11 57 -4 23 -12 47 -19 53 -18 18 -69 24 -94 11z"/>
<path d="M3500 4464 c-12 -31 -5 -64 14 -64 17 0 39 43 34 66 -5 30 -37 29
-48 -2z"/>
<path d="M893 4473 c9 -2 23 -2 30 0 6 3 -1 5 -18 5 -16 0 -22 -2 -12 -5z"/>
<path d="M3334 4354 c-46 -23 -79 -91 -67 -141 6 -28 14 -39 31 -41 13 -2 25
3 28 13 6 14 8 14 19 -1 11 -15 16 -16 44 -4 69 28 94 118 46 165 -28 29 -57
31 -101 9z m80 -87 c-10 -28 -24 -19 -24 15 0 29 2 31 15 17 9 -9 13 -23 9
-32z m-74 -19 c0 -29 -2 -31 -15 -17 -9 9 -13 23 -9 32 10 28 24 19 24 -15z"/>
<path d="M4706 4288 c-12 -20 -28 -90 -30 -138 -1 -8 -15 -41 -31 -73 -26 -51
-28 -60 -17 -89 11 -30 10 -34 -12 -53 -32 -27 -41 -59 -21 -79 15 -14 18 -13
41 11 14 15 22 33 20 40 -4 8 2 13 16 13 19 0 20 4 15 65 l-5 66 27 -17 c14
-9 35 -25 47 -35 11 -11 26 -19 32 -19 7 0 12 -8 12 -17 0 -24 36 -78 43 -66
4 6 2 25 -3 44 -5 19 -14 61 -20 94 -20 109 -22 120 -30 130 -7 10 -23 69 -21
80 3 11 -30 65 -39 65 -5 0 -16 -10 -24 -22z"/>
<path d="M288 4222 c-16 -2 -28 -8 -28 -13 0 -15 30 -23 42 -11 6 6 16 8 23 6
7 -3 16 -1 19 4 7 12 -20 18 -56 14z"/>
<path d="M3356 4136 c-51 -16 -71 -28 -77 -44 -12 -32 12 -39 74 -19 52 17 67
15 67 -7 0 -19 -30 -42 -75 -56 -62 -20 -76 -37 -56 -68 6 -10 21 -8 73 13 99
40 109 52 106 135 -3 81 -2 81 -112 46z"/>
<path d="M2680 4025 c0 -14 5 -25 10 -25 6 0 10 11 10 25 0 14 -4 25 -10 25
-5 0 -10 -11 -10 -25z"/>
<path d="M3150 3910 c0 -5 5 -10 10 -10 6 0 10 5 10 10 0 6 -4 10 -10 10 -5 0
-10 -4 -10 -10z"/>
<path d="M2486 3881 c-7 -10 79 -101 95 -101 6 0 8 -8 5 -17 -4 -12 7 -31 31
-56 20 -22 42 -55 48 -75 7 -21 22 -41 34 -47 11 -5 21 -16 21 -23 0 -15 41
-32 76 -32 17 0 24 6 24 18 0 10 -3 22 -7 26 -11 11 -32 97 -33 132 0 29 -3
31 -52 43 -39 9 -60 21 -90 53 -21 23 -38 45 -38 50 0 4 -13 8 -29 8 -16 0
-31 6 -35 15 -6 16 -41 21 -50 6z"/>
<path d="M3153 3810 c2 -73 15 -90 37 -49 9 15 8 24 0 35 -7 7 -10 19 -7 26 6
17 -10 58 -22 58 -6 0 -9 -30 -8 -70z"/>
<path d="M2151 3777 c-14 -80 -15 -257 -1 -257 6 0 10 17 10 39 0 23 6 44 16
52 12 10 14 24 10 63 -4 28 -8 75 -11 105 -3 30 -7 56 -9 58 -2 2 -9 -25 -15
-60z"/>
<path d="M7561 3744 c0 -11 3 -14 6 -6 3 7 2 16 -1 19 -3 4 -6 -2 -5 -13z"/>
<path d="M3500 3720 c0 -5 5 -10 10 -10 6 0 10 5 10 10 0 6 -4 10 -10 10 -5 0
-10 -4 -10 -10z"/>
<path d="M4530 3706 c-19 -13 -36 -32 -37 -42 -17 -132 -17 -127 4 -120 14 4
23 1 27 -9 4 -10 -1 -15 -15 -15 -20 0 -33 -21 -43 -72 -4 -18 -13 -28 -25
-28 -10 0 -20 -3 -23 -6 -8 -7 9 -67 32 -119 10 -22 26 -63 35 -92 29 -94 89
-155 199 -205 21 -10 44 -18 50 -18 7 0 30 -8 52 -19 21 -10 59 -21 84 -25 25
-4 55 -10 68 -13 20 -5 23 -2 20 19 -2 14 -12 33 -22 44 -22 21 -50 84 -42 92
3 3 15 10 28 16 32 16 33 34 1 48 -33 15 -42 23 -66 61 -24 38 -57 37 -57 -2
0 -17 5 -33 10 -36 18 -11 11 -25 -13 -25 -26 0 -50 16 -65 45 -6 11 -12 14
-12 7 0 -10 -5 -10 -22 2 -12 9 -32 16 -44 16 -20 0 -23 7 -29 76 -5 54 -4 82
5 99 7 14 10 37 7 54 -4 18 -2 31 3 31 7 0 8 28 5 75 -4 50 -2 81 7 94 17 27
-5 67 -45 81 -38 13 -35 13 -77 -14z"/>
<path d="M3187 3689 c-19 -11 -23 -34 -7 -44 6 -3 15 6 20 21 13 32 10 36 -13
23z"/>
<path d="M7530 3675 c0 -8 2 -15 4 -15 2 0 6 7 10 15 3 8 1 15 -4 15 -6 0 -10
-7 -10 -15z"/>
<path d="M4680 3639 c-18 -34 -3 -119 22 -119 4 0 8 -8 8 -18 0 -15 41 -62 54
-62 2 0 6 9 9 20 3 11 13 20 22 20 12 0 15 -5 10 -17 -18 -44 -18 -53 3 -53
23 0 31 31 29 107 -1 31 4 48 21 66 26 28 15 45 -16 26 -15 -9 -26 -7 -58 13
-54 34 -92 40 -104 17z m54 -87 c-7 -25 -22 -29 -30 -7 -7 18 16 49 27 38 5
-5 6 -18 3 -31z"/>
<path d="M5645 3633 c-58 -6 -270 -68 -292 -86 -19 -14 -16 -21 17 -35 29 -13
70 -9 70 8 0 8 36 20 75 25 50 7 101 26 117 44 9 10 24 24 34 29 24 13 17 18
-21 15z"/>
<path d="M5772 3583 c0 -21 -2 -62 -5 -92 -5 -48 -4 -52 8 -34 25 36 38 105
26 136 -15 39 -31 33 -29 -10z"/>
<path d="M5103 3274 c-18 -14 -33 -32 -33 -40 0 -21 12 -17 36 14 l23 27 -1
-30 c-1 -50 27 -91 74 -110 39 -14 47 -15 80 0 48 20 51 19 45 -6 -3 -12 0
-28 9 -36 8 -8 14 -25 14 -39 0 -25 15 -30 40 -14 12 8 11 10 -7 10 -26 0 -30
12 -9 29 21 18 -11 91 -40 91 -15 0 -26 12 -39 40 -39 86 -127 116 -192 64z
m157 -77 c0 -29 -26 -50 -54 -43 -32 8 -26 23 18 42 39 17 36 16 36 1z"/>
<path d="M2103 3203 c-14 -5 -18 -33 -5 -33 4 0 15 9 25 20 17 20 8 25 -20 13z"/>
<path d="M6055 3090 c-29 -5 -43 -34 -17 -36 6 -1 15 -2 18 -3 3 0 -8 -14 -25
-30 -17 -16 -31 -36 -31 -45 0 -9 -4 -16 -10 -16 -5 0 -10 -9 -10 -20 0 -19
10 -24 39 -21 21 3 7 -24 -15 -27 -10 -2 -26 -6 -34 -9 -36 -14 -121 -10 -118
6 2 19 -4 21 -18 6 -13 -13 -14 -18 -3 -31 7 -8 19 -12 27 -9 8 3 20 1 27 -5
7 -6 31 -13 52 -15 21 -2 59 -8 84 -14 63 -14 222 -17 226 -4 2 6 -6 11 -19
11 -13 0 -54 6 -93 12 -38 7 -79 13 -91 14 -17 1 -19 4 -10 21 6 11 30 40 53
65 41 43 51 60 36 60 -4 0 -18 -10 -31 -22 l-25 -23 12 23 c6 12 8 22 4 22 -4
0 3 7 15 16 24 17 30 39 8 31 -10 -4 -16 2 -18 21 -3 24 -6 27 -33 22z m-5
-110 c0 -5 -4 -10 -10 -10 -5 0 -10 5 -10 10 0 6 5 10 10 10 6 0 10 -4 10 -10z"/>
<path d="M5952 3058 c-10 -13 -28 -67 -20 -58 9 8 39 70 34 70 -2 0 -8 -6 -14
-12z"/>
<path d="M6162 2972 c-13 -17 -31 -34 -42 -37 -11 -4 -20 -10 -20 -15 0 -17
61 12 76 36 24 36 11 52 -14 16z"/>
<path d="M5869 2692 c-46 -23 -54 -33 -57 -59 -2 -18 3 -37 12 -46 9 -9 16
-20 16 -26 0 -6 9 -20 20 -31 11 -11 20 -29 20 -39 0 -11 5 -23 10 -26 6 -4
24 -31 41 -60 18 -31 40 -57 52 -60 12 -4 32 -11 43 -17 35 -17 77 9 85 52 3
19 8 41 10 49 3 11 -7 15 -39 16 -23 1 -45 5 -49 9 -4 3 10 21 29 39 38 35 64
102 53 137 -13 40 -110 90 -173 90 -11 0 -44 -13 -73 -28z"/>
<path d="M4000 2490 c0 -5 5 -10 10 -10 6 0 10 5 10 10 0 6 -4 10 -10 10 -5 0
-10 -4 -10 -10z"/>
<path d="M5991 2064 c0 -11 3 -14 6 -6 3 7 2 16 -1 19 -3 4 -6 -2 -5 -13z"/>
<path d="M6006 2023 c-11 -11 -6 -23 9 -23 8 0 15 4 15 9 0 13 -16 22 -24 14z"/>
<path d="M5959 1956 c-8 -17 -8 -29 0 -42 10 -18 11 -18 17 4 3 12 10 22 15
22 5 0 9 9 9 20 0 28 -28 25 -41 -4z"/>
<path d="M7562 1866 c2 -15 8 -26 13 -26 15 0 12 43 -3 48 -10 3 -13 -4 -10
-22z"/>
<path d="M7650 1855 c-7 -9 -8 -15 -2 -15 5 0 12 7 16 15 3 8 4 15 2 15 -2 0
-9 -7 -16 -15z"/>
<path d="M5065 1690 c-3 -5 3 -10 15 -10 12 0 18 5 15 10 -3 6 -10 10 -15 10
-5 0 -12 -4 -15 -10z"/>
<path d="M2116 1545 c-3 -9 -6 -32 -6 -51 0 -19 -7 -50 -14 -69 -15 -34 -14
-35 10 -41 23 -6 74 17 74 34 -1 4 -8 36 -18 71 -17 65 -34 86 -46 56z"/>
<path d="M1248 928 c3 -23 11 -48 18 -56 12 -11 14 -8 14 22 0 28 4 35 22 38
13 2 24 11 26 21 3 14 -4 17 -40 17 l-44 0 4 -42z"/>
<path d="M6986 932 c-10 -17 11 -33 33 -24 l23 8 -26 12 c-14 6 -27 8 -30 4z"/>
<path d="M6785 917 c-11 -8 -14 -16 -8 -20 6 -4 18 2 28 13 21 23 8 27 -20 7z"/>
<path d="M1327 870 c-14 -11 -28 -20 -32 -20 -13 0 -55 -50 -55 -65 0 -7 -9
-17 -20 -20 -11 -3 -20 -11 -20 -16 0 -12 87 -12 95 1 7 12 57 9 66 -3 9 -13
60 3 52 17 -4 6 -8 29 -8 51 0 34 -3 40 -23 43 -16 2 -22 8 -18 18 8 20 -7 17
-37 -6z"/>
<path d="M7268 875 c-3 -5 -13 -34 -22 -63 -19 -64 -1 -67 21 -3 13 40 15 87
1 66z"/>
<path d="M6838 815 c-9 -9 3 -54 18 -66 32 -27 62 29 32 59 -12 12 -41 16 -50
7z"/>
<path d="M840 741 c0 -5 7 -12 16 -15 24 -9 27 -7 10 9 -17 17 -26 19 -26 6z"/>
<path d="M7214 722 c-6 -10 -15 -33 -18 -52 -7 -34 -6 -33 14 9 21 45 24 75 4
43z"/>
<path d="M3575 650 c-3 -6 4 -10 17 -10 13 0 29 -5 35 -11 6 -6 16 -8 23 -4 7
5 2 12 -15 21 -32 17 -51 18 -60 4z"/>
<path d="M7170 604 c0 -8 5 -12 10 -9 6 3 10 10 10 16 0 5 -4 9 -10 9 -5 0
-10 -7 -10 -16z"/>
<path d="M6628 575 c-23 -30 -23 -47 1 -73 19 -23 41 -29 41 -12 0 6 -7 10
-15 10 -8 0 -15 9 -15 20 0 11 7 20 16 20 11 0 14 6 9 23 -11 35 -19 37 -37
12z"/>
<path d="M1230 570 c0 -5 5 -10 10 -10 6 0 10 5 10 10 0 6 -4 10 -10 10 -5 0
-10 -4 -10 -10z"/>
<path d="M1180 550 c0 -5 5 -10 10 -10 6 0 10 5 10 10 0 6 -4 10 -10 10 -5 0
-10 -4 -10 -10z"/>
<path d="M947 500 c-3 -11 -1 -20 4 -20 5 0 9 9 9 20 0 11 -2 20 -4 20 -2 0
-6 -9 -9 -20z"/>
<path d="M1396 504 c-9 -22 -8 -24 9 -24 8 0 15 9 15 20 0 24 -15 27 -24 4z"/>
<path d="M7006 471 c-4 -5 -2 -12 3 -15 5 -4 12 -2 15 3 4 5 2 12 -3 15 -5 4
-12 2 -15 -3z"/>
<path d="M6638 453 c-6 -26 5 -76 18 -80 6 -2 16 8 24 22 10 19 11 30 2 50
-13 29 -38 33 -44 8z"/>
<path d="M1390 445 c-7 -9 -10 -18 -7 -22 8 -7 37 15 37 28 0 14 -16 11 -30
-6z"/>
<path d="M7087 174 c-3 -19 -1 -24 10 -20 8 3 16 6 18 6 2 0 1 9 -2 20 -7 28
-20 25 -26 -6z"/>
<path d="M6445 107 c-4 -10 -5 -21 -1 -24 10 -10 18 4 13 24 -4 17 -4 17 -12
0z"/>
<path d="M6296 95 c-3 -8 -2 -15 3 -15 5 0 11 -9 14 -20 7 -25 22 -25 47 0 22
22 17 58 -6 40 -9 -8 -18 -8 -32 -1 -15 8 -21 7 -26 -4z"/>
<path d="M6886 44 c-24 -23 -20 -46 7 -42 16 2 23 11 25 31 4 30 -9 35 -32 11z"/>
</g>
</svg>
